<?xml version="1.0" encoding="UTF-8"?>
<svg id="OUTER" xmlns="http://www.w3.org/2000/svg" viewBox="0 0 546.01 207.35">
  <defs>
    <style>
      .cls-1 {
        stroke-width: 1.5px;
      }

      .cls-1, .cls-2 {
        fill: none;
        stroke: #000;
        stroke-linecap: round;
        stroke-linejoin: round;
      }

      .cls-2 {
        stroke-width: .23px;
      }
    </style>
  </defs>
  <path class="cls-1" d="M14.69,125.46c.14.2.1.34-.07.5-1.24,1.21-1.57,2.74-2.19,4.2-.34.82-1.3.64-1.69,1.38-.46.89-.27,1.73-.23,2.62.08,1.58-.91,2.09-1.96,2.82-4.81,3.31-2.12,7.25-1.65,11.27.33,2.82.46,5.63,1.33,8.39.24.76.47,1.32,1.42,1.33,1.75.01.58-1.68.58-2.62-.02-1.42-.14-2.67.99-3.87.45-.47.92-.51,1.17.14.8,2,.91,4.11,1.41,6.15.56,2.31,2.18,4.21,1.54,6.96-.26,1.13-1.28.17-1.88.5-1.25.67-.33,1.5.26,2.27,2.66,3.41,7.41.92,9.81,5,4.4,7.47,14.65,5.09,20.66,5.44,2.45.14,4.78,1.52,7.07-.9.5-.52.75-1.1.91-1.8.46-2.04,6.69-2.05,7.95-1.98.62.04.88.3,1.02.89.12.55.26,1.1.4,1.65.61,2.26,1.4,4.44,2.38,6.56,2.12,4.57,4.85,8.43,8.46,11.96,7.65,7.47,15.45,10.9,26.12,11.49,10.53.58,18.61-1.91,26.98-8.34,4.05-3.11,7.26-6.68,9.92-11.04,1.26-2.05,2.3-4.18,3.18-6.42.42-1.08.79-2.17,1.12-3.29.16-.54.31-1.09.45-1.64.07-.27.14-.55.2-.82,0-.02,0-.04.01-.05.26-1.16,3.53.31,4.13.39,2.01.29,4.24-.17,4.61,2.71.2,1.56,1.31,1.4,2.5,1.33,33-1.85,65.98-3.37,99.04-3.59,36.46-.25,72.88-.54,109.34,1.51,3.54.2,6.82,1.78,10.62.48.87-.3.55-1.01.6-1.62.15-1.62,9.36-3.6,9.7-1.94,0,.04.02.09.03.13.02.09.04.18.06.27.08.36.16.71.25,1.07.17.72.37,1.43.59,2.15.45,1.46.97,2.89,1.57,4.29,1.27,2.95,2.84,5.65,4.77,8.22,4.13,5.51,8.9,9.41,15.12,12.36,14.07,6.66,24.82,6.15,38.19-1.83,6.35-3.79,10.9-8.46,14.54-14.89,1.68-2.98,2.94-6.06,3.84-9.36.42-1.56.75-3.14.98-4.74.11-.77.21-1.56.27-2.34,0-.1.01-.19.02-.29.16-2.07,2.09-.11,3.13-.12,1.14-.01,2.26-.02,3.4.13,1.07.14,1.3.76,1.39,1.71.08.86.45,1.21,1.33,1.14,11.56-.89,22.92-3.25,34.47-4.21,2.07-.18,3.55,1.28,5.54,1.29,4.68.03,9.23-.65,13.83-1.29,3.25-.46,4.62-2.39,6.17-4.86.74-1.17-.98-1.08-1.37-1.72-1.27-2.05,5.26-11.7,5.85-13,1.36-2.97,3.64-5.32,2.74-9.21-.31-1.34-6.36-1.2-7.12-1.23-1.33-.05-2.66.02-3.99-.21-1.77-.3-.04-3.49.06-4.4.38-3.76,1.17-7.45,1.4-11.23.3-5-1.11-9.57-2.05-14.31-.4-1.97-1.85-3.42-2.13-5.46-.39-2.88-.69-5.77-.98-8.67-.23-2.36-.33-4.71-.25-7.08.04-1.05.88-.83,1.59-.88.67-.05,1.23-.12,1.15-.96-.21-2.16-.79-4.27-.77-6.48.03-3.31,1.52-6.48-1.44-9.6-6.83-7.21-14.07-13.9-21.71-20.23-4.24-3.51-8.54-6.93-12.96-10.22-2.16-1.62-4.35-3.19-6.58-4.72-.85-.58-2.32-.76-1.62-2.23.5-1.04,1.14-1.82,2.11-2.46,1.61-1.07,3.5-.98,5.16-1.8.45-.22-.09-.51-.41-.63-2.4-.89-4.9-1.22-7.38-1.71-11.98-2.33-24.03-3.65-36.15-4.74-2.69-.24-4.88-1.45-7.22-2.5-1.49-.67-3.44-.55-3.52-2.93-.08-2.44-1.53-2.81-3.63-2.83-3.58-.04-6.89.53-10.25,1.75-3.54,1.29-6.59-.17-9.89-.36-5.77-.34-11.54-.6-17.32-.79-25.64-.85-51.23-.32-76.85.31-12.7.31-25.33.33-37.97,2.49-5.15.88-9.66,3.59-14.89,4.29-7.11.94-14.19,1.94-21.19,3.62-8.77,2.09-16.44,5.86-24.05,10.48-19.49,11.83-38.75,24.03-57.89,36.44-3.5,2.27-6.77,4.86-10.48,6.83-2.7,1.43-4.45-.83-6.72-.98-5.05-.32-9.8.97-14.69,1.51-8.28.91-16.54,2.02-24.78,3.27-16.52,2.51-32.92,5.23-49.08,9.76-8.54,2.39-17.01,4.62-25.04,8.69-2.3,1.16-4.23,2.89-6.64,3.89-5.85,2.43-10.35,18.25-6.73,23.42Z"/>
  <path class="cls-2" d="M103.52,165.18c0-2.11-.87-2.98-2.98-2.98s-2.98.87-2.98,2.98.87,2.98,2.98,2.98,2.98-.87,2.98-2.98Z"/>
  <line class="cls-2" x1="399.56" y1="182.19" x2="399.53" y2="182.22"/>
  <path class="cls-2" d="M393.34,163.92c3.51-.21,5.63.12,7.65.47,2.02.35,3.96.71,5.53,1.05,1.57.35,2.77.69,3.65,1.12.87.44,1.42.97,1.53,1.53.11.56-.2,1.14-.83,2.1-.64.96-1.59,2.31-2.62,3.61-1.03,1.3-2.14,2.56-3.68,4.03-1.54,1.46-3.51,3.12-5.01,4.36"/>
  <line class="cls-2" x1="393.2" y1="163.94" x2="393.34" y2="163.92"/>
  <path class="cls-2" d="M509.84,144.71c.34,9.2.8,11.47,1.33,12.96.53,1.48,1.12,2.18,2.14,2.72,1.02.55,2.48.95,14.49,1.05"/>
  <path class="cls-2" d="M164.15,76.85c3.92-.05,6.19-.69,8.72-2.06,2.53-1.37,5.31-3.47,9.67-6.76,4.36-3.3,10.3-7.78,18.73-13.81,8.43-6.02,19.34-13.58,25.68-17.88,6.34-4.3,8.1-5.34,9.1-6.09,1-.74,1.23-1.18,1.31-1.49.07-.31-.01-.49.69-.8.7-.31,2.18-.75,4.1-1.39,1.92-.64,4.28-1.48,6.75-2.19,1.88-.55,3.83-1.02,6.15-1.45"/>
  <path class="cls-2" d="M438.85,180.36c4.2-5.12,5.8-10.05,5.37-16.66"/>
  <line class="cls-2" x1="79.66" y1="182.19" x2="79.63" y2="182.22"/>
  <path class="cls-2" d="M73.44,163.92c3.51-.21,5.63.12,7.65.47,2.02.35,3.96.71,5.53,1.05,1.57.35,2.77.69,3.65,1.12.87.44,1.42.97,1.53,1.53.11.56-.2,1.14-.83,2.1-.63.96-1.59,2.31-2.62,3.61-1.03,1.3-2.14,2.56-3.68,4.03-1.54,1.46-3.51,3.12-5.01,4.36"/>
  <line class="cls-2" x1="73.3" y1="163.94" x2="73.44" y2="163.92"/>
  <path class="cls-2" d="M404.91,28.49c-2.44-.27-2.92-.29-3.24-.12-.32.17-.48.53-.39,1.12.09.59.43,1.42,2.3,5.41,1.86,3.99,5.26,11.16,8.2,17.24,2.95,6.08,5.46,11.07,6.88,13.67,1.43,2.6,1.77,2.8,2.36,2.9.59.1,1.43.1,5.48-.14,4.04-.24,11.29-.72,15.36-1.11,4.07-.39,4.98-.69,5.88-1.23.9-.54,1.8-1.32,2.6-2.21.79-.88,1.48-1.86,1.99-2.87.51-1,.86-2.02,1.06-3.1.2-1.07.26-2.2.07-3.07-.19-.87-.64-1.49-1.94-2.95-1.3-1.45-3.47-3.74-6.12-6.26-2.65-2.52-5.78-5.27-8.6-7.37-2.82-2.11-5.33-3.57-7.13-4.55-1.81-.98-2.91-1.48-5.05-2.08-2.14-.59-5.31-1.28-9.09-1.87-3.78-.6-8.18-1.13-10.62-1.4Z"/>
  <line class="cls-2" x1="21.92" y1="105.33" x2="22.03" y2="105.2"/>
  <path class="cls-2" d="M17.33,123.43c.01-.64.03-1.27.05-1.91.02-.57.04-1.14.07-1.71.02-.57.06-1.14.09-1.71.07-1.01.15-2.02.24-3.03.02-.24.05-.48.07-.73s.05-.49.08-.73c.03-.23.06-.45.1-.68.02-.14.05-.28.07-.42.03-.16.06-.31.1-.47.04-.17.08-.34.13-.51.04-.13.07-.26.12-.39.03-.09.06-.19.1-.28.05-.13.1-.26.15-.38.1-.24.21-.48.33-.71.15-.3.32-.6.48-.9.19-.32.38-.64.59-.95.22-.34.45-.67.67-1,.37-.54.75-1.06,1.14-1.58"/>
  <path class="cls-2" d="M235,28.43c4.18-1.88,7.2-2.99,10.14-3.88,2.94-.89,5.8-1.56,9.24-2.25.5-.1,1.02-.2,1.54-.3"/>
  <path class="cls-2" d="M127.47,165.27c0-14.75-11.96-26.71-26.71-26.71s-26.71,11.96-26.71,26.71,11.96,26.71,26.71,26.71,26.71-11.96,26.71-26.71Z"/>
  <path class="cls-2" d="M175.28,81.32c-49.27,4.77-63.17,6.97-76.78,9.39-13.62,2.41-26.95,5.05-34.9,6.8-7.43,1.64-10.16,2.5-12.21,3.96"/>
  <path class="cls-2" d="M34.37,155.26c-14.52.06-15.6.34-16.33.5-.74.16-1.14.22-1.37.33-.23.12-.28.28-.08.49.2.2.66.44,1.21.63.54.19,1.17.34,3.32.45,2.14.11,5.8.18,8.2.26,2.4.07,3.54.13,4.19.2.65.06.79.13.86.42.07.29.06.82.02,1.23-.04.42-.1.73.04.98.15.25.5.44,1.04.35"/>
  <path class="cls-2" d="M76.78,163.88c-.37,6.44,1.19,11.29,5.25,16.32"/>
  <line class="cls-2" x1="25.61" y1="153.91" x2="26.86" y2="155.33"/>
  <path class="cls-2" d="M20.14,130.52c7.95.15,8.29.29,8.84.67.55.37,1.32.98,1.83,1.8.51.83.77,1.89.94,3.03.17,1.15.25,2.38.16,3.41-.09,1.03-.35,1.86-.69,2.52-.34.66-.76,1.15-1.13,1.43-.36.28-.67.37-1.05.42-.37.05-.81.08-6.18.23"/>
  <path class="cls-2" d="M386.03,18c1.73.05,3.52.11,5.4.17,9.83.34,22.18.86,33.39,1.59.73.05,1.47.1,2.19.15"/>
  <path class="cls-2" d="M6.29,139.84c1.4.83,1.62,2.43,1.83,3.88.21,1.44.41,2.73.55,3.65.14.92.22,1.48.51,1.8.3.33.81.43,1.38.45.57.01,1.21-.07,1.69-.03.48.04.83.2,1.22,1.18.39.98.82,2.78,1.27,4.53.45,1.75.91,3.43,1.24,4.85.33,1.42.55,2.56.59,3.34.04.78-.09,1.19-.35,1.43-.26.25-.64.33-2.19.15"/>
  <path class="cls-2" d="M128.53,165.39c0-15.4-12.48-27.88-27.88-27.88s-27.88,12.48-27.88,27.88,12.48,27.88,27.88,27.88,27.88-12.48,27.88-27.88Z"/>
  <path class="cls-2" d="M418.8,170.49c0-1.36-.56-1.92-1.92-1.92s-1.93.56-1.93,1.92.56,1.92,1.93,1.92,1.92-.56,1.92-1.92Z"/>
  <line class="cls-2" x1="410.94" y1="188.28" x2="410.9" y2="188.49"/>
  <path class="cls-2" d="M428.48,188.83c-.31-2.19-1.15-4.13-1.95-5.74-.81-1.61-1.59-2.89-2.45-4.08-.86-1.19-1.8-2.28-2.54-2.93-.73-.65-1.27-.84-1.81-.74-.54.09-1.08.49-1.81,1.25-.73.77-1.65,1.92-2.55,3.34-.9,1.42-1.78,3.12-2.57,4.63-.79,1.51-1.49,2.83-1.84,3.67,0,.01-.01.02-.02.04"/>
  <line class="cls-2" x1="491.34" y1="89.61" x2="520.15" y2="89.61"/>
  <line class="cls-2" x1="34.06" y1="151.82" x2="31.68" y2="155.28"/>
  <path class="cls-2" d="M277.26,19.35c1.69-.12,3.52-.25,5.54-.38,7.23-.47,16.86-1.02,24.79-1.34,7.92-.32,14.14-.4,23.75-.38,9.61.02,22.61.13,32.77.28,5.73.08,10.55.16,15.43.28"/>
  <path class="cls-2" d="M93.57,141.34c1.03,1.97,1.48,4.03,1.76,5.8.29,1.78.4,3.27.4,4.74,0,1.47-.13,2.91-.35,3.86-.22.95-.55,1.42-1.04,1.66-.5.24-1.17.24-2.2.04-1.04-.2-2.45-.6-4.01-1.23-1.56-.63-3.27-1.5-4.79-2.26-1.53-.77-2.87-1.43-3.63-1.91-.01,0-.02-.02-.04-.02"/>
  <path class="cls-2" d="M198.87,60.49c1.17-.91,2.41-1.85,3.73-2.85,4.91-3.73,11-8.24,16.63-12.15,5.62-3.91,10.78-7.2,15.43-9.75,4.66-2.55,8.82-4.36,13.13-5.83,4.31-1.48,8.77-2.61,13.46-3.4,4.69-.78,9.62-1.2,14.22-1.61,4.6-.41,8.88-.8,15.03-1.09,6.15-.28,14.17-.46,25.93-.52,11.76-.06,27.25-.01,39.84.06,12.59.07,22.29.16,29.88.45,7.6.28,13.1.75,18.74,1.3,5.64.56,11.42,1.21,15.85,2.1,4.43.88,7.51,2,11,3.87,3.5,1.86,7.41,4.48,11.19,7.41,3.77,2.94,7.41,6.2,10.02,8.83,2.61,2.64,4.19,4.64,4.99,6.31.79,1.68.79,3.03.28,4.52-.51,1.49-1.54,3.12-2.61,4.89-1.07,1.77-2.19,3.68-3.33,4.89-1.14,1.21-2.3,1.73-3.59,2.08-1.28.35-2.68.54-12.16,1.06-9.48.53-27.04,1.39-48.08,2.34-21.04.95-45.55,1.99-67.51,3.14-21.95,1.15-41.35,2.42-62.5,3.58-21.16,1.16-44.08,2.21-58.08,2.67-13.04.42-18.35.32-23.19-.85"/>
  <path class="cls-2" d="M410.93,188.09c6.29,2.68,11.67,2.85,18.11.55"/>
  <path class="cls-2" d="M95.3,167.37c0-.57-.23-.81-.81-.81s-.81.23-.81.81.23.81.81.81.81-.24.81-.81Z"/>
  <path class="cls-2" d="M510.42,67.95c3.31,2.24,3.83,3.23,4.06,4.05.24.81.19,1.46.05,3.09-.14,1.63-.38,4.24-.4,6.81-.02,2.57.18,5.1.33,8.5.15,3.4.25,7.67.45,10.98.2,3.3.5,5.63.79,7.55.29,1.93.57,3.45.92,4.54.35,1.08.77,1.73,1.03,2.74.26,1.01.35,2.4-.04,13"/>
  <line class="cls-2" x1="441.59" y1="152.02" x2="441.75" y2="151.87"/>
  <path class="cls-2" d="M427.67,141.34c-1.03,1.97-1.48,4.03-1.76,5.8-.28,1.78-.4,3.27-.4,4.74,0,1.47.13,2.91.35,3.86.22.95.55,1.42,1.04,1.66.5.24,1.16.24,2.2.04,1.04-.2,2.45-.6,4.01-1.23,1.56-.63,3.27-1.5,4.8-2.26,1.53-.77,2.87-1.43,3.63-1.91.01,0,.02-.02.04-.02"/>
  <path class="cls-2" d="M178.16,80.54c3.45,0,3.82.32,5.86.56,2.04.24,5.77.4,10.27.37h.14"/>
  <path class="cls-2" d="M147.93,76.13c.49.07.93.12,1.34.18.89.14,1.6.31,2.98.45,1.38.14,3.43.23,5.62.27,2.19.04,4.51.02,6.34-.19,1.83-.22,3.16-.64,4.62-1.33,1.46-.69,3.06-1.65,5.77-3.52,2.71-1.88,6.55-4.66,10.31-7.5,3.77-2.83,7.47-5.71,11.23-8.52,3.76-2.81,7.58-5.57,11.41-8.24,3.82-2.67,7.65-5.27,11.37-7.8,3.73-2.52,7.37-4.97,10.09-6.77,2.72-1.8,4.52-2.97,5.46-3.58.94-.61,1.01-.66,1.01-.77,0-.1-.09-.26-.64-.44-.55-.18-1.56-.39-2.61-.63-1.05-.25-2.15-.53-3.47-.96-.39-.12-.81-.27-1.22-.43"/>
  <line class="cls-2" x1="121.69" y1="152.02" x2="121.85" y2="151.87"/>
  <path class="cls-2" d="M107.77,141.34c-1.03,1.97-1.48,4.03-1.76,5.8-.28,1.78-.4,3.27-.39,4.74,0,1.47.13,2.91.35,3.86.22.95.54,1.42,1.04,1.66.5.24,1.16.24,2.2.04,1.04-.2,2.45-.6,4.01-1.23,1.56-.63,3.27-1.5,4.8-2.26,1.53-.77,2.87-1.43,3.63-1.91.01,0,.02-.02.04-.02"/>
  <path class="cls-2" d="M522.58,84.91c-1.21-.01-3.5-.04-8.28-.06"/>
  <path class="cls-2" d="M148.98,175.67c-.03-.67-.06-1.57-.1-2.77-.1-3.24-.26-8.76-1.03-14.9-.77-6.14-2.14-12.9-3.83-17.96-1.68-5.06-3.67-8.43-6.6-11.51-2.94-3.09-6.82-5.9-10.57-7.98-3.75-2.08-7.36-3.43-11.45-4.17-4.1-.75-8.69-.9-13.73-.79-5.05.11-10.55.47-15.09,1.42-4.54.95-8.12,2.48-10.9,3.99-2.78,1.51-4.77,3.01-7.14,5.08-2.37,2.06-5.12,4.7-7.11,7.29-1.99,2.6-3.21,5.17-4.2,7.71-.99,2.54-1.76,5.05-2.37,7.75-.61,2.71-1.07,5.61-1.41,9.01-.34,3.39-.55,7.28-.7,10.15-.15,2.87-.25,4.74-.37,5.97-.03.31-.06.58-.1.82"/>
  <path class="cls-2" d="M173.03,163.31c-2.01-13.75-2.68-22.08-3.07-28.77-.39-6.69-.51-11.72-.51-16.76s.12-10.07.49-14.01c.37-3.93.99-6.76,1.96-9.86.97-3.1,2.3-6.47,3.57-9.03,1.27-2.56,2.5-4.3,4.95-7.11,2.45-2.81,6.12-6.68,9.82-10.08,1.26-1.16,2.52-2.26,3.84-3.36"/>
  <line class="cls-2" x1="427.57" y1="139.51" x2="427.58" y2="139.47"/>
  <path class="cls-2" d="M443.07,151.01c-2.77,2.16-4.7,3.1-6.56,3.96-1.86.87-3.66,1.67-5.15,2.28-1.49.6-2.67,1.01-3.64,1.15-.97.13-1.72,0-2.13-.39-.41-.39-.48-1.05-.51-2.2-.03-1.15,0-2.8.1-4.46.11-1.66.31-3.32.74-5.4.44-2.08,1.11-4.56,1.64-6.44"/>
  <line class="cls-2" x1="443.18" y1="150.91" x2="443.07" y2="151.01"/>
  <path class="cls-2" d="M62.36,105.84c-2.46-2.06-3.98-2.55-5.11-2.87-1.13-.31-1.86-.46-2.66-.52-.8-.07-1.66-.06-2.13-.06s-.56,0-.62.01c-.06.02-.1.07.02.19.13.12.43.31.74.67.31.36.62.9.8,1.57.18.66.23,1.46.2,2.27-.03.8-.15,1.62-.48,2.47-.32.85-.86,1.74-1.37,2.63-.52.89-1.02,1.78-1.3,2.3-.28.53-.34.7-.42.86-.08.16-.18.32-.25.4-.07.09-.09.11-.14.1-.05,0-.12-.04-.14-.5-.02-.45,0-1.33-.02-2.5-.02-1.18-.1-2.66.14-10.68"/>
  <path class="cls-2" d="M413.47,141.34c1.03,1.97,1.48,4.03,1.76,5.8.28,1.78.4,3.27.4,4.74,0,1.47-.13,2.91-.35,3.86-.22.95-.55,1.42-1.04,1.66-.5.24-1.16.24-2.2.04-1.04-.2-2.45-.6-4.02-1.23-1.56-.63-3.27-1.5-4.79-2.26-1.53-.77-2.87-1.43-3.63-1.91-.01,0-.02-.02-.04-.02"/>
  <line class="cls-2" x1="121.69" y1="152.02" x2="121.85" y2="151.87"/>
  <path class="cls-2" d="M107.77,141.34c-1.03,1.97-1.48,4.03-1.76,5.8-.28,1.78-.4,3.27-.39,4.74,0,1.47.13,2.91.35,3.86.22.95.54,1.42,1.04,1.66.5.24,1.16.24,2.2.04,1.04-.2,2.45-.6,4.01-1.23,1.56-.63,3.27-1.5,4.8-2.26,1.53-.77,2.87-1.43,3.63-1.91.01,0,.02-.02.04-.02"/>
  <path class="cls-2" d="M22.83,118.64c5.21-1.34,11.19-2.73,16.73-3.63"/>
  <path class="cls-2" d="M30.04,132.03c-1.6,1.71-1.85,2.78-1.95,3.63-.1.85-.05,1.49.04,2.15.09.66.22,1.34.55,2.12.33.78.87,1.66,2.22,2.57"/>
  <line class="cls-2" x1="395.13" y1="163.94" x2="394.91" y2="163.97"/>
  <path class="cls-2" d="M400.51,180.64c1.96-1.03,3.51-2.47,4.75-3.78,1.24-1.31,2.19-2.47,3.02-3.68.83-1.2,1.54-2.46,1.9-3.37.36-.91.36-1.48.09-1.96-.27-.47-.83-.86-1.79-1.29-.97-.43-2.36-.91-4-1.27-1.64-.37-3.54-.62-5.23-.86-1.69-.24-3.17-.45-4.07-.5-.01,0-.03,0-.05,0"/>
  <path class="cls-2" d="M291.23,160.26c-3.13-30.07-2.76-41.49-2.23-50.17.54-8.68,1.24-14.61,2.32-20.45,1.09-5.84,2.55-11.59,4.56-19.6,2-8.01,4.54-18.29,6.69-27.31,2.15-9.02,3.9-16.79,4.45-19.35"/>
  <path class="cls-2" d="M439.81,181.14c4.46-5.34,6.16-10.51,5.74-17.46"/>
  <path class="cls-2" d="M78.8,164.05c-.29,5.82,1.15,10.23,4.8,14.77"/>
  <line class="cls-2" x1="26.4" y1="161.6" x2="18.49" y2="164.69"/>
  <path class="cls-2" d="M379.84,15.18c-3.24-.05-7.08-.07-12.22-.08-11.51-.01-29.5.05-43.98.29-14.48.24-25.46.67-34.62,1.13-2.9.15-5.62.29-8.13.44"/>
  <path class="cls-2" d="M280.89,16.96c.73-.35,1.55-.66,2.44-.93,2.15-.65,4.77-1.03,8.95-1.36,4.18-.32,9.92-.58,19.04-.74,9.12-.16,21.62-.22,33.42-.35,11.81-.12,22.91-.31,28.68-.39,5.76-.07,6.18-.04,6.42.02.23.05.29.12.27.33-.01.22-.09.59-.24,1.39-.01.08-.03.16-.04.25"/>
  <path class="cls-2" d="M379.84,15.18c-.14.79-.31,1.86-.32,2.43,0,.64.21.67,1.17.7.95.03,2.65.05,3.64.06.99,0,1.26,0,1.44,0,.18,0,.26-.02.28-.16.01-.15-.04-.42-.19-1.03-.13-.51-.31-1.26-.47-1.87"/>
  <path class="cls-2" d="M442.56,21.2c2.8.29,5.4.59,7.74.92"/>
  <path class="cls-2" d="M282.9,92.86c-1.17-.33-3.1-.32-6.99-.15-3.89.17-9.74.49-12.82.76-3.08.27-3.39.49-3.53.84-.13.35-.09.84-.07,1.2.02.36.02.61.3.73.27.13.83.14,4.32-.02,3.49-.16,9.92-.5,13.68-.66,3.75-.15,4.83-.13,5.57-.26.74-.14,1.13-.43,1.12-.92,0-.5-.41-1.18-1.58-1.52Z"/>
  <path class="cls-2" d="M469,169.11c0-1.18.04-2.96-.09-5.37-.15-2.97-.55-6.91-1.19-10.42-.65-3.52-1.54-6.62-2.54-9.71-1.01-3.09-2.12-6.19-3.42-8.8-1.3-2.61-2.79-4.75-4.72-6.78-1.93-2.03-4.31-3.96-6.82-5.55-2.52-1.58-5.17-2.82-8-3.77-2.84-.94-5.86-1.58-9.12-2.03-3.26-.45-6.75-.7-11.9-.49-5.15.21-11.96.88-16.88,1.79-4.92.9-7.94,2.04-11.12,4.05-3.18,2.01-6.53,4.88-9.01,7.61-2.47,2.72-4.09,5.3-5.52,8.36-1.44,3.06-2.7,6.6-3.68,10.19-.98,3.59-1.67,7.24-2.28,10.37-.61,3.13-1.13,5.76-1.34,8.28-.21,2.53-.11,4.96-.11,6.59,0,.44,0,.82-.02,1.15"/>
  <path class="cls-2" d="M412.81,14.99c2.71.28,4.6.56,6.08.82,1.73.31,2.89.62,4.07,1.09.66.27,1.33.59,1.93.96"/>
  <path class="cls-2" d="M424.89,17.87c-5.38.16-10.47-.13-13.11-.32-2.63-.19-2.82-.29-2.57-.58.07-.09.19-.2.37-.33"/>
  <line class="cls-2" x1="91.04" y1="188.28" x2="91" y2="188.49"/>
  <path class="cls-2" d="M108.58,188.83c-.31-2.19-1.15-4.13-1.95-5.74-.81-1.61-1.59-2.89-2.45-4.08-.86-1.19-1.8-2.28-2.53-2.93-.74-.65-1.28-.84-1.81-.74-.54.09-1.08.49-1.81,1.25-.73.77-1.65,1.92-2.55,3.34-.9,1.42-1.78,3.12-2.57,4.63-.8,1.51-1.49,2.83-1.84,3.67,0,.01-.01.02-.02.04"/>
  <path class="cls-2" d="M432.81,15.39c-.27-.07-.55-.15-.84-.22-2.7-.69-6.24-1.34-9.25-1.76-1.55-.22-2.95-.38-4.55-.52"/>
  <path class="cls-2" d="M424.89,17.87c.46.28.89.6,1.23.93.79.77,1.17,1.65,1.53,2.1.35.45.67.47,2.01.46,1.33-.01,3.68-.07,5.98.02,2.3.09,4.56.31,5.81.52,1.25.21,1.48.41,1.57.3.08-.11.01-.54-.79-1.4-.51-.55-1.3-1.27-2.25-1.98"/>
  <line class="cls-2" x1="19.1" y1="103.4" x2="19.07" y2="103.44"/>
  <line class="cls-2" x1="19.1" y1="103.4" x2="19.1" y2="103.4"/>
  <path class="cls-2" d="M94.88,144.04c-5.84,1.59-9.65,4.43-12.83,9.58"/>
  <path class="cls-2" d="M385.38,15.3c1.68.05,3.29.11,4.99.2,5.44.25,11.77.65,19.21,1.15"/>
  <path class="cls-2" d="M412.81,14.99c-.45-.05-.93-.09-1.43-.14-3.49-.33-8.2-.67-12.79-.96-4.59-.3-9.06-.55-11.31-.59-2.26-.05-2.3.11-2.27.37.02.26.11.62.28,1.28.03.11.06.23.09.35"/>
  <path class="cls-2" d="M409.58,16.64c.41-.31,1.16-.74,2.56-1.36.21-.09.44-.19.67-.29"/>
  <path class="cls-2" d="M461.12,168.49c1.96-24.62-18.33-45.27-42.98-43.74-24.65,1.53-42.24,24.52-37.25,48.71"/>
  <line class="cls-2" x1="441.59" y1="152.02" x2="441.75" y2="151.87"/>
  <path class="cls-2" d="M427.67,141.34c-1.03,1.97-1.48,4.03-1.76,5.8-.28,1.78-.4,3.27-.4,4.74,0,1.47.13,2.91.35,3.86.22.95.55,1.42,1.04,1.66.5.24,1.16.24,2.2.04,1.04-.2,2.45-.6,4.01-1.23,1.56-.63,3.27-1.5,4.8-2.26,1.53-.77,2.87-1.43,3.63-1.91.01,0,.02-.02.04-.02"/>
  <path class="cls-2" d="M276.24,20.32c.88-.06,1.84-.13,2.9-.19,4.92-.3,12.18-.63,21.31-.91,9.12-.28,20.12-.53,31.98-.65,11.86-.12,24.59-.14,33.95-.06,9.36.07,15.34.22,24.22.62,8.88.4,20.65,1.05,31.55,1.81,10.9.76,20.92,1.63,28.34,2.11"/>
  <line class="cls-2" x1="28.96" y1="151.55" x2="25.83" y2="155.34"/>
  <line class="cls-2" x1="27.22" y1="151.59" x2="25.61" y2="153.69"/>
  <path class="cls-2" d="M107.68,167.2c0-.57-.24-.81-.81-.81s-.81.23-.81.81.24.81.81.81.81-.24.81-.81Z"/>
  <line class="cls-2" x1="28.33" y1="157.89" x2="26.15" y2="160.55"/>
  <polyline class="cls-2" points="493.87 102.54 491.71 106.11 489.86 108.3 488.44 109.43 486.3 110.6 484.84 110.99 460.9 112.45 446.46 113.09"/>
  <line class="cls-2" x1="150.51" y1="101.42" x2="191.08" y2="99.01"/>
  <path class="cls-2" d="M440.02,180.55c-1.98-.99-3.55-2.41-4.81-3.69-1.27-1.28-2.23-2.43-3.08-3.62-.85-1.19-1.59-2.43-1.97-3.34-.38-.9-.39-1.47-.12-1.95.27-.48.81-.87,1.77-1.32.96-.45,2.34-.95,3.98-1.34,1.64-.4,3.53-.69,5.22-.96,1.68-.27,3.16-.51,4.06-.57.01,0,.03,0,.04,0"/>
  <polyline class="cls-2" points="491.34 89.61 490.96 89.61 490.82 89.17 493.26 87.04 494.11 86.94 496.08 86.54 520.12 86.54"/>
  <line class="cls-2" x1="395.13" y1="163.94" x2="394.91" y2="163.97"/>
  <path class="cls-2" d="M400.51,180.64c1.96-1.03,3.51-2.47,4.75-3.78,1.24-1.31,2.19-2.47,3.02-3.68.83-1.2,1.54-2.46,1.9-3.37.36-.91.36-1.48.09-1.96-.27-.47-.83-.86-1.79-1.29-.97-.43-2.36-.91-4-1.27-1.64-.37-3.54-.62-5.23-.86-1.69-.24-3.17-.45-4.07-.5-.01,0-.03,0-.05,0"/>
  <path class="cls-2" d="M528.06,115.51c-10.41.69-13.03.85-18.08,1.22-5.05.37-12.53.96-20.36,1.49-7.84.54-16.03,1.02-21.39,1.17"/>
  <line class="cls-2" x1="32.71" y1="158.05" x2="28.81" y2="162.47"/>
  <line class="cls-2" x1="29.5" y1="157.92" x2="33.61" y2="162.36"/>
  <line class="cls-2" x1="515.77" y1="109.36" x2="525.37" y2="109"/>
  <path class="cls-2" d="M31.15,157.97c.1,0,1.17,1.1,3.23,3.27"/>
  <path class="cls-2" d="M25.85,157.82c.27,3.27.48,3.78.73,4.1.25.32.52.45,1.35.51.82.06,2.19.05,3.09,0,.9-.05,1.34-.12,1.9-.15.56-.03,1.25,0,1.57-1.44"/>
  <line class="cls-2" x1="27.79" y1="151.58" x2="30.96" y2="155.28"/>
  <line class="cls-2" x1="79.66" y1="182.19" x2="79.63" y2="182.22"/>
  <path class="cls-2" d="M73.44,163.92c3.51-.21,5.63.12,7.65.47,2.02.35,3.96.71,5.53,1.05,1.57.35,2.77.69,3.65,1.12.87.44,1.42.97,1.53,1.53.11.56-.2,1.14-.83,2.1-.63.96-1.59,2.31-2.62,3.61-1.03,1.3-2.14,2.56-3.68,4.03-1.54,1.46-3.51,3.12-5.01,4.36"/>
  <line class="cls-2" x1="73.3" y1="163.94" x2="73.44" y2="163.92"/>
  <line class="cls-2" x1="31.06" y1="151.5" x2="27.87" y2="155.32"/>
  <path class="cls-2" d="M446.88,163.71c-3.51-.14-5.62.22-7.64.61-2.02.38-3.95.78-5.51,1.15-1.56.38-2.76.74-3.63,1.19-.87.45-1.4.99-1.5,1.56-.1.55.22,1.13.87,2.08.65.95,1.63,2.28,2.68,3.57,1.06,1.28,2.19,2.52,3.75,3.95,1.57,1.43,3.57,3.06,5.09,4.27"/>
  <path class="cls-2" d="M503.99,86.48c-1.57,1.68-1.74,2.73-1.81,3.65-.07.91-.04,1.69.05,2.39.09.69.24,1.3.36,1.89.12.58.22,1.15.62,2.31.4,1.16,1.11,2.92,2.09,4.3.98,1.37,2.25,2.37,4.49,3.65"/>
  <path class="cls-2" d="M33.81,162.09c-.8,1.23-1.88,1.66-3.35,1.98-1.47.32-3.32.55-4.97.79-1.65.24-3.12.5-4.13.56-1.01.07-1.58-.05-1.96-.12-.38-.08-.57-.11-.74-.33-.17-.22-.32-.62-.78-2.21-.46-1.59-1.23-4.36-1.74-6.49-.52-2.13-.79-3.61-.84-4.47-.06-.86.09-1.11,1.29-1.19,1.21-.09,3.46,0,15.07-.25"/>
  <polygon class="cls-2" points="153.25 102.37 164.06 101.76 164.48 101.76 164.67 102.11 164.41 102.69 161.53 104.19 160.16 104.9 158.56 105.38 157.18 105.38 156 104.96 154.46 104.06 153.41 103.1 153.25 102.37"/>
  <path class="cls-2" d="M120.12,180.55c-1.98-.99-3.55-2.41-4.81-3.69-1.27-1.28-2.24-2.43-3.08-3.62-.85-1.19-1.59-2.43-1.96-3.34-.38-.9-.39-1.47-.13-1.95.27-.48.81-.87,1.77-1.32.96-.45,2.34-.95,3.98-1.34,1.64-.4,3.53-.69,5.22-.96,1.68-.27,3.16-.51,4.06-.57.01,0,.03,0,.05,0"/>
  <line class="cls-2" x1="521.82" y1="144.93" x2="527.45" y2="144.91"/>
  <path class="cls-2" d="M94.41,142.22c-6.38,1.71-10.54,4.78-14.05,10.38"/>
  <path class="cls-2" d="M525.13,70.14c-7.71,1.27-9.83,1.83-11.22,2.29-1.39.46-2.06.82-2.8,1.54-.51.51-1.06,1.2-1.65,2.8"/>
  <path class="cls-2" d="M427.58,167.2c0-.57-.24-.81-.81-.81s-.81.23-.81.81.24.81.81.81.81-.24.81-.81Z"/>
  <path class="cls-2" d="M101.49,158.89c0-.61-.25-.87-.87-.87s-.87.25-.87.87.25.87.87.87.87-.25.87-.87Z"/>
  <path class="cls-2" d="M484.8,161.39c3.37-6.4,5.79-10.65,7.28-12.74"/>
  <path class="cls-2" d="M499.42,141.31c-5.19,7.13-10.07,13.82-14.62,20.08"/>
  <path class="cls-2" d="M93.57,141.34c1.03,1.97,1.48,4.03,1.76,5.8.29,1.78.4,3.27.4,4.74,0,1.47-.13,2.91-.35,3.86-.22.95-.55,1.42-1.04,1.66-.5.24-1.17.24-2.2.04-1.04-.2-2.45-.6-4.01-1.23-1.56-.63-3.27-1.5-4.79-2.26-1.53-.77-2.87-1.43-3.63-1.91-.01,0-.02-.02-.04-.02"/>
  <path class="cls-2" d="M416.31,163.56c0-1.36-.56-1.92-1.92-1.92s-1.93.56-1.93,1.92.56,1.92,1.93,1.92,1.92-.56,1.92-1.92Z"/>
  <path class="cls-2" d="M417.48,160c0-.57-.23-.81-.81-.81s-.81.23-.81.81.24.81.81.81.81-.24.81-.81Z"/>
  <path class="cls-2" d="M422.44,158.92c0-1.36-.56-1.93-1.92-1.93s-1.93.56-1.93,1.93.56,1.92,1.93,1.92,1.92-.56,1.92-1.92Z"/>
  <path class="cls-2" d="M104.2,165.14c0-2.59-1.07-3.66-3.66-3.66s-3.66,1.07-3.66,3.66,1.07,3.66,3.66,3.66,3.66-1.07,3.66-3.66Z"/>
  <path class="cls-2" d="M119.91,181.14c4.46-5.34,6.16-10.51,5.75-17.46"/>
  <path class="cls-2" d="M18.11,151.26c5.59.44,8.48.35,10.42.3,1.94-.06,2.92-.07,3.56-.06.64,0,.92.04,1.22.07.29.04.58.07.75.26.17.18.21.51.31,3.44"/>
  <path class="cls-2" d="M13.99,149.66c12.18.08,15.31.33,17.26.64,1.82.29,2.6.64,2.75,1.47"/>
  <line class="cls-2" x1="34.33" y1="158.45" x2="30.85" y2="162.45"/>
  <line class="cls-2" x1="107.67" y1="139.51" x2="107.68" y2="139.47"/>
  <path class="cls-2" d="M123.17,151.01c-2.77,2.16-4.7,3.1-6.56,3.96-1.86.87-3.66,1.67-5.15,2.28-1.49.6-2.67,1.01-3.64,1.15-.97.13-1.72,0-2.13-.39-.41-.39-.48-1.05-.51-2.2-.02-1.15,0-2.8.1-4.46.11-1.66.31-3.32.74-5.4.44-2.08,1.11-4.56,1.64-6.44"/>
  <line class="cls-2" x1="123.28" y1="150.91" x2="123.17" y2="151.01"/>
  <path class="cls-2" d="M446.88,163.71c-3.51-.14-5.62.22-7.64.61-2.02.38-3.95.78-5.51,1.15-1.56.38-2.76.74-3.63,1.19-.87.45-1.4.99-1.5,1.56-.1.55.22,1.13.87,2.08.65.95,1.63,2.28,2.68,3.57,1.06,1.28,2.19,2.52,3.75,3.95,1.57,1.43,3.57,3.06,5.09,4.27"/>
  <path class="cls-2" d="M47.17,156.4c-.48,5.46-.81,10.92-.97,16.38"/>
  <path class="cls-2" d="M126.98,163.71c-3.51-.14-5.62.22-7.64.61-2.02.38-3.95.78-5.51,1.15s-2.76.74-3.63,1.19c-.87.45-1.4.99-1.5,1.56-.1.55.22,1.13.87,2.08.65.95,1.63,2.28,2.68,3.57,1.06,1.28,2.19,2.52,3.75,3.95,1.57,1.43,3.57,3.06,5.09,4.27"/>
  <path class="cls-2" d="M193.7,68.27c-3.25,2.91-6.96,6.62-12.27,12.43"/>
  <path class="cls-2" d="M153.79,72.37c3.5,1.14,9.67,1.52,18.5,1.16"/>
  <path class="cls-2" d="M424.1,165.14c0-2.59-1.07-3.66-3.66-3.66s-3.66,1.07-3.66,3.66,1.07,3.66,3.66,3.66,3.66-1.07,3.66-3.66Z"/>
  <path class="cls-2" d="M438.98,92.15c13.74,3.43,22.15,8.41,32.34,16.7"/>
  <path class="cls-2" d="M414.78,144.04c-5.84,1.59-9.65,4.43-12.83,9.58"/>
  <path class="cls-2" d="M479.81,31.34c-.45,1.02-1.19,2.74-2.59,5.9"/>
  <path class="cls-2" d="M398.07,151.01c2.77,2.16,4.7,3.1,6.56,3.96,1.86.87,3.66,1.67,5.15,2.28,1.49.6,2.67,1.01,3.64,1.15.97.13,1.72,0,2.13-.39.41-.39.48-1.05.51-2.2.03-1.15.01-2.8-.1-4.46-.11-1.66-.31-3.32-.74-5.4-.43-2.08-1.11-4.56-1.64-6.44"/>
  <path class="cls-2" d="M204.38,81.19c2.2-.09,4.64-.2,7.38-.31,7.69-.33,17.78-.77,30.28-1.46,12.49-.69,27.39-1.63,41.95-2.43,14.56-.81,28.78-1.48,47.82-2.41,19.04-.93,42.91-2.12,59.04-2.9,16.13-.77,24.52-1.12,32.5-1.49,7.98-.37,15.53-.77,20.03-1.4,4.5-.63,5.93-1.5,7.07-2.52,1.14-1.03,1.98-2.22,2.82-3.6.84-1.39,1.69-2.97,2.04-4.35.36-1.38.23-2.54-.33-3.86-.57-1.33-1.59-2.81-3.49-4.89-1.91-2.08-4.71-4.76-7.29-7.04-2.58-2.29-4.95-4.18-6.75-5.58-1.8-1.4-3.03-2.31-4.56-3.22-1.53-.9-3.35-1.8-5.22-2.56-1.88-.76-3.81-1.4-6.06-1.9-2.25-.51-4.82-.88-8.22-1.3-3.41-.42-7.65-.89-11.12-1.19-3.47-.3-6.17-.43-12.66-.64-6.5-.21-16.79-.49-27.96-.66-11.17-.18-23.22-.24-36.96.02-13.74.25-29.17.81-39.91,1.34-10.74.53-16.81,1.03-21.49,1.72-4.69.68-8,1.55-10.44,2.25-2.44.7-4,1.24-5.91,1.99-1.9.74-4.15,1.68-8.99,4.5-4.84,2.82-12.26,7.51-19.14,12.16-5.55,3.75-10.75,7.46-15.39,10.97"/>
  <path class="cls-2" d="M423.42,165.18c0-2.11-.87-2.98-2.98-2.98s-2.98.87-2.98,2.98.87,2.98,2.98,2.98,2.98-.87,2.98-2.98Z"/>
  <path class="cls-2" d="M414.31,142.22c-6.38,1.71-10.54,4.78-14.05,10.38"/>
  <path class="cls-2" d="M415.25,163.53c0-.61-.25-.87-.87-.87s-.87.25-.87.87.26.87.87.87.87-.25.87-.87Z"/>
  <path class="cls-2" d="M398.07,151.01c2.77,2.16,4.7,3.1,6.56,3.96,1.86.87,3.66,1.67,5.15,2.28,1.49.6,2.67,1.01,3.64,1.15.97.13,1.72,0,2.13-.39.41-.39.48-1.05.51-2.2.03-1.15.01-2.8-.1-4.46-.11-1.66-.31-3.32-.74-5.4-.43-2.08-1.11-4.56-1.64-6.44"/>
  <path class="cls-2" d="M437.32,179.07c3.87-4.67,5.36-9.18,5-15.23"/>
  <path class="cls-2" d="M119.22,153.67c-3.16-5.14-6.95-7.99-12.76-9.6"/>
  <path class="cls-2" d="M415.18,72.16c3.22,10.51,3.8,12.09,3.98,13.46.18,1.37-.05,2.53-1.02,5.1-.97,2.58-2.69,6.56-8.72,19.86"/>
  <path class="cls-2" d="M398.7,164.05c-.29,5.82,1.15,10.23,4.81,14.77"/>
  <line class="cls-2" x1="427.67" y1="141.34" x2="427.72" y2="141.28"/>
  <line class="cls-2" x1="429.62" y1="190.25" x2="429.64" y2="190.3"/>
  <path class="cls-2" d="M410.33,189.96c.98-3.37,2.01-5.25,3.02-7.05,1.01-1.79,2-3.49,2.86-4.85.86-1.36,1.58-2.38,2.29-3.06.71-.68,1.39-1.01,1.95-.93.56.08,1,.57,1.69,1.49.7.92,1.64,2.27,2.52,3.68.88,1.41,1.69,2.88,2.55,4.82.86,1.94,1.76,4.35,2.42,6.18"/>
  <line class="cls-2" x1="410.3" y1="190.1" x2="410.33" y2="189.96"/>
  <line class="cls-2" x1="410.94" y1="188.28" x2="410.9" y2="188.49"/>
  <path class="cls-2" d="M428.48,188.83c-.31-2.19-1.15-4.13-1.95-5.74-.81-1.61-1.59-2.89-2.45-4.08-.86-1.19-1.8-2.28-2.54-2.93-.73-.65-1.27-.84-1.81-.74-.54.09-1.08.49-1.81,1.25-.73.77-1.65,1.92-2.55,3.34-.9,1.42-1.78,3.12-2.57,4.63-.79,1.51-1.49,2.83-1.84,3.67,0,.01-.01.02-.02.04"/>
  <path class="cls-2" d="M171.83,75.31c2.04.56,4.33,4.22,5.72,6.06"/>
  <line class="cls-2" x1="30.71" y1="157.96" x2="26.86" y2="162.19"/>
  <line class="cls-2" x1="429.62" y1="190.25" x2="429.64" y2="190.3"/>
  <path class="cls-2" d="M410.33,189.96c.98-3.37,2.01-5.25,3.02-7.05,1.01-1.79,2-3.49,2.86-4.85.86-1.36,1.58-2.38,2.29-3.06.71-.68,1.39-1.01,1.95-.93.56.08,1,.57,1.69,1.49.7.92,1.64,2.27,2.52,3.68.88,1.41,1.69,2.88,2.55,4.82.86,1.94,1.76,4.35,2.42,6.18"/>
  <line class="cls-2" x1="410.3" y1="190.1" x2="410.33" y2="189.96"/>
  <path class="cls-2" d="M10.65,135.98s0,.08.01.12c.07.97.09,1.43.07,1.76-.02.33-.08.54-.18.7-.11.15-.26.26-.46.39-.2.13-.45.3-2.9.34"/>
  <path class="cls-2" d="M140.36,174.2c5.68-25.21-13.32-49.25-39.17-49.52-25.84-.28-45.36,23.34-40.22,48.67"/>
  <path class="cls-2" d="M193.56,73.5c.1-7.29.39-9,.81-10.16.45-1.24,1.03-1.87,2.18-2.31,1.14-.44,2.85-.68,4.76-.71,1.9-.02,4,.18,5.44.68,1.43.5,2.2,1.29,2.83,2.58.63,1.29,1.14,3.1,1.34,5.12.2,2.02.11,4.26-.08,5.86-.19,1.6-.46,2.57-1.59,3.68-1.13,1.11-3.11,2.34-5.02,3-1.9.66-3.73.73-5.33.76-1.6.03-2.99.02-3.97-.32-.98-.35-1.56-1.03-2.33-1.82-.77-.79-1.74-1.69-2.38-2.47-.63-.79-.93-1.47-.88-2.03.05-.56.46-.98,1.7-1.34,1.25-.36,3.34-.66,6.34-1.05,2.96-.38,6.81-.86,11.64-.81"/>
  <line class="cls-2" x1="520.41" y1="94.18" x2="487.66" y2="94.78"/>
  <line class="cls-2" x1="484.66" y1="85.97" x2="419.01" y2="88.04"/>
  <line class="cls-2" x1="520.28" y1="90.66" x2="485.77" y2="90.66"/>
  <line class="cls-2" x1="109.72" y1="190.25" x2="109.74" y2="190.3"/>
  <path class="cls-2" d="M90.43,189.96c.98-3.37,2.01-5.25,3.02-7.05,1.01-1.79,2-3.49,2.86-4.85.86-1.36,1.58-2.38,2.29-3.06.71-.68,1.39-1.01,1.95-.93.56.08,1,.57,1.69,1.49.7.92,1.64,2.27,2.52,3.68.88,1.41,1.69,2.88,2.55,4.82.86,1.94,1.76,4.35,2.42,6.18"/>
  <line class="cls-2" x1="90.4" y1="190.1" x2="90.43" y2="189.96"/>
  <path class="cls-2" d="M12.32,130.37c2.62-.03,2.88.38,3.15,1.22.27.83.56,2.08,1.07,3.8.51,1.72,1.23,3.9,1.75,5.63.52,1.73.84,3.01,1.27,3.8.43.79.97,1.09,2,1.32,1.04.23,2.56.39,4.11.49,1.56.11,3.13.16,4.44.24,1.3.08,2.33.19,3.27.38.94.2,1.8.49,2.3.92.5.44.65,1.02.77,1.73.13.72.23,1.57.28,2.67.05,1.1.03,2.44.07,3.16.04.71.13.79.31.85.18.06.44.1,1.79.06,1.35-.03,3.78-.14,5.21-.38,1.42-.24,1.83-.62,2.11-1.07.27-.45.42-.96.65-1.92.23-.96.55-2.35.88-4.01.33-1.67.69-3.6,1.31-5.72.61-2.12,1.49-4.42,2.71-6.91,1.22-2.49,2.78-5.17,4.62-7.71,1.85-2.55,3.98-4.98,6.23-7,2.25-2.02,4.63-3.63,7.11-5.05,2.48-1.42,5.06-2.66,8.11-3.8,3.06-1.14,6.6-2.18,9.76-2.81,3.16-.63,5.93-.86,9.34-1.04,3.41-.19,7.45-.35,11.78-.1,4.33.24,8.93.88,12.95,1.96,4.02,1.07,7.46,2.59,10.72,4.49,3.27,1.9,6.36,4.21,8.84,6.64,2.47,2.44,4.32,5,5.97,7.87,1.64,2.87,3.07,6.04,4.47,10.16,1.4,4.12,2.76,9.17,3.74,13.01.98,3.83,1.58,6.44,2.13,8.06.55,1.63,1.04,2.27,1.68,2.72.64.45,1.43.72,2.7.7,1.27-.02,3-.32,5.03-.66,2.04-.35,4.37-.73,11.53-1.05,7.16-.32,19.15-.56,34.14-.9,14.99-.33,32.97-.76,47.66-1.12,14.7-.35,26.1-.62,38.72-.88,12.62-.26,26.44-.5,36.31-.57,9.87-.06,15.79.07,19.78.13,3.99.06,6.06.06,7.41-.26,1.35-.32,2-.96,2.82-2.68.82-1.71,1.83-4.5,2.83-7.52,1-3.02,2.01-6.27,3.26-9.64,1.25-3.37,2.74-6.87,4.98-10.11,2.24-3.24,5.22-6.22,8.58-8.79,3.36-2.57,7.1-4.72,11.04-6.34,3.95-1.62,8.1-2.72,11.9-3.46,3.79-.73,7.23-1.11,10.95-1.23,3.72-.11,7.72.04,11.65.36,3.93.32,7.78.81,11.8,1.85,4.02,1.04,8.21,2.62,11.53,4.34,3.32,1.72,5.78,3.57,8.04,5.8,2.27,2.23,4.34,4.83,5.85,7.21,1.51,2.38,2.45,4.53,3.32,6.68.87,2.15,1.66,4.3,2.17,6.21.51,1.9.74,3.57,1.06,4.76.32,1.19.73,1.91,1.23,2.45.49.55,1.06.93,1.9,1.17.85.25,1.98.36,4.14.07,2.16-.29,5.34-1,7.35-1.69,2.01-.69,2.86-1.37,3.76-2.49.9-1.12,1.86-2.66,2.73-4.15.87-1.49,1.65-2.92,2.62-4.41.98-1.49,2.15-3.06,3.73-4.27,1.59-1.21,3.58-2.07,5.53-2.73,1.95-.66,3.85-1.11,5.58-1.39,1.73-.28,3.29-.37,4.48-.25,1.18.12,2,.46,2.78.93.78.47,1.53,1.07,2.19,1.85.67.77,1.25,1.71,1.76,2.57.5.85.92,1.62,1.45,2.02.25.2.53.31.87.38"/>
  <line class="cls-2" x1="107.67" y1="139.51" x2="107.68" y2="139.47"/>
  <path class="cls-2" d="M123.17,151.01c-2.77,2.16-4.7,3.1-6.56,3.96-1.86.87-3.66,1.67-5.15,2.28-1.49.6-2.67,1.01-3.64,1.15-.97.13-1.72,0-2.13-.39-.41-.39-.48-1.05-.51-2.2-.02-1.15,0-2.8.1-4.46.11-1.66.31-3.32.74-5.4.44-2.08,1.11-4.56,1.64-6.44"/>
  <line class="cls-2" x1="123.28" y1="150.91" x2="123.17" y2="151.01"/>
  <path class="cls-2" d="M120.12,180.55c-1.98-.99-3.55-2.41-4.81-3.69-1.27-1.28-2.24-2.43-3.08-3.62-.85-1.19-1.59-2.43-1.96-3.34-.38-.9-.39-1.47-.13-1.95.27-.48.81-.87,1.77-1.32.96-.45,2.34-.95,3.98-1.34,1.64-.4,3.53-.69,5.22-.96,1.68-.27,3.16-.51,4.06-.57.01,0,.03,0,.05,0"/>
  <path class="cls-2" d="M392.25,26.2c9.07,18.5,20.66,41.83,21.63,44.41"/>
  <path class="cls-2" d="M415.59,70.54c-6.54-14.01-13.66-28.76-21.34-44.27"/>
  <path class="cls-2" d="M95.35,163.53c0-.61-.25-.87-.87-.87s-.87.25-.87.87.26.87.87.87.87-.25.87-.87Z"/>
  <path class="cls-2" d="M425.03,159.94c0-.57-.23-.81-.81-.81s-.81.24-.81.81.23.81.81.81.81-.24.81-.81Z"/>
  <path class="cls-2" d="M97.84,170.47c0-.61-.25-.87-.87-.87s-.87.26-.87.87.26.87.87.87.87-.25.87-.87Z"/>
  <path class="cls-2" d="M21.87,118.51c-1.91,2.57-4.48,4.86-6.12,6.39-.32.3-.61.57-.87.82"/>
  <path class="cls-2" d="M21.67,107.19c-.07.09-.13.19-.2.28-.22.33-.44.65-.66.98-.19.29-.36.58-.54.88-.15.26-.3.52-.43.79-.1.2-.19.4-.28.61-.06.13-.11.26-.16.39-.04.1-.07.2-.1.29-.04.11-.07.22-.1.34-.04.13-.07.27-.1.41-.04.14-.06.28-.09.42-.03.14-.05.27-.07.42-.04.2-.06.41-.09.62-.06.44-.11.88-.15,1.32-.1,1.02-.18,2.04-.25,3.06-.02.33-.04.66-.06.99"/>
  <path class="cls-2" d="M428.42,163.2c0-1.36-.56-1.92-1.93-1.92s-1.93.57-1.93,1.92.56,1.93,1.93,1.93,1.93-.56,1.93-1.93Z"/>
  <path class="cls-2" d="M121.91,151.96c-3.66-5.85-8.02-9.07-14.68-10.85"/>
  <path class="cls-2" d="M20.73,110.36s-.01.02-.01.03c-.09.18-.18.36-.27.55-.06.12-.11.25-.16.39-.04.09-.07.18-.11.28-.04.1-.07.2-.1.3-.04.15-.08.3-.12.45-.03.13-.06.25-.08.38-.03.14-.05.28-.07.42-.02.1-.03.2-.05.29-.02.12-.03.23-.05.35"/>
  <path class="cls-2" d="M105.14,159.94c0-.57-.24-.81-.81-.81s-.81.24-.81.81.24.81.81.81.81-.24.81-.81Z"/>
  <path class="cls-2" d="M286.01,76.87c7.21-13.17,16.46-46.74,17.24-50.82"/>
  <path class="cls-2" d="M460.06,31.63c6.11-1.05,12.59-2.41,17.18-3.53,4.59-1.12,7.3-1.99,10.4-2.24"/>
  <path class="cls-2" d="M91.36,187.2c6.06,2.54,11.21,2.66,17.38.4"/>
  <path class="cls-2" d="M301.71,76.05c.3-10.41,5.74-39.86,10.32-50.28"/>
  <path class="cls-2" d="M262.12,18.53c-1.83.79-3.41,1.6-4.54,2.29-1.89,1.16-2.5,1.99-2.77,2.41-.27.43-.19.45,1.82.16,2.02-.28,5.97-.87,9.26-1.26,3.29-.39,5.91-.58,7.37-.67,1.46-.09,1.76-.08,2.32-.55.57-.47,1.4-1.44,2.65-2.37.73-.55,1.61-1.09,2.64-1.57"/>
  <path class="cls-2" d="M461.22,31.43c2.9.08,5.25.97,7.88,2.07,2.64,1.1,5.56,2.43,7.17,3.23,1.62.81,1.93,1.12,2.41,1.6.49.48,1.15,1.13,3.84,3.54,2.69,2.41,7.41,6.58,10.98,9.75,3.57,3.18,5.99,5.37,8.01,7.02,2.02,1.65,3.62,2.75,5.02,3.61,1.4.85,2.58,1.46,3.93,1.95,1.35.5,2.86.88,4.59,1.09,1.73.21,3.68.23,5.76.14"/>
  <line class="cls-2" x1="25.59" y1="155.35" x2="25.63" y2="151.6"/>
  <line class="cls-2" x1="33.1" y1="151.54" x2="30.1" y2="155.29"/>
  <line class="cls-2" x1="27.06" y1="157.85" x2="31.71" y2="162.39"/>
  <path class="cls-2" d="M530.36,142.11c-.26-.07-.59.37-.94.89-.35.51-.71,1.1-.96,1.82-.25.71-.39,1.55-.2,1.9.18.35.68.2,1.18-.45.51-.64,1.02-1.79,1.19-2.65.17-.86-.01-1.44-.27-1.51Z"/>
  <line class="cls-2" x1="526.93" y1="160.2" x2="514.32" y2="160.17"/>
  <path class="cls-2" d="M78.17,151.01c2.77,2.16,4.7,3.1,6.56,3.96,1.87.87,3.66,1.67,5.15,2.28,1.49.6,2.67,1.01,3.64,1.15.97.13,1.72,0,2.13-.39.41-.39.48-1.05.5-2.2.02-1.15.01-2.8-.1-4.46-.11-1.66-.31-3.32-.74-5.4-.43-2.08-1.11-4.56-1.64-6.44"/>
  <path class="cls-2" d="M425.14,170.27c0-.61-.25-.87-.87-.87s-.87.25-.87.87.25.87.87.87.87-.25.87-.87Z"/>
  <path class="cls-2" d="M510.85,168.44c8.26-1.28,8.8-1.66,9.54-2.54.74-.88,1.7-2.25,2.44-4.09"/>
  <path class="cls-2" d="M98.9,170.49c0-1.36-.56-1.92-1.92-1.92s-1.93.56-1.93,1.92.56,1.92,1.93,1.92,1.92-.56,1.92-1.92Z"/>
  <line class="cls-2" x1="399.56" y1="182.19" x2="399.53" y2="182.22"/>
  <path class="cls-2" d="M393.34,163.92c3.51-.21,5.63.12,7.65.47,2.02.35,3.96.71,5.53,1.05,1.57.35,2.77.69,3.65,1.12.87.44,1.42.97,1.53,1.53.11.56-.2,1.14-.83,2.1-.64.96-1.59,2.31-2.62,3.61-1.03,1.3-2.14,2.56-3.68,4.03-1.54,1.46-3.51,3.12-5.01,4.36"/>
  <line class="cls-2" x1="393.2" y1="163.94" x2="393.34" y2="163.92"/>
  <path class="cls-2" d="M21.04,102.17c1.88.43,2.37,1.01,2.54,1.62.18.61.03,1.27-.4,2.48-.43,1.21-1.15,2.98-1.91,5.55-.76,2.57-1.57,5.93-2.78,10.5"/>
  <path class="cls-2" d="M126.98,163.71c-3.51-.14-5.62.22-7.64.61-2.02.38-3.95.78-5.51,1.15s-2.76.74-3.63,1.19c-.87.45-1.4.99-1.5,1.56-.1.55.22,1.13.87,2.08.65.95,1.63,2.28,2.68,3.57,1.06,1.28,2.19,2.52,3.75,3.95,1.57,1.43,3.57,3.06,5.09,4.27"/>
  <path class="cls-2" d="M160.69,77.05c-1.38,2.26-3.4,2.85-7.48,3.58-4.08.72-10.23,1.58-18.52,2.45-8.29.87-18.72,1.76-30.88,3.35-12.16,1.59-26.04,3.88-36.73,6.16-10.69,2.28-18.18,4.54-23.83,6.59-3.88,1.41-6.89,2.71-9.67,4.87"/>
  <path class="cls-2" d="M102.55,158.92c0-1.36-.57-1.93-1.93-1.93s-1.93.56-1.93,1.93.56,1.92,1.93,1.92,1.93-.56,1.93-1.92Z"/>
  <path class="cls-2" d="M277.77,92.64c-.17-.32-.4-.64-.71-.98-.8-.86-2.12-1.8-3.95-2.25-1.83-.45-4.17-.39-5.96.1-1.79.49-3.03,1.43-3.69,2.34-.38.54-.57,1.08-.63,1.64"/>
  <path class="cls-2" d="M396.68,163.88c-.37,6.44,1.19,11.29,5.25,16.32"/>
  <path class="cls-2" d="M384.93,90.28c.15.62.37,1.22.72,1.71.63.89,1.68,1.42,3.49,1.7,1.82.28,4.41.3,6.34-.1,1.93-.4,3.18-1.24,3.87-2.24.39-.56.6-1.18.69-1.78"/>
  <path class="cls-2" d="M514.46,75.88c-9.02,1.35-14.82,3.5-18.94,5.19-4.12,1.69-6.56,2.92-8.32,4.18-1.75,1.25-2.83,2.52-3.29,3.66-.46,1.14-.32,2.14.58,3.78.89,1.63,2.53,3.89,4.33,5.77,1.79,1.88,3.74,3.37,5.53,4.36,1.79.99,3.41,1.48,5.84,1.71,2.43.23,5.66.2,8.62.15,2.96-.04,5.64-.09,7.46-.21,1.82-.12,2.78-.32,3.44-.67.66-.35,1.02-.85,1.22-4.52.2-3.67.25-10.49.11-14.39"/>
  <line class="cls-2" x1="466.06" y1="146.41" x2="474.08" y2="146.06"/>
  <path class="cls-2" d="M278.43,92.62c.62.76.76,1.73.41,2.91"/>
  <path class="cls-2" d="M399.65,86.64c-.17-.32-.4-.65-.71-.98-.8-.86-2.12-1.8-3.95-2.25-1.83-.45-4.17-.39-5.96.1-1.79.49-3.03,1.43-3.69,2.34-.39.54-.57,1.08-.63,1.65"/>
  <path class="cls-2" d="M400.32,86.62c.62.75.76,1.73.41,2.91"/>
  <path class="cls-2" d="M404.78,86.87c-1.17-.34-3.1-.32-6.99-.16-3.89.17-9.74.49-12.82.76-3.08.27-3.39.49-3.53.84-.14.35-.1.84-.07,1.2.02.36.02.6.3.73.27.13.83.14,4.32-.02,3.49-.16,9.92-.5,13.68-.66,3.75-.15,4.83-.13,5.57-.26.74-.14,1.13-.43,1.12-.92,0-.49-.41-1.18-1.58-1.52Z"/>
  <line class="cls-2" x1="25.94" y1="158.82" x2="29.89" y2="162.47"/>
  <path class="cls-2" d="M97.58,160c0-.57-.23-.81-.81-.81s-.81.23-.81.81.23.81.81.81.81-.24.81-.81Z"/>
  <line class="cls-2" x1="75.23" y1="163.94" x2="75.01" y2="163.97"/>
  <path class="cls-2" d="M80.61,180.64c1.96-1.03,3.51-2.47,4.75-3.78,1.24-1.31,2.19-2.47,3.02-3.68.83-1.2,1.54-2.46,1.9-3.37.36-.91.36-1.48.08-1.96-.27-.47-.82-.86-1.79-1.29-.97-.43-2.36-.91-4-1.27-1.64-.37-3.54-.62-5.23-.86-1.69-.24-3.17-.45-4.07-.5-.01,0-.03,0-.04,0"/>
  <path class="cls-2" d="M107.46,163.18c0-.62-.25-.87-.87-.87s-.87.25-.87.87.25.87.87.87.87-.25.87-.87Z"/>
  <path class="cls-2" d="M105.24,170.27c0-.61-.25-.87-.87-.87s-.87.25-.87.87.26.87.87.87.87-.25.87-.87Z"/>
  <path class="cls-2" d="M502.53,137.32c3.78-3.59,10.26-5.48,18.61-6.5"/>
  <line class="cls-2" x1="488.69" y1="96.38" x2="520.26" y2="96.38"/>
  <line class="cls-2" x1="486.18" y1="93.01" x2="520.33" y2="93.01"/>
  <line class="cls-2" x1="91.04" y1="188.28" x2="91" y2="188.49"/>
  <path class="cls-2" d="M108.58,188.83c-.31-2.19-1.15-4.13-1.95-5.74-.81-1.61-1.59-2.89-2.45-4.08-.86-1.19-1.8-2.28-2.53-2.93-.74-.65-1.28-.84-1.81-.74-.54.09-1.08.49-1.81,1.25-.73.77-1.65,1.92-2.55,3.34-.9,1.42-1.78,3.12-2.57,4.63-.8,1.51-1.49,2.83-1.84,3.67,0,.01-.01.02-.02.04"/>
  <line class="cls-2" x1="75.23" y1="163.94" x2="75.01" y2="163.97"/>
  <path class="cls-2" d="M80.61,180.64c1.96-1.03,3.51-2.47,4.75-3.78,1.24-1.31,2.19-2.47,3.02-3.68.83-1.2,1.54-2.46,1.9-3.37.36-.91.36-1.48.08-1.96-.27-.47-.82-.86-1.79-1.29-.97-.43-2.36-.91-4-1.27-1.64-.37-3.54-.62-5.23-.86-1.69-.24-3.17-.45-4.07-.5-.01,0-.03,0-.04,0"/>
  <path class="cls-2" d="M49.56,104.58c-3.54.91-5.25,1.14-6.3,1.27-1.04.14-1.42.18-1.69.26-.27.08-.44.19-.56.38-.13.18-.23.42-.26,2.02-.04,1.59-.01,4.54.03,6.1.05,1.56.12,1.73.27,1.87.15.14.37.25.96.3.58.05,1.53.05,2.5.07.96.02,1.94.05,3.78.7"/>
  <path class="cls-2" d="M524.4,136.64c-.34-.65-.8-1.24-1.54-1.58-.73-.34-1.74-.44-3.04-.35-1.3.08-2.9.35-4.3.77-1.4.42-2.61,1-3.39,1.5-.78.5-1.15.91-1.32,1.28-.16.37-.12.69.44.84.56.15,1.63.13,3.41.01,1.78-.11,4.26-.31,6.13-.39,1.86-.09,3.11-.06,3.63-.4.52-.34.32-1.04-.01-1.68Z"/>
  <path class="cls-2" d="M26.2,160.84c1.34,1.08,2.02,1.52,2.03,1.32"/>
  <path class="cls-2" d="M19.1,103.4c.17-.21.23-.29.29-.4.1-.19.2-.45.41-.6.2-.14.51-.18.82-.19.31-.02.62-.02,1.42-.49.8-.47,2.1-1.41,4.2-2.6,2.1-1.19,4.99-2.62,10.48-4.56,5.49-1.94,13.59-4.39,19.72-6.01,6.13-1.62,10.29-2.42,14.84-3.32,4.54-.91,9.47-1.92,14.81-2.88,5.34-.97,11.09-1.88,16.73-2.74,5.65-.86,11.2-1.65,16.36-2.28,5.17-.63,9.95-1.1,13.61-1.56,3.67-.46,6.22-.9,8.27-.87,2.05.04,3.62.56,4.93.87.71.17,1.36.27,1.93.36"/>
  <path class="cls-2" d="M22.91,171.49c-.69-1.03-1.56-2-2.44-2.77-.88-.78-1.77-1.36-2.6-1.73-.82-.37-1.59-.52-2.13-.57-.54-.05-.86,0-1.42,0"/>
  <line class="cls-2" x1="20.5" y1="104.27" x2="20.85" y2="103.78"/>
  <path class="cls-2" d="M15.54,125.1c.01-1.05.03-2.1.06-3.15.03-.96.07-1.92.12-2.88.04-.78.09-1.56.15-2.33.03-.33.05-.67.08-1,.03-.32.06-.64.09-.95.02-.29.06-.58.09-.87.02-.21.05-.42.07-.63.02-.15.04-.3.06-.45.02-.12.04-.24.06-.36.04-.22.08-.45.13-.67.05-.23.11-.46.17-.68.05-.17.1-.34.15-.5.04-.12.08-.24.12-.36.07-.2.15-.4.24-.59.1-.24.21-.47.32-.7.14-.28.29-.55.44-.82.2-.34.4-.68.61-1.02.25-.38.5-.76.76-1.14.4-.58.81-1.15,1.23-1.72"/>
  <line class="cls-2" x1="25.63" y1="151.77" x2="28.81" y2="155.3"/>
  <path class="cls-2" d="M412.1,185.27c5.49,2.29,10.18,2.41,15.79.41"/>
  <line class="cls-2" x1="487.76" y1="86.02" x2="513.03" y2="85.43"/>
  <path class="cls-2" d="M521.75,144.9c1.9.96,2.01,2.15,1.84,3.24-.16,1.1-.6,2.11-1.36,3.5-.75,1.38-1.83,3.14-3.07,4.61-1.25,1.46-2.67,2.64-4.81,3.46"/>
  <line class="cls-2" x1="107.77" y1="141.34" x2="107.82" y2="141.28"/>
  <line class="cls-2" x1="19.79" y1="103.75" x2="19.93" y2="103.56"/>
  <path class="cls-2" d="M14.65,125.39c0-1.1.03-2.19.06-3.29.03-.97.06-1.93.12-2.9.04-.77.09-1.54.14-2.31.05-.62.1-1.24.16-1.86.04-.46.09-.92.14-1.37.04-.31.08-.63.12-.94.03-.2.06-.39.1-.59.05-.25.1-.49.15-.73.05-.24.11-.47.18-.71.07-.25.15-.49.24-.73.1-.27.21-.54.33-.8.09-.21.19-.41.29-.61.15-.3.3-.58.46-.87.21-.37.43-.73.65-1.08.24-.37.48-.73.73-1.09.41-.6.84-1.19,1.27-1.77"/>
  <path class="cls-2" d="M106.29,170.29c0-1.36-.56-1.92-1.92-1.92s-1.92.56-1.92,1.92.56,1.93,1.92,1.93,1.92-.56,1.92-1.93Z"/>
  <path class="cls-2" d="M426.19,170.29c0-1.36-.56-1.92-1.92-1.92s-1.93.56-1.93,1.92.56,1.93,1.93,1.93,1.92-.56,1.92-1.93Z"/>
  <path class="cls-2" d="M440.02,180.55c-1.98-.99-3.55-2.41-4.81-3.69-1.27-1.28-2.23-2.43-3.08-3.62-.85-1.19-1.59-2.43-1.97-3.34-.38-.9-.39-1.47-.12-1.95.27-.48.81-.87,1.77-1.32.96-.45,2.34-.95,3.98-1.34,1.64-.4,3.53-.69,5.22-.96,1.68-.27,3.16-.51,4.06-.57.01,0,.03,0,.04,0"/>
  <line class="cls-2" x1="34.3" y1="153.54" x2="33" y2="155.27"/>
  <path class="cls-2" d="M78.17,151.01c2.77,2.16,4.7,3.1,6.56,3.96,1.87.87,3.66,1.67,5.15,2.28,1.49.6,2.67,1.01,3.64,1.15.97.13,1.72,0,2.13-.39.41-.39.48-1.05.5-2.2.02-1.15.01-2.8-.1-4.46-.11-1.66-.31-3.32-.74-5.4-.43-2.08-1.11-4.56-1.64-6.44"/>
  <path class="cls-2" d="M415.2,167.37c0-.57-.24-.81-.81-.81s-.81.23-.81.81.24.81.81.81.81-.24.81-.81Z"/>
  <line class="cls-2" x1="427.57" y1="139.51" x2="427.58" y2="139.47"/>
  <path class="cls-2" d="M443.07,151.01c-2.77,2.16-4.7,3.1-6.56,3.96-1.86.87-3.66,1.67-5.15,2.28-1.49.6-2.67,1.01-3.64,1.15-.97.13-1.72,0-2.13-.39-.41-.39-.48-1.05-.51-2.2-.03-1.15,0-2.8.1-4.46.11-1.66.31-3.32.74-5.4.44-2.08,1.11-4.56,1.64-6.44"/>
  <line class="cls-2" x1="443.18" y1="150.91" x2="443.07" y2="151.01"/>
  <line class="cls-2" x1="29.78" y1="151.52" x2="32.96" y2="155.27"/>
  <path class="cls-2" d="M395.82,163.86c-.35,6.66,1.27,11.7,5.45,16.91"/>
  <path class="cls-2" d="M447.37,165.27c0-14.75-11.96-26.71-26.71-26.71s-26.71,11.96-26.71,26.71,11.96,26.71,26.71,26.71,26.71-11.96,26.71-26.71Z"/>
  <path class="cls-2" d="M10.63,131.83c2.12.43,2.55,1.71,3.12,3.46.56,1.75,1.26,3.96,1.93,5.84.67,1.88,1.32,3.43,1.77,4.41.45.98.72,1.37,1.07,1.66.35.28.78.45,1.42.62.64.16,1.48.33,3.08.38,1.61.06,3.98.02,5.66.05,1.68.03,2.67.14,3.45.32.79.19,1.38.45,1.83.85.44.39.73.92.9,1.64.17.72.22,1.65.3,2.56.08.92.19,1.83.23,3.07.04,1.24.02,2.82.08,3.85"/>
  <line class="cls-2" x1="21.21" y1="104.81" x2="21.66" y2="104.15"/>
  <path class="cls-2" d="M16.44,124.27c0-.29,0-.59.01-.88.01-.77.04-1.54.06-2.31.05-1.27.11-2.53.2-3.8.02-.29.04-.59.07-.88.02-.28.05-.57.07-.85.03-.31.06-.61.09-.92.03-.3.06-.61.1-.91.02-.15.04-.31.06-.46.01-.11.03-.22.05-.33.03-.19.06-.4.1-.59.05-.23.09-.47.15-.7.04-.16.08-.31.13-.47.03-.11.06-.21.1-.32.04-.12.08-.25.13-.36.07-.17.14-.35.21-.52.18-.41.38-.8.59-1.19.29-.51.59-1.01.91-1.5.23-.35.46-.7.71-1.04.34-.48.69-.96,1.04-1.44"/>
  <path class="cls-2" d="M94.13,141.17c-6.61,1.84-10.92,5.07-14.52,10.91"/>
  <path class="cls-2" d="M156.52,77c-18.95,1.52-38.87,4.01-57.69,6.96-18.82,2.96-36.56,6.37-49.91,9.37-13.35,3-22.32,5.59-27.29,8.62"/>
  <path class="cls-2" d="M448.43,165.39c0-15.4-12.48-27.88-27.88-27.88s-27.88,12.48-27.88,27.88,12.48,27.88,27.88,27.88,27.88-12.48,27.88-27.88Z"/>
  <path class="cls-2" d="M414.03,141.17c-6.61,1.84-10.92,5.07-14.53,10.91"/>
  <line class="cls-2" x1="109.72" y1="190.25" x2="109.74" y2="190.3"/>
  <path class="cls-2" d="M90.43,189.96c.98-3.37,2.01-5.25,3.02-7.05,1.01-1.79,2-3.49,2.86-4.85.86-1.36,1.58-2.38,2.29-3.06.71-.68,1.39-1.01,1.95-.93.56.08,1,.57,1.69,1.49.7.92,1.64,2.27,2.52,3.68.88,1.41,1.69,2.88,2.55,4.82.86,1.94,1.76,4.35,2.42,6.18"/>
  <line class="cls-2" x1="90.4" y1="190.1" x2="90.43" y2="189.96"/>
  <path class="cls-2" d="M440.71,152.71c-3.45-5.58-7.58-8.67-13.9-10.43"/>
  <path class="cls-2" d="M421.39,158.89c0-.61-.25-.87-.87-.87s-.87.25-.87.87.26.87.87.87.87-.25.87-.87Z"/>
  <path class="cls-2" d="M263.04,96.28c.15.62.37,1.22.72,1.71.64.89,1.68,1.42,3.49,1.7,1.81.27,4.41.3,6.33-.1,1.93-.4,3.18-1.24,3.87-2.24.39-.56.6-1.18.69-1.78"/>
  <path class="cls-2" d="M441.81,151.96c-3.66-5.85-8.02-9.07-14.68-10.85"/>
  <path class="cls-2" d="M111.96,93.53c11.78.68,17.11,2.27,21.09,3.76,3.98,1.49,6.63,2.89,9.25,4.61,2.62,1.72,5.23,3.75,7.89,6.42,2.66,2.66,5.38,5.94,9.12,11.61"/>
  <path class="cls-2" d="M411.25,187.2c6.06,2.54,11.22,2.66,17.39.4"/>
  <path class="cls-2" d="M148.56,165.77c8.47-.96,12.95-.72,20.05-.75,7.1-.03,16.82-.34,39.72-.9,22.9-.56,58.98-1.37,84.74-1.99,25.76-.61,41.21-1.03,53.02-1.36,11.82-.32,20.01-.54,26.28-.47"/>
  <path class="cls-2" d="M203.7,60.42c3.04,2.04,3.97,3.44,4.48,4.87.51,1.43.6,2.9.69,4.27.09,1.38.19,2.67.13,3.91-.05,1.24-.25,2.44-.75,3.75-.5,1.31-1.3,2.74-8.63,4.77"/>
  <path class="cls-2" d="M91.03,188.09c6.29,2.68,11.67,2.85,18.11.55"/>
  <path class="cls-2" d="M92.2,185.27c5.49,2.29,10.18,2.41,15.79.41"/>
  <path class="cls-2" d="M120.81,152.71c-3.45-5.58-7.57-8.67-13.9-10.43"/>
  <path class="cls-2" d="M118.95,180.36c4.21-5.12,5.79-10.05,5.37-16.66"/>
  <path class="cls-2" d="M117.42,179.07c3.87-4.67,5.36-9.18,5-15.23"/>
  <path class="cls-2" d="M19.07,103.44c2.86.35,2.98.95,2.97,1.66-.02.71-.19,1.54-.63,3.03-.44,1.49-1.16,3.65-1.9,6.39-.74,2.73-1.51,6.04-2.18,8.91"/>
  <path class="cls-2" d="M421.49,171.67c0-.57-.23-.81-.81-.81s-.81.24-.81.81.24.81.81.81.81-.24.81-.81Z"/>
  <path class="cls-2" d="M108.52,163.2c0-1.36-.56-1.92-1.92-1.92s-1.93.57-1.93,1.92.56,1.93,1.93,1.93,1.92-.56,1.92-1.93Z"/>
  <path class="cls-2" d="M439.12,153.67c-3.16-5.14-6.95-7.99-12.76-9.6"/>
  <path class="cls-2" d="M511.43,157.25c-.14-.97.07-2.09.84-3.6.76-1.51,2.08-3.42,3.33-4.88,1.25-1.46,2.43-2.46,3.37-3,.94-.54,1.63-.62,2.24-.46.61.16,1.13.55,1.17,1.38.04.83-.41,2.12-1.14,3.75-.74,1.63-1.76,3.6-2.76,5-.99,1.4-1.95,2.22-2.93,2.86-.99.64-2,1.1-2.75.91-.75-.18-1.23-1-1.36-1.97Z"/>
  <polyline class="cls-2" points="475.07 150.07 476.35 156.98 477.22 167.6"/>
  <path class="cls-2" d="M96.41,163.56c0-1.36-.56-1.92-1.92-1.92s-1.93.56-1.93,1.92.56,1.92,1.93,1.92,1.92-.56,1.92-1.92Z"/>
  <path class="cls-2" d="M427.36,163.18c0-.62-.25-.87-.87-.87s-.87.25-.87.87.25.87.87.87.87-.25.87-.87Z"/>
  <path class="cls-2" d="M413.47,141.34c1.03,1.97,1.48,4.03,1.76,5.8.28,1.78.4,3.27.4,4.74,0,1.47-.13,2.91-.35,3.86-.22.95-.55,1.42-1.04,1.66-.5.24-1.16.24-2.2.04-1.04-.2-2.45-.6-4.02-1.23-1.56-.63-3.27-1.5-4.79-2.26-1.53-.77-2.87-1.43-3.63-1.91-.01,0-.02-.02-.04-.02"/>
  <path class="cls-2" d="M75.92,163.86c-.35,6.66,1.27,11.7,5.44,16.91"/>
  <path class="cls-2" d="M23.1,125.61c-.22.39-.05.49.49.55.54.06,1.45.08,1.95.04.51-.05.61-.16.76-.29.14-.12.33-.26.96-.72.63-.47,1.71-1.27,2.34-1.71.62-.44.8-.52.89-.62.09-.09.1-.22-.22-.33-.32-.11-.98-.22-1.54-.25-.56-.03-1.02,0-1.37.1-.35.1-.58.26-1.04.5-.45.25-1.12.59-1.77,1.11-.64.52-1.24,1.22-1.46,1.61Z"/>
  <path class="cls-2" d="M21.83,117.81c.06-.77.3-2.27,1.06-4.03.76-1.76,2.05-3.79,3.49-5.42,1.44-1.62,3.04-2.85,5.27-3.69,2.23-.84,5.1-1.3,7.5-1.78,2.4-.48,4.34-.98,6.78-1.23,2.44-.25,5.39-.25,7.88-.09,2.49.16,4.51.47,6.04,1.07,1.53.59,2.55,1.46,3.12,1.96.57.5.67.63.57,1-.1.37-.42.97-1.17,2.18-.75,1.21-1.93,3.01-3.78,4.54-1.84,1.53-4.34,2.78-6.81,3.84-2.46,1.07-4.88,1.95-7.33,2.61-2.45.66-4.92,1.11-6.97,1.32-2.05.21-3.67.19-4.64.18-.97,0-1.28,0-1.5-.03-.22-.03-.34-.11-.47-.28-.13-.17-.27-.44-.45-.64-.18-.21-.39-.35-.64-.45-.25-.11-.54-.17-1.66-.21-1.12-.03-3.07-.03-4.23-.03-1.16,0-1.53.01-1.76,0-.24-.01-.36-.05-.3-.81Z"/>
  <path class="cls-2" d="M417.74,170.47c0-.61-.25-.87-.87-.87s-.87.26-.87.87.26.87.87.87.87-.25.87-.87Z"/>
  <line class="cls-2" x1="31.79" y1="151.49" x2="34.33" y2="154.25"/>
  <path class="cls-2" d="M101.59,171.67c0-.57-.24-.81-.81-.81s-.81.24-.81.81.23.81.81.81.81-.24.81-.81Z"/>
  <path class="cls-2" d="M227.54,26.35c.41.16.82.3,1.22.43,1.32.43,2.42.71,3.47.96,1.06.25,2.06.45,2.61.63.55.18.63.34.64.44,0,.11-.07.16-1.01.77-.94.61-2.74,1.77-5.46,3.58-2.72,1.8-6.36,4.25-10.09,6.77-3.73,2.52-7.55,5.12-11.37,7.8-3.82,2.68-7.64,5.43-11.41,8.24-3.76,2.81-7.46,5.69-11.23,8.52-3.77,2.83-7.6,5.62-10.31,7.5-2.71,1.87-4.31,2.83-5.77,3.52-1.46.69-2.8,1.11-4.62,1.33-1.83.22-4.15.24-6.34.19-2.19-.04-4.24-.14-5.62-.27-1.38-.14-2.09-.31-2.98-.45-.41-.06-.85-.12-1.34-.18"/>
  <path class="cls-2" d="M450.42,19.78c-.45,3.09.16,3.94,1.49,5.15,1.33,1.21,3.37,2.77,7.12,5.86,3.75,3.09,9.21,7.72,14.44,12.19,5.23,4.47,10.25,8.78,14.46,12.43,4.2,3.65,7.6,6.65,9.76,8.43,2.15,1.77,3.07,2.32,4.3,2.81,1.22.49,2.75.92,4.64,1.16,1.89.23,4.14.28,16.01-.41"/>
</svg>