<?xml version="1.0" encoding="UTF-8"?>
<svg id="OUTER" xmlns="http://www.w3.org/2000/svg" viewBox="0 0 182.84 454.4">
  <defs>
    <style>
      .cls-1 {
        stroke-width: .15px;
      }

      .cls-1, .cls-2 {
        fill: none;
        stroke: #000;
        stroke-linecap: round;
        stroke-linejoin: round;
      }
    </style>
  </defs>
  <path class="cls-2" d="M170.66,424.62c-.29-1-.66-1.98-1.17-2.88-1.31-2.31-3.53-4.07-4.75-6.44-.29-.56-.52-1.16-.65-1.79-.22-1.04-.16-2.15-.59-3.1-.36-.79-1.05-1.47-1.88-1.81-.2-.08-.41-.15-.59-.23-1.64-.8-.61-3.58-.59-5.8.03-2.66-1.38-4.52-2.88-6.35-1.57-1.91-3.24-3.79-4.92-5.38-1.65-1.56-3.31-2.85-5.51-4.57-.71-.55-1.47-1.15-1.41-1.81.03-.33.25-.67.41-1.03.44-1.03.35-2.28-.29-3.1-.35-.45-.87-.78-1.17-1.23-.39-.59-.41-1.39-.47-2.17-.34-4.41-1.98-8.18-2.88-12.21-.58-2.61-.86-5.33-1.23-8.02-.53-3.81-1.26-7.55-2.17-11.28-.68-2.77-1.46-5.54-2.64-8.14-.69-1.52-1.52-2.98-2.52-4.3-1.15-1.51-2.53-2.84-4.04-3.98-1.73-1.31-3.63-2.38-5.16-3.92-.5-.5-.96-1.06-1.29-1.67-.79-1.45-.84-3.21-.94-4.92-.09-1.56-.21-3.06-.18-4.57.08-3.97,1.19-7.93,1.35-11.97.09-2.2-.11-4.42.29-6.56.16-.86.42-1.7.65-2.55.54-2.02.92-4.07,1.3-6.11.21-.29.41-.58.64-.88.36-.45.77-.91.82-1.46.05-.58-.31-1.27-.12-1.78.13-.35.52-.62.76-.94.66-.87.27-2.11.06-3.28-.4-2.25-.1-4.23.06-6.32.04-.53.07-1.07.23-1.58.16-.52.45-1.01.58-1.5.29-1.07-.19-2.14-.47-3.45-.1-.46-.17-.96.06-1.23.17-.2.49-.27.82-.35.13-1.65.26-3.3.18-4.98-.09-1.7-.4-3.43-.06-5.03.37-1.72,1.49-3.29,2-5.01.48-1.61.42-3.35.23-5.03-.16-1.44-.4-2.85-.64-4.27-.21-1.25-.41-2.51-.41-3.77,0-1.99.52-3.99.47-5.97-.05-2.06-.73-4.09-1-6.15-.5-3.81.4-7.67.65-11.53.18-2.76.04-5.51-.18-8.25-.2-2.55-.47-5.09-.47-7.65,0-2.06.17-4.12.59-6.15.3-1.47.73-2.92.88-4.39.16-1.6,0-3.23-.18-4.86.79.22,1.59.44,2.52.23.71-.15,1.5-.55,1.88-.41.6.22.18,1.8-.06,3.04-.27,1.44-.28,2.43.06,3.53.43,1.36,1.39,2.89,2.7,3.39.78.3,1.68.24,2.58.18.25.83.49,1.67.65,2.52.37,2.13.14,4.37.59,6.46.38,1.78,1.24,3.45,1.76,5.21.68,2.31.74,4.77.94,7.16.2,2.43.54,4.78.82,7.29.17,1.46.31,2.97-.12,4.27-.45,1.36-1.53,2.51-2.52,3.69-1.19,1.42-2.24,2.9-2.82,4.59-.43,1.26-.59,2.63-1.23,3.8-.35.64-.85,1.22-1.11,1.87-.37.91-.31,1.96-.23,3,.15,1.94.37,3.81-.06,5.62-.25,1.06-.73,2.09-.82,3.18-.1,1.17.24,2.39-.06,3.51-.26.99-1.03,1.89-1,2.93.01.42.15.85.41,1.17.6.73,1.83.81,2.81.53.88-.25,1.56-.79,2.11-1.46.86-1.04,1.41-2.41,1.76-3.57.24-.78.39-1.47.53-2.63.15-1.26.29-3.08.7-2.81.19.12.43.67.59,1.17.49,1.54.21,2.58-.23,4.04-.12.4-.25.84-.06,1.11.18.26.66.38.82.64.17.27,0,.69-.18,1.05-.3.6-.65,1.05-.59,1.64.05.46.37,1,.23,1.35-.15.38-.81.54-1.17.88-.51.47-.43,1.29-.12,2.05.18.45.45.88.29,1.17-.1.18-.36.31-.58.47-.54.38-.83.92-1.11,1.46-.42.79-.85,1.58-.82,2.57.02.78.32,1.68.88,1.93.45.2,1.08-.02,1.7-.23,2.26-1.39,4.52-2.79,6.86-4.21,1.91-1.17,3.88-2.36,5.16-4.1.83-1.12,1.37-2.48,1.88-3.83.97-2.57,1.83-5.12,2.23-7.79.51-3.43.23-7.04-.53-10.39-.36-1.61-.84-3.15-1.35-4.8-.47-1.52-.97-3.14-.53-4.57.21-.68.63-1.33.94-1.99,1.44-3.13.26-6.81-.41-10.35-.28-1.46-.47-2.91-.18-4.27.23-1.09.77-2.14,1.17-3.22,1.39-3.73,1.13-7.82,1.29-11.81.12-2.76.44-5.48.76-8.2.58-.7,1.16-1.4,1.64-2.17.43-.67.78-1.39.63-2.31-.14-.82-.69-1.8-.19-2.14.26-.17.79-.19,1.03-.37.41-.32-.06-1.16-.19-1.86-.13-.67.05-1.21.19-1.77.26-1.07.41-2.21.37-3.35-.07-2.01-.74-3.98-2.05-5.59-.77-.94-1.75-1.75-2.14-2.74-.66-1.67.4-3.84.56-5.86.16-1.97-.54-3.81-.93-5.68-.76-3.64-.36-7.44-.47-11.17-.1-3.4-.63-6.75-1.12-10.12-.57-3.92-1.1-7.87-2.24-11.64-1.55-5.11-4.22-9.89-5.61-15.05-.69-2.56-1.06-5.22-1.98-7.74-.91-2.48-2.36-4.83-4.25-6.63-2.43-2.31-5.59-3.72-8.7-5.1-4.67-2.07-9.23-4.07-13.99-5.76-2.06-.73-4.15-1.4-5.97-2.7-.86-.62-1.67-1.37-2.62-1.69-.96-.31-2.07-.19-3.09-.41-1.36-.29-2.58-1.21-3.44-2.33-1.2-1.57-1.72-3.55-2.92-5.03-.86-1.07-2.07-1.88-3.67-1.98-.83-.05-1.77.09-2.1-.52-.15-.28-.17-.72,0-.99.13-.2.39-.31.64-.41,1.32-.52,2.69-.94,3.32-2.09.26-.47.4-1.06.29-1.57-.13-.66-.67-1.2-.99-1.8-.72-1.35-.38-3.03-.17-4.6.25-1.92.31-3.68.88-5.56.37-1.21.95-2.48,1.92-3.08.46-.29,1.01-.42,1.69-.29.77.15,1.71.65,1.92.29.12-.21,0-.7-.18-1.11-.92-2.16-3.29-2.09-5.01-3.14-1.28-.78-2.2-2.17-2.74-3.43-.67-1.57-.75-2.93-1.5-5.27-.18-.56-.4-1.17-.66-1.13-.28.04-.61.84-.84,1.13-.57.71-.53-1.78-.11-3.49.23-.93.57-1.63.15-1.89-.27-.16-.84-.16-1.13-.36-.39-.27-.3-.91-.47-1.49-.27-.9-1.15-1.67-1.93-1.42-.23.08-.46.24-.66.29-.63.15-1.04-.87-1.54-1.64-1-1.53-2.38-2.04-3.82-2.33-1.33-.26-2.72-.33-4.04-.73-.46-.14-.92-.32-1.31-.58-.77-.51-1.31-1.32-2.11-1.82-1.03-.64-2.49-.74-3.61-.15-1.11.59-1.88,1.86-2.93,2.07-.82.16-1.81-.32-2.76-.46-1.34-.19-2.6.31-3.87.73-1.62.55-3.27.98-4.51,2.21-.45.45-.85,1-1.38,1.2-.64.24-1.47-.04-2.21,0-1.44.07-2.58,1.3-3.41,2.57-1.13,1.75-1.68,3.59-2.76,5.15-1.1,1.59-2.74,2.9-3.6,4.74-.63,1.36-.83,3.01-.09,4.41.78,1.46,2.59,2.65,2.67,3.77.09,1.21-1.81,2.34-2.76,4.14-.46.87-.69,1.89,0,2.39.81.59,2.89.47,2.67.83-.15.24-1.35.69-1.47,1.2-.1.41.54.86,1.2,1.01,1.04.25,2.12-.24,2.49.18.24.28.17.97.09,1.65-.59,2.56-1.18,5.12.28,6.53.69.67,1.84,1.08,2.49,1.84.69.82.81,2.03,1.2,3.09.94,2.55,3.46,4.22,4.42,6.62.36.91.5,1.93.64,2.94-2.16.88-4.32,1.76-6.56,2.42-4.18,1.23-8.64,1.68-12.53,3.59-3.08,1.5-5.8,3.92-7.83,6.71-2.79,3.85-4.29,8.43-5.81,12.93-1.15,3.41-2.31,6.78-3.32,10.21-1.76,6-3.03,12.18-3.41,18.45-.17,2.9-.15,5.81-.46,8.65-.49,4.51-1.81,8.82-1.93,13.66-.04,1.61.06,3.27-.83,4.51-.39.55-.97,1.01-1.29,1.56-.59,1.04-.25,2.41-.46,3.77-.12.79-.43,1.57,0,2.21.31.46,1,.83.92,1.29-.03.15-.14.32-.28.46-.72.76-1.99.93-2.39,1.56-.44.69.14,1.91.37,3.08.23,1.2.09,2.33-.64,3.13-.84.91-2.47,1.38-2.76,2.39-.19.65.18,1.53.55,2.3.41.85.83,1.56,1.11,2.39.4,1.2.52,2.67,1.29,3.59.58.7,1.54,1.09,2.5,1.48-.29,4.76-.57,9.51-.68,14.31-.17,7.22.06,14.54-1.79,21.48-.4,1.51-.9,3.01-1.17,4.55-.22,1.31-.28,2.64-.45,3.96-.06.45-.13.9-.21,1.35-.13.79-.27,1.58-.49,2.36-.44,1.61-1.19,3.12-1.62,4.74-.5,1.88-.59,3.9-.16,5.79.23,1.04.62,2.04.77,3.09.28,1.88-.18,3.9.17,5.71.61,3.14,3.66,5.65,6.18,7.72,2.07,1.7,3.78,3.1,6.57,4.8.81.49,1.72,1.01,2.26.72.45-.25.65-1.06.44-1.93-.15-.62-.52-1.27-.33-1.38.13-.07.54.12.95.32-.03-.63-.06-1.26-.09-1.93-.05-1.16-.11-2.43-.88-3.24-.61-.65-1.68-1.02-1.93-1.84-.08-.28-.08-.6-.17-.88-.18-.51-.73-.82-1.32-1.05-1.02-.4-2.16-.55-2.63-1.23-.44-.63-.29-1.73-.18-2.72.29-2.55.29-4.41,1.05-6.93.35-1.15.86-2.43,1.93-2.54.5-.05,1.13.16,1.4.53.36.5.08,1.28-.09,2.02-.5,2.18-.03,3.92-.17,5.96-.06.87-.24,1.79,0,2.54.25.77.93,1.35,1.84,1.84.91.48,2.05.87,2.55.44.43-.37.37-1.35.35-2.19-.06-2.27.12-3.57,0-5.96-.11-2.29-.5-5.57.35-5.7.7-.11,2.22,1.91,2.9,3.68.99,2.61.14,4.68-.35,6.88-.59,2.67-.63,5.53-.88,8.33-.18,2.04-.47,4.06-.88,6.04-.57,2.76-1.38,5.44-2.36,8.17-.53,1.49-1.11,2.99-.96,4.52.1,1.09.58,2.19,1.25,3.05,1.79,2.29,4.99,2.9,7.91,3.74,2.6.75,4.98,1.69,7.36,2.63.72,2.5,1.44,5,2.22,7.48,1.91,6.09,4.15,12.05,6.67,17.96,1.1,2.58,2.25,5.15,2.78,7.9.78,4.1.17,8.58,1.94,12.33.35.75.8,1.46,1.11,2.22,1,2.43.61,5.23.42,7.97-.38,5.47.04,10.69.69,15.94.79,6.37,1.92,12.79,3.75,18.99,1.79,6.08,4.25,11.93,6.91,17.69,1.04,2.25,2.11,4.49,2.93,6.82.7,2.01,1.21,4.09,1.46,6.23.14,1.19.2,2.39.65,3.49.46,1.13,1.33,2.14,1.52,3.3.13.78-.04,1.62.16,2.44.17.69.62,1.37.54,2-.07.56-.55,1.08-1.08,1.46-.51.36-1.08.59-1.42,1.01-.55.68-.51,1.87-.98,2.65-.43.73-1.3,1.12-2.11,1.57-2.75,1.52-4.8,3.74-6.07,6.55-.32.71-.59,1.46-1.03,2-1.34,1.68-4.25,1.45-6.51,2.36-.99.4-1.85,1.01-2.44,1.79-1.06,1.39-1.26,3.28-1.36,5.25-.07,1.55-.07,3.16.6,4.22,1.16,1.84,4.31,2.1,7.01,2.22,2.47.11,4.55.11,6.68.1,6.06-.01,12.42-.03,18.05-.04,4.27,0,8.12,0,14.56,0,1.37,0,2.85,0,3.53-.6.72-.64.51-1.97.29-3.16-.35-1.91-.73-3.47-1.19-5.09-.67-2.33-1.52-4.78-2.44-7.22-.4-1.06-.81-2.11-.81-3.19,0-1.88,1.22-3.86.6-5.69-.45-1.31-1.84-2.54-3.14-2.6-.94-.04-1.84.53-2.74,1.09-.32-.68-.64-1.35-.9-2.04-1.49-3.88-1.29-8.23-1.64-12.45-.44-5.23-1.73-10.27-2.32-15.4-.49-4.3-.5-8.67-.68-13.03-.28-6.82-1-13.6-2.03-20.32-.78-5.12-1.74-10.2-3.48-15.15-.91-2.59-2.03-5.15-2.42-7.78-.62-4.16.59-8.52.97-12.83.53-6.12-.6-12.15-.86-18.21-.21-4.85.14-9.71.48-14.57,1.42.12,2.84.23,4.52.19,1.32-.03,2.8-.16,3.51.41,1.02.81.49,3.03.19,5.02-.75,4.84-.2,8.31.21,12.2.36,3.41.63,7.14,1.62,10.58.96,3.32,2.61,6.38,4.3,9.4,1.14,2.03,2.3,4.04,3.53,6.01,3.24,5.14,7.01,9.94,9.94,15.3,2.88,5.27,4.95,11.07,8.4,15.83,2.32,3.19,5.26,5.91,7.84,9.11,1.16,1.45,2.25,3,2.77,4.67.83,2.67.2,5.66-.1,8.68-.48,4.97-.05,10.02,2.2,14.15,1.36,2.49,3.38,4.65,4.97,7.06,1.12,1.69,2.02,3.51,2.78,5.39.98,2.45,1.72,5.01,2.01,7.63.17,1.59.19,3.2.29,4.77.26,4.15,1.13,8.04,2.29,12.4.88,3.3,1.93,6.86,4.58,8.39,1.4.8,3.25,1.04,4.97.86,2.75-.3,5.16-1.69,7.45-3.15,2.01-1.28,3.93-2.61,5.69-4.23,1.58-1.45,3.04-3.14,3.84-5.07.81-1.97.94-4.19,1.01-6.39.1-3.36.04-6.66-.87-9.82ZM31.9,224.18c-1.05,3.56-2.1,7.13-3.15,10.69.04-1.65.08-3.3.04-4.92-.02-.81-.06-1.61-.79-2.32-.57-.55-1.57-1.05-1.3-1.4.13-.17.57-.3.8-.5.58-.5-.24-1.43-.7-2.3-.78-1.48-.5-2.79-.1-4.09,1.44-4.66,4.46-9.18,6.2-13.28,1.41-3.32,1.97-6.35,3.3-11.39.16-.59.32-1.21.7-1.2.15,0,.33.1.5.2.89.51,1.64,1.1,2,1.9.31.68.33,1.51.35,2.34-2.62,8.75-5.25,17.51-7.84,26.27Z"/>
  <path class="cls-1" d="M74.27,408.4c4.69,1.92,9.93.35,17.92-2.19"/>
  <path class="cls-1" d="M142.28,418.8c-.87-8.17,2.15-8.4,4.66-9.26,2.51-.86,4.52-2.34,6.18-3.4,1.66-1.06,2.97-1.69,6.08.61"/>
  <path class="cls-1" d="M145.97,440.4c2.85,7.33,4.43,8.57,6.52,8.76,2.09.19,4.69-.68,6.79-2,2.09-1.32,3.68-3.09,5.17-4.86,1.49-1.77,2.88-3.54,3.62-5.3.73-1.75.81-3.49.55-5.81-.26-2.32-.87-5.22-1.73-7.22-.87-2-2-3.09-3.13-4.52-1.13-1.42-2.26-3.18-2.1-8.85"/>
  <path class="cls-1" d="M63.87,359.7c1.26,6.04,2.51,12.08,5.76,16.96,2.38,3.57,5.82,6.53,7.79,11.86,1.59,4.31,2.21,10.17,3.86,13.31"/>
  <path class="cls-1" d="M155.27,158.04c-1.46,4.09-2.92,8.19-5.07,10.96-1.86,2.4-4.24,3.8-8.49,6.1-2.05,1.11-4.55,2.43-4.14,2.89.29.34,2.11.23,3.62.52.87.16,1.64.45,1.76,1.14.05.27,0,.6,0,.83.04,1.41,2.38-1.19,4.04-3.2,2.54-3.09,3.5-4.8,4.45-6.51"/>
  <path class="cls-1" d="M76.21,326.45c-1.92-6-1.92-6.72-1.68-10.8"/>
  <path class="cls-1" d="M61.08,325.97c0-10.08-3.12-15.37-3.12-19.45"/>
  <path class="cls-1" d="M41.02,163.71c.72,2.88-1.44,2.88-3.57,2.88s-4.23,0-5.7.15c-1.47.15-2.31.45-2.1,1.14.21.69,1.47,1.77,3.5,2.45,2.03.67,4.82.95,8.42,3.47"/>
  <path class="cls-1" d="M63.15,54.85c-.16,2.7-.48,3.63-1.1,4-.62.37-1.55.2-2.62-.8"/>
  <path class="cls-1" d="M98.07,65.66c-2.52-.41-2.65-1.68-4.05.23-.19.26-.41.58-.73.43-.4-.19-.97-1.11-1.31-2.14-.24-.72-.37-1.5-.68-1.55-.5-.08-1.47,1.85-1.89,2.09-.71.41.16-4.09-.34-4.78-.43-.59-1.85,1.56-2.29,3.37-.18.74-.2,1.42-.4,1.62-.34.32-1.17-.69-1.96-1.95-.91-1.47-1.74-3.26-1.75-2.69,0,.43.46,2.22.46,2.73,0,.47-.4-.17-.74-.61-1.39-1.77-1.9-.26-3.75,1.85-.73.83-1.66,1.76-2.09,1.8-.27.03-.34-.3-.39-.59-.58-3.12.29-1.4-1.93-4.09-.19-.23-.39-.48-.09-.78.29-.29,1.04-.62,1.39-1.32.34-.69.3-1.75-.07-1.95-.68-.38-2.46,2.2-2.83,2.29-.29.07.25-1.31.67-2.69.81-2.62,1.27-5.27,1.15-5.12-.12.15-.8,3.08-2.77,4.45-2.41,1.68-6.74,1.01-6.41.47.25-.41,3.25-.74,4.25-2.49,1.14-1.99-.27-5.8-.48-5.56-.16.19.37,2.68-.47,4.18-1.7,3.03-8.98,1.98-8.43,1.14.29-.44,2.76-.82,3.98-2.09.89-.93,1.11-2.33.61-3.23-.4-.71-1.25-1.11-2.23-1.35-1.7-.42-3.78-.37-4.45.81-.37.65-.32,1.64,0,2.49.39,1.03,1.16,1.86,1.15,2.76,0,.58-.35,1.2-.81,1.75-.37.44-.82.85-1.21.94-1.08.26-1.72-1.87-3.04-2.96-.72-.6-1.64-.89-2.23-.67-.66.25-.88,1.16-.99,2.23"/>
  <path class="cls-1" d="M95.59,427.02c-1.58-.43-3.16-.86-4.57-.47-1.18.33-2.25,1.24-3.02,2.36-1.2,1.76-1.66,4.07-3.23,5.05-.83.52-1.96.67-3.12.54-1.51-.17-3.06-.83-3.66-1.94-.57-1.06-.27-2.53,0-3.98.33-1.8.6-3.57-.21-4.92-.13-.22-.3-.44-.47-.64"/>
  <path class="cls-1" d="M74.89,412.48c.93.22,1.86.4,2.8.5,1.78.18,3.6.03,5.37-.28,2.2-.39,4.33-1.04,6.42-1.81,1.09-.4,2.17-.84,3.24-1.29"/>
  <path class="cls-1" d="M92.09,430.53c1.34-.02,2.67-.04,3.67-.92.21-.19.41-.41.64-.49.47-.17,1.06.25,1.55.57.44.28.8.47,1.27.7.17.08.34.17.42.28.18.26-.14.66-.28,1.13-.31,1.02.29,2.37-.21,2.54-.24.08-.72-.11-1.2-.14-1.01-.07-2.02.55-2.54.07-.25-.23-.39-.72-.63-1.06-.51-.69-1.5-.74-2.19-1.27-.18-.13-.34-.3-.42-.49-.12-.27-.1-.59-.07-.92Z"/>
  <path class="cls-1" d="M99.36,439.06c.79.78,1.58,1.56,2.12,2.4.47.74.76,1.53,1.2,2.54.19.44.42.93.28,1.2-.16.3-.78.34-1.34.35-1.43.04-2.49,0-3.53-.07-1.34-.1-2.65-.27-4.52.14-.68.15-1.44.37-1.62.28-.32-.15,1.01-1.21,1.91-2.04.88-.82,1.36-1.41,1.84-2.04.4-.54.81-1.1,1.41-1.83.13-.16.27-.32.35-.35.24-.08.07.91.35,1.34.3.46,1.11.28,1.48-.07.46-.43.27-1.13.07-1.83Z"/>
  <path class="cls-1" d="M78.52,444.43c1.37-.84,2.75-1.68,4-2.57,2.08-1.47,3.83-3.07,7.29-3.07,1.1,0,2.37.16,2.5-.28.09-.32-.42-.97-.93-1.57-1.26-1.49-2.55-2.73-3.79-2.43-.74.18-1.46.91-2.22,1.5-1.15.9-2.38,1.49-3.43,2.21-1.09.75-2,1.66-3.15,2.85-.71.74-1.5,1.59-1.29,2.28.12.39.56.73,1,1.07Z"/>
  <path class="cls-1" d="M96.39,434.86c.22.62.44,1.24.57,1.88.16.79.17,1.61.18,2.43"/>
  <path class="cls-1" d="M98.86,434.77c.22.64.45,1.28.53,1.93.08.63.04,1.28,0,1.93"/>
  <path class="cls-1" d="M75.46,445.72c-.26-1.53-.52-3.06-1.65-3.93-1.22-.94-3.44-1.12-3.89-2.47-.16-.5-.09-1.15.14-1.69.19-.45.48-.82.78-1.19"/>
  <path class="cls-1" d="M61.68,331.62c2.6-.78,5.2-1.57,7.72-1.35,2.43.21,4.79,1.36,7.14,2.51"/>
  <path class="cls-1" d="M125.33,377.56c.65-1.57,1.44-3.03,2.6-4.21,1.46-1.49,3.51-2.53,5.56-2.96,3.26-.69,6.53.17,9.8,1.38"/>
  <path class="cls-1" d="M129.28,383.21c.41-1.06.95-1.99,1.74-2.7,1.26-1.12,3.17-1.65,4.94-1.97,3.31-.6,6.15-.46,8.59.31"/>
  <path class="cls-1" d="M142.28,418.8c-3.15-5.2-6.29-10.39-8.31-16.39-.98-2.91-1.69-6.01-.79-8.88.69-2.21,2.33-4.29,4.42-5.27,1.63-.76,3.53-.86,5.33-.6,2.3.34,4.43,1.25,6.37,2.48,2.88,1.83,5.32,4.35,7.16,7.22,1.07,1.66,1.93,3.45,2.26,5.28.18.98.2,1.98.48,4.11"/>
  <path class="cls-1" d="M161.65,410.61c-1.24,1.37-2.48,2.73-3.57,5.05-1.53,3.24-2.77,8.35-4.79,7.22-1.06-.59-2.35-2.91-3.22-3.22-1.28-.45-1.69,3.39-2.7,6.09-1.11,2.96-2.95,4.54-2.96,6.7,0,1.32.67,2.85,1.05,4.35.31,1.22.41,2.41.52,3.61"/>
  <path class="cls-1" d="M124.75,286.74c-1.23.03-2.46.06-3.63.3-2.46.5-4.67,1.91-6.96,3.12-3.89,2.06-7.99,3.57-12.2,4.4-4,.78-8.09.96-12.23.9"/>
  <path class="cls-1" d="M82.71,295.23c.17-1.51.35-3.02-.47-3.4-.43-.2-1.13-.09-1.79,0-1.65.23-3.03.38-4.45.46-3.72.23-7.68.05-11.74-.4-2.53-.28-5.1-.67-7.31-.46-2.64.25-4.76,1.35-8.73-.52-2.07-.98-4.64-2.76-4.36-1.33,0,.04.02.08.03.12"/>
  <path class="cls-1" d="M82.71,295.23c-.23-4.31-.46-8.62-.19-12.54.34-4.95,1.49-9.28,2.33-15.66.16-1.2.31-2.48.47-2.94.49-1.42,1.09,4.63,2.02,8.84,1.09,4.94,2.64,7.35,4.19,9.77"/>
  <path class="cls-1" d="M28.75,234.87c4.41,3.72,8.81,7.43,13.04,11.46,3.39,3.22,6.68,6.64,10.53,9.1,6.64,4.24,14.98,5.62,23.1,6.43,5.59.56,11.07.86,16.5.63,7.2-.3,14.3-1.52,21.69-2.98,4.62-.91,9.36-1.91,12.88-4.64.77-.6,1.48-1.28,2.16-2.01"/>
  <path class="cls-1" d="M144.23,254.61c1-.91,1.67-.85,2.16-1.16.49-.31.79-.99,1.32-1.59.53-.6,1.29-1.14,1.85-5.47"/>
  <line class="cls-1" x1="28.75" y1="234.87" x2="29.34" y2="244.02"/>
  <path class="cls-1" d="M23.57,232.66c.29-.15.58-.3.79-.24.27.08.41.52.5.92.17.77.14,1.4-.03,2.02-.29,1.06-1,2.07-1.55,3.12-.67,1.28-1.11,2.62-1.55,3.96"/>
  <path class="cls-1" d="M27.85,265.41c-1.16-.34-2.33-.67-3.48-1.08-2.4-.85-4.74-2.02-6.63-3.69-1.18-1.05-2.18-2.28-3.19-3.52"/>
  <path class="cls-1" d="M24.7,257.36c.06,1.08,0,2.02-.46,2.45-.92.86-3.44-.26-5.26-1.28-1.16-.66-2.04-1.27-2.91-1.88"/>
  <path class="cls-1" d="M17.4,187.83c1.81,1.33,3.62,2.66,5.69,3.1,2.19.47,4.67-.05,6.84,0,1.53.03,2.9.34,4.81.19.59-.05,1.23-.14,1.48.18.14.19.16.53.22.84.41,2.02,2.92,3.23,4.78,2.85.91-.19,1.66-.77,2.3-1.47,1.64-1.8,2.54-4.43,2.02-6.7-.18-.77-.52-1.5-.78-2.25-.43-1.21-.67-2.45-.78-3.78-.1-1.23-.11-2.52.41-3.53.33-.64.87-1.16,1.42-1.74,1.97-2.08,4.05-4.91,3.07-7.44-.96-2.48-4.88-4.68-3.97-6.83.21-.5.69-1,1.03-1.54,1.24-1.98.53-4.48.37-6.83-.14-1.97.11-3.84.51-5.7.51-2.39,1.28-4.76,1.47-7.19.22-2.82-.32-5.72-.07-8.52.23-2.63,1.15-5.18,1.76-7.81.78-3.37,1.05-6.88.53-10.26-.37-2.39-1.12-4.72-1.88-7.05"/>
  <path class="cls-1" d="M47.58,175.9c1.77,9.03,3.53,18.05,7.89,25.78,2.38,4.22,5.53,8.06,8.69,11.9"/>
  <path class="cls-1" d="M44.08,194.03c1.18,7.09,2.36,14.18,3.48,21.65,1,6.7,1.95,13.71,5.92,18.76,1.45,1.85,3.3,3.43,5.15,5.01"/>
  <path class="cls-1" d="M98.77,101.44c.6,14.67,1.2,29.34,1.48,44.01.1,5.19.15,10.39.21,15.58"/>
  <path class="cls-1" d="M89.27,101.21c.91,11.66,1.82,23.32,1.48,34.96-.25,8.57-1.18,17.13-2.11,25.69"/>
  <path class="cls-1" d="M119.85,101.21c3.09,3.01,6.19,6.02,8.22,9.69,1.81,3.26,2.79,7.05,4.64,10.32.97,1.71,2.17,3.28,3.37,4.84"/>
  <path class="cls-1" d="M115.84,115.11c2.05,5.8,4.1,11.6,5.91,17.48,1.95,6.33,3.61,12.75,5.27,19.16"/>
  <path class="cls-1" d="M48.62,106.36c3.3-1.54,6.6-3.09,10.07-4.09,2.34-.68,4.75-1.11,7.17-1.47,3.71-.55,7.46-.93,11.18-.84,4.08.1,8.12.75,12.23,1.26,3.18.4,6.4.71,9.5.22,2.84-.45,5.58-1.56,8.43-2.12,3.25-.63,6.63-.54,9.91,0,4.07.67,8,2,12.02,2.53,4.76.62,9.66.1,14.55-.42"/>
  <path class="cls-1" d="M43.83,158.9c-2.75-7.89-5.5-15.78-5.59-23.91-.04-3.76.49-7.57.15-11.35-.5-5.5-2.83-10.94-2.44-16.32.18-2.5.95-4.99,1.72-7.48"/>
  <path class="cls-1" d="M30.37,119c.16,5.97.32,11.95.88,17.93.47,5.04,1.23,10.08,2.77,14.87,1,3.08,2.32,6.06,3.65,9.04"/>
  <path class="cls-1" d="M130.27,180.92c-.59-3.79-1.17-7.58-1.17-11.32,0-6.2,1.65-12.28,3.7-18.49,1.57-4.74,3.38-9.55,4.41-13.7,1.21-4.87,1.34-8.82.74-16.88-.46-6.22-1.37-14.9.34-13.05.56.61,1.4,2.34,1.85,3.85.55,1.85.53,3.37-.13,5.23-.95,2.67-3.21,6.05-.96,7.46.97.61,2.77.86,2.87,1.49.08.51-.95,1.28-1.63,2.04-.75.84-1.08,1.67-1.41,2.51"/>
  <path class="cls-1" d="M155.22,136.4c.16,3.88.32,7.76-.49,11.51-1,4.62-3.48,9.03-6.75,12.49-2.04,2.16-4.39,3.95-6.74,5.74"/>
  <path class="cls-1" d="M139.95,190.9c1.31-.51,2.62-1.01,3.88-.72,1.1.26,2.16,1.14,3.23,1.25,1.32.13,2.65-.9,4.06-1.25,2.1-.53,4.35.46,6.35,0,.88-.2,1.71-.69,2.54-1.17"/>
  <path class="cls-1" d="M103.06,70.56c-1.65-.8-3.3-1.61-5.05-2.06-1.84-.48-3.78-.56-5.71-.62-4.12-.14-8.15-.18-12.28-.19-1.79,0-3.59,0-5.3.54-1.55.48-3.01,1.4-4.02,2.68-.71.89-1.2,1.96-1.88,2.81-1.73,2.16-4.7,2.97-7.67,3.78"/>
  <path class="cls-1" d="M106.68,76.1c-1.07.42-2.15.81-3.25,1.09-3.49.9-7.2.78-10.87.74-5.42-.07-10.76,0-16.1-.34-3.24-.21-6.49-.57-9.73-.94-.69-.08-1.38-.16-2.07-.24"/>
  <path class="cls-1" d="M59.34,48.73c.68-.26,1.36-.53,2.12-.49.75.03,1.58.35,1.95.91.4.59.28,1.43.17,2.28"/>
  <path class="cls-1" d="M61.56,63.85c1.28,1.47,2.55,2.95,4.01,4.36.5.49,1.03.96,1.34,1.55.46.87.44,1.96.42,3.02-.01.8-.02,1.57-.03,2.33"/>
  <path class="cls-1" d="M54.17,64.21c.16-1.19.32-2.1.5-2.2.32-.16.7,2.33,1.08,4.83"/>
  <path class="cls-1" d="M75.11,33.07c1.28,2.43,2.56,4.86,4.75,5.81,2.69,1.17,6.75.13,9.03,1.66,1.52,1.02,2.24,3.18,2.97,5.34"/>
  <path class="cls-1" d="M70,22.39c-.87,1.53-1.74,3.07-1.31,5.34.23,1.21.83,2.63,1.07,2.73.35.14-.06-2.53.24-4.27.23-1.37.89-2.17,1.55-2.97"/>
  <path class="cls-1" d="M72.5,43.64c1.11,1.77,2.23,3.53,1.66,5.1-.19.53-.57,1.04-.95,1.54"/>
  <path class="cls-1" d="M92.58,50.76c-.55,1.38-1.1,2.76-1.07,4.15.03,1.33.59,2.67.71,4.03.05.55.02,1.11,0,1.66"/>
  <path class="cls-1" d="M106.18,333.46c1.86-1.91,3.72-3.81,6-4.64,1.87-.68,4.03-.63,6.19-.58"/>
  <path class="cls-1" d="M102.17,326.28c-2.02-4.14-4.05-8.29-4.88-12.69-.63-3.31-.59-6.76-.54-10.21"/>
  <path class="cls-1" d="M142.72,262.08c.79-1.28,1.97-1.87,3.47-2.34,2.54-.79,6.03-1.23,5.66-3.15-.13-.64-.69-1.45-.57-2.1.09-.46.53-.84.97-1.21"/>
  <path class="cls-1" d="M143.67,258.16c.47-.13.94-.28,1.4-.44,1.4-.49,2.77-1.15,3.8-2.18.42-.42.77-.89,1.13-1.37"/>
  <path class="cls-1" d="M152.96,250.86c.75-3.51-.69-5.7-1.83-7.03-1.14-1.33-1.97-1.79-2.45-2.41-.48-.63-.61-1.42-.92-1.82-.31-.4-.82-.4-1.23.06-.42.46-.75,1.38-1.36,2.65-.61,1.27-1.48,2.9-2.4,5.14"/>
  <path class="cls-1" d="M105.17,448.9c-1.29.86-1.97,1.14-2.81,1.16-1.01.03-2.24-.3-3.4-.42-2.51-.27-4.67.4-6.93.86-3.99.81-8.32.95-12.29-.14-1.39-.38-2.74-.91-4.14-1.14-1.47-.24-3.01-.15-4.5,0-1.26.13-2.49.29-3.79.43-2.77.29-5.88.43-8.08-1-1.01-.66-1.83-1.65-2.64-2.64"/>
  <path class="cls-1" d="M147.51,386.55c-2.81-1.76-4.87-1.84-6.84-1.57-1.98.27-3.88.89-5.25,1.32-1.37.44-2.2.69-3.11,1.5-.91.81-1.89,2.18-2.85,4.81"/>
  <path class="cls-1" d="M74.9,23.79c4.26,1.67,4.26,4.26,4.84,6.09s1.75,2.89,3.04,3.43c1.29.53,2.71.53,3.18.25.46-.28-.04-.85-.66-1.3-.63-.45-1.38-.8-1.85-1.38-.47-.58-.65-1.41-.93-2.4-.28-.99-.66-2.16-1.68-3.94"/>
</svg>