<?xml version="1.0" encoding="UTF-8"?>
<svg id="OUTER" xmlns="http://www.w3.org/2000/svg" viewBox="0 0 182.84 454.4">
  <defs>
    <style>
      .cls-1 {
        fill: none;
        stroke-width: .15px;
      }

      .cls-1, .cls-2 {
        stroke: #000;
        stroke-linecap: round;
        stroke-linejoin: round;
      }

      .cls-2 {
        fill: #fff;
      }
    </style>
  </defs>
  <path class="cls-2" d="M168.24,171.01c.05-1.42.04-2.85-.18-4.23-.29-1.81-.95-3.55-1.56-5.3-.77-2.22-1.46-4.45-2.14-6.68-1.03-3.41-2.04-6.83-2.95-10.28-1.01-3.81-1.89-7.65-2.99-11.43-1.2-4.11-2.64-8.16-3.8-12.29-.85-3.04-1.54-6.12-2.5-9.12-.89-2.76-2.01-5.46-2.95-8.2-.99-2.93-1.78-5.91-2.81-8.85-.59-1.68-1.27-3.35-2.32-4.77-.92-1.25-2.14-2.31-3.48-3.12-1.42-.86-2.98-1.44-4.52-2.03-2.59-.99-5.15-2.03-7.72-3.03-3.52-1.37-7.07-2.66-10.49-4.32-2.72-1.33-5.36-2.89-7.63-4.86-.84-.73-1.63-1.51-2.4-2.32,1.36.21,2.78.1,4.04-.56.91-.48,1.74-1.26,1.99-2.18.17-.64.06-1.35,0-2.04-.05-.64-.05-1.27-.05-1.89,0-.64.01-1.29.03-1.96,0-.32.02-.64.16-.91.2-.37.66-.64.72-1.02.03-.2-.04-.44-.05-.66-.02-.31.1-.61.19-.91.28-.95.29-1.96.49-2.9.09-.41.21-.81.25-1.25.03-.4-.02-.84.16-1.15.15-.24.44-.39.74-.54.57-.31,1.13-.64,1.39-1.14.24-.46.24-1.07.19-1.65-.04-.5-.11-.97-.33-1.39-.26-.49-.72-.9-1.01-1.36-.71-1.14-.34-2.63-.9-4.07-.22-.57-.58-1.13-.35-1.61.12-.26.42-.49.46-.76.02-.16-.04-.34-.14-.52-.13-.25-.3-.5-.23-.72.04-.12.16-.23.28-.34.63-.61,1.02-1.22,1.52-1.93.28-.4.61-.83.62-1.24.02-.58-.57-1.11-1.04-1.65-.78-.92-1.22-1.87-1.66-2.83.76-.58,1.52-1.17,2.1-1.9,1.42-1.78,1.73-4.43,1.4-6.8-.22-1.59-.74-3.06-1.51-4.41-.62-1.1-1.41-2.11-2.32-3-1.75-1.71-3.94-2.94-6.14-4.02-2.53-1.24-5.08-2.3-7.51-3.82-.98-.61-1.93-1.29-3-1.57-1.15-.29-2.43-.11-3.62-.41-.84-.21-1.64-.66-2.46-.75-1.08-.12-2.2.38-3.34.48-1.13.1-2.27-.2-3.34-.07-1.35.16-2.59,1.01-3.96,1.5-2.33.84-5.04.65-6.96,1.91-.95.62-1.71,1.6-2.66,2.38-1.17.97-2.63,1.66-3.41,2.79-.97,1.41-.89,3.52-1.5,5.28-.57,1.63-1.73,2.97-2.05,4.63-.21,1.11-.05,2.37-.55,3.34-.26.5-.7.93-1.07,1.39-1.65,2.05-2.07,4.89-1.87,7.53.15,1.95.63,3.78,1.23,5.59,1.08,3.23,2.55,6.39,4.42,9.18,1.4,2.09,3.01,3.97,4.16,6.4.54,1.15.98,2.41,1.99,3.01.38.22.84.35,1.21.6.45.31.74.81.98,1.32.56,1.23.76,2.58.58,3.87-.13.95-.47,1.86-.8,2.76-.72.12-1.44.25-2.16.46-.79.23-1.59.58-2.15,1.13-.75.74-1.08,1.85-1.63,2.79-.59,1-1.42,1.8-2.3,2.54-.98.84-2.01,1.61-3.04,2.37-3.86,2.13-7.71,4.26-11.58,6.31-4.63,2.46-9.28,4.81-13.86,7.55-2.78,1.67-5.55,3.48-7.56,5.9-2.46,2.95-3.81,6.79-5.11,10.52-.73,2.11-1.44,4.18-1.99,6.29-1.51,5.83-1.74,11.99-2.59,18-.36,2.58-.83,5.13-1.26,7.68-.81,4.86-1.45,9.75-2.19,14.62-.49,3.22-1.03,6.44-1.86,9.6-.52,2-1.16,3.99-1.53,6-.35,1.91-.46,3.84-.66,5.83-.19,1.8-.45,3.65.13,5.3.25.7.65,1.36.93,2.05.72,1.78.65,3.77.73,5.73.24,5.69,1.79,11.11,3.79,16.33,1.17,3.06,2.49,6.05,4.44,8.74,1.04,1.44,2.27,2.8,2.79,4.44.23.73.32,1.51.4,2.29,2.71,2.74,5.43,5.47,8.09,8.68.76.91,1.52,1.86,2.52,2.25.69.27,1.51.27,2.32.27v-.07c3.89,4.26,7.78,8.52,11.68,12.78.75.86,1.5,1.72,2.25,2.57,1.42,1.6,2.88,3.18,4.34,4.75.13,1.43.27,2.85.22,4.39-.06,1.78-.36,3.7.57,5.07.48.7,1.29,1.25,1.73,1.98.61,1.03.48,2.4.37,3.68-.06.7-.12,1.38-.05,2.04.16,1.47.98,2.86,1.52,4.3.88,2.37,1,4.89,1.36,7.36.71,4.96,2.39,9.74,2.93,14.72.11.98.17,1.96.31,2.93.53,3.52,2.17,6.79,3.3,10.21.51,1.54.91,3.1,1.1,4.7.09.8.13,1.61.26,2.4.33,2.01,1.26,3.95,3.24,5.17.86.53,1.92.92,2.09,1.62.14.58-.31,1.36-.37,2.14-.07,1,.53,2,.26,2.77-.23.64-1.07,1.11-1.47,1.82-.32.57-.36,1.29-.1,1.88.2.47.59.85.73,1.31.25.8-.3,1.81-.1,2.66.09.37.31.71.37,1.1.06.44-.1.93,0,1.31.07.24.24.44.47.68.42.44,1.04,1.03.73,1.31-.07.06-.19.11-.31.16-1.24.49-2.43,1.17-2.82,2.19-.34.89-.08,2.03.21,3.11.77,2.82,1.74,5.21,2.25,7.83.24,1.24.38,2.54.52,3.83-2.13,2.33-4.26,4.67-6.43,6.84-1.17,1.17-2.35,2.29-3.56,3.57-1.37,1.45-2.78,3.12-3.03,4.86-.14.96.07,1.94.26,3.13.06.38.12.78-.05.99-.16.19-.5.24-.84.28-.47-.38-.94-.76-1.46-.99-1.8-.8-4.18.24-5.96,1.46-.6.41-1.14.85-1.78,1.1-1.04.4-2.36.31-3.29.89-.61.37-1.06,1.03-1.62,1.51-1.58,1.37-4.08,1.38-5.65,2.66-1.09.89-1.73,2.37-1.99,3.84-.24,1.4-.13,2.78.11,4.12.57,3.3,1.85,6.44,2.88,9.69.37,1.18.71,2.37,1.36,3.4.62.99,1.53,1.82,2.09,2.82.99,1.76.88,4.01.78,6.14-.07,1.6-.15,3.13-.37,4.65-.3,2.15-.89,4.28-1.24,6.46-.17,1.08-.29,2.16-.26,3.25.03,1.19.25,2.38.52,3.55.6,2.6,1.48,5.12,2.6,7.55,1.17,2.56,2.61,5.03,4.53,7.06,1.52,1.61,3.34,2.93,4.68,4.71.55.72,1.01,1.51,1.76,2.04,1.44,1.03,3.9,1.09,5.2-.13.51-.48.84-1.15.91-1.82.08-.75-.17-1.51-.26-2.27-.15-1.24.11-2.47.2-3.72.09-1.24.01-2.5-.29-3.7-.21-.84-.54-1.65-.75-2.48-.31-1.23-.37-2.52-.49-3.8-.1-1.1-.25-2.19-.26-3.28,0-.83.08-1.65.1-2.48.01-.61,0-1.22-.1-1.82-.09-.61-.25-1.21-.29-1.82-.03-.49.02-.98.1-1.46.12-.73.32-1.44.23-2.19-.05-.44-.21-.9-.13-1.3.08-.4.4-.75.71-1.1,1.33-1.5,2.4-3,3.12-4.69.62-1.43.99-2.99,1.85-4.42.42-.69.95-1.35.94-2.11,0-.55-.28-1.15-.19-1.66.11-.62.78-1.08,1.27-1.61.49-.53.8-1.13,1.2-1.69.37-.51.81-.99.98-1.63.1-.38.09-.82.26-1.1.37-.63,1.56-.56,2.28-.97.56-.33.82-.96,1.17-1.56.31-.53.68-1.04,1.14-1.3.92-.52,2.2-.05,3.45-.33.77-.17,1.53-.63,2.05-.58,1.08.11,1.08,2.42,1.6,4.15.76,2.52,2.63,3.8,3.2,5.64.53,1.7-.06,3.87-.32,5.99-.18,1.42-.21,2.82.96,3.91.64.6,1.63,1.11,1.52,1.6-.08.32-.64.64-1.04,1.04-1.05,1.06-.86,2.72-.24,3.91.39.74.95,1.31,1.92,1.52,1.02.22,2.48.05,2.48.64,0,.43-.79,1.26-.64,1.75.08.27.45.44.8.64.47.26.91.59.96.96.07.48-.52,1.04-1.12,1.36-.56.3-1.13.37-1.52.64-.96.66-.77,2.49-1.04,3.98-.39,2.09-1.71,3.54-1.92,5.43-.07.68,0,1.42-.16,2.08-.29,1.2-1.34,2.1-2.32,3.03-1.75,1.68-3.24,3.49-4,5.4-.62,1.55-.76,3.17.18,3.78.56.37,1.52.37,2.36.37h9.39c3.14,0,5.6,0,8.23-.04,1.79-.02,3.65-.06,4.56-1.24.82-1.06.87-3.04,1.64,1.27h4.42q1.6,0,1.53-4.32c-.03-1.98-.08-4.86.35-5.42-.03-.93-.07-1.85-.1-2.78.03-.69.05-1.38.15-2.08.22-1.56.79-3.17.35-4.62-.13-.42-.34-.82-.55-1.22.21-.61.42-1.21.6-1.84.21-.76.37-1.54.4-2.33.02-.55-.01-1.1-.05-1.65.79-.14,1.58-.27,2.13-.71.77-.61,1.07-1.8,1.11-2.92.06-1.61-.41-3.07-1.19-4.34-.66-1.08-1.53-2.03-2.45-2.92-.94-.91-1.93-1.76-2.93-2.6.64-.75,1.29-1.5,1.91-2.34.89-1.21,1.74-2.62,1.66-4.03-.04-.81-.39-1.61-.79-2.37-.84-1.59-1.93-2.94-2.85-4.42-.76-1.22-1.41-2.52-2.06-3.82.37-2.34.75-4.67.87-7.02.16-3.08-.1-6.18-.63-9.24-.55-3.16-1.39-6.27-1.74-9.44-.12-1.07-.18-2.15-.24-3.24.34-.26.69-.53,1.03-.79,2.45-1.88,4.91-3.74,7.11-5.92,2-1.98,3.8-4.21,6.02-5.88,1.39-1.05,2.95-1.88,4.11-3.31.59-.73,1.08-1.62,1.9-1.89.74-.25,1.75-.01,2.37-.39.57-.35.83-1.22,1.34-1.74.41-.41.98-.6,1.5-.87.95-.5,1.71-1.27,2.37-2.13,1.12-1.45,1.98-3.16,3.4-4.18,1.1-.79,2.54-1.17,3.72-1.89,1.69-1.03,2.83-2.77,3.97-4.5,1.02-1.06,2.05-2.13,2.8-3.38.62-1.03,1.06-2.19,1.28-3.38.3-1.57.22-3.18,0-4.78-.21-1.53-.54-3.05-.35-4.55.08-.62.25-1.24.35-1.87.3-1.8.05-3.64-.14-5.48-1.25-11.72-.55-23.27-1.53-34.94-.39-4.58-1.03-9.18-2.9-13.41-1.03-2.33-2.43-4.56-2.77-7.03-.08-.6-.1-1.2-.22-1.8-.12-.6-.34-1.19-.45-1.76-.19-.99-.04-1.93.11-3.14.05-.41.11-.86-.11-1.06-.15-.15-.43-.18-.72-.21-.01-.31-.03-.62-.04-.94.67-1.12,1.34-2.25,2.14-3.3.67-.88,1.42-1.7,1.92-2.67.25-.49.44-1.03.63-1.56.34-.15.67-.3.94-.52.89-.72.95-2.13,1.2-3.39.39-1.91,1.24-3.46,1.92-5.12.65-1.57,1.15-3.24,1.65-4.9,1.29-1.3,2.59-2.59,3.75-4,.73-.88,1.4-1.79,2.19-2.63.84-.9,1.79-1.7,2.5-2.67,1.29-1.77,1.74-4.11,2.01-6.36.16-1.34.25-2.65.36-3.97.31-3.95.72-7.94,1.07-11.93.19-2.11.36-4.23.22-6.33-.07-1.12-.23-2.23-.31-3.34-.15-2.09-.03-4.19.14-6.27.16-2.04.37-4.06.45-6.1ZM49.22,197.51c-.64,1.68-.89,3.36-.48,4.97.25.99.76,1.96.8,2.97.05.98-.34,2-.32,2.97,0,.04,0,.08,0,.12,0,0-3.38-2.46-3.73-4.38-.19-1.03.48-1.9.44-2.77-.04-.84-.74-1.68-1.12-2.57-.31-.71-.42-1.46-.64-2.16-.4-1.28-1.16-2.44-1.93-3.61-.48-.72-.96-1.45-1.14-2.27-.19-.89-.03-1.9-.48-2.73-.24-.44-.66-.83-.72-1.28-.08-.58.4-1.27.32-1.84-.07-.54-.63-.99-.88-1.52-.38-.8-.04-1.78-.16-2.65-.11-.85-.66-1.6-1.36-2.2-.54-.46-1.18-.84-1.37-1.44-.1-.31-.07-.69,0-1.04.21-1.01.83-1.84,1.53-2.57.79-.83,1.68-1.54,2.57-2.24.98-2.29,1.96-4.59,2.97-9.94.45-2.37.9-5.34,1.29-4.41.08.2.16.59.24.96,1.1,5.32,1.84,9.31,2.97,13.69.57,2.18,1.23,4.46,1.53,6.82.24,1.93.22,3.91,1.12,5.61.57,1.07,1.49,2.03,1.93,3.05,1.32,3.11-1.96,6.78-3.37,10.48ZM115.9,312.73c-.52,1.37-.45,2.79-.26,4.24.14,1.04.33,2.11.06,3.05-.29,1.01-1.11,1.87-1.99,2.57-1.2.94-2.53,1.57-3.73,2.38-1.45.97-2.72,2.19-3.95,3.49-.75-2.21-1.43-4.42-1.31-6.64.12-2.24,1.05-4.48,1.18-6.73.11-2.03-.43-4.06-.86-6.09-1.12-5.35-1.46-10.72-1.82-16.09-.24-3.66-.5-7.33-.75-11.01-.3-4.42-.6-8.85-.32-13.25.07-1.04.16-2.09.26-3.13.2,3.96.41,7.92,2.24,11.21.83,1.49,2.01,2.85,2.77,4.39.73,1.48,1.08,3.13,1.63,4.71.8,2.33,2.03,4.49,2.77,6.83.75,2.37.99,4.9,2.16,7.16.62,1.2,1.5,2.31,1.67,3.6.1.75-.05,1.56.13,2.31.28,1.2,1.37,2.26,1.48,3.37.12,1.18-.87,2.4-1.35,3.66Z"/>
  <path class="cls-1" d="M111.92,328.64c1.34,3.3,2.67,6.6,5.19,8.13,2.4,1.46,5.86,1.31,9.12.98,6.35-.65,11.95-2,17.54-3.36"/>
  <path class="cls-1" d="M94.9,421.49c3.75-.7,7.5-1.39,11.32-1.46,3.66-.06,7.39.46,10.8,1.75.97.37,1.92.8,2.86,1.22"/>
  <path class="cls-1" d="M102.81,260.53c4.46.25,8.91.49,13.33.2,4.73-.31,9.42-1.24,14.13-1.99,4.21-.66,8.42-1.18,12.64-1.69"/>
  <path class="cls-1" d="M97.05,261.72c-1.83,2.53-3.67,5.06-5.95,6.96-4.47,3.73-10.64,5.04-16.81,6.35"/>
  <path class="cls-1" d="M106.39,261.92c6.2,1.76,12.39,3.52,18.7,4.67,6.72,1.22,13.56,1.75,20.39,2.28"/>
  <path class="cls-1" d="M67.18,22.28c3.48,1.85,6.95,3.71,9.35,6.53,2.01,2.36,3.25,5.39,4.5,8.42"/>
  <path class="cls-1" d="M65.91,26.35c1.84,2.69,3.68,5.39,4.01,8.42.12,1.1.04,2.24,0,3.37-.05,1.41-.02,2.81,0,4.21"/>
  <path class="cls-1" d="M44.55,156.71c.47-1.29.94-2.58,1.3-3.89,1.27-4.64,1.12-9.52.74-14.5-.44-5.85-1.2-11.85-2.92-16.8-.67-1.94-1.49-3.71-1.99-6.37-1.07-5.7-.66-15.41-.27-14.33"/>
  <path class="cls-1" d="M140.73,164.31c.75,1.52,1.49,3.03,2.56,3.74,2.17,1.45,5.67-.44,9.14,1.19,1.75.82,3.5,2.54,3.11,3.47-.32.77-2.09,1-3.66,1.19-3.37.4-5.8.56-8.23.73"/>
  <path class="cls-1" d="M146.94,177.63c1.15.16,2.29.31,2.47.73.25.6-1.5,1.73-2.83,2.37-.84.41-1.52.61-2.19.82"/>
  <path class="cls-1" d="M74.57,242.05c.37,1.44.06,2.34-.92,2.71"/>
  <path class="cls-1" d="M71.4,247.14c-.31,1.22-.98,2-2.02,2.34"/>
  <path class="cls-1" d="M66.3,250.4c-.15.82-.82,1.27-2.01,1.33"/>
  <path class="cls-1" d="M34.05,178.26c-7.78-1-11.88-1.78-15.88-6.44"/>
  <path class="cls-1" d="M45.17,382.28c.13,7.97,1.6,12.59,3.22,16.08,1.62,3.49,3.39,5.87,4.16,8.32.77,2.45.53,4.96.12,7.64-.42,2.68-1.02,5.52-1.35,8.29-.33,2.77-.37,5.48.79,9.45,1.17,3.97,3.54,9.22,9.43,20.14"/>
  <path class="cls-1" d="M106.03,328.47c-.84.88-1.65,1.8-2.49,2.69-4.28,4.56-9.05,8.42-13.53,12.64-4.56,4.3-8.81,8.96-13.06,13.62"/>
  <path class="cls-1" d="M38.99,171.43c-1.92-.04-3.84-.08-6.08-.54-2.49-.51-5.37-1.54-6.79.45-.28.39-.5.89-.45,1.25.11.76,1.43.89,2.59,1.07,2.6.4,4.34,1.05,6.08,1.7"/>
  <path class="cls-1" d="M85.06,448.84c7.84.9,11.58.82,14.81.7,3.23-.12,5.94-.28,7.88-.75,1.95-.47,3.13-1.25,4.26-1.11,1.13.13,2.22,1.18,5.36.85"/>
  <path class="cls-1" d="M84.7,45.11c.46.48.93.97,1.39,1.03.89.12,1.8-1.31,2.06-2.61.51-2.55-1.45-4.6-1.06-6.42.27-1.24,1.64-2.37,3.06-3.22,1.92-1.15,3.92-1.78,5.06-3.28.59-.78.94-1.79,1.61-2.67.6-.79,1.44-1.46,2.5-1.22,1.43.33,3.25,2.32,3.17,2-.08-.32-2.08-2.99-2.06-3.17.03-.22,3.18,3.37,3.34,3.28.17-.1-2.96-4.27-1.84-4.56.66-.17,2.79,1.01,2.74.92-.04-.06-1.01-.67-1.34-1.33-.27-.56-.1-1.16.18-1.55.98-1.39,3.26-.17,4.31,2.23.67,1.54.84,3.57.88,3.51.05-.07-.09-3.36,1.14-4.35.69-.55,1.81-.39,2.45.39,1.26,1.54.6,5.47.65,4.96.04-.41.53-3.7,1.11-3.74.33-.02.69,1,.7,1.89,0,.22-.02.44.05.55.16.25.75.01,1.22,0,.73-.02,1.15.49,1.51,1.11"/>
  <path class="cls-1" d="M111.82,21.56c-1.02-1.52-2.04-3.05-3.28-4.36-2.93-3.12-7.09-5.04-11.29-6.36-4.69-1.48-9.44-2.19-14.2-2.91"/>
  <path class="cls-1" d="M89.88,85.39c.34,2.95.68,5.9,2.29,5.77.75-.06,1.77-.77,2.39-1.59,1.08-1.42.99-3.15.9-4.88"/>
  <path class="cls-1" d="M114.56,37.56c-.07.22-.13.45-.15.68-.06.54.05,1.12.26,1.64.04.09.07.18.12.27"/>
  <path class="cls-1" d="M104.51,38.56c-.21.58-.35,1.14-.19,1.62.1.3.32.57.58.83"/>
  <path class="cls-1" d="M113.06,57.89c-.14.29-.28.59-.49.78-.63.58-1.85.26-2.78.06-1.04-.22-1.71-.27-3.04-.62-.79-.21-1.81-.52-1.67-.75.09-.14.61-.26,1.08-.33,1.26-.19,2.09-.03,3.04-.13.68-.07,1.42-.26,2.16-.33.69-.06,1.38,0,2.04.16.04.01.08.02.13.03"/>
  <path class="cls-1" d="M104.87,57.11c.13.44.27.87.55,1.12.43.39,1.21.34,1.86.52.52.14.95.42,1.37.68.41.26.81.49,1.35.71,1.53.6,4.25,1.02,4.27.21,0-.41-.68-1.15-.99-1.92-.19-.47-.24-.95-.05-1.3.24-.43.86-.65,1.25-1.04.3-.3.46-.69.62-1.09"/>
  <path class="cls-1" d="M104.87,57.11c.25-.21.5-.42.77-.58.74-.42,1.67-.47,2.54-.58.98-.13,1.91-.34,2.86-.64.73-.23,1.49-.51,2.22-.32.33.08.65.26.97.26.29,0,.58-.15.87-.3"/>
  <path class="cls-1" d="M113.39,39.35c.2.18.4.36.63.5.35.21.75.33,1.16.36.24.02.48,0,.72-.04"/>
  <path class="cls-1" d="M113.75,37.9c.22-.11.45-.23.69-.3.39-.12.83-.12,1.24-.08.33.03.65.1.96.17"/>
  <path class="cls-1" d="M106.72,40.73c-.66.12-1.32.24-1.98.29-1.08.08-2.16-.05-3.24-.19-.77-.11-1.54-.22-2.3-.34"/>
  <path class="cls-1" d="M106.92,38.41c-.18.37-.35.73-.39,1.11-.04.39.08.8.19,1.21"/>
  <path class="cls-1" d="M97.58,41.41c.83-.48,1.66-.96,2.52-1.4.92-.47,1.87-.9,2.85-1.16,1.28-.33,2.62-.38,3.97-.43"/>
  <path class="cls-1" d="M108.32,36.76c1.91.11,2.14,1.87,1.81,3.9"/>
  <path class="cls-1" d="M117.28,47.6c-.71-.88-1.43-1.76-1.89-2.77-.34-.76-.54-1.59-.93-2.35-.46-.9-1.2-1.69-1.34-2.67-.07-.47,0-.99.19-1.44.26-.64.76-1.14,1.25-1.64"/>
  <path class="cls-1" d="M112.44,51.8c.57.13,1.15.26,1.7.15.15-.03.31-.08.46-.13"/>
  <path class="cls-1" d="M109.8,47.34c-.47.46-.94.93-1.08,1.51-.13.55.03,1.2.36,1.72.35.56.89.98,1.51,1.15.54.14,1.14.1,1.65-.07.28-.09.52-.22.85-.26.85-.12,2.24.33,2.22.63-.02.23-.82.38-1.63.54"/>
  <path class="cls-1" d="M114.55,36.74c.22-.4.43-.79.71-1.12.54-.62,1.31-.95,2.17-1.18"/>
  <path class="cls-1" d="M114.55,36.74c.65-.27,1.31-.54,1.88-.36.28.09.54.29.81.49"/>
  <path class="cls-1" d="M110.53,34.28c-.54.91-1.07,1.81-1.88,2.28-.74.42-1.7.48-2.64.58-1.69.19-3.3.54-4.79.8-.96.17-1.86.31-3.04.76-.8.31-1.73.76-1.97.8-.52.1,2.16-1.72,3.71-2.72.51-.33.9-.57,1.34-.71,1.02-.33,2.31-.12,3.53-.09,1.13.03,2.21-.1,3.22-.45.84-.29,1.63-.72,2.41-1.16"/>
  <path class="cls-1" d="M76.09,63.93c.72-.68,1.41-1.37,1.8-2.24.54-1.19.53-2.69,0-3.96-.28-.67-.71-1.26-.56-2.01.12-.58.58-1.24.49-1.53-.11-.37-1.14-.11-2.02-.49-.65-.27-1.21-.89-1.04-1.11.17-.23,1.09-.06,1.53-.14.98-.17-.38-1.54-1.74-2.92"/>
  <path class="cls-1" d="M140.07,214.76c1.31-1.15,2.61-2.29,2.23-3.5-.3-.95-1.65-1.94-1.59-2.86.04-.63.74-1.22,1.17-1.91.61-.98.66-2.14.32-3.18-.23-.7-.64-1.36-.74-2.02-.27-1.76,1.64-3.54,1.96-5.39.19-1.12-.21-2.26-.6-3.4"/>
  <line class="cls-1" x1="145.64" y1="182.08" x2="154.99" y2="182.4"/>
  <path class="cls-1" d="M132.37,225.95c2.17.27,4.33.58,6.36,1.23,3.23,1.03,6.12,2.92,8.99,5.06,1.32.98,2.63,2.01,3.2,3.51.26.68.36,1.46.21,2.17,0,.04-.02.08-.03.12"/>
  <path class="cls-1" d="M86.25,395.11c1.7-2.14,3.4-4.28,5.3-6.26,2.42-2.51,5.17-4.74,7.23-7.54,1.69-2.3,2.91-4.98,4.66-7.22,2.15-2.75,5.09-4.83,8.03-6.9"/>
  <path class="cls-1" d="M88.99,444.02c1.56-.83,3.11-1.67,4.76-2.13,2.66-.75,5.56-.52,8.45-.29"/>
  <path class="cls-1" d="M91.42,440.43c1.89-.82,3.79-1.64,5.83-2.13,2.3-.56,4.77-.71,6.99-.1,1.9.53,3.62,1.62,5.34,2.71"/>
  <path class="cls-1" d="M96.63,428.44c1.84-.37,3.68-.75,5.61-.88,2.82-.2,5.82.11,8.15,1.53.97.6,1.82,1.39,2.77,2.06.78.55,1.63,1.03,2.54,1.24.61.14,1.24.16,1.87.14"/>
  <path class="cls-1" d="M97,425.04c1.46-.58,2.93-1.16,4.44-1.4,2.86-.46,5.89.29,8.75,1.17,2.14.65,4.19,1.38,6.24,2.1"/>
  <path class="cls-1" d="M95.55,412.93c1.23-.86,2.45-1.72,4.56-2.19,3.83-.85,10.56-.41,9.18.52-.41.28-1.55.6-2.6.86-2.91.74-5.18,1.06-7.45,1.38"/>
  <path class="cls-1" d="M112.86,400.75c-2.78,2.32-5.55,4.64-4.5,5.47.73.58,3.3.43,4.91-.4,1.01-.53,1.63-1.33,2.25-2.13"/>
  <path class="cls-1" d="M58.29,395.04c2.16,2.07,4.32,4.15,6.9,5.17,2.46.97,5.32.98,8.17,1"/>
  <path class="cls-1" d="M59.11,386.97c-.03,1.32-.06,2.63.36,3.72.8,2.06,3.24,3.29,5.45,4.53,2.79,1.57,5.21,3.14,7.62,4.71"/>
  <path class="cls-1" d="M54.57,390.87c.29-1.67.59-3.35.82-5.07.26-1.9.44-3.87,1.27-5.53.54-1.08,1.36-2.04,2.18-2.99"/>
  <path class="cls-1" d="M49.16,380.69c-.14,2.26-.1,4.49.33,6.64.78,3.93,2.84,7.63,5.35,11.06,2.76,3.76,6.06,7.19,10.07,8.97,2.13.95,4.45,1.43,6.86,1.74"/>
  <path class="cls-1" d="M77.5,332.42c3.77,2.79,7.54,5.57,11.32,5.11,2.33-.29,4.65-1.81,6.88-3.35,3.48-2.41,6.71-4.88,9.8-7.38"/>
  <path class="cls-1" d="M75.81,311.9c3.92,2.18,7.85,4.35,12.06,5.5,3.62.98,7.45,1.21,11.28,1.44"/>
  <path class="cls-1" d="M101.91,261.62c1-.88,2.01-1.76,2.69-2.79,2.22-3.32,1.1-8.13.68-12.54-.34-3.64-.21-7.01-.08-10.37"/>
  <path class="cls-1" d="M116.63,211.75c5.29-1.39,10.58-2.78,16.58-7.99,1.76-1.53,3.58-3.38,4.57-2.85.74.39,1.02,2.08,1.31,3.77"/>
  <path class="cls-1" d="M75.47,200.14c4.09,5.08,8.17,10.15,14.29,12.56,1.43.56,2.97.98,4.38.76,1.57-.24,2.98-1.26,4.38-2.28"/>
  <path class="cls-1" d="M76.85,258.03c.79.02,1.58.04,2.24-.28.6-.3,1.1-.88,1.36-1.56.27-.71.28-1.51,0-2.18-.34-.82-1.12-1.45-1.84-1.95-1.15-.8-2.16-1.28-3.23-2.77-.37-.53-.76-1.18-.72-1.31.05-.2.99.72,1.73,1.37.95.83,1.55,1.2,2.19,1.8.69.65,1.42,1.55,2.43,1.91.92.33,2.07.21,2.8-.39.56-.46.86-1.21.94-1.96.09-.86-.12-1.73-.53-2.44-.72-1.21-2.07-1.94-3.28-2.78-1.92-1.33-3.51-2.95-4.83-4.78-.83-1.15-1.55-2.38-2.25-3.62"/>
  <path class="cls-1" d="M58.32,252.06c.72,1.28,1.45,2.57,2.32,3.68,1.34,1.7,3.04,3,4.82,4.58.46.41.93.84,1.45.94.63.12,1.33-.24,1.93-.79.59-.54,1.08-1.27.93-1.81-.1-.38-.5-.67-.96-1.05-1.78-1.47-4.33-4.24-3.91-3.93.22.16,1.26,1.17,2.12,1.98,1.46,1.37,2.41,2.19,3.54,3.39.53.56,1.09,1.2,1.78,1.41.69.21,1.51-.01,2.24-.37.55-.27,1.06-.62,1.28-1.16.11-.28.14-.6.08-.88-.13-.62-.71-.96-1.39-1.44-2.09-1.49-5.13-4.33-4.59-4.1.28.12,1.51,1.06,2.55,1.87,1.85,1.46,3.1,2.55,4.34,3.63"/>
  <path class="cls-1" d="M78.55,41.26c-.62-.73-1.23-1.45-2.07-1.64-.71-.15-1.58.08-2.15.58-.7.62-.92,1.64-.95,2.58-.03.99.15,1.9.4,2.87.33,1.28.79,2.66,1.78,3.38.51.37,1.17.57,1.82.76"/>
  <path class="cls-1" d="M101.32,245.23c.14,3.08.28,6.16.3,9.24.01,2.38-.04,4.77-.1,7.15"/>
  <path class="cls-1" d="M107.42,179.61c2.56,2.71,5.13,5.43,5.65,9.25.23,1.69.07,3.6.68,4.74,1.35,2.53,6.53,1.28,10.62.45,3.93-.79,6.86-1.2,9.95-2.26,1.63-.56,3.3-1.29,4.97-2.03"/>
  <path class="cls-1" d="M76.13,216.5c-3.22-.25-6.44-.5-9.64-.84-3.64-.39-7.27-.89-10.9-1.39"/>
  <line class="cls-1" x1="76.41" y1="210.22" x2="76.55" y2="216.08"/>
  <line class="cls-1" x1="50.98" y1="208.68" x2="75.71" y2="210.07"/>
  <path class="cls-1" d="M53.49,188.44c1.28,3.22,2.56,6.44,3.91,10.61.76,2.33,1.54,4.96.7,6.28-.96,1.51-4.05,1.31-7.13,1.12"/>
  <path class="cls-1" d="M39.93,231.88c.61-1.38,1.23-2.77,2-4.05,1.71-2.82,4.2-5.17,6.9-7.14,1.78-1.29,3.64-2.42,5.55-3.48"/>
  <path class="cls-1" d="M51.16,244.17c.66-.8,1.32-1.61,1.99-2.4,1.54-1.83,3.12-3.61,4.79-5.35,1.34-1.39,2.73-2.75,4.31-3.81.66-.44,1.35-.83,2.07-1.19"/>
  <path class="cls-1" d="M78.4,45.32c.42-.45.84-.9.84-1.6,0-.14-.02-.3-.07-.36-.14-.18-.53.24-.87.47-.55.36-1,.23-1.53.36-.65.16-1.41.71-1.42,1.31,0,.28.16.57.25.87.11.38.12.78.25,1.09.28.63,1.12.88,1.97,1.13"/>
  <path class="cls-1" d="M102.03,244.81c-1.76-.49-3.51-.98-5.3-1.11-1.86-.13-3.76.13-5.65.08-3.67-.08-7.3-1.32-10.52-3.13-1.5-.84-2.9-1.81-4.42-2.57-2.29-1.15-4.83-1.81-7.15-2.97-1.26-.63-2.45-1.4-3.47-2.36-.97-.92-1.79-2-2.41-3.21-1.31-2.56-1.7-5.65-3.45-7.78-1.25-1.52-3.2-2.54-4.66-3.93-1.5-1.42-2.48-3.21-3.71-5.02-.93-1.38-2-2.76-2.08-4.29"/>
  <line class="cls-1" x1="112.21" y1="243.71" x2="117.39" y2="242.12"/>
  <line class="cls-1" x1="124.63" y1="249.49" x2="126.3" y2="251.63"/>
  <path class="cls-1" d="M120.93,246.67c-.38-.55-.76-1.1-.71-1.52.08-.78,1.63-1.1,2.7-1.61.68-.32,1.16-.72,1.65-1.12"/>
  <path class="cls-1" d="M135.36,252.37c-.11.45-.22.9-.1,1.25.21.6,1.11.93,1.88.96,1.19.05,2.11-.63,2.94-1.35,1.22-1.06,2.25-2.23,3.28-3.42.79-.92,1.58-1.84,2.36-2.77"/>
  <path class="cls-1" d="M145.14,104.73c-.8,6.53-1.6,13.06-2.56,19.5-1.01,6.78-2.19,13.46-2.93,20.48-.35,3.33-.6,6.74-.62,9.8-.04,4.41.39,8.11-.24,14.15-.32,3.05-.9,6.69.98,7.07.58.12,1.39-.08,2.2.12,1.42.36,2.81,1.96,2.44,3.05-.24.7-1.2,1.18-1.71,1.83-.98,1.24-.26,3.07.37,4.81.69,1.9,1.25,3.69.73,5.24-.41,1.22-1.5,2.31-2.2,3.54-.92,1.63-1.17,3.51-1.22,5.36-.05,1.89.11,3.76.12,5.61,0,1.96-.15,3.89-.25,5.92-.08,1.74-.12,3.53-.86,5-.68,1.35-1.96,2.42-2.93,3.66-1.63,2.08-2.36,4.64-4.52,6.46-1.84,1.55-4.71,2.57-4.88,4.63-.06.75.23,1.63.12,2.44-.1.77-.57,1.47-1.1,2.07-1.4,1.59-3.19,2.48-5.13,3.54-1.47.8-3.03,1.71-3.57,3.12-.28.73-.29,1.59-.13,2.44.22,1.14.76,2.27,1.69,2.8.93.53,2.26.46,3.28-.05.97-.49,1.65-1.37,1.98-2.41.2-.65.26-1.35.63-1.83.3-.4.82-.63,1.35-.87.52-.23,1.07-.46,1.54-.24.25.11.48.35.58.58.3.7-.57,1.4-1.25,2.12-1.14,1.2-1.74,2.46-3.14,2.65-.66.09-1.5-.05-1.93.24-.62.43-.38,1.77.14,2.8.94,1.84,2.79,2.65,4.44,2.31.94-.19,1.81-.76,2.51-1.35,1.03-.87,1.69-1.78,2.75-3.13.86-1.1,2-2.48,2.17-2.6.25-.17-1.43,2.21-2.94,3.81-1.03,1.09-1.99,1.83-1.88,2.7.08.7.85,1.49,1.69,2.02.57.37,1.18.62,1.69.58.89-.06,1.51-1,2.32-2.07,1.52-2.02,3.73-4.5,3.81-4.48.08.02-1.63,2.13-3.33,4.24"/>
  <path class="cls-1" d="M98.97,186.41c.53-.36,1.06-.71,1.57-.67.52.04,1.02.49,1.35,1.07.28.5.42,1.1.18,1.48-.18.29-.59.45-.99.58-.39.13-.77.23-1.12.13-.5-.14-.94-.67-1.08-1.21-.12-.46-.01-.92.09-1.39Z"/>
  <path class="cls-1" d="M97.07,163.98c.51-.24,1.02-.48,1.53-.39.48.08.95.43,1.14.92.18.45.1,1.02-.22,1.36-.31.33-.85.42-1.31.31-.31-.08-.58-.24-.75-.48-.16-.23-.22-.54-.26-.83-.05-.3-.09-.59-.13-.88Z"/>
  <path class="cls-1" d="M84.2,120.62c.16-.19.32-.38.52-.52.38-.26.9-.33,1.39-.22.31.07.59.21.78.43.22.26.29.63.35,1,.04.24.07.48,0,.69-.08.25-.29.46-.52.61-.36.22-.78.26-1.21.22-.44-.05-.89-.19-1.13-.52-.12-.17-.19-.39-.22-.61-.05-.37,0-.72.04-1.08Z"/>
  <path class="cls-1" d="M81.9,98.27c.5-.2,1-.4,1.41-.26.43.15.77.64.9,1.16.1.39.07.79-.13,1.11-.18.3-.51.53-.86.6-.44.09-.92-.08-1.29-.38-.25-.21-.46-.47-.56-.73-.09-.23-.1-.44.04-.81.15-.38.45-.91.47-.69,0,.02,0,.05,0,.08"/>
  <path class="cls-1" d="M106.81,91.13c-1.01,5-2.02,10.01-2.2,15.06-.13,3.43.13,6.88.17,10.32.09,7.18-.75,14.33-1.53,21.49-.84,7.73-1.62,15.48-1.47,23.19.17,8.52,1.47,16.98,2.6,25.54,1.47,11.1,2.66,22.35,7.37,32.46,1.48,3.18,3.31,6.24,4.33,9.52,1.32,4.23,1.31,8.82,1.3,13.42"/>
  <path class="cls-1" d="M74.28,89.38c2.18,2.82,4.35,5.64,5.76,8.8,1.98,4.44,2.44,9.56,2.71,14.55.34,6.27.4,12.35,1.18,18.54.5,3.97,1.29,7.98,3.05,11.51,1.36,2.74,3.31,5.18,5.25,7.61"/>
  <path class="cls-1" d="M107.72,70.63c1.02,1.38,2.05,2.77,3.05,4.17.89,1.25,1.77,2.51,2.65,3.77"/>
  <path class="cls-1" d="M117.56,77.58c1.07.81,2.13,1.62,3.08,3.34,1.31,2.36,2.39,6.44,1.9,5.95-.26-.25-.94-1.74-1.64-2.81-1.34-2.06-2.76-2.59-4.91-3.86-1.15-.67-2.5-1.55-3.21-.85-.17.17-.31.44-.39.72-.12.41-.13.83-.26,1.18-.35.95-1.56,1.42-2.56,2.03-1.33.81-2.27,1.88-3.21,2.94"/>
  <path class="cls-1" d="M62.41,79.14c-.71,1.66-1.41,3.33-2.53,5.82-.67,1.49-1.48,3.28-.91,3.69.46.33,1.81-.23,2.98-.58,1.94-.58,3.41-.59,4.92-.97,1.41-.35,2.84-1.01,4.08-2.26.63-.64,1.21-1.43,2.01-1.29.19.03.4.12.52.26.43.48-.23,1.55.07,2.07.17.31.68.42,1.03.65.12.08.22.17.32.26,1.15,1.02,2.26,2.13,3.37,3.23"/>
  <path class="cls-1" d="M71.45,73.19c-.23-1.11-.46-2.21,0-2.94.37-.59,1.18-.93,1.99-1.28"/>
  <path class="cls-1" d="M85.3,95.76c-1.51-.7-3.01-1.4-4.13-2.52-.88-.89-1.52-2.04-2.22-3.12-.92-1.43-1.94-2.73-2.92-4.12-1.37-1.95-2.67-4.07-3.43-6.2-.66-1.84-.92-3.69-1.11-6.04-.03-.38-.06-.78.1-1,.29-.39,1.17-.23,1.71-.5.33-.17.52-.49.7-.82.64-1.17,1.02-2.37,1.4-3.58"/>
  <path class="cls-1" d="M95.47,147.63c-1.15-2.21-2.3-4.43-3.12-6.74-1.94-5.46-2.02-11.47-2.32-17.4-.38-7.68-1.1-15.22-3.12-22.5-.49-1.75-1.05-3.49-1.61-5.23"/>
  <path class="cls-1" d="M102.03,244.81c.91-5.66,1.81-11.32,2.07-17.01.18-3.95.04-7.91-.15-11.88"/>
  <path class="cls-1" d="M107.3,70.22c-.49,2.81-.99,5.63-.31,8.61.35,1.51.99,3.06.53,4.33-.31.84-1.11,1.55-1.64,2.37-.52.78-.79,1.66-1.11,2.53-1.12,3.08-2.67,6.01-3.65,9.12-.78,2.47-1.2,5.05-1.65,7.62-.69,3.95-1.44,7.87-1.95,11.82-.89,6.93-1.02,13.94-1.51,20.95-.55,7.93-1.58,15.84-1.5,23.72.1,9.78,1.9,19.5,3.24,29.35.96,7.06,1.67,14.2,4.25,20.75.85,2.17,1.91,4.28,2.74,6.47,2.03,5.35,2.68,11.15,4.24,16.66.88,3.13,2.06,6.16,3.24,9.2"/>
  <path class="cls-1" d="M107.77,70.34c-1.58-.44-3.17-.89-4.83-1.31-5.75-1.45-12.45-2.6-15.8-7.04-1.46-1.93-2.28-4.48-3.64-6.6-.12-.19-.25-.38-.38-.57"/>
  <path class="cls-1" d="M78.58,47.69c.09-.42.19-.85.4-1.16.14-.2.32-.36.47-.62.19-.32.33-.8.55-.8.19,0,.44.37.47.69.06.49-.35.89-.36,1.2-.02.4.61.66,1.16,1.09.44.34.84.79.69,1.05-.12.21-.57.31-.95.29-.85-.04-1.33-.67-1.86-1.2-.19-.19-.39-.37-.58-.55Z"/>
  <path class="cls-1" d="M84.7,45.11c-1.66-1.76-3.31-3.51-5.29-4.89-1.2-.84-2.53-1.54-4.06-1.67-.96-.08-2,.06-2.67.61-.86.7-1.13,2.05-1.17,3.28-.03.77.03,1.48.22,2.17.34,1.22,1.1,2.33,1.84,3.44.71,1.07,1.41,2.13,2.28,2.98.96.92,2.14,1.57,3.39,2.33.69.42,1.4.86,2.11.78.73-.09,1.46-.73,1.78-1.44.27-.61.25-1.28.22-1.95"/>
</svg>