<?xml version="1.0" encoding="UTF-8"?>
<svg id="OUTER" xmlns="http://www.w3.org/2000/svg" viewBox="0 0 182.84 454.4">
  <defs>
    <style>
      .cls-1 {
        stroke-width: .15px;
      }

      .cls-1, .cls-2 {
        fill: none;
        stroke: #000;
        stroke-linecap: round;
        stroke-linejoin: round;
      }
    </style>
  </defs>
  <path class="cls-2" d="M60.12,431.03c4.51-1.34,2.42-1.83,1.18-4.58.69-2.61-.79-2.32-1.64-2.2-2.82.39,1.3-1.12,3.82-4.12,1.81-2.16,2.8-5.08,3.46-7.97,1.01-4.46,1.23-8.86,1.6-13.29.58-7.04,1.55-14.15,1.06-21.26-.59-8.71-3.34-17.41-2.93-25.92.31-6.34,2.38-12.58,3.46-19.13,1.37-8.32,1.13-17.15,2.67-24.56,1.24-5.97,3.63-11.02,5.59-19.13.93-3.87,1.77-8.43,2.93-9.04,1.75-.92,4.25,7.14,5.32,13.29,1.29,7.43.5,12.06,1.06,17.27.64,5.91,3.03,12.58,4.52,19.1,1.17,5.16,1.78,10.24,2.01,15.39.25,5.52.07,11.13.79,16.62.5,3.79,1.44,7.53,1.85,11.35.37,3.43.32,6.92,1.06,10.29.75,3.42,2.3,6.71,2.38,10.2.05,2.37-.58,4.82-1.85,6.86-1.04,1.68-2.52,3.09-3.44,4.75-1.67,3.01-1.53,6.88-1.32,10.55.21,3.77.49,7.33.77,10.9.96.5,1.93,1.01,2.89,1.53-.05,1.8-.57,3.67-1.18,5.51-1.3,3.96-2.96,7.79-2.3,11.59.35,2.02,1.35,4.02,2.82,5.59.74.78,1.6,1.45,2.53,1.85,5.57,0,11.14,0,16.71,0,.49-.07.98-.15,1.47-.27,1.22-.29,2.44-.76,3.35-1.57,1.22-1.09,1.85-2.79,2.2-4.49.95-4.67-.29-9.26-.21-13.78.02-1.14.12-2.27.24-3.41,1.23-.24,2.35-.79,3.27-1.93,1.14-1.42,1.98-3.75,3.19-4.89-.1-.89.03-1.85-.19-2.69-.16-.6-.5-1.14-.68-1.8-.11-.38-.16-.81,0-1.12.21-.4.79-.6,1.12-.96.61-.67.36-1.92-.24-2.72-.5-.66-1.23-1.02-1.66-1.52-1.31-1.51.17-4.29,1.14-6.72,1.11-2.8,1.54-5.14,1.95-7.61.7-4.32,1.32-9.02,2.11-13.6.73-4.24,1.6-8.38,1.98-12.6.53-5.91.07-11.98-1.29-17.81-1.1-4.68-2.78-9.21-3.36-13.94-.22-1.79-.28-3.61-.26-5.42.11-9.76,2.59-19.41,6.15-28.53,1.39-3.57,2.95-7.05,4.04-10.69,1.46-4.87,2.07-10.01,2.32-15.13.36-7.17.03-14.3-.3-21.44,2.11-1.31,4.21-2.61,4.97-4.48.91-2.26-.13-5.33-.96-8.01-.53-1.7-.96-3.23-1.93-4.73-1-1.56-2.57-3.09-2.57-4.65,0-1.87,2.29-3.79,2.73-5.77.41-1.87-.83-3.79-1.76-5.77-1.36-2.88-2.06-5.88-1.44-8.65.43-1.93,1.5-3.75,2.26-5.69.37-.93.66-1.9,1.12-2.72,1.8-3.22,6.11-4.41,10.11-5.45,3.19-.83,6.17-1.56,8.66-3.04,4.37-2.61,7.22-7.52,10.59-12.17,1.84-2.54,3.83-5.01,4.33-7.69.69-3.74-1.52-7.9-2.84-11.98-1.21-3.73-1.67-7.39-2.41-11.01-1.83-8.96-5.4-17.72-8.03-26.69-1.54-5.27-2.75-10.62-4.91-15.62-1.59-3.67-3.68-7.15-6.23-10.28-1.97-2.42-4.21-4.63-6.72-6.41-5.24-3.7-11.67-5.5-17.44-8.41-2.24-1.12-4.38-2.41-6.52-3.7.3-.8.6-1.6.9-2.4.72-1.9,1.48-3.81,2.01-5.77.85-3.11,1.15-6.38,2.31-9.41.42-1.1.96-2.18,1.5-3.2.87-1.64,1.75-3.16,2.51-5.11.63-1.61,1.18-3.51.1-4.7-.5-.56-1.36-.96-1.5-1.6-.09-.39.09-.87.3-1.3.59-1.19,1.48-2.02,2.37-2.85.75.16,1.5.33,2.2.18.62-.13,1.19-.49,1.71-.92.9-.74,1.62-1.66,1.95-2.74.46-1.49.16-3.28-.74-4.6-.59-.87-1.44-1.54-1.83-2.44-.4-.92-.33-2.08-.61-3.05-.69-2.38-3.52-3.54-6.11-4.64-5.03-2.13-9.15-4.03-13.57-6.12-3.05-1.44-6.24-2.96-9.59-3.66-2.63-.55-5.36-.58-8.06-.55-2.88.03-5.73.14-8.61.49-2.59.32-5.21.83-7.46,2.09-1.18.66-2.26,1.52-3.18,2.51-1.45,1.56-2.54,3.47-3.11,5.55-.52,1.9-.62,3.95,0,5.79.24.72.59,1.4.79,2.11.45,1.54.23,3.2.18,4.88-.04,1.48.04,2.97-.49,4.27-.32.78-.86,1.48-1.22,2.26-.66,1.4-.77,3.03-.61,4.61.19,1.95.77,3.83,1.47,5.55,1.11,2.74,2.52,5.08,4.02,8.2.48,1.01.98,2.11,1.95,2.24.64.08,1.48-.25,1.95,0,.49.26.57,1.16.58,1.94.02.72-.02,1.34-.29,1.85-.36.68-1.14,1.17-1.66,1.85-.6.8-.83,1.86-1.46,2.53-.64.68-1.7.94-2.73,1.17-3.03.66-5.81.98-8.47,2.04-2.13.85-4.18,2.18-6.39,2.82-3.7,1.07-7.87.2-11.65.93-3.36.65-6.42,2.58-9.31,4.65-3.18,2.27-6.18,4.7-8.54,7.59-5.35,6.54-7.47,15.42-10.57,23.61-4.09,10.8-9.88,20.44-14,31.08-2.1,5.44-3.77,11.14-4.19,16.9-.56,7.54,1.01,15.18,2.71,22.61.49,2.16,1,4.3,1.34,6.47.52,3.31.67,6.69,1.45,9.94.6,2.49,1.56,4.9,2.7,7.21.63,1.29,1.32,2.55,1.16,4.14-.08.82-.39,1.72,0,2.21.23.29.69.43,1.15.58-.22,2.23-.45,4.46.19,6.44.59,1.84,1.93,3.47,3.47,4.87,1.08.99,2.26,1.87,2.89,3.08,1.15,2.23.45,5.58,1.93,7.5.64.83,1.67,1.39,2.71,1.95.13,8.31.27,16.63.49,24.93.18,6.69.41,13.38,1.22,20.04,1.21,9.94,3.7,19.84,3.43,29.73-.22,7.9-2.19,15.81-2.43,23.78-.13,4.29.25,8.61.24,12.86,0,8.82-1.66,17.38-2.52,26.56-.55,5.85-.78,11.96,2.03,16.87.58,1.01,1.28,1.97,1.66,3.08.38,1.13.43,2.4.12,3.55-.22.8-.61,1.54-.89,2.31-.67,1.84-.69,3.86-.72,5.88,1.77,10.81,2.94,13.9,3.96,14.12-.54,1.69-.68,2.7-1,3.66-1.37,4.06-6.03,7.11-5.6,10.7.22,1.9,1.88,3.95,3.58,5.53.87.81,1.76,1.5,2.73,1.89.7.28,1.44.4,2.2.44,4.87,0,9.74,0,14.62,0,.35-.07.7-.15,1.05-.26,1.26-.38,2.56-1.02,3.51-1.92,1.28-1.22,1.91-2.93,2.26-4.62.95-4.67-.29-9.26,2.01-12.89.14-.22.29-.44.38-1.77Z"/>
  <path class="cls-1" d="M34.4,430.28c.8.17,1.51-1.45,2.34-2.49,2.33-2.91,5.6-1.19,8.99.08,1.47.55,2.95,1.02,14.4,3.15"/>
  <path class="cls-1" d="M122.99,428.93c-2.03.39-4.37-.08-6.63-.1-5.35-.05-10.26,2.36-15.66.99"/>
  <line class="cls-1" x1="31.04" y1="449.67" x2="56.13" y2="449.54"/>
  <line class="cls-1" x1="96.26" y1="450.11" x2="121.35" y2="449.99"/>
  <path class="cls-1" d="M100.7,429.82c-.15-.09-.3-.18-.46-.27-.95-.56-1.91-1.09-2.88-1.62"/>
  <path class="cls-1" d="M131.99,58.21c-.04-1.2-.08-2.41-.68-3.32-.56-.86-1.62-1.47-2.13-2.39-.46-.83-.47-1.92-.26-2.9.13-.58.34-1.12.59-1.65"/>
  <path class="cls-1" d="M40.73,344.38c-.82-2.44-1.64-4.88-2.2-7.6-.56-2.75-.84-5.8,1.19-7.91.9-.93,2.25-1.68,3.17-1.58,1.84.2,1.95,3.81,2.77,6.52,1.25,4.14,4.16,6.17,7.06,8.21"/>
  <path class="cls-1" d="M90.82,24.52c3.89-.09,7.77-.18,11.6.22,5.48.57,10.83,2.14,16.19,3.71"/>
  <path class="cls-1" d="M136,39.93c-3.97-.2-7.94-.41-11.92-.76-6.4-.57-12.85-1.54-18.82-3.82-1.48-.57-2.93-1.21-4.38-1.86"/>
  <path class="cls-1" d="M83.71,24.42c1.34,1.57,2.67,3.15,4.16,4.59,1.55,1.51,3.27,2.87,5.14,3.93,2.03,1.15,4.24,1.94,6.46,2.73"/>
  <path class="cls-1" d="M137.05,48.3c-1.05-.96-2.14-1.82-3.35-2.47-3.09-1.68-6.89-1.98-10.5-2.62-3.16-.56-6.18-1.38-9.3-1.86-3.33-.5-6.78-.61-10.06-1.09-4.15-.6-8.03-1.8-12.69-1.86-3.86-.05-8.26.7-10.5-1.75-.62-.68-1.07-1.59-1.53-2.51"/>
  <path class="cls-1" d="M90.68,41.88c3.77.38,7.54.72,11.34.9,4.1.19,8.23.2,12.22,1.02,3.68.76,7.22,2.2,10.86,3.19,3.52.95,7.13,1.48,10.77,1.79"/>
  <path class="cls-1" d="M95.92,47.55c.33-2.07.65-4.15-.58-4.81-.44-.23-1.08-.29-1.7-.33-1.31-.09-2.5-.14-3.57-.87-1.13-.77-2.11-2.29-3.2-2.21-.59.04-1.21.55-1.99.66-.89.13-2-.26-2.37.25-.25.35-.15,1.11-.41,1.58-.29.52-1.02.68-1.41,1.12-.35.39-.42,1-.66,1.45-.42.77-1.33,1.07-2.34,1.27"/>
  <line class="cls-1" x1="87.73" y1="51.4" x2="95.92" y2="47.55"/>
  <path class="cls-1" d="M110.12,55.92c.29.07.57.14.77.37.24.27.36.78.21,1.02-.18.28-.71.23-1.19.2-1.2-.05-2.09.12-2.99.29"/>
  <path class="cls-1" d="M118.64,56.32c-.1.43-.21.86-.06,1.09.21.33.93.25,1.55.2.93-.07,1.64-.07,2.35-.08"/>
  <path class="cls-1" d="M120.03,65.38c2.02-.05,4.04-.11,6.6-.25,1.16-.07,2.42-.15,2.88-.76.5-.67.04-1.96-.1-3.24-.24-2.17.42-4.32-.37-5.47-.91-1.33-3.74-1.32-6.18-1.4-1.95-.06-3.65-.18-5.25-.33"/>
  <path class="cls-1" d="M118.64,56.32c1.23.04,2.47.09,3.61.5.99.36,1.9.99,2.91,1.2.77.16,1.59.08,2.41,0"/>
  <path class="cls-1" d="M99.89,56.82c1.81.67,3.62,1.34,5.21.8.81-.27,1.57-.86,2.41-1.2.82-.33,1.71-.42,2.61-.5"/>
  <path class="cls-1" d="M97.49,53.66c-.15.48-.31.95-.42,1.44-.12.52-.18,1.05-.18,1.57"/>
  <path class="cls-1" d="M96.97,58.11c0,1.23-.01,2.46.25,3.8.31,1.55.97,3.25,2.13,3.86,1.09.58,2.61.18,4.16,0,2.41-.28,4.87-.05,6.38-1.01,1.93-1.23,2.28-4.4,2.36-7.92.04-1.48.02-3.02-.95-3.34-.29-.1-.66-.09-1.03-.08-2.01.06-3.82.15-5.67.19-2.32.05-4.72.05-7.12.04"/>
  <path class="cls-1" d="M85.16,49.09c-.36-.04-.72-.08-1.08-.09-.56-.02-1.12.03-1.67.05-.76.03-1.52.01-2.28,0"/>
  <path class="cls-1" d="M96.97,58.11c.43-.01.86-.03,1.07-.37.22-.36.21-1.07-.11-1.17-.1-.03-.24,0-.37.02-.66.12-1.27.12-1.83-.07-.5-.17-.97-.48-1.45-.78-1.77-1.13-3.58-2.09-5.23-3.3-1.37-1.01-2.64-2.18-3.9-3.36"/>
  <path class="cls-1" d="M81.56,49.63c1.13-.28,2.24-.5,3.18-.14.74.28,1.37.92,2.02,1.51,1.15,1.03,2.33,1.87,3.54,2.71,2.17,1.5,4.42,2.95,6.67,4.41"/>
  <path class="cls-1" d="M85.5,52.96c.46,3.07.92,6.14,1.47,9.45.32,1.9.66,3.88-.09,5.51-.25.55-.63,1.05-1.01,1.56"/>
  <path class="cls-1" d="M80.19,54.14c.38.06.75.12,1.43,0,.6-.11,1.44-.36,1.26-.17-.04.04-.13.11-.23.17"/>
  <path class="cls-1" d="M82.88,53.97c-.55-1.16-1.09-2.33-1.55-2.29-.44.04-.79,1.25-1.14,2.46"/>
  <path class="cls-1" d="M82.88,55.97c-1.29.67-2.58,1.34-2.8,2.23-.19.76.41,1.69,1.26,2.8.74.97,1.67,2.08,1.83,1.94.16-.14-.49-1.59-.51-2.68-.03-1.15.64-1.92.63-2.8,0-.47-.2-.98-.4-1.49Z"/>
  <path class="cls-1" d="M77.73,57.79c-.35-1.76-.69-3.51-.29-5.14.21-.84.62-1.65,1.03-2.46"/>
  <path class="cls-1" d="M84.18,51.98c-1.28-1.35-2.56-2.71-4.26-2.98-.76-.12-1.61-.03-2.32.28-.77.34-1.37.93-1.92,1.6"/>
  <path class="cls-1" d="M16.55,223.41c.54.24,1.08.47,1.64.66,2.82.99,5.95,1.23,8.93.84.67-.09,1.32-.21,1.97-.35"/>
  <path class="cls-1" d="M15.65,215.42c2.39.88,4.78,1.75,7.26,1.74,1.74,0,3.51-.45,5.09-1.21.48-.23.94-.49,1.4-.75"/>
  <path class="cls-1" d="M33.5,187.62c-2.92.71-5.85,1.42-8.72,1.19-2.48-.19-4.92-1.08-7.35-1.96"/>
  <path class="cls-1" d="M34.76,179.76c-4.24-.41-8.48-.82-12.39-2.2-3.84-1.36-7.35-3.64-10.86-5.93"/>
  <line class="cls-1" x1="35.44" y1="183.15" x2="26.87" y2="183.06"/>
  <path class="cls-1" d="M144.58,207.56c.05-1.62.07-3.24.06-4.86-.03-3.65-.26-7.31-.38-10.96-.15-4.68-.12-9.36-1.02-14.02-.78-4.01-2.24-8-3.83-11.47-1.11-2.41-2.28-4.57-3.32-7.74-.65-1.96-1.25-4.32-.13-5.23.74-.6,2.24-.57,3.45-.25,2.95.77,4.18,3.23,5.23,6.63.72,2.32,1.35,5.08,2.42,5.23,1.06.15,2.56-2.27,3.57-4.46,2.32-4.99,2.17-8.8,2.04-12.87-.2-6.06-.35-12.71-.51-19.37"/>
  <path class="cls-1" d="M98.01,91.11c-.31-.06-.62-.13-.77-.28-.34-.32.05-1.02.43-1.72"/>
  <line class="cls-1" x1="98.01" y1="91.11" x2="103.71" y2="89.88"/>
  <path class="cls-1" d="M97.15,94.81c2.1-.52,4.2-1.04,6.17-1.88,1.31-.56,2.57-1.27,3.82-1.97"/>
  <path class="cls-1" d="M85.35,73.56c1-.1,1.19.51,1.24.97.05.44-.03.74-.1,1.03-.51,2.13-.6,3.7-.55,5.39.05,1.69.22,3.49.44,5.32"/>
  <path class="cls-1" d="M112.94,57.94c.25-1.34.5-2.69.08-3.68-.72-1.69-3.38-2.4-5.69-2.56-2.52-.18-4.64.29-6.75.75"/>
  <path class="cls-1" d="M117.36,58.66c-.51-1.55-1.03-3.1-.48-4.04.67-1.17,2.96-1.42,4.83-1.33,1.56.08,2.83.4,4.11.72"/>
  <path class="cls-1" d="M111.02,70.76c-.53-.66-1.06-1.32-.92-1.61.17-.35,1.33-.14,2.26.02.65.11,1.18.2,1.45.58.31.44.28,1.27.65,1.67.34.36,1,.37,1.6.29,1.15-.15,2.08-.64,2.76-1.45.45-.54.79-1.22.87-1.88.19-1.56-1.04-3.02-1.67-4.57-.67-1.65-.66-3.4-.65-5.15"/>
  <path class="cls-1" d="M109.89,70.87c-.91-.58-1.82-1.17-2.06-1.96-.28-.95.39-2.19,1.19-3.18,1.11-1.39,2.46-2.27,3.04-3.66.34-.82.42-1.82.58-2.75.08-.47.19-.92.29-1.38"/>
  <path class="cls-1" d="M120.03,76.94c.89-.7,1.78-1.39,2.18-2.3.55-1.24.2-2.87-.23-4.33-.32-1.09-.67-2.08-1.03-3.07"/>
  <path class="cls-1" d="M106.96,84.8c.93-.48,1.86-.96,2.83-1.2,2.13-.53,4.43.13,6.72.78"/>
  <path class="cls-1" d="M120.03,76.94c.59,1.21,1.17,2.42,1.33,3.72.12.96.01,1.97-.32,2.87-.28.77-.71,1.46-1.15,2.16"/>
  <path class="cls-1" d="M108.41,65.33c-.64,1.14-1.34,2.25-2.39,3.18-1.46,1.29-3.59,2.21-4.11,3.66-.25.67-.14,1.46-.11,2.55.06,2.24-.18,5.78.22,5.22.21-.28.58-1.6,1.22-2.33.81-.92,2.06-.89,3.22-.78,1.81.18,3.41.58,5.11.78.48.05.96.09,1.45.11,2.35.08,4.68-.35,7.01-.78"/>
  <path class="cls-1" d="M109.95,91c-2.06-.6-4.12-1.21-6.06-2.25-2.36-1.27-4.52-3.19-5.67-5.49-1.48-2.95-1.27-6.52-1.06-10.09"/>
  <path class="cls-1" d="M109.95,91c1.45.01,2.91.02,4.41-.34,1.38-.33,2.81-.98,3.66-1.79.68-.65.99-1.4,2.28-2.34,1.39-1.02,3.92-2.25,3.05-1.77-.06.03-.14.08-.22.12"/>
  <path class="cls-1" d="M94.17,121.95c-.42-.62-.85-1.25-.91-1.99-.06-.65.16-1.38.7-1.78.69-.51,1.91-.48,2.45.08.29.31.37.77.46,1.24.13.73.25,1.49-.12,2.03-.29.42-.88.71-1.41.71-.4,0-.78-.15-1.15-.3Z"/>
  <path class="cls-1" d="M93.6,99.8c.14.89.27,1.79.33,2.68.14,2.23-.22,4.47-.57,6.7-.89,5.62-1.76,11.18-3.13,16.64-.48,1.9-1.02,3.78-1.57,5.66"/>
  <path class="cls-1" d="M99.29,96.9c.6,1.35,1.21,2.69,1.59,4.11.31,1.15.48,2.35.54,3.55.18,3.36-.46,6.69-1.03,10.01-.59,3.42-1.13,6.81-1.65,10.22-.24,1.53-.47,3.06-.7,4.59"/>
  <path class="cls-1" d="M105.93,110.9c1.72-2.6,3.44-5.2,4.92-7.92,1.52-2.79,2.79-5.73,4.12-8.62.66-1.44,1.33-2.88,2.01-4.31"/>
  <path class="cls-1" d="M99.58,95.68c.88,1.45,1.72,2.93,2.46,4.44,1.66,3.42,2.78,7.1,3.89,10.77"/>
  <path class="cls-1" d="M95.3,100.04c.73.56,1.45,1.13,2.23.99.63-.11,1.29-.68,1.48-1.3.2-.61-.07-1.27-.49-1.91-.42-.64-.99-1.27-1.56-1.2-.39.05-.78.43-1.05.83-.53.8-.57,1.7-.61,2.59Z"/>
  <path class="cls-1" d="M86.45,109.28c1.48-2.39,2.95-4.77,4.56-7.07,1.33-1.9,2.75-3.74,4.17-5.57"/>
  <path class="cls-1" d="M80.4,81.45c-.46.57-.93,1.14-1.23,1.76-.81,1.69-.42,3.81.05,5.82,1.3,5.61,3.14,10.43,5.19,15.39.67,1.61,1.36,3.24,2.04,4.87"/>
  <path class="cls-1" d="M88.19,138.54c2.93-.6,5.86-1.2,8.65-2.21,6.57-2.36,12.42-6.95,17.02-12.29,4.42-5.14,7.68-10.97,11.65-16.46,1.95-2.7,4.08-5.32,5.19-8.45.57-1.62.88-3.37.77-5.06-.12-1.87-.74-3.64-1.55-5.39"/>
  <path class="cls-1" d="M65.02,84.56c-.29,1.74-.49,3.48-.5,5.21-.02,4.5,1.23,8.98,2.5,13.44,1.85,6.52,3.74,13.01,7.02,18.68,3.6,6.21,8.87,11.43,14.14,16.65"/>
  <path class="cls-1" d="M147.4,248.61c-2.63,1.02-5.27,2.03-7.97,2.81-5.42,1.55-11.11,2.13-16.78,2.34-8.92.33-17.77-.27-26.66-.45-5.72-.11-11.46-.06-17.16-.66-4.39-.46-8.75-1.31-13.03-2.25-7.8-1.7-15.35-3.65-23.49-5.36-5.29-1.11-10.82-2.12-14.62-5.52-1.15-1.03-2.14-2.27-3.12-3.53"/>
  <path class="cls-1" d="M134.65,251.31c-7.84-6.36-15.69-12.71-21.04-20.63-7.1-10.51-9.82-23.78-12.53-37.05"/>
  <path class="cls-1" d="M85.35,73.58c-.69,1.92-1.37,3.85-1.37,5.8,0,1.81.62,3.64,1.48,5.34,1.85,3.64,4.85,6.67,7.86,8.9,1.21.9,2.43,1.67,4.04,2.56.5.28,1.04.56,1.42.4.38-.16.61-.76.97-1.08.63-.57,1.66-.26,2.56-.29,1.58-.03,2.8-1.05,4.04-1.93,1.18-.84,2.38-1.56,3.59-2.27"/>
  <path class="cls-1" d="M89.28,132.25c2.55-.62,5.1-1.24,7.47-2.26,5.96-2.56,10.85-7.61,14.95-12.66,3.49-4.29,6.41-8.58,9.96-13.34,2.64-3.53,5.63-7.31,4.96-11.31-.27-1.6-1.13-3.24-2.01-4.52-.35-.51-.71-.96-1.35-1.42-.5-.36-1.18-.73-1.12-1.06.06-.28.66-.54,1.05-.8.08-.06.15-.11.22-.17"/>
  <path class="cls-1" d="M80.14,79.7c-.31.9-.76,1.63-1.45,2.07-1.17.72-3.06.58-4.48,1.27-1.3.63-2.21,1.95-2.66,3.31-.8,2.46-.1,5.06.5,7.64,1.68,7.27,2.48,14.46,5.26,20.88,2.72,6.29,7.35,11.84,11.97,17.38"/>
  <path class="cls-1" d="M39.4,156.36c-.49.08-.9.23-1.17.52-.68.75-.43,2.4-.16,3.78.1.52.2,1,.11,1.4-.19.81-1.18,1.35-1.89,2.05-1.01.99-1.49,2.31-1.57,3.62-.1,1.51.34,3.02.81,4.48.8,2.46,1.72,4.83,2.69,7.17"/>
  <path class="cls-1" d="M38.32,153.84c1.5-.51,3.01-.99,4.54-1.38,7.41-1.88,15.22-1.52,23.03-1.17"/>
  <path class="cls-1" d="M23.64,238.39c.63-1.67,1.29-3.33,2.03-4.98,1.34-2.99,2.92-5.93,3.49-9.1.39-2.18.29-4.47.53-6.69.31-2.73,1.13-5.37,1.88-8.03,1.77-6.33,3.07-12.78,4.16-19.2.32-1.91.63-3.82,1.07-5.75,1.85-8.16,6.06-16.67,4.02-24.41-.63-2.41-1.87-4.74-2.81-7.16-2.15-5.53-2.74-11.52-2.55-17.4.15-4.47.75-8.88,1.35-13.29"/>
  <path class="cls-1" d="M94.1,421.48c8.42,3.6,10.75,3.71,15.13,3.66,4.38-.06,10.8-.29,20.23-3.03"/>
  <path class="cls-1" d="M33.78,390.95c-.29,2.23-.58,4.47-.2,6.52.64,3.39,3.12,6.31,5.74,9.09,2.93,3.11,6.02,6.06,9.7,7.12,3.09.89,6.59.44,10.1,0"/>
  <path class="cls-1" d="M67.66,326.13c-3.08,4.67-6.17,9.34-10.42,12.76-1.42,1.14-2.97,2.14-4.52,3.14"/>
  <line class="cls-1" x1="40.73" y1="344.38" x2="55.67" y2="355.76"/>
  <path class="cls-1" d="M53.91,294.26c2.23,3.53,4.45,7.06,7.69,9.22,2.14,1.42,4.73,2.25,7.31,3.07"/>
  <line class="cls-1" x1="73.91" y1="291.95" x2="53.91" y2="294.26"/>
  <path class="cls-1" d="M75.07,285.42c-8.86-.61-17.71-1.22-26.16.77-2.39.56-4.75,1.34-7.12,2.11"/>
  <path class="cls-1" d="M79.88,273.01c.17,1.12.34,2.25.96,3,.64.78,1.76,1.16,2.88,1.53"/>
  <path class="cls-1" d="M142.28,257.98c-3.9.33-7.8.63-11.71.81-6.25.29-12.52.26-18.77.07-4.04-.12-8.08-.32-12.13-.29-8.87.06-17.82,1.18-26.56-.09-5.24-.76-10.4-2.38-15.53-3.47-3.65-.78-7.3-1.28-11.13-2.09-5.81-1.22-12.06-3.13-16.42-5.05-.8-.35-1.54-.71-2.22-1.07"/>
  <line class="cls-1" x1="80.16" y1="259.43" x2="79.88" y2="273.01"/>
  <path class="cls-1" d="M72.35,271.28c8.29-.66,16.58-1.31,24.88-.87,6.48.35,12.96,1.37,19.38,1.15,6.5-.22,12.94-1.7,19.39-3.18"/>
  <path class="cls-1" d="M119.73,325.62c2.82-3.21,5.65-6.43,7.75-10.04,3.61-6.19,5.1-13.55,6.89-20.65,1.08-4.27,2.26-8.44,3.45-12.62"/>
  <path class="cls-1" d="M106,384.84c3.89-3.3,7.79-6.59,9.73-12.01.36-1,.65-2.07.35-2.83-.54-1.37-3-1.71-4.95-1.41-3.99.6-5.89,3.83-7.78,7.07"/>
  <path class="cls-1" d="M151.41,169.85c4.59-2.43,10.49-3.82,7.73-2.39-1.12.58-3.67,1.63-5.8,3.96-1.49,1.63-2.78,3.88-2.38,4.77.57,1.31,4.73-.28,8.12-2.69,2.55-1.81,4.66-4.09,5.12-3.88.59.27-1.5,4.57-3.82,7.22-4.94,5.65-10.95,3.86-17.14.87"/>
  <path class="cls-1" d="M87.83,280.17c10.2,1.84,13.05,3.47,17.49,3.67,4.44.2,10.45-1.02,14.74-3.06"/>
  <path class="cls-1" d="M28.28,442.07c3.08-4.51,7.32-4.34,11.71-4.18,4.4.16,8.95.31,12.59.46"/>
  <path class="cls-1" d="M96.51,440.71c4.96-1.39,7.27-2.19,10.45-2.16,3.17.03,7.21.89,13.22,1.24"/>
  <path class="cls-1" d="M105.36,415.83c4.37-1.05,8.73-2.09,12.16-4.75,2.22-1.72,4.04-4.11,5.09-6.74.55-1.39.88-2.85,1.22-4.31"/>
  <path class="cls-1" d="M105.36,415.83c2.38.59,4.76,1.17,7.3,1.1,3.59-.1,7.49-1.51,9.51-4.31.58-.81,1.01-1.73,1.44-2.65"/>
  <path class="cls-1" d="M32.1,424.17c5.06-2.02,7.75-2.02,9.96-1.57,2.21.45,3.95,1.34,7.17,2.27,3.22.93,7.91,1.9,12.08.86"/>
</svg>