<?xml version="1.0" encoding="UTF-8"?>
<svg id="OUTER" xmlns="http://www.w3.org/2000/svg" viewBox="0 0 182.84 454.4">
  <defs>
    <style>
      .cls-1 {
        stroke-width: .15px;
      }

      .cls-1, .cls-2 {
        fill: none;
        stroke: #000;
        stroke-linecap: round;
        stroke-linejoin: round;
      }
    </style>
  </defs>
  <path class="cls-2" d="M26.8,222.03c-.77.64-1.92.8-2.95,1.06-1.2.3-2.25.73-3.42.99-1.43.32-3.04.39-4.14,1.37-.46.41-.83.99-1.1,1.55-.27.56-.44,1.12-.49,1.72-.04.56.03,1.16.15,1.72.12.57.28,1.1.46,1.63.39,1.12.87,2.24,1.25,3.38.46,1.37.77,2.78.99,4.21.22,1.43.34,2.89.08,4.31-.13.7-.36,1.39-.54,2.1-.18.7-.3,1.42-.25,2.12.06.78.35,1.55.49,2.32.07.39.11.77.08,1.17-.02.4-.1.8-.04,1.19.03.16.08.32.14.46.07.15.15.28.25.4.2.25.48.46.8.51.55.08,1.23-.36,1.64.06.1.1.19.26.3.34.11.07.24.06.38.04.14-.02.28-.04.43-.09.14-.05.28-.15.43-.18.37-.1.73.19,1.12.3.38.11.79.03,1.14-.12,1.32-.57,1.89-2.25,3.12-2.99-.15,2.88-.51,5.76-.85,8.64-.41,3.43-.8,6.85-.98,10.28-.18,3.53-.14,7.08-.42,10.61-.23,2.87-.67,5.73-.84,8.6-.17,2.75-.09,5.51-.23,8.29-.14,2.93-.51,5.88.37,8.66.42,1.34,1.14,2.64,2.02,3.76.43.54.9,1.04,1.01,1.66.07.4,0,.84,0,1.35,0,.5.06,1.07-.17,1.36-.33.43-1.27.27-1.71.54-.54.34-.32,1.33-.31,2.21-1.41,2.11-2.76,4.36-2.71,6.86.02.8.18,1.62.67,2.28.24.33.57.62.65.99.08.37-.09.83-.21,1.24-.32,1.08-.33,1.92-.34,2.93-.01,1.01-.02,2.2-.32,3.23-.52,1.81-1.94,3.1-2.15,4.93-.09.74.02,1.57.05,2.33.03.76-.02,1.46-.02,2.18-.01,1.36.13,2.8.25,4.22.12,1.41.21,2.79.31,4.19.1,1.42.21,2.85.28,4.28.07,1.43.11,2.86-.1,4.26-.24,1.57-.79,3.1-1.13,4.66-.34,1.56-.45,3.16-.27,4.75.11.89.31,1.78.4,2.67.04.44.06.89.07,1.34,0,.45,0,.9-.03,1.35-.03.36-.08.71-.12,1.06-.04.35-.08.71-.11,1.06-.05.71-.07,1.44.15,2.1.19.56.55,1.07.83,1.6.28.53.48,1.08.67,1.64.19.56.37,1.13.52,1.71.14.58.25,1.16.38,1.74.11.48.22.97.3,1.45.08.48.11.97.23,1.45.12.5.34.98.5,1.48-.29.8-.81,1.54-1.18,2.33-.5,1.05-.72,2.19-.96,3.32-.43,2.06-.9,4.11-1.15,6.19-.15,1.25-.21,2.52-.32,3.77-.11,1.25-.25,2.5-.29,3.76-.02.68,0,1.37.04,2.05.04.68.12,1.35.38,1.96.34.79,1.02,1.48,1.6,2.18.34.4.65.81.92,1.24-.19.91-.5,1.8-.7,2.7-.31,1.36-.37,2.75-.49,4.13-.24,2.55-.7,5.08-1.67,7.46-.41,1.01-.92,1.99-1.12,3.04-.32,1.67.14,3.5-.09,5.25-.22,1.72-1.1,3.36-1.09,5.02,0,1.58.81,3.17,1.67,4.6.4.66.81,1.29,1.43,1.64.28.16.6.26.94.33h18.69c.48-.49.81-1.35,1.28-1.94.52-.64,1.21-.96,1.56-1.61.27-.51.34-1.21.41-1.85.07-.64.13-1.21.16-1.79.07-1.33-.03-2.75-.19-4.14-.16-1.43-.38-2.82-.74-4.2-.37-1.37-.87-2.73-1.17-4.12-.12-.55-.2-1.12-.21-1.68s.05-1.14.13-1.71c.17-1.1.46-2.18.71-3.25.27-1.13.51-2.27.49-3.47-.01-1.2-.27-2.47.23-3.45.33-.64.97-1.15,1.53-1.69.56-.53,1.04-1.08,1.53-1.64.54-.61,1.09-1.23,1.6-1.9.51-.66.98-1.37,1.26-2.13.52-1.45.34-3.11.42-4.69.04-.88.17-1.72.18-2.6,0-.88-.1-1.78-.29-2.64-.2-.9-.49-1.76-.67-2.66-.18-.89-.24-1.82-.12-2.73.1-.73.32-1.46.45-2.19.13-.73.18-1.48.19-2.22.04-2.55-.37-5.09-.4-7.6-.01-.78.01-1.56.19-2.33.18-.77.52-1.53.51-2.32,0-.61-.22-1.22-.4-1.82-.17-.56-.32-1.09-.5-1.63.15-.42.32-.84.52-1.25.73-1.49,1.91-2.87,2.35-4.42.56-1.99-.14-4.26-.61-6.36-.24-1.06-.42-2.08-.44-3.15-.04-1.44.2-2.96.11-4.41-.1-1.47-.54-2.86-.72-4.32-.18-1.47-.1-3.02.31-4.43.39-1.36,1.09-2.59.95-4.09-.09-1.01-.57-2.14-.27-2.86.4-.98,2.18-1.23,3.29-1.97,1.38-.92,1.7-2.6,2.3-4.07.64-1.59,1.6-2.94,2.68-4.3,1.17-1.47,2.48-2.96,3.12-4.63.86-2.23.53-4.8.52-7.33,0-2.92.41-5.78,1-8.58.67-3.18,1.55-6.3,2.57-9.39,1.74-5.3,3.84-10.52,5.98-15.68,1.03-2.48,2.06-4.94,2.98-7.47.83-2.29,1.57-4.63,2.23-6.93.62-2.18,1.16-4.31,1.76-6.72.06.18.12.36.17.54.31,1.07.46,2.18.6,3.28.33,2.8.54,5.59.95,8.37.35,2.42.85,4.83,1.62,7.16.77,2.32,1.81,4.56,2.1,7.01.06.5.09,1,.18,1.5.09.49.26.97.33,1.46.16,1.12-.19,2.26-.38,3.41-.27,1.63-.22,3.26-.13,4.89.1,1.64.25,3.28.28,4.91.02.85,0,1.7-.01,2.56-.01.86-.02,1.74-.21,2.57-.3,1.29-1.05,2.43-1.55,3.67-.25.61-.44,1.24-.55,1.9-.11.65-.14,1.33-.1,1.99.05.74.19,1.47.28,2.21.09.74.13,1.48.2,2.23.12,1.16.33,2.3.45,3.45.06.57.1,1.15.11,1.72.02.58,0,1.16.12,1.72.21,1.09.87,2.11,1.63,2.97.75.85,1.6,1.55,2.34,2.39.47.54.89,1.14.86,1.91-.01.31-.1.65-.13.95-.04.29-.02.54-.08.82-.06.27-.18.58-.29.86-.11.28-.2.55-.3.81-.21.53-.46,1.08-.67,1.63-.22.55-.4,1.11-.48,1.68-.1.63-.08,1.28.01,1.91.05.32.11.63.15.94.04.32.05.64.06.96.03.74.04,1.49.02,2.23-.02.74-.09,1.48-.14,2.22-.06.74-.11,1.48-.21,2.22-.1.74-.26,1.47-.36,2.21-.4,2.86,0,5.76-.39,8.63-.08.57-.19,1.14-.24,1.71-.05.57-.03,1.15-.05,1.73-.03.57-.09,1.15-.15,1.72-.05.57-.1,1.15-.16,1.72-.17,1.54-.51,3.06-.83,4.57-.32,1.51-.62,3.01-.99,4.52-.37,1.49-.8,2.99-1.05,4.5-.16.96-.24,1.93-.19,2.89.11,1.97.78,3.92,1.05,5.89.3,2.24.07,4.51-.18,6.77-.3,2.7-.62,5.38-1.01,8.05-.33,2.22-.7,4.43-1.24,6.63-.55,2.2-1.27,4.38-1.87,6.46-.04.14-.08.27-.26.22-.18-.06-.5-.3-.67-.38-.17-.08-.2.02-.32.02-.13,0-.35-.08-.48-.03-.05.02-.08.06-.13.08-.05.02-.11.04-.16.06-.05.03-.08.07-.12.11-.03.04-.07.08-.1.13-.24.32-.31.76-.39,1.14-.08.38-.17.7-.19,1.08-.02.59.14,1.31.2,1.99.06.67.03,1.3-.1,1.91-.25,1.19-.85,2.33-.96,3.55-.06.66.03,1.34.32,1.96.41.88,1.24,1.64,1.4,2.46.23,1.17-.88,2.46-1.05,3.75-.17,1.28.6,2.56,1.18,4.37.66,2.09,1.06,4.89,1.99,6.48.08.15.17.28.27.41h18.77c.23-.18.44-.47.61-.97.32-.98.46-2.78.67-3.86.21-1.08.51-1.46.76-1.93.44-.83.76-1.97.77-2.92,0-.36-.04-.69-.19-1.04-.15-.35-.42-.71-.57-1.06-.12-.27-.18-.54-.25-.83-.07-.29-.16-.6-.09-.89.05-.18.16-.35.29-.48.32-.3.77-.37,1.2-.52.42-.16.82-.4,1.05-.75.31-.47.31-1.15.35-1.76.04-.62.13-1.17.16-1.75.06-1.16-.12-2.42.04-3.57.04-.26.09-.51.17-.77.08-.26.18-.54.14-.78-.05-.24-.23-.44-.39-.66-.16-.22-.29-.45-.36-.7-.29-.9.12-1.88.37-2.82.12-.47.2-.92.32-1.38.12-.46.27-.93.42-1.39.2-.61.41-1.2.69-1.76.28-.56.64-1.08.97-1.62.66-1.08,1.2-2.22,1.53-3.43.31-1.1.45-2.26.74-3.37.29-1.11.72-2.18,1.03-3.29.38-1.33.58-2.72.67-4.11.09-1.39.08-2.77.17-4.16.09-1.38.3-2.76.54-4.14.23-1.37.5-2.73.8-4.09.36-1.63.78-3.24,1.17-4.86.39-1.61.74-3.22,1.13-4.84.2-.8.4-1.61.6-2.42.2-.81.38-1.62.45-2.44.11-1.22-.03-2.45.07-3.67.11-1.45.55-2.87.87-4.3.32-1.43.53-2.87.86-4.29.15-.63.31-1.26.47-1.89.15-.63.29-1.27.34-1.91.09-1.22-.12-2.45-.09-3.68.04-1.55.48-3.09.58-4.64.1-1.56-.15-3.14-.11-4.7.02-.82.12-1.63.23-2.44.11-.81.23-1.61.42-2.41.17-.72.41-1.42.63-2.13.22-.71.42-1.41.63-2.12.39-1.26.83-2.52,1.18-3.79.36-1.27.63-2.56.82-3.86.05-.39.1-.78.01-1.16-.09-.38-.31-.75-.51-1.08-.25-.41-.47-.78-.8-1.17-.33-.39-.77-.81-1.01-1.24-.59-1.05,0-2.2.44-3.33.44-1.14.73-2.27,1.06-3.4.65-2.27,1.44-4.56,2.05-6.88,1.15-4.39,1.65-8.85,1.7-13.38.02-2.14-.05-4.29.11-6.41.17-2.12.58-4.22.62-6.35.02-1.13-.06-2.28-.2-3.4-.14-1.13-.33-2.24-.35-3.37-.03-1.52.25-3.06-.02-4.57-.18-1.02-.62-2.03-.81-3.05-.39-1.99.14-4.02.39-6.05.25-2.03.24-4.06.47-6.08.25-2.14.78-4.27,1.22-6.4.22-1.06.43-2.13.5-3.2.07-1.07,0-2.15-.08-3.23-.19-2.66-.42-5.31-.62-7.97.59-.61,1.29-1.12,1.85-1.76.74-.84,1.23-1.89,1.3-3.01.06-.94-.19-1.93-.31-2.89-.24-1.91.03-3.69-.49-5.54-.23-.83-.62-1.68-.55-2.52.07-.83.59-1.64.84-2.45.58-1.86-.25-3.67-.71-5.53-.58-2.31-.61-4.71-.48-7.08.14-2.49.44-4.97.96-7.44.25-1.22.56-2.44.62-3.66.06-1.26-.13-2.53-.52-3.71-.35-1.06-.85-2.05-1.21-3.13-.24-.73-.42-1.5-.53-2.26-.24-1.54-.23-3.03-.57-4.59-.23-1.02-.6-2.08-.49-3,.06-.48.24-.92.45-1.37.64-1.35,1.55-2.76,1.68-4.3.05-.64-.03-1.3-.02-1.94,0-.64.09-1.27.19-1.91.09-.63.19-1.27.31-1.9.12-.63.26-1.24.38-1.87.1-.57.17-1.16.31-1.72.14-.56.34-1.08.56-1.61.37-.92.77-1.87,1.21-2.78.89-1.81,1.98-3.44,2.69-5.34.61-1.62.94-3.43,1.91-4.81-.1.63-.24,1.25-.31,1.88-.12,1.18.05,2.37.27,3.54.52,2.84,1.29,5.6,1.3,8.44,0,1.46-.19,2.95.2,4.36.35,1.27,1.17,2.49,1.48,3.74.67,2.76-1.19,5.7-1.2,8.58,0,2.23,1.09,4.42,1.39,6.66.19,1.43.06,2.89.21,4.3.16,1.47.64,2.9,1.33,4.27.67,1.31,1.54,2.56,1.69,3.95.12,1.12-.22,2.33-.26,3.5-.08,2.18.87,4.22,1.45,6.31.38,1.35.6,2.73,1,4.09s.96,2.69.91,4.05c-.03.66-.2,1.33.07,2.06.27.73.97,1.52.69,1.82-.21.23-.98.18-1.61.13-.64-.05-1.14-.1-1.46.15-.31.24-.44.78-.52,1.3-.22,1.41-.07,2.71-.08,4.1,0,1.39-.15,2.86.46,4.01.38.71,1.05,1.3,1.78,1.79.73.49,1.53.88,2.07,1.48,1.05,1.18,1.07,3.17,1.4,4.73.08.38.18.73.37,1.1.19.37.47.74.8.97.22.15.46.23.72.28.26.05.53.09.8.11,1.14.12,2.25.16,3.4.22.65.03,1.31.07,1.7.43.66.59.55,2.07.95,3.05.15.36.36.65.17,1-.08.14-.22.29-.37.39-.46.3-.98.07-1.28.57.27,1.63.54,3.26.84,4.89-.06.25.63.41.93.65.31.23.23.53.14.84-.45,1.48-1.32,3-1.97,4.55-.49,1.19-.85,2.39-1.11,3.63-.26,1.24-.42,2.52-.59,3.79-.1.73-.19,1.45-.21,2.19-.02.73.04,1.47.27,2.16.25.78.72,1.5,1.04,2.27.32.77.5,1.61.45,2.43-.07,1.27-.69,2.51-.68,3.75.01,1.29.69,2.57.74,3.9-.5.04-.99.18-1.44.4-.27.13-.53.29-.76.5-.23.21-.42.47-.51.76-.05.16-.06.33-.07.49,0,.17-.01.34.06.49.14.29.58.48.71.75.12.24,0,.54-.15.81-.15.26-.35.48-.48.74-.1.19-.16.4-.12.61.03.21.16.41.33.53.75.55,2.29-.54,2.98.06.45.39.55,1.51.89,1.82.31.29.84-.08,1.38-.29.55-.21,1.11-.27,1.69-.27.45,0,.91.03,1.36,0,.45-.02.9-.1,1.34-.23.47-.14.93-.36,1.4-.51.46-.16.93-.26,1.42-.37.6-.14,1.23-.28,1.68-.67.31-.27.52-.65.73-1.03.2-.38.39-.75.55-1.13.25-.59.45-1.22.65-1.83.2-.61.41-1.22.58-1.84.39-1.38.64-2.84,1.43-4.04.36-.54.84-1.04,1.18-1.59.34-.56.55-1.18.61-1.8.15-1.56-.67-3.09-1.24-4.67-.58-1.58-.91-3.2-1.29-4.79-.4-1.68-.85-3.32-1.43-5.02-.31-.89-.65-1.8-.65-2.71,0-.76.24-1.51.37-2.27.72-.3,1.52-.57,2.05-1.06.67-.61.92-1.57,1.07-2.48.13-.78.17-1.51.06-2.37-.06-.44-.15-.9-.16-1.33,2.28.1,4.6.72,6.78.07.74-.22,1.46-.59,1.92-1.15.53-.66.7-1.57,1.06-2.46.46-1.13,1.24-2.21,1.37-3.27.15-1.15-.47-2.29-1.17-3.36-1.24-1.88-2.77-3.57-4.66-4.69.45-2.31,1.68-4.55,1.87-6.82.26-3.18-1.53-6.42-1.97-9.67-.17-1.25-.14-2.51-.35-3.75-.25-1.45-.82-2.88-1.2-4.32-.62-2.35-.71-4.72-.58-7.18.06-1.12.17-2.26-.15-3.3-.41-1.34-1.53-2.52-2.01-3.83-.52-1.42-.29-3-.25-4.55.05-1.7-.14-3.37-.58-5.01-.48-1.8-1.28-3.56-1.47-5.39-.12-1.09-.02-2.21-.02-3.33.01-1.34-.1-2.68-.45-3.94-.27-1-.7-1.95-1.17-2.88-.48-.94-1.01-1.87-1.42-2.84-.25-.59-.45-1.2-.58-1.82-.13-.62-.2-1.26-.24-1.9-.1-1.38-.12-2.77-.42-4.13-.31-1.35-.91-2.67-1.1-4.02-.1-.75-.08-1.51.01-2.27.09-.77.25-1.54.3-2.31.09-1.72-.43-3.39-.82-5.07-.9-3.82-1.18-7.72-1.71-11.59-.98-7.2-2.78-14.3-3.49-21.51-.13-1.35-.23-2.71-.39-4.05-.17-1.41-.43-2.82-.7-4.22-.02-.12-.05-.24-.07-.37-.35-.52-.77-1.01-1.16-1.52-.64-.83-1.2-1.72-1.81-2.55-1.48-2-3.3-3.7-5.14-5.38-3.77-3.45-7.61-6.86-11.52-10.11-1.77-1.47-3.57-2.91-5.4-4.3-1.02-.77-2.05-1.53-3.35-1.97-.97-.33-2.09-.48-2.61-1.14-.16-.21-.26-.46-.32-.73-.24-1.21.54-2.65.76-4.06.2-1.3-.07-2.58-.75-3.64-.48-.75-1.16-1.38-1.29-1.67.27-1.94,1.44-3.7,1.78-5.73.24-1.4.08-2.94.82-3.96.26-.36.62-.65.87-1.02.44-.63.57-1.47.86-2.22.52-1.31,1.57-2.3,2.74-3.2,1.22-.94,2.56-1.78,3.32-3.03.4-.66.63-1.44,1.07-2.1.51-.76,1.29-1.37,1.78-2.11.46-.68.66-1.46.82-2.26.19-.95.33-1.93.58-2.87.28-1.02.7-1.99.92-3.03.2-.94.22-1.92.23-2.89.05-3.9-.06-7.64-.4-11.57-.09-1.07-.2-2.15-.75-2.97-.44-.66-1.16-1.16-1.64-1.8-.78-1.04-.93-2.45-1.52-3.66-.75-1.51-2.2-2.69-3.87-3.27-.97-.34-2.02-.47-2.47-1.23-.15-.25-.24-.58-.41-.84-.4-.61-1.24-.9-2.02-.98-.94-.09-1.79.11-2.71-.14.24-.18.23-.41.12-.61-.18-.35-.62-.64-1.08-.81-.69-.25-1.42-.24-2.15-.26-.73-.02-1.44-.06-2.17-.02-.73.04-1.47.16-2.19.11-.83-.05-1.63-.31-2.44-.51-.81-.2-1.62-.33-2.41-.2-1.66.28-3.19,1.75-4.87,1.45-.42-.08-.86-.27-1.31-.25-.45.02-.92.26-1.33.49-.42.24-.78.47-1.18.7-.2.11-.41.22-.63.28-.21.05-.43.05-.67.06-.22,0-.46,0-.63.09-.18.09-.3.26-.4.46-.2.39-.33.87-.66,1.08-.19.12-.45.15-.7.26-.25.11-.48.29-.45.48.03.19.31.38.45.61.14.22.15.47.12.71-.09.72-.51,1.35-.99,1.91-.45.52-.95.97-1.42,1.44-.48.47-.93.96-1.3,1.53-.25.38-.47.8-.62,1.23-.15.43-.22.87-.51,1.26-.16.21-.38.41-.51.62-.13.2-.18.41-.19.64-.03.62.17,1.41.04,1.95-.06.25-.19.44-.45.79-.26.35-.65.85-.32.89.05,0,.13,0,.2,0,.71-.03.91.35.94.81.06.88-.53,2.02-.52,3.07.01,1.09.68,2.07.93,3.09.42,1.71-.32,3.53-.24,5.3.05,1.22.49,2.41.63,3.64-.28.56-.52,1.14-.42,1.73.08.47.39.95.47,1.43.08.48-.06.96-.11,1.45-.08.71.02,1.43.48,2.01.22.28.53.53.7.83s.18.67.14,1.02c-.06.52-.25,1.02-.37,1.53-.12.51-.18,1.04-.2,1.57-.04.96.05,1.92.45,2.8.17.37.39.72.58,1.08.19.36.36.72.48,1.1.18.57.24,1.18.21,1.79-.02.4-.08.79-.12,1.19-1.27.47-2.55.99-3.65,1.71-1.19.78-2.18,1.8-3.12,2.97-.81,1-1.58,2.11-2.66,2.42-.78.23-1.72.03-2.64-.1-2.3-.34-4.48-.34-6.67,0-1.35.2-2.7.53-4.07.63-1.18.09-2.36.02-3.53.15-1.35.15-2.66.56-4.01.77-1.35.21-2.73.23-4.11.3-2.06.11-4.1.36-6.06.89-1.15.31-2.28.72-3.4,1.19-1.12.47-2.24.98-3.28,1.47-.36.17-.72.33-1,.65-.28.31-.49.78-.81,1.01-.5.36-1.29.11-1.97.16.2-.62.58-1.24.71-2.05.28-1.6-.37-3.96-.48-5.16-.11-1.2.31-1.26-.17-2.12-.29-.51-.9-1.31-.77-2.02.08-.48.5-.91.67-1.39.17-.48.09-1,.02-1.5-.14-1.06-.22-2.04-.18-3.09.05-1.59.37-3.34.16-4.93-.2-1.58-.92-2.99-1.78-4.32-1.62-2.49-3.75-4.67-6.04-6.85-1.05-1-2.13-2-3.35-2.39-1.14-.37-2.41-.22-3.64-.45-1.55-.29-3.04-1.18-4.63-1.3-.51-.04-1.03,0-1.54.05-.51.05-1.02.11-1.52.2-.52.1-1.04.24-1.56.35-.52.11-1.04.19-1.56.35-.61.18-1.21.46-1.79.72-.58.26-1.14.5-1.67.86-.98.65-1.89,1.7-3.12,1.46-.21-.04-.43-.12-.6-.09-.17.03-.3.16-.43.29-.87.88-1.89,1.79-2.89,2.64-.85.72-1.67,1.4-2.38,2.24-1.25,1.49-2.13,3.48-2.25,5.47-.14,2.16.62,4.33.82,6.46.15,1.63-.03,3.24.29,4.82.26,1.31.85,2.6.91,3.95.02.57-.05,1.16.02,1.73.07.57.28,1.12.52,1.64.22.46.46.91.75,1.33.29.42.64.82.83,1.28.13.32.19.67.28,1.01.09.34.22.68.4.98.22.38.5.7.85.98.37.3.82.56,1.23.77.41.21.79.37,1.25.52.67.22,1.53.43,1.83.84.14.19.16.41.15.92,0,.13,0,.28-.01.43-1.64.05-3.25.23-4.94.48-.85.12-1.72.26-2.39.63-.66.36-1.14.93-1.86,1.47-.75.56-1.76,1.09-1.72,1.77,0,.11.04.22.09.33.25.57.92,1.03,1.32,1.62.67.99.62,2.33,1.54,3.19.53.5,1.39.84,1.35,1.43-.01.14-.07.29-.15.44-.36.68-1.05,1.14-1.5,1.75-.5.69-.7,1.58-.71,2.43-.01,1.8.82,3.44,1.73,5.08.36.66.74,1.32.61,1.93-.11.52-.59,1.01-1.05,1.5-1.72,1.79-3.21,3.49-4.1,5.58-.4.94-.68,1.96-1.06,2.91-.26.65-.56,1.27-.66,1.96-.13.93.12,1.99.48,2.91.36.91.83,1.69,1.78,2.06.97.37,2.43.31,2.69.95.2.51-.37,1.46-.78,2.26-.41.8-.66,1.45-.77,2.17-.27,1.76.27,3.94.42,5.84.09,1.16.04,2.22.02,3.44,0,.5,0,1.02.16,1.46.17.44.49.8.85,1.14.63.61,1.33,1.13,1.79,1.85.31.5.51,1.08.77,1.63-.15.18-.29.36-.39.56-.23.43-.33.93-.5,1.41-.36,1.02-1.02,1.9-1.5,2.87-.95,1.91-1.22,4.13-1.61,6.26-.41,2.23-.96,4.35-1.83,6.51-.44,1.08-.95,2.17-.98,3.27-.03,1.22.55,2.45.51,3.67-.04,1.16-.64,2.3-.66,3.45-.01,1.01.43,2.03.89,3,.25.53.51,1.04.58,1.59.08.68-.13,1.43-.19,2.15-.11,1.27.25,2.49.82,3.61.52,1.03,1.23,1.98,2.22,2.52.94.51,2.14.65,3,1.29.22.16.42.36.65.43.36.12.81-.06,1.25-.21.81-.29,1.6-.5,2.36-.44,1.4,2.25,3.69,3.87,6.07,5.12,2.26,1.18,4.62,2.02,6.94,2.91.68.26,1.35.52,2.19.66.83.14,1.83.16,1.97.66.09.33-.2.87-.4,1.37-.2.5-.31.96-.42,1.42-.35,1.48-.71,3.05-.53,4.59.07.62.23,1.23.26,1.85.02.62-.09,1.25-.31,1.83-.21.56-.51,1.07-.86,1.56-.34.49-.73.97-1.01,1.48-.6,1.09-.78,2.36-.79,3.63,0,.68.04,1.36-.05,2.02-.1.66-.33,1.31-.53,1.97-.21.69-.39,1.37-.48,2.07-.09.7-.08,1.42-.06,2.13.01.37.02.74-.18,1.05-.15.24-.43.44-.64.66-.21.22-.34.46-.42.72-.1.32-.15.66-.2,1.02-.05.35-.12.71-.05,1.04.06.28.21.53.39.76.35.44.8.77,1.18,1.19.28.31.53.66.83.92Z"/>
  <path class="cls-1" d="M95.12,37.58c.08-.75.15-1.5.02-2.26-.13-.77-.46-1.57-.1-2.23.17-.31.48-.59.81-.6.32-.01.65.25.87.54.47.64.4,1.45.37,2.25-.02.8,0,1.58-.14,2.33-.3,1.54-1.3,2.95-1.47,4.53"/>
  <path class="cls-1" d="M104.62,87.62c-.27,1.22.32,2.44.57,3.68.25,1.24.16,2.49.03,3.73-.13,1.34-.3,2.68-.5,4.02-.2,1.33-.43,2.66-.67,3.99-1.01,5.56-2.21,11.09-2.78,16.73-.53,5.27-.52,10.63.16,15.84.27,2.07.65,4.12.94,6.21.28,2.03.48,4.09.58,6.15.13,2.72.07,5.44-.14,8.16-.21,2.72-.57,5.45-1.11,8.03-.17.8-.35,1.59-.63,2.54-.28.95-.66,2.05-.22,2.39.22.17.65.15.97-.12.31-.26.5-.77.68-1.24.52-1.36.98-2.4,1.34-3.54.36-1.15.62-2.4.89-3.63.57-2.6,1.2-5.12,1.51-7.69.63-5.15.01-10.5-.54-15.72"/>
  <path class="cls-1" d="M125.22,16.03c.17-.82-.56-1.46-1.29-2.01-1.35-1.04-2.68-1.81-3.87-2.76-1.25-.99-2.36-2.16-3.45-3.47-.92-1.09-1.82-2.28-3.18-2.11"/>
  <path class="cls-1" d="M124.94,12.77c-1.14-.89-2.59-1.63-3.21-2.88-.39-.79-.44-1.79-.07-2.62"/>
  <path class="cls-1" d="M129.07,17.5c1.02.8,2.12,1.73,2.56,2.88.52,1.35.13,3,.12,4.56,0,1.47.33,2.86,1.01,4.17.62,1.2,1.53,2.33,2.83,2.6"/>
  <path class="cls-1" d="M133.6,21.11c.29,2.35.09,4.96,1.2,6.95.74,1.32,2.06,2.37,3.38,3.23"/>
  <path class="cls-1" d="M129.12,24.86c.53,1.99,1.29,4.03,1.16,6.03-.08,1.23-.49,2.44-1.21,3.56-.33.51-.72.99-.73,1.49,0,.51.38,1.04.68,1.58,1.45,2.59.91,5.48.74,8.25-.07,1.18-.08,2.33-.27,3.55-.18,1.17-.52,2.41-1.48,3.04"/>
  <path class="cls-1" d="M126.06,31.83c-.42,2.06-1.65,3.9-2.14,5.94-.27,1.13-.3,2.33.05,3.43.52,1.62,1.87,3.04,1.69,4.76-.04.38-.16.77-.38,1.08-.33.45-.89.71-1.32,1.05-.79.62-1.18,1.51-1.6,2.47-.43.95-.89,1.97-.61,2.91.11.35.32.69.69.77"/>
  <path class="cls-1" d="M124.79,52.05c-.45-.09-.48.55-.57,1.09-.16.91-.48,1.53-.31,2.23.1.42.39.86.75,1.14"/>
  <path class="cls-1" d="M124.8,21.18c-1.67-.26-3.35-.79-5.01-.91-2.28-.17-4.53.42-6.73,1.21-1.68.61-3.33,1.33-4.69,2.5-1.15.98-2.09,2.28-3.51,2.73"/>
  <path class="cls-1" d="M123.65,19.04c-.89-.64-2.09-.5-3.22-.48-1.13.02-2.2-.08-3.28-.09-2.78-.02-5.68.53-8.04,2.07-.59.39-1.15.84-1.79,1.15-.64.31-1.36.49-2.06.51-.44.01-.88-.04-1.31-.17-.43-.13-.84-.34-1.25-.54-.49-.25-.96-.48-1.49-.62-.31-.08-.64-.12-.97-.11-.32.02-.64.09-.96.18-.64.19-1.24.45-1.83.76-.59.3-1.15.65-1.74.96"/>
  <path class="cls-1" d="M121.84,15.78c-.25-.79-1.24-.99-2.08-1.29-.84-.3-1.54-.71-2.3-.93-.9-.27-1.88-.28-2.91-.25-1.03.02-2.1.08-2.9-.35-1.64-.89-2.13-3.85-4.21-3.95-.44-.02-.94.08-1.4.02-.46-.07-.87-.3-1.06-.64-.22-.4-.14-.94.09-1.38"/>
  <path class="cls-1" d="M43.98,62.09c-.45-.33-1.08-.48-1.56-.29-.53.21-.87.84-.99,1.47-.31,1.55.72,3.05.68,4.53-.02.75-.32,1.5-.06,2.33.22.72.87,1.5,1.43,1.42.24-.03.46-.22.5-.51"/>
  <path class="cls-1" d="M43.55,62.69c-.45.62-.61,1.38-.5,2.12.14.93.71,1.83.49,2.83-.07.32-.22.65.32.66.26.66-.02,1.35-.13,2.03"/>
  <path class="cls-1" d="M41.81,70.29c-.74-.39-1.42-.95-2.24-1.09"/>
  <path class="cls-1" d="M39.27,43.49c.21.7.89,1.13,1.36,1.69.67.81.87,1.88,1.05,2.92.31,1.92.5,3.77.49,5.69-.01,1.98-.23,4.04-1.08,5.8-.47.97-1.13,1.85-1.83,2.7-.68.83-1.4,1.63-1.59,2.69"/>
  <path class="cls-1" d="M38.39,49.96c-.14.8.25,1.57.48,2.37.23.8.28,1.62.25,2.43-.12,2.69-1.3,5.22-1.96,7.81-.23.92-.4,1.84-.45,2.8-.05.96.02,1.95-.43,2.77-.26.46-.68.87-1,1.3-.33.44-.56.91-.9,1.29-.66.76-1.72,1.2-2.72,1.5"/>
  <path class="cls-1" d="M29.85,45.16c-.15.87.42,1.68.73,2.52.31.85.37,1.73.38,2.62.03,2.15-.18,4.29-1.02,6.32-.39.93-.9,1.85-.78,2.75.15,1.14,1.33,2.25,1.92,3.38.59,1.11.61,2.24.67,3.49.05,1.25.14,2.62-.59,3.62"/>
  <path class="cls-1" d="M18.93,41.37c.94,1.76,1.6,3.68,1.92,5.64.39,2.46.23,4.98,0,7.51-.08.86-.17,1.71-.04,2.52.19,1.18.84,2.27,1.26,3.43.67,1.82.79,3.82.2,5.64"/>
  <path class="cls-1" d="M23.49,61.74c.89,2.96.32,6.2-1.14,8.95-.5.94-1.09,1.82-.86,2.89.11.49.39,1.02.78,1.3"/>
  <path class="cls-1" d="M14.15,42.78c-2.17,2.29-3.67,5.1-4.57,8.18-.45,1.53-.75,3.12-.56,4.66.18,1.48.83,2.92,1.12,4.4.45,2.25.09,4.59.41,6.81.14.97.41,1.91.83,2.9.36.85.83,1.73,1.68,1.88"/>
  <path class="cls-1" d="M23.84,74.35c.13.45.67.68,1.16.76.57.1,1.07,0,1.51-.29.67-.45,1.19-1.36,1.91-1.68.83-.37,1.94.03,2.87-.25"/>
  <path class="cls-1" d="M20.7,113.83c-1.89-.22-3.76.45-5.6,1.05-1.9.62-3.76,1.17-5.27,2.49-.29.25-.56.53-.86.87-.3.34-.62.73-.48.94.04.07.12.12.21.16.65.29,1.61-.02,2.47-.25.86-.23,1.61-.39,2.43-.56"/>
  <path class="cls-1" d="M6.5,123.12c-.18.22-.1.51-.02.8.08.29.15.57.25.83.23.63.57,1.15,1.15,1.62.58.47,1.41.89,1.49,1.38.06.38-.33.81-.8,1.11-.35.21-.74.35-1.03.61-.29.25-.48.62-.63.99-.18.45-.31.91-.19,1.37"/>
  <path class="cls-1" d="M17.65,107.19c-.47-.06-.92-.24-1.38-.28-.67-.05-1.33.2-2,.43-1.45.48-2.9.79-4.31,1.28-1.56.53-3.07,1.27-4.33,2.36-1.13.99-2.05,2.27-2.22,3.75"/>
  <path class="cls-1" d="M57.71,257.54c.28.78.69,1.54,1.38,2"/>
  <path class="cls-1" d="M59.49,260.33c.1.46.51.83.61,1.27.06.28-.01.59-.17.83"/>
  <path class="cls-1" d="M55.35,258.81c.58.73.94,1.57,1.22,2.51.17.58.31,1.19,0,1.67"/>
  <path class="cls-1" d="M52.62,259.85c-.15,1.22,1.3,2.31.86,3.46"/>
  <path class="cls-1" d="M49.71,260.5c-.14,1.14,1.28,2.01,1.15,3.15"/>
  <path class="cls-1" d="M61.79,259.05c.6.28,1.17,1.14.98,1.51-.26.51-1.96.09-2.56.79"/>
  <path class="cls-1" d="M59.43,261.63c-.25-.72-1.47-.26-2.08.22"/>
  <path class="cls-1" d="M56.09,262.01c-.61-.4-1.45-.13-1.92.42"/>
  <path class="cls-1" d="M52.7,262.53c-.33-.22-.78-.07-1.13.11"/>
  <path class="cls-1" d="M49.99,262.64c-.28.1-.61.02-.89.14"/>
  <path class="cls-1" d="M33.35,196.21c-.12.04-.17.15-.19.27-.16.67.34,1.41.9,1.86"/>
  <path class="cls-1" d="M37.51,195.49c-.41.59.04,1.44.56,1.94"/>
  <path class="cls-1" d="M29.01,170.6c1.07,2.14,1.69,4.51,3.17,6.35,1.34,1.67,3.38,2.91,4.74,4.53,1.26,1.5,1.95,3.32,2.1,5.34.15,2.01-.25,4.22.94,5.8"/>
  <path class="cls-1" d="M18.34,226.49c.11.49.56.83.84,1.24.54.78.46,1.8.34,2.8-.12,1.02-.29,2.02-.99,2.69-.37.35-.88.61-1.4.64"/>
  <path class="cls-1" d="M22.2,254.11c-.23.05-.38-.19-.49-.42-.22-.44-.31-.85-.27-1.26.06-.57.37-1.15.75-1.61"/>
  <path class="cls-1" d="M20.16,253.99s-.04.05-.08.04c-.2-.02-.35-.34-.39-.62-.07-.5.2-.9.58-1.14"/>
  <path class="cls-1" d="M18.15,253.59s-.04.02-.07.02c-.22-.04-.1-.62-.21-.76-.2-.63.2-1.2.71-1.51"/>
  <path class="cls-1" d="M25.02,252.46c-.86.13-1.26,1.23-1.26,2.09"/>
  <path class="cls-1" d="M23.12,243.59c-.59.94-1.38,1.93-1.4,2.98-.01.7.32,1.44.43,2.17"/>
  <path class="cls-1" d="M41.16,236.12c.82,1.63.66,4.1-1.02,4.82"/>
  <path class="cls-1" d="M41.61,244.19c0,1.62.33,3.42,1.68,4.32"/>
  <path class="cls-1" d="M54.09,130.39c-.7,1.1-.55,2.54,0,3.76.28.61.65,1.15,1.19,1.47.36.21.79.33,1.21.45"/>
  <path class="cls-1" d="M50.85,135.98c0,1.29.98,2.36,2.14,2.94"/>
  <path class="cls-1" d="M169.6,195.48c-.31.94-.1,1.97-.1,2.97,0,1-.22,1.97-.37,2.96-.3,1.97-.32,3.97-.75,5.91-.17.77-.4,1.53-.55,2.3-.15.77-.23,1.55-.35,2.33-.12.78-.29,1.54-.45,2.31-.16.77-.3,1.54-.46,2.31-.19.91-.41,1.81-.67,2.7-.26.89-.57,1.76-.8,2.66-.18.69-.33,1.39-.37,2.08-.02.35-.02.69-.07,1.07-.05.38-.15.8.06,1.02.13.14.39.2.62.18.22-.02.42-.13.61-.24.39-.21.8-.4,1.21-.49,1.36-.29,2.86.54,3.71,1.68"/>
  <path class="cls-1" d="M171.45,240.03c.92-.47,1.11-1.7,1.41-2.75.4-1.4,1.01-2.49,1.16-3.88.06-.57.05-1.19.09-1.74.04-.55.14-1.04-.19-1.66-.07-.13-.16-.27-.25-.31-.09-.04-.19.02-.28.09-.84.63-1.04,1.83-1.34,2.93-.3,1.1-.71,2.11-1.17,3.11-1.04,2.25-2.35,4.44-4.12,6.21"/>
  <path class="cls-1" d="M167.61,277.47c-.83,1.67-2.37,2.84-2.97,4.71-.3.95-.36,2.09-.91,2.72-.42.5-1.14.69-1.85.93-.96.31-1.9.69-2.85.9-.95.21-1.91.27-2.89.32-1.5.07-3.06.14-4.48.7"/>
  <path class="cls-1" d="M154.44,289.94c1.24,0,2.52.14,3.73,0,1.12-.13,2.18-.5,3.32-.79.95-.24,1.95-.42,2.7-.95.85-.59,1.39-1.6,2.21-2.31"/>
  <path class="cls-1" d="M150.89,285.87c.76-.46,2.12-.83,2.49-.26.26.4.04,1.24-.32,1.74"/>
  <path class="cls-1" d="M154.68,274.76s-.02.03-.02.05c.04.18.37.32.67.41.54.15.99.12,1.48,0"/>
  <path class="cls-1" d="M154.62,276.98c.47,0,.93-.06,1.4-.09"/>
  <path class="cls-1" d="M33.49,233.97c.3.6,0,1.31-.14,1.98-.13.68-.09,1.32-.1,1.98-.02,1.31-.22,2.66-.37,3.99-.28,2.67-.3,5.31-.24,7.98.02,1.1.06,2.2.06,3.3,0,1.1-.03,2.19-.04,3.28-.02,1.09-.01,2.18.02,3.29.04,1.11.11,2.23.65,3.18.26.45.62.87,1.08,1.14.23.14.48.24.72.36.24.11.46.24.7.34.27.12.55.21.83.31.28.1.55.21.83.31.55.21,1.11.42,1.63.7.54.29,1.03.67,1.44,1.12.41.45.75.99,1.17,1.42.89.92,2.18,1.42,3.34,1.9.92.39,1.76.76,2.82.9.89.12,1.93.07,2.8-.21.76-.25,1.38-.68,2.03-1.07,1.32-.8,2.76-1.45,4.28-1.68,1.56-.23,3.19-.02,4.78-.02"/>
  <path class="cls-1" d="M118.95,252.34c-.93,1.39-1,3.16-1.22,4.84-.22,1.68-.59,3.26-.84,4.91-.14.96-.25,1.95-.3,2.91-.06.96-.07,1.9-.04,2.91,0,.29.02.6-.08.85-.1.25-.31.46-.54.61-.48.31-1.07.4-1.64.49-.58.09-1.14.18-1.71.29-5.08.99-9.76,3.61-14.77,4.87-.66.17-1.33.31-2.05.56-.71.25-1.47.6-1.95.27-.23-.16-.4-.47-.53-.79-.13-.32-.23-.65-.36-.96-.54-1.22-1.67-2.05-2.62-2.99"/>
  <path class="cls-1" d="M90.29,266.41c.83,1.66,1.73,3.31,2.95,4.72.4.47.84.92,1.36,1.11.93.35,2.13-.11,3.24-.52,1.88-.7,3.55-1.28,5.3-1.82,1.33-.41,2.71-.79,4.16-.97,1.82-.23,3.74-.15,5.26-.95.54-.29,1.03-.68,1.32-1.21.36-.66.4-1.52.45-2.37.24-3.53.83-6.78,1.5-10.1"/>
  <path class="cls-1" d="M34.66,251.3c0,1.69.28,3.28.22,5.03-.06,1.75-.45,3.67.36,4.89.77,1.16,2.62,1.69,4.13,2.45,1.5.76,2.66,1.75,4.15,2.35"/>
  <path class="cls-1" d="M119.08,307.32c0,2.52-1.74,4.68-3.22,6.78-1.38,1.96-2.52,3.86-3.94,5.7-.32.42-.66.84-1.1,1.31-.44.47-.98.99-.81,1.28.13.23.7.31,1.21.4,1.61.28,2.62.64,3.57,1.59"/>
  <path class="cls-1" d="M90.55,322.17c.42.83,1.34,1.14,2.26,1.46,1.01.35,2,.7,3,.92,1.63.36,3.27.36,4.94.45,3.32.17,6.73.66,9.97,1.32,1.36.27,2.69.58,3.7,1.62.48.5.9,1.17,1.3,1.74.41.57.81,1.03,1.11,1.6.13.25.24.51.21.69-.12.59-1.81.24-2.93.21-1.12-.03-1.67.25-2.64.39-.45.06-.98.1-1.43.18-.45.09-.81.23-1.2.4-.81.36-1.72.84-2.13,1.67"/>
  <path class="cls-1" d="M114.78,342.62c-1.64-1.64-3.73-2.74-5.8-3.81-1.86-.96-3.7-1.89-5.51-2.97-1.46-.87-2.9-1.84-4.54-2.19-.97-.21-2.01-.2-2.96.09-1,.3-1.9.92-2.82,1.45"/>
  <path class="cls-1" d="M25.02,322.3c-.13-.26.09-.48.32-.69,1.1-1,2.34-1.48,3.62-2.03,1.61-.69,3.27-1.51,5-1.45,1.84.06,3.75,1.11,5.47,1.06,2.23-.07,4.12-1.99,6.26-3.16,2.01-1.09,4.24-1.52,6.43-2.06"/>
  <path class="cls-1" d="M59.67,317.22c-.38,1.12-1.69,1.52-2.88,1.86-1.24.35-2.36.64-3.55.86-1.2.22-2.48.38-3.68.71-1.25.34-2.42.86-3.35,1.88-.34.38-.66.83-.46,1.2.11.21.38.39.65.52.87.43,1.7.3,2.59.16.91-.14,1.88-.3,2.72-.07.58.16,1.1.5,1.59.91.93.77,1.72,1.76,2.86,2.14"/>
  <path class="cls-1" d="M50.29,335.72c-2.78-.7-5.29-2.12-7.85-3.48-2.56-1.36-5.17-2.66-8-2.95-2.04-.21-4.2.12-6.1,1.03-.48.23-.95.5-1.44.8-.49.3-1.01.62-1.05.84-.1.46,1.83.47,3.17.47,1.34,0,2.09-.02,3.17.16"/>
  <path class="cls-1" d="M43.41,348.11c.62.62.48,1.59.31,2.51-.27,1.46-.62,2.79-1.1,4.07-.69,1.83-1.63,3.56-2.57,5.34-1.03,1.95-2.05,3.97-3.42,5.62-1.45,1.74-3.29,3.06-4.91,4.94-.56.65-1.1,1.37-.76,2,.23.43.86.81,1.41.81.31,0,.6-.12.87-.05.28.06.55.31.7.59.21.41.17.88,0,1.29-.16.41-.42.75-.71,1.08-1.51,1.72-3.5,3-5.02,4.73-1.28,1.46-2.23,3.23-2.95,5.04"/>
  <path class="cls-1" d="M94.81,345.11c-1.43,7.18-2.04,14.49-2.39,21.81-.15,3.14-.25,6.29-.2,9.43.04,2.51.18,5.02.54,7.5.36,2.48.95,4.95,1.58,7.38.34,1.31.68,2.6,1.15,3.87.47,1.26,1.07,2.5,1.5,3.76.22.66.4,1.32.26,1.98-.14.66-.6,1.32-.89,1.99-.32.73-.45,1.46-.55,2.22-.1.75-.17,1.53-.2,2.31-.12,3.24.48,6.5,1.93,9.39"/>
  <path class="cls-1" d="M41.95,445.77c-1.51,1.16-3,2.73-4.78,2.9-1.97.19-4.29-1.33-6.22-.49"/>
  <path class="cls-1" d="M20.23,440.21c.82.55,1.85.85,2.54,1.49.51.47.83,1.13,1.24,1.78.56.87,1.29,1.71,2.19,2.05.81.3,1.76.21,2.59.53"/>
  <path class="cls-1" d="M22.21,445.87c.27.35.32.84.17,1.23-.29.76-1.34,1.12-2.2,1.22"/>
  <path class="cls-1" d="M29.31,212.34c.13,1.03.07,2.17.25,3.14.2,1.05.7,1.89,1.32,3.06.41.76.87,1.66.47,2.03-.21.19-.67.24-1.05.16"/>
  <path class="cls-1" d="M158.89,140.73c1.09,1.7.56,3.91.42,5.99-.14,2.08.1,4.04-.19,6-.28,1.91-1.07,3.83-1.93,5.63-.85,1.8-1.77,3.49-2.67,5.25"/>
  <path class="cls-1" d="M13.11,54.88c-.62.84-.73,1.92-.77,2.99-.04,1.12,0,2.21.13,3.3.29,2.42,1.07,4.77,2.02,7.03.85,2.02,1.82,3.98,2.39,6.09.22.82.38,1.66.95,2.23.51.5,1.33.79,2.1.96"/>
  <path class="cls-1" d="M40.56,83.6c-.22,1.28-1.25,2.44-2.07,3.59"/>
  <path class="cls-1" d="M38.45,94.35c.24-.47.61-.9.89-1.4.42-.74.65-1.65.48-2.39-.11-.5-.41-.93-.58-1.46-.17-.52-.23-1.14-.48-1.57-.59-1.02-2.26-1.04-3.58-1.24-.86-.13-1.56-.33-2.38-.36-.81-.03-1.73.11-2.56.29-.81.18-1.53.4-2.2.86-.34.23-.67.53-.95.84-.28.32-.53.66-.84.9-.58.44-1.4.55-2.05.93-.32.19-.6.45-.88.7-.28.25-.57.5-.82.78-.31.34-.58.72-.95.99-.38.26-.87.41-1.17.72-.43.45-.47,1.24-.47,1.93,0,.69.06,1.29.24,1.93"/>
  <path class="cls-1" d="M23.7,108.19c-.6-.07-1.33.21-1.81,0-.29-.13-.49-.45-.64-.77-.31-.64-.46-1.29-.67-1.99-.2-.69-.45-1.41-.47-2.09-.04-1.69,1.4-3.08,2.78-4.33,1.44-1.31,2.82-2.48,4.49-3.21,1.58-.7,3.42-1,5.18-1.14,1.65-.13,3.24-.11,4.89-.29.55-.06,1.1-.14,1.48.19.42.37.64,1.24.74,1.91.1.66.1,1.12.11,1.68.02.89.09,2.04-.31,2.88-.34.71-1,1.2-1.53,1.81"/>
  <path class="cls-1" d="M52.5,243.77c1.48,1.52,3.26,2.76,5.18,3.65,2.59,1.19,5.43,1.74,8.24,2.29,3.16.62,6.27,1.23,9.43,1.81,3.53.64,7.12,1.24,10.7,1.13,2.09-.07,4.16-.38,6.24-.38,1.97,0,3.94.28,5.92.44,2.03.17,4.07.22,6.1.02,2.25-.22,4.48-.73,6.75-.83,1.32-.06,2.66.03,3.86-.46.66-.28,1.28-.73,1.9-1.16,1.19-.83,2.37-1.56,3.35-2.53,1.04-1.03,1.83-2.32,2.71-3.55.67-.93,1.39-1.82,2.05-4.61"/>
  <path class="cls-1" d="M59.93,262.43c-.29.87-1.07,1.56-1.87,1.4-.53-.1-1.06-.57-1.53-.47-.34.07-.65.45-.99.6-.57.24-1.23-.16-1.84-.22-.68-.06-1.28.31-1.94.39-.53.06-1.09-.06-1.67-.13-.79-.09-1.59-.08-2.88-1.83"/>
  <path class="cls-1" d="M50.73,208.28c.67,1.11,1.06,2.35,1.28,3.62.22,1.3.25,2.63.11,3.93-.27,2.51-1.18,4.89-1.95,7.33-.9,2.86-1.61,5.81-.68,8.65.46,1.42,1.34,2.81,1.47,4.25.09,1.02-.19,2.06-.13,3.07.07,1.32.71,2.6,1.31,3.85.66,1.36,1.27,2.69,2.12,3.89.8,1.15,1.82,2.19,2.63,3.37.93,1.35,1.59,2.88,2.48,4.21.8,1.2,1.8,2.25,2.74,3.44.87,1.1,1.7,2.32,1.25,3.46-.43,1.11-2.09,2.14-3.47,2.1-.16,0-.32-.02-.55-.06"/>
  <path class="cls-1" d="M33.83,214.03c1.5,1.82.86,4.6,1.41,6.89.26,1.09.79,2.06.89,3.17.08.92-.13,1.94-.03,2.85.1.89.51,1.68.86,2.51.54,1.26.98,2.6,1.04,3.97.07,1.28-.19,2.57-.43,3.83-.16.86-.32,1.71-.04,2.5.32.91,1.2,1.74,1.33,2.68.14.98-.55,2.07-.73,3.14-.22,1.26.27,2.5.97,3.55.78,1.16,1.82,2.08,2.53,3.21.98,1.55,1.33,3.47,2.06,5.23.37.9.84,1.76,1.46,2.49.63.74,1.43,1.35,2.04,2.12"/>
  <path class="cls-1" d="M40.3,198.84c-.62,1.86-.24,3.87.09,5.87.32,1.94.59,3.88,2.03,5.19"/>
  <path class="cls-1" d="M32.71,215.26c1.16-1.51,2.45-2.32,3.76-3.01,1.42-.74,2.86-1.34,4.36-1.86,1.47-.5,2.99-.92,4.51-1.28,2.42-.58,4.83-1.03,7.37-.74.67.08,1.35.21,1.88.57.28.19.53.45.7.76.64,1.1.49,2.86-3.11,4.94"/>
  <path class="cls-1" d="M26.8,222.03c1.32.93,1.79,1.96,2.56,2.2.39.12.86.04,1.33-.02.76-.1,1.51-.14,1.91.33.41.48.45,1.49.76,2.21.36.84,1.09,1.31,1.5,2.06.36.66.48,1.55.92,2.16.44.62,1.22.97,1.99.97"/>
  <path class="cls-1" d="M29.74,224.29c-.65,2.22-.64,4.6-.91,6.91-.3,2.46-.92,4.86-1.37,7.28-.38,2.02-.63,4.07-.9,6.16-.28,2.23-.59,4.51.58,6.96"/>
  <path class="cls-1" d="M79.14,264.16c-.41-2.32-.64-4.66.69-9.8"/>
  <path class="cls-1" d="M32.02,196.1c2.32-1.1,4.12-1.31,5.87-1.76,1.93-.49,3.79-1.28,5.74-1.76,1.65-.4,3.37-.58,5.04-.75,1.04-.1,2.06-.21,3.12-.39,1.17-.2,2.38-.51,4.61.01"/>
  <path class="cls-1" d="M56.46,195.85c-1.27-.42-2.23-.79-3.18-.99-2.72-.57-5.26.32-7.79,1.18-1.32.45-2.64.9-3.98,1.2-.53.12-1.06.22-1.53.49-.48.27-.9.7-1.38.91-.99.43-2.23-.06-3.34.06-1.14.13-2.13.91-3.27,1.28"/>
  <path class="cls-1" d="M31.02,188.67c.62.98,1.78,1.1,2.09,1.69.28.53-.12,1.43-.3,2.17-.17.74-.11,1.31-.21,2.03-.07.53-.23,1.13-.56,1.52-.21.25-.5.4-.7.67-.19.27-.29.65-.37.98-.07.29-.12.53-.17.84-.05.31-.08.67.09.88.2.23.67.25.94.42.4.26.31.86.2,1.4-.1.55-.21,1.04-.29,1.54-.24,1.65-.09,3.39-.18,5.09-.05,1.09-.21,2.16-.31,3.24-.1,1.08-.14,2.17.17,3.28.05.17.11.34.2.47.1.13.23.22.38.27.72.29,1.7-.14,2.5.11"/>
  <path class="cls-1" d="M21.11,174.77c.29.41.54.88.68,1.36.3,1.02.14,2.11.28,3.19.07.52.2,1.04.48,1.44.27.39.67.67,1.14.86.6.24,1.3.34,1.78.71.52.41.77,1.16,1.18,1.73.82,1.15,2.31,1.56,3.15,2.67.4.52.65,1.2,1.18,1.86"/>
  <path class="cls-1" d="M48.79,128.61c-.1.7-.95,1.02-1.49,1.52-.54.5-.76,1.19-1.01,1.84-.19.5-.4.99-.25,1.5.1.35.36.71.45,1.08.08.37-.01.74-.11,1.09-.22.82-.45,1.58-.86,2.32-.41.74-.99,1.46-1.71,1.77-.81.35-1.8.21-2.78.1-.98-.11-1.94-.18-2.69.3-.47.3-.85.81-.95,1.41-.05.27-.04.56-.09.83-.05.27-.15.52-.09.75.07.25.33.48.5.73.18.25.26.5.29.78.04.39-.05.81-.13,1.21-.08.4-.15.79-.23,1.19-.18.88-.41,1.78-.81,2.58-.18.36-.39.7-.75.86-.38.17-.92.14-1.27.32-.49.25-.61.88-.63,1.55-.05,1.27.26,2.63-.48,3.33-.46.43-1.32.61-1.55,1.18-.23.57.16,1.54.03,2.25-.09.48-.42.84-.62,1.27s-.28.92-.4,1.39c-.41,1.67-1.29,3.11-2.27,4.47-1.09,1.51-2.3,2.93-3.55,4.33-1.26,1.41-2.56,2.82-4,4.03-1,.84-2.07,1.59-3.17,2.27-.55.34-1.11.67-1.64,1.09-.53.43-1.05.95-2.64,1.44"/>
  <path class="cls-1" d="M37.05,149.13c2.5,4.78,4.87,7.23,7.05,9.68,2.1,2.35,4.01,4.7,5.96,7.2.97,1.23,1.95,2.5,2.58,3.9.58,1.26.87,2.61,1.11,3.99.55,3.24.73,6.55.97,9.81.1,1.47.22,2.92.26,4.43.02.6.03,1.21.28,1.73.27.56.81,1.02,1.11,1.53.56.96.27,2.13.15,3.3-.15,1.51-.02,3.02.1,4.51.26,3.05.51,5.98.36,9.01-.09,1.65-.3,3.32-1.4,4.61-.47.55-1.11,1.03-1.77,1.35-.59.29-1.2.45-1.64.89"/>
  <path class="cls-1" d="M134.3,151.46c2.15-7.05,2.96-11.66,3.4-16.24.42-4.45.49-8.86.6-13.37.05-2.17.11-4.36.44-6.5.4-2.63,1.2-5.18,2.54-7.36.27-.44.57-.87.9-1.42.33-.55.69-1.23.9-1.12.19.09.26.8.27,1.36,0,.57-.04,1-.13,1.43-.26,1.21-.88,2.47-1.3,3.73"/>
  <path class="cls-1" d="M156.2,104.62c-.1,1.19-.34,2.01-.54,2.17-1.52,2.38-3.04,4.73-4.4,7.18-1.24,2.24-2.34,4.58-3.86,6.64-1.49,2.03-3.38,3.79-5.27,5.48-1.11,1-2.22,1.98-3.17,3.11-.33.39-.64.8-.93,1.22"/>
  <path class="cls-1" d="M27.08,113.33c-1.68,1.58-2.73,3.72-3.52,6.04-.42,1.22-.76,2.49-1.69,3.08-.49.32-1.16.44-1.77.68-.88.34-1.66.89-2.33,1.53-1.29,1.24-2.18,2.82-2.74,4.59-.44,1.38-.68,2.88-2.03,3.44-.44.18-1,.27-1.3.56-.42.41-.32,1.24-.64,1.79-.41.71-1.51.96-1.82,2.42"/>
  <path class="cls-1" d="M46.01,72.66c-.53,1.29-.72,2.43-1.18,3.38-.49,1.01-1.28,1.81-1.96,2.78-.29.42-.57.88-.95,1.14-.27.18-.59.27-.92.37-.98.29-1.99.61-2.84,1.22"/>
  <path class="cls-1" d="M15.34,77.26c.05.76-.19,1.33-.06,1.66.2.51,1.26.47,2.15.43,1.29-.06,2.22-.14,3.25-.41,1.16-.3,2.44-.85,3.68-.77,1.3.09,2.55.87,3.85,1.06,1.34.19,2.73-.27,4.1-.3,1.43-.04,2.85.38,4.04,1.13,1.54.96,2.73,2.46,4.21,3.55"/>
  <path class="cls-1" d="M8.7,88.36c.69-2.28,1.67-3.16,2.62-3.89.91-.7,1.8-1.26,2.7-1.91.82-.59,1.65-1.24,2.51-1.74.85-.49,1.73-.82,3.43-1.72"/>
  <path class="cls-1" d="M45.86,57.07c-.5,1.71-1.25,2.61-2.11,3.34-.87.75-1.85,1.32-2.94,1.65"/>
  <path class="cls-1" d="M49.06,131.57c.05.44.38.89.72,1.26.93,1.01,1.95,1.44,3.12,1.77"/>
  <path class="cls-1" d="M49.88,129.04c-1.71-.93-3.32-2.08-5-3.15-4.84-3.11-10.16-5.62-14.48-9.41-1.58-1.39-3.03-2.96-4.59-4.29-.42-.36-.85-.71-1.21-1.15-.36-.44-.65-.97-.8-1.51-.43-1.55.29-3.16,1.34-4.47,1.45-1.8,3.52-3.03,5.64-3.69,1.11-.35,2.23-.54,3.43-.44,1.29.11,2.67.57,3.45,1.54.74.91.95,2.28,1.66,3.18.88,1.13,2.52,1.56,3.88,2.28,1.57.83,2.76,2.05,3.91,3.34.9,1,1.78,2.04,2.63,3.09,1.7,2.12,3.29,4.31,5.05,6.37.61.71,1.24,1.39,1.95,2.03.28.25.58.5.75.82.17.32.21.7.29,1.07.36,1.76,1.46,3.22,2.06,4.86.17.48.31.97.38,1.47.08.5.1,1,.26,1.47.23.66.74,1.26.98,1.95.25.69.24,1.47.1,2.18-.1.52-.28,1.01-.25,1.52.02.39.16.79.25,1.19.1.39.16.78.2,1.17.1.92.1,1.87-.01,2.81s-.34,1.86-.85,2.65c-.4.62-.98,1.17-1.67,1.4-.37.12-.76.16-1.09,0-.4-.19-.69-.65-.74-1.1-.11-1.05,1.11-2.01,1.24-3.15.07-.58-.15-1.22-.2-1.68-.13.02-.24.14-.35.21-.65.73-1.57,1.5-2.57,1.75-1.01.25-2.1-.05-3.17-.11-1-.06-2,.08-2.9-.37-.41-.21-.8-.54-.84-.96-.04-.44.29-.98.67-1.22.68-.43,1.51.13,2.48-.11.57-.14,1.2-.56,1.12-.93-.02-.1-.09-.19-.17-.26-.46-.42-1.27-.26-2.13-.18-.86.08-1.76.09-1.9-.43-.12-.44.31-1.25.66-1.74.21-.29.38-.47.42-.8.03-.33-.08-.8-.18-1.21-.15-.63-.25-1.08-.36-1.61-.11-.53-.22-1.14-.2-1.71.01-.49.11-.95.24-1.42.12-.44.25-.88.59-1.25Z"/>
  <path class="cls-1" d="M57.15,136.68c.44.05.22.75.31,1.24.13.71.9.99,1.12,1.53.17.42.01.99-.1,1.93"/>
  <path class="cls-1" d="M48.68,141.58c.97.69,2.91,0,2.87,1.63"/>
  <path class="cls-1" d="M60.88,145.98c-.16-.35-.32-.5-.49-.53-.57.61-1.25,1.22-2.46,1.71"/>
  <path class="cls-1" d="M56.96,137.52c-.05.39-.37.65-.62.97-.25.32-.44.71-.7.96-.67.63-1.89.36-3.34.93"/>
  <path class="cls-1" d="M52.12,99.36s0-.01.04.01c1.25,1.01,1.87,2.64,2.23,4.29.23,1.06.34,2.12.27,3.16-.09,1.21-.43,2.39-.76,3.58-.61,2.17-1.19,4.36-2.3,6.3"/>
  <path class="cls-1" d="M48.33,91.2c1.49.93,3.2,1.63,4.56,2.7,1.08.85,1.95,1.95,2.68,3.16.7,1.17,1.28,2.46,1.72,3.74.45,1.31.76,2.61,1.06,3.97.3,1.36.6,2.78.61,4.17.02,1.8-.42,3.56-.59,5.33-.26,2.75.15,5.54-1.02,9.07"/>
  <path class="cls-1" d="M55.27,77.45s.08,0,.12,0c1.47.06,2.83.14,4.21.12,1.7-.02,3.43-.19,5.15-.46,2.04-.32,4.05-.78,6.08-1.01,2.29-.26,4.6-.23,6.91-.08,2.65.17,5.29.5,7.94.47,2.17-.02,4.36-.27,6.51,0,2.32.29,4.59,1.19,6.7,2.19,1.47.7,2.85,1.45,4.34,2.1,1.43.62,2.96,1.15,4.56.77.47-.11.95-.3,1.38-.25.55.07,1.01.53,1.48.93,1.03.89,2.08,1.51,3.22,2.08,2.21,1.12,4.71,2.08,7.17,2.66,1.96.47,3.9.69,5.87,1.07,1.83.35,3.7.82,5.39,1.61,1.85.86,3.48,2.09,5.34,3.01,1.86.92,3.93,1.55,5.54,2.73,1.82,1.33,3.04,3.36,4.69,5.07,1.65,1.71,3.73,3.11,4.35,5.34"/>
  <path class="cls-1" d="M119.72,98.39c-.73,3.31-.68,6.73-.5,10.11.19,3.57.51,7.09.76,10.64.46,6.56.64,13.17,1.21,19.73.3,3.37.69,6.72,1.01,10.09.31,3.37.55,6.75.93,10.1.37,3.23.87,6.42,1.27,9.67.4,3.24.68,6.53.24,12.16"/>
  <path class="cls-1" d="M126.84,57.14c-2.2.22-3.11,1.53-4.14,1.61-.7.05-1.45-.47-2.14-.59-.45-.08-.88.01-1.38.08-.63.09-1.4.15-1.88-.14-.34-.21-.53-.61-.8-.94-.46-.55-1.15-.88-1.72-1.38-.84-.73-1.45-1.83-2.49-2.01-.59-.1-1.32.09-1.95.2-.63.11-1.17.13-1.8.04-.34-.04-.7-.12-1.01,0-.32.11-.58.41-.88.51-.66.23-1.45-.54-1.77-1.26-.23-.53-.22-1.03-.57-1.37-.27-.25-.74-.41-1.11-.62-.37-.21-.64-.47-.86-.78-.56-.78-.8-1.86-1.09-2.88-.29-1.02-.63-1.98-1.21-2.8-.62-.86-1.51-1.55-2.05-2.54-.45-.82-.66-1.85-.28-2.68"/>
  <path class="cls-1" d="M87.24,65.63c2.96.32,4.54-.04,6.1-.01s3.1.43,4.63.72c1.49.28,2.99.46,4.43.96.84.29,1.66.69,2.52.94.85.25,1.73.35,2.62.34.54,0,1.08-.05,1.62-.04.54,0,1.07.07,1.59.2.93.24,1.8.71,2.65,1.14,1.57.8,3.05,1.44,4.77,2.01,1.54.51,3.28.98,4.46,2.09.53.49.94,1.12,1.23,1.79.29.67.45,1.4,1.48,2.04"/>
  <path class="cls-1" d="M98.47,43c-.46,2.17-.71,3.21-1.44,3.51-.31.13-.7.12-1.34-.34"/>
  <path class="cls-1" d="M49.47,71c.92,2.79,1.45,3.8,1.89,4.74.75,1.59,1.27,2.94,2.39,4.05,1,1,2.48,1.79,3.16,2.98.6,1.04.58,2.39.52,3.7-.12,3.06-.42,5.91-.35,8.88.07,2.78.46,5.68.92,7.93"/>
  <path class="cls-1" d="M157.19,215.17c-.18.35-.67.22-1.12.26-.45.04-.86.27-1.07.57-.33.48-.11,1.16.08,1.8.18.64.33,1.24.44,1.85.37,2.02.31,4.14.27,6.3-.02,1.01-.04,2.04.26,2.95.3.91.9,1.72,1.42,2.57,1.92,3.18,2.49,6.98,4.28,10.24.25.44.51.88.73,1.34.22.46.39.95.73,1.29.36.35.91.54,1.44.73.53.2,1.03.4,1.42.74.7.6,1.02,1.63,1.62,2.37.55.67,1.33,1.11,2.18,1.39"/>
  <path class="cls-1" d="M155.28,248.13c1.16,2.15,3.77,3.3,6.24,3.52,1.34.12,2.64-.03,3.76-.67,1.03-.58,1.91-1.56,2.77-2.43"/>
  <path class="cls-1" d="M155.67,254.48c1.06.68,1.7,1.39,2.47,1.8.93.49,2.06.52,3.15.66,1.09.13,2.14.37,3.18.16.78-.16,1.55-.57,2.38-.29"/>
  <path class="cls-1" d="M160.7,274.29c.14,1.18-2.14.98-2.57,1.79-.22.42.06,1.11.21,1.71.16.6.19,1.11.21,1.66.04,1.32-.03,2.83-.8,3.97"/>
  <path class="cls-1" d="M157.27,267.52c1.44,1.44,1,4.04,2.34,5.64.47.57,1.17,1.01,1.36,1.62.22.71-.25,1.65-.45,2.5-.25,1.1-.04,2.03-.2,3.12-.13.86-.49,1.82-1.05,2.43-.54.59-1.27.86-2.08.94-1.15.11-2.46-.16-3.54.14"/>
  <path class="cls-1" d="M154.67,290.92c.27-.16.67-.19.97-.11.42.12.64.48.99.71"/>
  <path class="cls-1" d="M150.92,289.13c.2-.06.31-.07.42-.1.66-.14,1.43-.55,1.9-.26.24.15.41.48.32,1.09"/>
  <path class="cls-1" d="M145.51,236.5c.9,1.09,1.44,1.51,2.02,1.8,1.05.53,2.23.6,3.45.5,2.22-.18,4.62-.93,6.42-2.37"/>
  <path class="cls-1" d="M158.55,233.58c-.36,1.69-1.36,3.27-2.24,4.72-.41.68-.79,1.33-1.05,2.05-.31.87-.46,1.85-1.32,3.26"/>
  <path class="cls-1" d="M175.18,234.71c-.31,1.29-.63,1.87-.95,2.42-.64,1.07-1.28,2.02-1.99,2.98-.79,1.07-1.68,2.16-2.74,3.05-.96.8-2.06,1.44-4,2.26"/>
  <path class="cls-1" d="M23.76,391.52c1.48-1.28,1.77-1.48,2.03-1.65.56-.37.99-.64,1.43-.93,2.02-1.34,4.21-3.13,6.49-4.03.57-.22,1.14-.39,1.74-.42.69-.03,1.42.14,2.12.37,1.56.51,2.98,1.38,4.25,2.38,2.94,2.32,5.1,5.38,6.76,8.69"/>
  <path class="cls-1" d="M22.96,416.96c.36-1.48.53-2.07.63-2.64.1-.58.12-1.15.15-1.73.05-1.16.12-2.37.2-3.51.11-1.54.23-2.95.42-4.51.19-1.56.46-3.27.71-4.91.18-1.17.35-2.32.83-3.34.58-1.24,1.6-2.3,2.72-3.11,1.08-.78,2.26-1.32,3.54-1.44,1.32-.13,2.75.19,4.08.02.96-.12,1.88-.5,2.87-.56.83-.06,1.71.1,2.4.5.94.55,1.52,1.56,1.92,2.6.88,2.3.87,4.77.83,7.22-.04,2.4-.11,4.78-.07,7.17.03,1.7.13,3.41-.06,5.1-.14,1.2-.42,2.4-1.23,5.81"/>
  <path class="cls-1" d="M78.57,423.41c3.2-.2,5.21-.45,7.24-.56,1.96-.1,3.95-.05,5.68.77,1.61.77,3.01,2.21,4.68,2.82,2.11.77,4.65.21,6.45,1.49"/>
  <path class="cls-1" d="M76.48,436.78c1.44,0,2.25-.31,3.07-.59.81-.27,1.63-.51,2.47-.66,1.07-.19,2.18-.22,3.27-.15,1.09.07,2.16.25,3.23.4,1.96.28,3.94.5,5.91.83.98.16,1.96.35,2.91.67.95.32,1.87.77,3.09.93"/>
  <path class="cls-1" d="M15.06,75.77c.55.19.66.37.78.51.46.55,1.15.7,1.87.85,1.88.38,3.96.74,5.51-.35"/>
  <path class="cls-1" d="M97.01,58.46c1.36.11,2.4-.22,3.4-.2,1.13.03,2.19.51,3.31.79,2.04.51,4.25.33,6.19,1.04,1.03.37,1.98,1,3.02,1.38,1.22.45,2.56.58,3.81.93,2.64.74,4.86,2.5,6.88,5.15"/>
  <path class="cls-1" d="M93.02,280.47c0-.1-.03.13-.05.29-.02.16-.03.25-.05.34-.05.34-.11.75-.16,1.14-.05.39-.08.78-.11,1.16-.06.7-.12,1.42-.16,2.13s-.05,1.43,0,2.14c.07,1.08.29,2.15.56,3.21.27,1.06.59,2.1.95,3.13,1.32,3.7,3.28,7.13,5.34,10.48"/>
  <path class="cls-1" d="M47.53,379.07c.42-.83.68-1.7,1-2.56"/>
  <path class="cls-1" d="M22.96,416.96c0,.46-.06.92-.15,1.37"/>
</svg>