<?xml version="1.0" encoding="UTF-8"?>
<svg id="OUTER" xmlns="http://www.w3.org/2000/svg" viewBox="0 0 243.15 207.35">
  <defs>
    <style>
      .cls-1 {
        stroke-width: 1.5px;
      }

      .cls-1, .cls-2 {
        fill: none;
        stroke: #000;
        stroke-linecap: round;
        stroke-linejoin: round;
      }

      .cls-2 {
        stroke-width: .23px;
      }
    </style>
  </defs>
  <path class="cls-1" d="M121.34,15.06c-.19.1-.38.19-.48.34-.15.21-.15.52-.15.82,0,.41-.04.78-.06,1.15-.8,0-1.6,0-2.41.01-6.87.07-13.74.37-20.61.65-5.07.21-10.14.41-15.21.62-3.95.16-7.91.33-11.86.49-.72-.12-1.44-.24-2.17-.28-.64-.04-1.29-.01-1.93.03-1.54.1-3.07.31-4.6.52-.37-.47-.75-.95-1.13-1.44-.32-.41-.64-.83-1.03-1.15-.29-.24-.61-.42-1.01-.52-.4-.1-.87-.13-1.13.1-.21.19-.29.53-.34.87-.12.72-.14,1.34-.14,2.03,0,.35,0,.71.15,1.01.06.14.15.26.23.39-1.02.32-2.03.64-3.01,1.1-1.28.61-2.49,1.48-3.32,2.61-.58.8-.98,1.73-1.49,2.58-.32.54-.7,1.05-1.04,1.58-1,1.52-1.75,3.2-2.56,4.83-.59,1.19-1.23,2.36-1.82,3.55-.72,1.44-1.39,2.91-2.07,4.37-.67,1.44-1.36,2.88-2.02,4.33-2,4.35-3.81,8.79-5.39,13.31-.85,2.43-1.64,4.88-2.42,7.34-.75,2.34-1.49,4.68-1.89,7.09-.08.48-.15.97-.21,1.45-1.22-.01-2.44-.03-3.66-.03-.4,0-.81,0-1.21,0,.35-1.39.71-2.77,1-4.16.27-1.32.48-2.65.64-4.03.1-.84.18-1.69-.07-2.49-.12-.37-.31-.73-.57-1.03-.37-.41-.87-.7-1.39-.86-.8-.26-1.64-.23-2.49-.21-2.31.05-4.58.06-6.83.32-1.73.2-3.45.55-5.19.82-1.73.27-3.49.46-5.07,1.21-.92.43-1.78,1.05-2.39,1.85-.51.67-.84,1.47-1.04,2.3-.2.81-.27,1.64-.28,2.47-.02,1.28.08,2.54.08,3.86,0,.93-.06,1.9.27,2.72.25.64.74,1.19,1.24,1.73.48.52.97,1.02,1.55,1.37.65.39,1.42.6,2.18.8,2.25.58,4.49,1.07,6.71,1.4,1.77.27,3.52.44,5.43.73.91.13,1.84.3,2.59-.07.25-.13.49-.31.72-.5,1.17.08,2.33.17,3.49.25-.42.52-.84,1.05-1.19,1.62-.57.94-.93,2-1.29,3.06-.23-.12-.45-.25-.71-.35-.31-.11-.66-.17-.95-.06-.16.07-.3.19-.44.32-.29.42-.58.84-.82,1.36-.4.88-.65,2.03-.06,2.69.05.05.1.1.15.15-.06.4-.12.81-.18,1.22-.5-.07-.99-.14-1.43,0-.48.15-.91.56-1.19,1.01-.38.6-.51,1.28-.54,2.01-.02.41,0,.83.19,1.15.19.31.55.52.91.68.69.31,1.39.46,2.09.61-.04,1.51-.07,3.02-.11,4.53-.48,1.69-.97,3.38-1.57,5.05-.29.8-.6,1.59-.77,2.41-.29,1.37-.17,2.81-.12,4.24.09,2.2.04,4.37.03,6.53-.03,4.9.11,9.79.1,14.78-.01,4.23-.13,8.54,1.25,12.47.13.37.27.74.42,1.11v49.1c.5,1.49,1,2.97,1.94,4.03,1.2,1.34,3.11,1.99,5.02,2.64,5.75.05,11.49.11,17.24.16,1.26-.61,2.52-1.22,3.29-2.22.73-.95,1.02-2.25,1.31-3.56v-32.38c2.71.04,5.42.08,8.16-.06,1.64-.08,3.28-.23,4.88,0,1.06.15,2.1.48,3.14.8h30.49c1.24-.47,2.49-.94,3.78-1.21,1.84-.4,3.76-.4,5.68-.41.01.26.03.51.04.77h33.42c.01-.26.03-.51.04-.77,1.92,0,3.84,0,5.68.41,1.28.27,2.53.74,3.78,1.21h30.49c1.04-.32,2.08-.65,3.14-.8,1.6-.23,3.24-.08,4.88,0,2.74.14,5.45.1,8.16.06v32.38c.29,1.31.57,2.61,1.31,3.56.77,1,2.03,1.61,3.29,2.22,5.75-.05,11.49-.11,17.24-.16,1.91-.65,3.82-1.3,5.02-2.64.94-1.06,1.44-2.54,1.94-4.03v-49.1c.15-.37.29-.74.42-1.11,1.38-3.93,1.26-8.24,1.25-12.47-.01-4.99.13-9.88.1-14.78-.01-2.16-.06-4.33.02-6.53.06-1.42.17-2.87-.12-4.24-.17-.82-.48-1.61-.77-2.41-.6-1.67-1.09-3.36-1.57-5.05-.04-1.51-.08-3.02-.11-4.53.7-.15,1.39-.3,2.09-.61.37-.16.73-.37.92-.68.19-.31.21-.74.19-1.15-.03-.73-.16-1.41-.54-2.01-.28-.45-.71-.86-1.19-1.01-.44-.14-.93-.07-1.43,0-.06-.41-.12-.81-.18-1.22.05-.05.1-.1.15-.15.59-.66.34-1.81-.06-2.69-.24-.52-.53-.94-.82-1.36-.14-.12-.28-.25-.45-.32-.28-.11-.63-.05-.95.06-.25.09-.48.22-.71.35-.36-1.06-.72-2.12-1.29-3.06-.35-.57-.77-1.1-1.19-1.62,1.17-.08,2.33-.17,3.5-.25.23.19.46.37.72.5.75.37,1.69.21,2.59.07,1.91-.29,3.66-.46,5.43-.73,2.21-.33,4.45-.82,6.71-1.4.77-.2,1.53-.41,2.18-.8.58-.35,1.07-.85,1.55-1.37.5-.53.98-1.09,1.24-1.73.33-.82.27-1.78.27-2.72,0-1.32.11-2.58.09-3.86-.02-.83-.08-1.66-.28-2.47-.2-.82-.53-1.63-1.04-2.3-.61-.8-1.47-1.42-2.39-1.85-1.58-.74-3.34-.94-5.07-1.21-1.74-.27-3.46-.62-5.19-.82-2.25-.26-4.52-.27-6.83-.32-.85-.02-1.69-.04-2.49.21-.52.16-1.02.45-1.39.86-.26.3-.45.66-.57,1.03-.25.79-.17,1.65-.07,2.49.16,1.38.37,2.7.64,4.03.29,1.39.64,2.77,1,4.16-.4,0-.81,0-1.21,0-1.22,0-2.44.02-3.66.03-.07-.48-.13-.97-.21-1.45-.4-2.41-1.14-4.76-1.89-7.09-.79-2.46-1.57-4.91-2.43-7.34-1.58-4.51-3.39-8.96-5.39-13.31-.66-1.44-1.35-2.88-2.02-4.33-.68-1.46-1.35-2.93-2.07-4.37-.6-1.19-1.23-2.36-1.83-3.55-.81-1.63-1.56-3.31-2.56-4.83-.35-.53-.72-1.04-1.04-1.58-.51-.85-.91-1.78-1.49-2.58-.83-1.13-2.03-2-3.32-2.61-.97-.46-1.99-.78-3.01-1.1.08-.12.17-.25.23-.39.14-.31.15-.67.15-1.01,0-.68-.02-1.31-.14-2.03-.05-.33-.13-.68-.34-.87-.26-.22-.73-.2-1.13-.1-.4.1-.73.28-1.02.52-.39.32-.71.74-1.03,1.15-.38.49-.76.96-1.13,1.44-1.53-.21-3.06-.41-4.6-.52-.64-.04-1.29-.07-1.93-.03-.73.04-1.45.16-2.17.28-3.96-.16-7.91-.33-11.86-.49-5.07-.21-10.14-.41-15.21-.62-6.87-.28-13.74-.58-20.61-.65-.8,0-1.6-.01-2.41-.01-.03-.37-.06-.74-.06-1.15,0-.3,0-.61-.15-.82-.11-.15-.3-.24-.48-.34Z"/>
  <line class="cls-2" x1="118.39" y1="79.52" x2="124.36" y2="79.52"/>
  <path class="cls-2" d="M124.36,79.59c0-2.11-.87-2.98-2.99-2.98s-2.98.87-2.98,2.98.87,2.99,2.98,2.99,2.99-.87,2.99-2.99Z"/>
  <path class="cls-2" d="M126.39,79.62c0-3.52-1.46-4.98-4.98-4.98s-4.98,1.46-4.98,4.98,1.46,4.98,4.98,4.98,4.98-1.46,4.98-4.98Z"/>
  <path class="cls-2" d="M126.92,79.62c0-3.95-1.63-5.58-5.58-5.58s-5.58,1.63-5.58,5.58,1.64,5.58,5.58,5.58,5.58-1.63,5.58-5.58Z"/>
  <path class="cls-2" d="M210.98,139.35c-.08-.91-.16-1.81-.63-2.4-.56-.7-1.65-.96-2.69-1.14-2.83-.48-5.31-.3-7.9-.32-1.47-.01-2.97-.1-4.48.11-.33.05-.66.11-.95.24-.5.22-.88.65-1.19,1.17-.28.46-.5.99-.38,1.43.09.33.37.62.64.91"/>
  <line class="cls-2" x1="210.98" y1="139.35" x2="193.4" y2="139.35"/>
  <path class="cls-2" d="M213.05,135.11c-.55-.68-1.16-1.29-1.88-1.76-.8-.52-1.73-.88-2.6-1.1-1.65-.43-3.06-.37-4.83-.4-2.55-.04-5.85-.23-8.63-.28-.75-.01-1.46-.02-2.16-.02"/>
  <path class="cls-2" d="M185.8,139.08c1.17-.03,2.33-.06,3.39-.47.96-.37,1.82-1.04,2.51-1.85.48-.57.87-1.2,1.06-1.89.17-.58.2-1.2.21-1.82.02-.74,0-1.48-.08-2.21-.02-.19-.05-.37-.08-.56"/>
  <line class="cls-2" x1="120.5" y1="139.08" x2="185.8" y2="139.08"/>
  <line class="cls-2" x1="211.23" y1="140.57" x2="121.34" y2="140.57"/>
  <rect class="cls-2" x="173.91" y="142.12" width="5.75" height="5.02"/>
  <path class="cls-2" d="M198.79,152.5c0-2.87-1.19-4.07-4.07-4.07s-4.07,1.19-4.07,4.07,1.19,4.07,4.07,4.07,4.07-1.19,4.07-4.07Z"/>
  <path class="cls-2" d="M194.35,146.74c1.67-.05,3.33-.1,5.09.13,1,.12,2.02.34,2.71.97.67.61,1.02,1.62,1.16,2.57.2,1.35,0,2.6-.13,3.99-.07.83-.12,1.71-.52,2.32-.59.9-1.95,1.19-3.22,1.41-3.87.67-6.95.67-10.7,0-.98-.17-2-.39-2.58-1.03-.5-.55-.68-1.42-.84-2.25-.26-1.44-.45-2.75-.32-4.19.08-.88.28-1.82.84-2.44.47-.53,1.2-.84,1.93-1.03,1.36-.35,2.71-.29,4.06-.32.84-.02,1.67-.08,2.51-.13Z"/>
  <path class="cls-2" d="M208.28,154.6c-1.01,1.44-2.15,2.75-3.54,3.81-1.19.89-2.56,1.6-4,2.01-2.66.77-5.5.54-8.31.4-3.96-.21-7.85-.25-11.75-.28-19.67-.15-39.5-.07-59.34.01"/>
  <path class="cls-2" d="M199.6,145.3c.91.16,1.82.32,2.61.76.83.46,1.54,1.23,1.9,2.1.43,1.03.37,2.21.43,3.36.08,1.35.34,2.66.08,3.97-.21,1.08-.78,2.15-1.62,2.85-.79.65-1.82.97-2.85,1.18-2.43.5-4.86.41-7.29.36-3.09-.07-6.2-.08-9.3-.08"/>
  <path class="cls-2" d="M183.47,145.3h16.12"/>
  <path class="cls-2" d="M178.31,163.28c-.41.98-.83,1.96-1.51,2.82-.19.24-.4.47-.66.62-.46.26-1.04.22-1.62.19-5.97-.31-11.32-.1-16.81,0-4.99.08-10.09.07-15.22.03"/>
  <path class="cls-2" d="M208.31,154.55c-.72,1.47-1.45,2.93-2.55,4.07-1.16,1.18-2.74,2-4.35,2.51-3.05.97-6.25.85-9.45.75-23.78-.74-47.22-.53-70.62-.18"/>
  <line class="cls-2" x1="211.16" y1="143.76" x2="208.31" y2="154.55"/>
  <line class="cls-2" x1="213.97" y1="148.29" x2="214.29" y2="161.12"/>
  <path class="cls-2" d="M188.11,130.26c-22.25-.14-44.51-.29-66.77-.43"/>
  <path class="cls-2" d="M213.69,139.67c-.08-1.67-.16-3.33-.77-4.91-.53-1.37-1.45-2.68-2.67-3.36-1.16-.65-2.58-.73-3.99-.8-6.28-.3-12.21-.32-18.15-.34"/>
  <path class="cls-2" d="M213.97,148.29c-.09-2.87-.19-5.74-.28-8.62"/>
  <path class="cls-2" d="M219.79,150.44c-.31.36-.62.72-1,.84-.52.16-1.17-.12-1.74-.42-.69-.36-1.27-.74-1.8-1.21-.46-.41-.87-.88-1.28-1.36"/>
  <path class="cls-2" d="M221.69,147.54c-.39-.08-.77-.14-1.16-.17-.16-.01-.32-.02-.48-.03"/>
  <path class="cls-2" d="M150.73,99.81c.03.4.05.8-.08,1.17-.13.35-.4.67-.72.84-.42.23-.93.2-1.44.18-9.48-.42-18.33-.26-27.14-.05"/>
  <path class="cls-2" d="M149.46,87.61c.35.07.69.14.91.35.21.2.31.54.35.86.08.51.04.98,0,1.46-.22,3.12-.11,6.32,0,9.52"/>
  <path class="cls-2" d="M121.34,87.61h28.13"/>
  <path class="cls-2" d="M157.32,85.98c-.78,4.1-1.51,8.27-1.95,12.82-.21,2.21-.36,4.52-1.68,6.05-.75.87-1.87,1.49-3.03,1.91-2.83,1.03-5.81.84-8.77.72-6.92-.29-13.75-.26-20.57-.19"/>
  <line class="cls-2" x1="164.14" y1="85.96" x2="121.34" y2="86.08"/>
  <path class="cls-2" d="M194.11,97.31c-3.98,0-7.96,0-11.94-.05-4.24-.06-8.48-.19-12.71-.32"/>
  <path class="cls-2" d="M193.97,95.21c-2.91,0-5.82,0-8.72-.05-3.11-.06-6.21-.17-9.32-.23-2.34-.04-4.68-.04-7.02-.04"/>
  <path class="cls-2" d="M193.87,93.87c-3.98-.11-7.96-.22-11.93-.38-3.61-.15-7.21-.33-10.82-.32-.99,0-1.99.02-2.99.04"/>
  <path class="cls-2" d="M193.71,91.75c-4.63-.04-9.26-.08-13.89-.16-2.85-.04-5.7-.1-8.55-.09-1.27,0-2.54.03-3.8.05"/>
  <path class="cls-2" d="M193.37,87.78c-4.7-.08-9.41-.17-13.58-.26-3.85-.08-7.24-.16-12.54-.33-.59-.02-1.22-.04-1.4.2-.23.31.27,1.05.52,1.75.14.41.19.8.43.98.24.18.67.16,1.08.13,1.07-.06,1.95-.05,2.86-.05,3.34.02,6.99.08,10.55.08,2.92,0,5.78-.05,8.65,0,1.21.02,2.42.07,3.64.11"/>
  <path class="cls-2" d="M193.28,86.75c-5.19-.06-10.38-.11-15.57-.26-4.52-.13-9.05-.33-13.57-.53"/>
  <path class="cls-2" d="M194.49,106.18c-3.59-.12-7.19-.24-10.82-.16-3.17.08-6.37.31-9.42-.75-1.2-.41-2.37-1.02-3.16-1.95-.71-.83-1.11-1.91-1.52-2.96-1.07-2.7-2.26-5.23-3.26-7.87-.81-2.13-1.48-4.34-2.16-6.54"/>
  <line class="cls-2" x1="194.49" y1="110.96" x2="121.34" y2="110.69"/>
  <path class="cls-2" d="M221.59,121.33c-2.51-.88-5.03-1.76-7.62-2.32-2.25-.5-4.57-.75-6.88-.95-8.85-.79-17.71-.89-26.56-.95-19.73-.14-39.46-.1-59.19-.04"/>
  <path class="cls-2" d="M212.1,104.53c.34,1.56.71,3.11,1.22,4.7.34,1.05.74,2.12,1.44,2.87,1.13,1.22,3.05,1.62,4.84,1.96,1.17.22,2.29.41,3.39.6"/>
  <path class="cls-2" d="M212.51,98.09c-.76.03-1.51.01-2.26-.1-.45-.07-.89-.17-1.33-.24-1.46-.25-2.96-.22-4.45-.21-3.47.01-6.92-.09-10.37-.22"/>
  <path class="cls-2" d="M212.38,96.02c-.6,0-1.19-.03-1.78-.11-.44-.06-.88-.16-1.33-.24-1.46-.25-2.96-.22-4.45-.21-3.63.02-7.24-.1-10.85-.24"/>
  <path class="cls-2" d="M212.28,94.69c-.51,0-1.01-.04-1.51-.11-.44-.07-.88-.17-1.33-.24-1.46-.25-2.96-.22-4.45-.21-3.72.01-7.42-.11-11.12-.25"/>
  <path class="cls-2" d="M212.11,92.56c-.55,0-1.11-.03-1.65-.11-.45-.07-.89-.17-1.33-.24-1.46-.25-2.96-.22-4.45-.21-3.67.01-7.32-.11-10.97-.24"/>
  <path class="cls-2" d="M212.02,91.23c-.47,0-.93-.04-1.4-.11-.44-.07-.88-.17-1.33-.24-1.46-.25-2.96-.22-4.45-.21-3.76.01-7.51-.11-11.25-.25"/>
  <path class="cls-2" d="M211.8,88.81c-.85-.14-1.71-.27-2.57-.39-1.53-.21-3.07-.39-4.61-.48-3.22-.19-6.46,0-9.68-.1-.52-.01-1.04-.04-1.56-.06"/>
  <path class="cls-2" d="M208.5,88.32c.52,1,1.03,2,1.38,3.07.55,1.65.71,3.44.7,5.18-.01,1.7-.19,3.35-.53,5.07-.18.92-.4,1.86-.93,2.56-.48.63-1.2,1.08-1.87,1.57-.3.22-.58.45-.86.69"/>
  <path class="cls-2" d="M217.98,89.27c-.29-.01-.58-.04-.85-.12-.46-.13-.89-.39-1.34-.6-1.1-.51-2.3-.68-3.49-.89-1.01-.18-2.01-.37-3.03-.51-2.31-.32-4.67-.33-7.03-.34-3,0-5.98-.04-8.97-.06"/>
  <path class="cls-2" d="M192.18,78c1.83.02,3.66.07,5.52.19,1.7.12,3.43.31,4.96.94,1.22.51,2.32,1.31,3.43,2.13,1.92,1.43,3.85,2.94,4.9,5.01.29.57.51,1.19.66,1.82.27,1.11.31,2.25.38,3.39.13,2.09.33,4.17.45,6.22.1,1.68.15,3.35-.03,5.11-.09.81-.21,1.65-.67,2.27-.5.68-1.39,1.11-2.27,1.29-.83.18-1.66.14-2.48.11-4.16-.17-8.36-.24-12.55-.3"/>
  <path class="cls-2" d="M190.67,70.44c.62,2.8,1.21,5.61,1.66,8.44.62,3.92.98,7.89,1.3,11.84.43,5.25.79,10.48.87,15.78.08,5.46-.15,10.98-.69,16.27-.32,3.07-.75,6.07-1.3,9.36-.27,1.62-.58,3.31-1.65,4.33-.75.71-1.86,1.11-2.95,1.3-1.38.24-2.73.16-4.08.09-20.66-1.14-41.56-.66-62.48-.09"/>
  <path class="cls-2" d="M203.73,78.88c-1.04-1.14-2.08-2.27-3.34-2.99-1.82-1.03-4.09-1.2-6.31-1.36-3.75-.28-7.32-.55-10.91-.77-8.7-.51-17.59-.64-26.44-.77-6.78-.1-13.54-.19-20.29-.25-5.03-.05-10.06-.07-15.1-.09"/>
  <line class="cls-2" x1="223.01" y1="149.87" x2="223.01" y2="129.86"/>
  <path class="cls-2" d="M203.62,171.67c-1.22-.7-2.44-1.39-3.66-2.11-.96-.58-1.93-1.17-2.98-1.49-.88-.27-1.82-.35-2.76-.43"/>
  <path class="cls-2" d="M224.75,117.3c-.15.16-.28.33-.39.52-.39.66-.54,1.51-.66,2.35-.25,1.8-.35,3.52-.44,5.25-.18,3.08-.34,6.2-.54,9.33-.37,5.99-.85,11.96-1.63,17.85-.58,4.37-1.33,8.7-3.03,12.96-.61,1.53-1.34,3.05-2.55,4.04-.97.79-2.24,1.24-3.52,1.54-1.73.41-3.46.55-5.19.57-1.06.01-2.12-.01-3.18-.05"/>
  <path class="cls-2" d="M224.59,110.36c-.37.56-.7,1.13-.95,1.74-.72,1.72-.8,3.69-.9,5.63-.26,4.64-.67,9.11-1.05,13.62-.39,4.65-.73,9.35-1.36,13.99-.37,2.74-.83,5.45-1.28,8.18-.4,2.41-.78,4.82-1.36,7.17-.43,1.75-.97,3.47-1.73,5.18-.4.92-.87,1.83-1.58,2.48-1.12,1.03-2.84,1.38-4.44,1.5-.67.05-1.31.06-1.95.08"/>
  <path class="cls-2" d="M224.4,93.72c-.15.26-.28.52-.33.8-.15.67.08,1.42.4,2.12.1.21.2.41.35.53.13.11.29.15.47.16"/>
  <path class="cls-2" d="M222.22,98.75c.08-.86.16-1.72.18-2.58.01-.96-.07-1.92-.15-2.88"/>
  <path class="cls-2" d="M222.07,92.07c-.57.21-1.13.41-1.82.52-.29.04-.6.07-.75.24-.15.16-.16.46-.17.74-.01.24-.03.46-.11.66-.05.11-.11.21-.19.31"/>
  <path class="cls-2" d="M218.14,87.91c.27.5.54,1,.72,1.53.15.44.24.91.25,1.37.02.79-.18,1.55-.45,2.31"/>
  <path class="cls-2" d="M221.34,87.86c-.29.19-.58.37-.73.62-.28.49-.01,1.21.25,1.83.2.48.41.89.71,1.25.15.17.32.34.49.5"/>
  <path class="cls-2" d="M219.25,87.95c-.47-.09-.93-.18-1.17.04-.17.16-.23.47-.29.78"/>
  <path class="cls-2" d="M212.47,74.84c.25.74.5,1.47.82,2.18.29.65.64,1.27.98,1.89"/>
  <path class="cls-2" d="M210.39,74.88c.46,1.01.93,2.02,1.43,3.02,1.06,2.13,2.24,4.21,3.34,6.3.56,1.07,1.11,2.14,1.77,3.16.31.47.64.93.87,1.43.44.95.47,2.03.64,3.14.3,1.95,1.01,3.99,1.47,5.45.33,1.06.54,1.81,1.47,3.82.52,1.12,1.27,2.63.96,2.08-.02-.05-.06-.1-.09-.16"/>
  <path class="cls-2" d="M221.4,80.04c.13.26.27.53.45.72.62.66,1.79.56,2.83.47,1.23-.11,2.29-.2,3.37-.37,1.52-.24,3.1-.65,4.68-.97.81-.17,1.63-.31,2.41-.56.51-.17,1-.38,1.5-.6"/>
  <path class="cls-2" d="M219.21,63.99c-.28.12-.55.24-.67.45-.12.21-.08.52-.04.82.53,4.06,1.06,7.38,1.9,10.91.31,1.27.65,2.57,1,3.87"/>
  <path class="cls-2" d="M236.64,78.74c.56-.42,1.12-.83,1.55-1.34,1.61-1.88,1.41-5.01.59-7.61-.33-1.04-.76-2-1.48-2.68-.69-.66-1.66-1.05-2.62-1.38-2.11-.7-4.22-1.01-6.36-1.27-1.71-.21-3.44-.39-5.17-.45-1.31-.05-2.62-.04-3.94-.02"/>
  <path class="cls-2" d="M222.95,82.87c-.66-.2-1.32-.41-1.77-.84-.48-.46-.71-1.19-.94-1.88-.47-1.42-.94-2.73-1.42-4.07-.26-.72-.51-1.45-.77-2.18"/>
  <path class="cls-2" d="M218.06,73.9c-.25-1.12-.51-2.24-.77-3.38-.37-1.61-.75-3.27-.28-4.91.24-.84.71-1.68,1.39-2.11.77-.49,1.82-.47,2.82-.44,2.36.08,4.49.21,6.7.39,2.77.23,5.68.54,8.2,1.8.9.45,1.76,1.02,2.42,1.77.56.62.98,1.38,1.22,2.18.32,1.08.29,2.24.3,3.38,0,1.07.03,2.13-.1,3.19-.07.59-.2,1.18-.43,1.73-.34.8-.92,1.51-1.61,2.05-1.08.86-2.42,1.29-3.77,1.65-3.71.98-7.45,1.33-11.2,1.69"/>
  <line class="cls-2" x1="215.61" y1="78.89" x2="214.27" y2="78.91"/>
  <line class="cls-2" x1="218.94" y1="79.35" x2="215.61" y2="78.89"/>
  <line class="cls-2" x1="219.82" y1="81.84" x2="220.26" y2="83.02"/>
  <line class="cls-2" x1="218.64" y1="78.5" x2="219.82" y2="81.84"/>
  <line class="cls-2" x1="217.34" y1="74.81" x2="218.64" y2="78.5"/>
  <path class="cls-2" d="M209.27,73.28c.06-.4.11-.8.12-1.19.03-1.19-.38-2.37-.76-3.53-.55-1.7-1.04-3.38-1.55-5.06-.75-2.44-1.55-4.89-2.41-7.3-.59-1.65-1.21-3.29-1.83-4.94-.77-2.05-1.53-4.11-2.35-6.14-1.03-2.57-2.15-5.11-3.36-7.6-1.02-2.11-2.1-4.19-3.29-6.2-.56-.94-1.15-1.87-1.73-2.79"/>
  <path class="cls-2" d="M212.47,74.84c-.74-.51-1.48-1.02-2.26-1.53-.45-.29-.91-.58-1.4-.73-.46-.14-.94-.15-1.43-.11"/>
  <path class="cls-2" d="M193.53,27.75c-.29.06-.57.14-.87.23-.14.04-.28.09-.38.17-.25.21-.22.66-.15,1.07.17,1,.55,1.73.95,2.48.81,1.55,1.67,3.2,2.48,4.85,1.73,3.49,3.27,6.99,4.68,10.55,1.11,2.81,2.15,5.66,3.15,8.53.84,2.43,1.66,4.87,2.39,7.3.73,2.45,1.35,4.87,2.06,7.46.08.3.17.6.14.89-.03.42-.3.8-.59,1.18"/>
  <path class="cls-2" d="M174.65,64.47c.6-.15,1.2-.3,1.49-.68.32-.42.26-1.12.21-1.82"/>
  <path class="cls-2" d="M176.35,61.98c-.06-2.94-.12-5.87-1.51-8.46-.57-1.05-1.36-2.05-2.37-2.58-.95-.5-2.1-.58-3.23-.64-2.24-.12-4.39-.14-6.54-.22-3.08-.12-6.14-.37-9.4.22-1.16.21-2.34.52-3.09,1.29-.68.7-.99,1.77-1.22,2.79-.47,2.08-.61,4-1.22,6.02-.23.77-.53,1.54-.36,2.3.16.69.71,1.36,1.37,1.65.52.23,1.1.22,1.67.22,1.3,0,2.57.02,3.84.04,3.76.05,7.58,0,11.38-.04,3-.04,5.99-.06,8.98-.09"/>
  <line class="cls-2" x1="133.84" y1="65.24" x2="184.03" y2="65.24"/>
  <path class="cls-2" d="M130.93,51.31c.58.17,1.17.33,1.55.69.54.51.64,1.43.73,2.32.41,4.07.55,7.71.63,11.24"/>
  <path class="cls-2" d="M121.34,51.31h9.6"/>
  <path class="cls-2" d="M131.08,36.48c.31.09.63.18.95.3.47.18.94.42,1.25.79.3.36.44.85.62,1.34.37.97.97,1.97.62,2.86-.1.26-.27.5-.49.67-.48.37-1.14.36-1.8.36-3.87-.04-7.41-.03-10.89-.01"/>
  <path class="cls-2" d="M121.34,36.48h9.75"/>
  <path class="cls-2" d="M131.38,35.57c.51.06,1.01.11,1.48.29.72.26,1.36.79,1.81,1.42.59.81.85,1.77,1.13,2.76.18.64.37,1.3.24,1.93-.12.59-.51,1.16-1.01,1.53-.5.37-1.12.52-1.73.61-.78.1-1.56.09-2.33.08-3.2-.04-6.41-.04-9.62-.01"/>
  <line class="cls-2" x1="121.34" y1="35.57" x2="131.38" y2="35.57"/>
  <path class="cls-2" d="M125.12,33.46c-.09.29-.17.59-.22.91-.06.33-.1.68,0,.97.03.08.06.16.1.23"/>
  <path class="cls-2" d="M135.79,30.37c.9.09,1.8.18,2.63.53.61.25,1.18.64,1.57,1.14.38.48.59,1.08.76,1.69"/>
  <line class="cls-2" x1="120.81" y1="30.37" x2="135.79" y2="30.37"/>
  <path class="cls-2" d="M179.13,36.72c.75.89,1.47,1.8,2.13,2.77,1.17,1.73,2.1,3.63,2.83,5.58,1.15,3.09,1.78,6.31,2.36,9.6.25,1.42.49,2.86.33,4.26-.15,1.4-.7,2.77-1.36,4.04-.55,1.07-1.19,2.06-1.95,3.01-.64.8-1.36,1.57-2.25,1.98-.85.39-1.85.44-2.83.48-10,.36-19.22-.95-29.06-.45-3.49.18-7.06.58-10.31-.41-1.5-.46-2.93-1.21-4.42-1.77-1.67-.62-3.42-.98-5.18-1.23-2.68-.39-5.37-.51-8.08-.56"/>
  <path class="cls-2" d="M183.42,40.23c.06-1.26.05-2.51-.26-3.75-.36-1.4-1.13-2.78-2.24-3.65-1.21-.95-2.85-1.28-4.44-1.52-2.13-.33-4.18-.5-6.25-.67-4.63-.38-9.34-.74-14.03-.92-4.11-.15-8.22-.16-12.32-.24-2.25-.05-4.5-.12-6.75-.18-5.26-.14-10.53-.2-15.79-.25"/>
  <path class="cls-2" d="M188.35,33.51c-.94,1.36-1.9,2.69-3.04,3.78-.46.44-.94.84-1.2,1.55-.19.54-.26,1.26-.48,1.4-.3.19-.9-.69-1.47-1.37-1.44-1.68-2.78-2.09-4.28-2.56-1.37-.43-2.88-.9-4.38-1.23-2.7-.59-5.41-.7-8.12-.79-5.24-.16-10.49-.2-15.74-.31-5.92-.13-11.83-.35-17.74-.45-3.52-.06-7.03-.07-10.55-.07"/>
  <path class="cls-2" d="M121.34,28.29c9.65.14,19.29.29,28.93.57,5.91.17,11.82.39,17.72.58,2.26.07,4.52.15,6.8.34,4.06.35,8.17,1.09,11.81,2.81,1.16.55,2.28,1.19,3.38,1.87"/>
  <path class="cls-2" d="M191.68,24.6c-.37.69-.66,1.38-.78,2.1-.31,1.96.63,4.07,1.55,6.1,2.59,5.71,5.02,10.78,7.05,16.25,1.53,4.11,2.83,8.45,4.33,12.58.96,2.67,2.01,5.25,2.71,8.17.29,1.17.51,2.4,1.22,3.24.62.74,1.6,1.19,2.48,1.75,3.09,1.96,4.81,5.23,6.52,8.49"/>
  <path class="cls-2" d="M173.69,18.92c-.52.91-1.03,1.84-1.46,2.79-.55,1.22-1,2.49-1.35,3.78-.23.84-.41,1.68-.57,2.54-.09.49-.17.99-.25,1.49"/>
  <path class="cls-2" d="M180.82,19.42c-.49.8-.98,1.59-1.4,2.44-.36.73-.66,1.49-.86,2.27-.06.22-.1.43-.14.66"/>
  <path class="cls-2" d="M181.49,25.62c.08-.72.17-1.45.31-2.18.24-1.23.62-2.48,1.09-3.5.34-.74.73-1.35,1.32-2.32.21-.34.45-.73.59-.75.23-.02.24.87.25,1.47.01.65.03.97,0,1.58-.01.24-.03.52-.16.59-.13.07-.37-.06-.59-.14-.37-.14-.67-.16-.99-.22-.15-.03-.31-.07-.47-.1"/>
  <path class="cls-2" d="M121.34,22.58c4.12-.04,8.24-.07,12.36.05,4.62.14,9.24.47,13.86.57,4.2.09,8.4,0,12.58.44,2.89.31,5.77.87,8.65.75,1.18-.05,2.37-.21,3.55-.26,2.8-.11,5.58.43,8.34,1.23,1.81.53,3.62,1.17,5.03,2.34,1.16.96,2.05,2.28,2.8,3.64,1.23,2.25,2.05,4.63,2.91,7.01,1.14,3.15,2.34,6.28,3.36,9.48,1.46,4.6,2.55,9.31,3.84,13.93.56,2,1.17,3.99.97,6.2-.05.64-.18,1.29-.53,1.72-.5.61-1.46.79-2.39.88-2.46.26-4.57-.04-6.8-.18-1.37-.09-2.78-.11-4.19-.13-4.31-.06-8.58-.1-12.85-.13-17.12-.13-34.31-.28-51.51-.42"/>
  <path class="cls-2" d="M122.04,17.37c.01.39.02.79.15,1.13.25.63.92,1.08,1.55,1.47.44.27.86.52,1.31.72.23.1.45.19.69.28"/>
  <path class="cls-2" d="M125.76,21.53h-4.42"/>
  <path class="cls-2" d="M122.04,17.37c.34.23.68.46,1.03.65.4.21.81.37,1.25.55.52.21,1.1.46,1.31.91.15.31.11.71.11,1.08,0,.34,0,.65.02.97"/>
  <path class="cls-2" d="M31.7,139.35c.08-.91.16-1.81.63-2.4.55-.7,1.65-.96,2.69-1.14,2.83-.48,5.31-.3,7.9-.32,1.47-.01,2.97-.1,4.48.11.33.05.66.11.95.24.49.22.88.65,1.19,1.17.28.46.5.99.38,1.43-.09.33-.37.62-.65.91"/>
  <line class="cls-2" x1="31.7" y1="139.35" x2="49.28" y2="139.35"/>
  <path class="cls-2" d="M29.63,135.11c.54-.68,1.16-1.29,1.88-1.76.79-.52,1.73-.88,2.6-1.1,1.65-.43,3.06-.37,4.83-.4,2.55-.04,5.85-.23,8.63-.28.74-.01,1.45-.02,2.16-.02"/>
  <path class="cls-2" d="M56.88,139.08c-1.17-.03-2.33-.06-3.39-.47-.96-.37-1.83-1.04-2.51-1.85-.48-.57-.87-1.2-1.07-1.89-.17-.58-.2-1.2-.21-1.82-.02-.74,0-1.48.08-2.21.03-.19.05-.37.08-.56"/>
  <line class="cls-2" x1="122.18" y1="139.08" x2="56.88" y2="139.08"/>
  <line class="cls-2" x1="31.45" y1="140.57" x2="121.34" y2="140.57"/>
  <rect class="cls-2" x="63.02" y="142.12" width="5.75" height="5.02"/>
  <path class="cls-2" d="M52.03,152.5c0-2.87-1.19-4.07-4.07-4.07s-4.07,1.19-4.07,4.07,1.19,4.07,4.07,4.07,4.07-1.19,4.07-4.07Z"/>
  <path class="cls-2" d="M48.33,146.74c-1.66-.05-3.33-.1-5.09.13-.99.12-2.02.34-2.71.97-.67.61-1.02,1.62-1.16,2.57-.2,1.35,0,2.6.13,3.99.08.83.12,1.71.52,2.32.59.9,1.95,1.19,3.22,1.41,3.87.67,6.95.67,10.7,0,.97-.17,2-.39,2.58-1.03.5-.55.68-1.42.84-2.25.26-1.44.45-2.75.32-4.19-.08-.88-.28-1.82-.84-2.44-.47-.53-1.21-.84-1.94-1.03-1.35-.35-2.71-.29-4.06-.32-.83-.02-1.67-.08-2.51-.13Z"/>
  <path class="cls-2" d="M34.4,154.6c1.01,1.44,2.15,2.75,3.54,3.81,1.19.89,2.57,1.6,4,2.01,2.66.77,5.5.54,8.31.4,3.96-.21,7.86-.25,11.75-.28,19.67-.15,39.5-.07,59.34.01"/>
  <path class="cls-2" d="M43.08,145.3c-.91.16-1.82.32-2.61.76-.83.46-1.54,1.23-1.9,2.1-.44,1.03-.37,2.21-.44,3.36-.08,1.35-.34,2.66-.08,3.97.21,1.08.78,2.15,1.62,2.85.79.65,1.82.97,2.85,1.18,2.43.5,4.86.41,7.28.36,3.1-.07,6.2-.08,9.3-.08"/>
  <path class="cls-2" d="M59.21,145.3h-16.13"/>
  <path class="cls-2" d="M64.37,163.28c.41.98.83,1.96,1.51,2.82.19.24.4.47.66.62.46.26,1.04.22,1.62.19,5.97-.31,11.32-.1,16.81,0,4.98.08,10.09.07,15.22.03"/>
  <path class="cls-2" d="M34.37,154.55c.73,1.47,1.45,2.93,2.55,4.07,1.16,1.18,2.73,2,4.35,2.51,3.05.97,6.25.85,9.45.75,23.78-.74,47.22-.53,70.61-.18"/>
  <line class="cls-2" x1="31.52" y1="143.76" x2="34.37" y2="154.55"/>
  <line class="cls-2" x1="28.71" y1="148.29" x2="28.39" y2="161.12"/>
  <path class="cls-2" d="M54.57,130.26c22.26-.14,44.52-.29,66.77-.43"/>
  <path class="cls-2" d="M28.99,139.67c.08-1.67.16-3.33.77-4.91.53-1.37,1.45-2.68,2.67-3.36,1.16-.65,2.58-.73,3.99-.8,6.28-.3,12.22-.32,18.15-.34"/>
  <path class="cls-2" d="M28.71,148.29c.09-2.87.19-5.74.28-8.62"/>
  <path class="cls-2" d="M22.89,150.44c.31.36.62.72,1,.84.52.16,1.17-.12,1.74-.42.69-.36,1.27-.74,1.8-1.21.45-.41.87-.88,1.28-1.36"/>
  <path class="cls-2" d="M20.99,147.54c.38-.08.77-.14,1.16-.17.16-.01.32-.02.48-.03"/>
  <path class="cls-2" d="M91.95,99.81c-.02.4-.05.8.09,1.17.13.35.4.67.73.84.42.23.93.2,1.44.18,9.49-.42,18.34-.26,27.14-.05"/>
  <path class="cls-2" d="M93.21,87.61c-.35.07-.69.14-.91.35-.21.2-.31.54-.36.86-.07.51-.03.98,0,1.46.22,3.12.11,6.32,0,9.52"/>
  <path class="cls-2" d="M121.34,87.61h-28.12"/>
  <path class="cls-2" d="M85.36,85.98c.78,4.1,1.51,8.27,1.95,12.82.21,2.21.36,4.52,1.68,6.05.75.87,1.87,1.49,3.03,1.91,2.83,1.03,5.8.84,8.76.72,6.92-.29,13.75-.26,20.57-.19"/>
  <line class="cls-2" x1="78.54" y1="85.96" x2="121.34" y2="86.08"/>
  <path class="cls-2" d="M48.57,97.31c3.98,0,7.96,0,11.94-.05,4.24-.06,8.48-.19,12.71-.32"/>
  <path class="cls-2" d="M48.71,95.21c2.91,0,5.82,0,8.72-.05,3.11-.06,6.22-.17,9.32-.23,2.34-.04,4.68-.04,7.01-.04"/>
  <path class="cls-2" d="M48.81,93.87c3.98-.11,7.95-.22,11.93-.38,3.6-.15,7.21-.33,10.81-.32,1,0,1.99.02,2.99.04"/>
  <path class="cls-2" d="M48.97,91.75c4.63-.04,9.26-.08,13.89-.16,2.85-.04,5.7-.1,8.55-.09,1.27,0,2.54.03,3.8.05"/>
  <path class="cls-2" d="M49.31,87.78c4.7-.08,9.41-.17,13.57-.26,3.85-.08,7.24-.16,12.54-.33.6-.02,1.22-.04,1.39.2.24.31-.27,1.05-.51,1.75-.14.41-.19.8-.43.98-.24.18-.67.16-1.08.13-1.07-.06-1.95-.05-2.86-.05-3.34.02-6.99.08-10.55.08-2.92,0-5.78-.05-8.65,0-1.21.02-2.43.07-3.64.11"/>
  <path class="cls-2" d="M49.4,86.75c5.19-.06,10.38-.11,15.57-.26,4.53-.13,9.05-.33,13.58-.53"/>
  <path class="cls-2" d="M48.19,106.18c3.59-.12,7.19-.24,10.82-.16,3.17.08,6.37.31,9.42-.75,1.2-.41,2.37-1.02,3.16-1.95.71-.83,1.11-1.91,1.52-2.96,1.07-2.7,2.26-5.23,3.26-7.87.81-2.13,1.48-4.34,2.16-6.54"/>
  <line class="cls-2" x1="48.19" y1="110.96" x2="121.34" y2="110.69"/>
  <path class="cls-2" d="M21.09,121.33c2.51-.88,5.03-1.76,7.62-2.32,2.25-.5,4.57-.75,6.88-.95,8.85-.79,17.71-.89,26.57-.95,19.73-.14,39.46-.1,59.19-.04"/>
  <path class="cls-2" d="M30.57,104.53c-.34,1.56-.71,3.11-1.22,4.7-.34,1.05-.74,2.12-1.44,2.87-1.13,1.22-3.05,1.62-4.84,1.96-1.17.22-2.28.41-3.38.6"/>
  <path class="cls-2" d="M30.16,98.09c.76.03,1.51.01,2.26-.1.45-.07.89-.17,1.33-.24,1.47-.25,2.96-.22,4.45-.21,3.47.01,6.92-.09,10.37-.22"/>
  <path class="cls-2" d="M30.3,96.02c.59,0,1.19-.03,1.78-.11.44-.06.88-.16,1.33-.24,1.46-.25,2.96-.22,4.45-.21,3.63.02,7.24-.1,10.85-.24"/>
  <path class="cls-2" d="M30.4,94.69c.51,0,1.01-.04,1.51-.11.44-.07.88-.17,1.33-.24,1.46-.25,2.96-.22,4.45-.21,3.72.01,7.42-.11,11.12-.25"/>
  <path class="cls-2" d="M30.57,92.56c.55,0,1.11-.03,1.65-.11.45-.07.89-.17,1.33-.24,1.46-.25,2.96-.22,4.44-.21,3.68.01,7.33-.11,10.97-.24"/>
  <path class="cls-2" d="M30.66,91.23c.47,0,.93-.04,1.4-.11.45-.07.89-.17,1.33-.24,1.46-.25,2.96-.22,4.45-.21,3.76.01,7.51-.11,11.24-.25"/>
  <path class="cls-2" d="M30.88,88.81c.85-.14,1.71-.27,2.57-.39,1.53-.21,3.07-.39,4.61-.48,3.22-.19,6.46,0,9.68-.1.52-.01,1.04-.04,1.56-.06"/>
  <path class="cls-2" d="M34.18,88.32c-.52,1-1.03,2-1.39,3.07-.55,1.65-.71,3.44-.7,5.18.01,1.7.19,3.35.52,5.07.18.92.4,1.86.93,2.56.48.63,1.2,1.08,1.87,1.57.3.22.58.45.86.69"/>
  <path class="cls-2" d="M24.7,89.27c.29-.01.58-.04.85-.12.46-.13.89-.39,1.34-.6,1.1-.51,2.3-.68,3.49-.89,1.01-.18,2.01-.37,3.03-.51,2.31-.32,4.68-.33,7.03-.34,3,0,5.98-.04,8.97-.06"/>
  <path class="cls-2" d="M50.5,78c-1.83.02-3.66.07-5.52.19-1.71.12-3.43.31-4.96.94-1.22.51-2.32,1.31-3.43,2.13-1.92,1.43-3.85,2.94-4.9,5.01-.29.57-.51,1.19-.66,1.82-.27,1.11-.31,2.25-.38,3.39-.13,2.09-.33,4.17-.45,6.22-.1,1.68-.14,3.35.03,5.11.08.81.21,1.65.67,2.27.5.68,1.39,1.11,2.27,1.29.83.18,1.66.14,2.48.11,4.17-.17,8.36-.24,12.55-.3"/>
  <path class="cls-2" d="M52.01,70.44c-.62,2.8-1.2,5.61-1.65,8.44-.62,3.92-.98,7.89-1.31,11.84-.43,5.25-.79,10.48-.87,15.78-.08,5.46.15,10.98.69,16.27.32,3.07.74,6.07,1.3,9.36.28,1.62.58,3.31,1.65,4.33.75.71,1.86,1.11,2.95,1.3,1.38.24,2.73.16,4.08.09,20.66-1.14,41.56-.66,62.48-.09"/>
  <path class="cls-2" d="M38.95,78.88c1.04-1.14,2.08-2.27,3.34-2.99,1.81-1.03,4.09-1.2,6.31-1.36,3.75-.28,7.32-.55,10.91-.77,8.7-.51,17.59-.64,26.44-.77,6.78-.1,13.54-.19,20.29-.25,5.03-.05,10.06-.07,15.09-.09"/>
  <line class="cls-2" x1="19.67" y1="149.87" x2="19.67" y2="129.86"/>
  <path class="cls-2" d="M39.06,171.67c1.22-.7,2.44-1.39,3.66-2.11.96-.58,1.93-1.17,2.98-1.49.88-.27,1.82-.35,2.76-.43"/>
  <path class="cls-2" d="M17.93,117.3c.15.16.28.33.39.52.39.66.54,1.51.65,2.35.25,1.8.35,3.52.45,5.25.17,3.08.34,6.2.54,9.33.37,5.99.85,11.96,1.63,17.85.58,4.37,1.33,8.7,3.03,12.96.61,1.53,1.34,3.05,2.55,4.04.97.79,2.24,1.24,3.52,1.54,1.73.41,3.46.55,5.19.57,1.06.01,2.12-.01,3.18-.05"/>
  <path class="cls-2" d="M18.09,110.36c.37.56.7,1.13.95,1.74.72,1.72.79,3.69.9,5.63.26,4.64.67,9.11,1.05,13.62.39,4.65.74,9.35,1.36,13.99.37,2.74.83,5.45,1.28,8.18.4,2.41.78,4.82,1.36,7.17.43,1.75.97,3.47,1.73,5.18.41.92.88,1.83,1.58,2.48,1.12,1.03,2.84,1.38,4.44,1.5.67.05,1.31.06,1.95.08"/>
  <path class="cls-2" d="M18.28,93.72c.15.26.28.52.34.8.15.67-.08,1.42-.4,2.12-.1.21-.2.41-.35.53-.13.11-.29.15-.47.16"/>
  <path class="cls-2" d="M20.46,98.75c-.08-.86-.16-1.72-.17-2.58-.01-.96.06-1.92.14-2.88"/>
  <path class="cls-2" d="M20.61,92.07c.57.21,1.13.41,1.82.52.29.04.59.07.75.24.15.16.16.46.17.74.01.24.03.46.11.66.05.11.11.21.19.31"/>
  <path class="cls-2" d="M24.54,87.91c-.27.5-.54,1-.72,1.53-.15.44-.24.91-.25,1.37-.02.79.18,1.55.45,2.31"/>
  <path class="cls-2" d="M21.34,87.86c.29.19.58.37.73.62.28.49,0,1.21-.25,1.83-.21.48-.41.89-.71,1.25-.14.17-.32.34-.49.5"/>
  <path class="cls-2" d="M23.43,87.95c.47-.09.93-.18,1.17.04.17.16.23.47.29.78"/>
  <path class="cls-2" d="M30.21,74.84c-.25.74-.5,1.47-.82,2.18-.29.65-.64,1.27-.98,1.89"/>
  <path class="cls-2" d="M32.28,74.88c-.46,1.01-.93,2.02-1.43,3.02-1.05,2.13-2.24,4.21-3.34,6.3-.56,1.07-1.1,2.14-1.77,3.16-.31.47-.64.93-.86,1.43-.43.95-.47,2.03-.64,3.14-.3,1.95-1.01,3.99-1.46,5.45-.34,1.06-.54,1.81-1.47,3.82-.52,1.12-1.27,2.63-.96,2.08.03-.05.06-.1.09-.16"/>
  <path class="cls-2" d="M21.28,80.04c-.13.26-.27.53-.45.72-.62.66-1.79.56-2.83.47-1.24-.11-2.29-.2-3.37-.37-1.52-.24-3.1-.65-4.67-.97-.81-.17-1.63-.31-2.41-.56-.51-.17-1.01-.38-1.5-.6"/>
  <path class="cls-2" d="M23.47,63.99c.28.12.55.24.67.45.12.21.08.52.04.82-.53,4.06-1.06,7.38-1.9,10.91-.31,1.27-.65,2.57-1,3.87"/>
  <path class="cls-2" d="M6.04,78.74c-.56-.42-1.12-.83-1.55-1.34-1.6-1.88-1.41-5.01-.59-7.61.33-1.04.76-2,1.48-2.68.7-.66,1.66-1.05,2.61-1.38,2.12-.7,4.23-1.01,6.37-1.27,1.71-.21,3.44-.39,5.17-.45,1.31-.05,2.62-.04,3.94-.02"/>
  <path class="cls-2" d="M19.72,82.87c.66-.2,1.32-.41,1.77-.84.48-.46.71-1.19.94-1.88.47-1.42.94-2.73,1.42-4.07.26-.72.51-1.45.77-2.18"/>
  <path class="cls-2" d="M24.62,73.9c.25-1.12.51-2.24.76-3.38.37-1.61.75-3.27.29-4.91-.24-.84-.71-1.68-1.39-2.11-.77-.49-1.82-.47-2.82-.44-2.36.08-4.48.21-6.7.39-2.77.23-5.68.54-8.21,1.8-.9.45-1.75,1.02-2.43,1.77-.55.62-.98,1.38-1.22,2.18-.32,1.08-.29,2.24-.3,3.38,0,1.07-.04,2.13.1,3.19.07.59.19,1.18.43,1.73.34.8.92,1.51,1.61,2.05,1.08.86,2.43,1.29,3.77,1.65,3.71.98,7.46,1.33,11.2,1.69"/>
  <line class="cls-2" x1="27.07" y1="78.89" x2="28.41" y2="78.91"/>
  <line class="cls-2" x1="23.74" y1="79.35" x2="27.07" y2="78.89"/>
  <line class="cls-2" x1="22.86" y1="81.84" x2="22.42" y2="83.02"/>
  <line class="cls-2" x1="24.04" y1="78.5" x2="22.86" y2="81.84"/>
  <line class="cls-2" x1="25.34" y1="74.81" x2="24.04" y2="78.5"/>
  <path class="cls-2" d="M33.41,73.28c-.06-.4-.11-.8-.12-1.19-.03-1.19.38-2.37.76-3.53.56-1.7,1.05-3.38,1.56-5.06.75-2.44,1.55-4.89,2.41-7.3.59-1.65,1.21-3.29,1.83-4.94.77-2.05,1.53-4.11,2.35-6.14,1.03-2.57,2.15-5.11,3.36-7.6,1.02-2.11,2.1-4.19,3.29-6.2.56-.94,1.15-1.87,1.73-2.79"/>
  <path class="cls-2" d="M30.21,74.84c.74-.51,1.48-1.02,2.26-1.53.45-.29.91-.58,1.4-.73.45-.14.94-.15,1.43-.11"/>
  <path class="cls-2" d="M49.15,27.75c.29.06.57.14.87.23.14.04.28.09.38.17.25.21.22.66.15,1.07-.17,1-.55,1.73-.95,2.48-.81,1.55-1.67,3.2-2.49,4.85-1.73,3.49-3.27,6.99-4.68,10.55-1.11,2.81-2.15,5.66-3.15,8.53-.85,2.43-1.67,4.87-2.39,7.3-.73,2.45-1.35,4.87-2.06,7.46-.08.3-.17.6-.14.89.03.42.3.8.6,1.18"/>
  <path class="cls-2" d="M68.03,64.47c-.6-.15-1.2-.3-1.49-.68-.33-.42-.26-1.12-.21-1.82"/>
  <path class="cls-2" d="M66.33,61.98c.06-2.94.12-5.87,1.51-8.46.57-1.05,1.36-2.05,2.37-2.58.95-.5,2.1-.58,3.23-.64,2.24-.12,4.39-.14,6.54-.22,3.08-.12,6.14-.37,9.4.22,1.16.21,2.34.52,3.09,1.29.68.7.99,1.77,1.22,2.79.47,2.08.61,4,1.22,6.02.23.77.53,1.54.36,2.3-.16.69-.71,1.36-1.37,1.65-.52.23-1.1.22-1.67.22-1.31,0-2.57.02-3.84.04-3.76.05-7.57,0-11.37-.04-3-.04-5.99-.06-8.98-.09"/>
  <line class="cls-2" x1="108.84" y1="65.24" x2="58.64" y2="65.24"/>
  <path class="cls-2" d="M111.75,51.31c-.59.17-1.18.33-1.55.69-.54.51-.64,1.43-.73,2.32-.41,4.07-.55,7.71-.64,11.24"/>
  <path class="cls-2" d="M121.34,51.31h-9.59"/>
  <path class="cls-2" d="M111.6,36.48c-.31.09-.63.18-.95.3-.47.18-.95.42-1.25.79-.3.36-.44.85-.62,1.34-.37.97-.97,1.97-.62,2.86.1.26.28.5.49.67.48.37,1.15.36,1.8.36,3.87-.04,7.41-.03,10.89-.01"/>
  <path class="cls-2" d="M121.34,36.48h-9.74"/>
  <path class="cls-2" d="M111.3,35.57c-.5.06-1.01.11-1.48.29-.72.26-1.36.79-1.81,1.42-.58.81-.85,1.77-1.13,2.76-.18.64-.37,1.3-.24,1.93.11.59.5,1.16,1,1.53.5.37,1.12.52,1.73.61.78.1,1.56.09,2.34.08,3.2-.04,6.41-.04,9.62-.01"/>
  <line class="cls-2" x1="121.34" y1="35.57" x2="111.3" y2="35.57"/>
  <path class="cls-2" d="M117.56,33.46c.08.29.16.59.22.91.06.33.1.68,0,.97-.02.08-.06.16-.1.23"/>
  <path class="cls-2" d="M106.89,30.37c-.9.09-1.8.18-2.64.53-.61.25-1.18.64-1.57,1.14-.38.48-.59,1.08-.76,1.69"/>
  <line class="cls-2" x1="121.87" y1="30.37" x2="106.89" y2="30.37"/>
  <path class="cls-2" d="M63.55,36.72c-.75.89-1.47,1.8-2.12,2.77-1.17,1.73-2.11,3.63-2.84,5.58-1.15,3.09-1.78,6.31-2.36,9.6-.25,1.42-.49,2.86-.33,4.26.15,1.4.7,2.77,1.36,4.04.55,1.07,1.19,2.06,1.95,3.01.63.8,1.36,1.57,2.25,1.98.85.39,1.85.44,2.84.48,9.99.36,19.22-.95,29.06-.45,3.49.18,7.06.58,10.3-.41,1.5-.46,2.92-1.21,4.42-1.77,1.67-.62,3.42-.98,5.18-1.23,2.68-.39,5.37-.51,8.08-.56"/>
  <path class="cls-2" d="M59.26,40.23c-.06-1.26-.05-2.51.26-3.75.36-1.4,1.13-2.78,2.24-3.65,1.22-.95,2.85-1.28,4.44-1.52,2.13-.33,4.18-.5,6.25-.67,4.63-.38,9.33-.74,14.03-.92,4.12-.15,8.22-.16,12.32-.24,2.25-.05,4.5-.12,6.74-.18,5.27-.14,10.53-.2,15.79-.25"/>
  <path class="cls-2" d="M54.33,33.51c.94,1.36,1.9,2.69,3.03,3.78.46.44.95.84,1.2,1.55.2.54.26,1.26.48,1.4.3.19.89-.69,1.47-1.37,1.43-1.68,2.78-2.09,4.28-2.56,1.37-.43,2.88-.9,4.38-1.23,2.7-.59,5.41-.7,8.12-.79,5.23-.16,10.49-.2,15.74-.31,5.92-.13,11.83-.35,17.74-.45,3.52-.06,7.04-.07,10.55-.07"/>
  <path class="cls-2" d="M121.34,28.29c-9.64.14-19.29.29-28.93.57-5.91.17-11.82.39-17.71.58-2.26.07-4.52.15-6.8.34-4.06.35-8.17,1.09-11.81,2.81-1.16.55-2.27,1.19-3.38,1.87"/>
  <path class="cls-2" d="M51,24.6c.37.69.66,1.38.77,2.1.32,1.96-.62,4.07-1.54,6.1-2.59,5.71-5.02,10.78-7.05,16.25-1.53,4.11-2.84,8.45-4.33,12.58-.97,2.67-2.01,5.25-2.71,8.17-.28,1.17-.51,2.4-1.22,3.24-.62.74-1.6,1.19-2.48,1.75-3.09,1.96-4.81,5.23-6.52,8.49"/>
  <path class="cls-2" d="M68.99,18.92c.52.91,1.03,1.84,1.46,2.79.55,1.22,1,2.49,1.35,3.78.23.84.41,1.68.57,2.54.09.49.17.99.25,1.49"/>
  <path class="cls-2" d="M61.86,19.42c.49.8.98,1.59,1.4,2.44.36.73.66,1.49.86,2.27.05.22.1.43.14.66"/>
  <path class="cls-2" d="M61.19,25.62c-.08-.72-.17-1.45-.31-2.18-.24-1.23-.62-2.48-1.09-3.5-.34-.74-.73-1.35-1.32-2.32-.21-.34-.45-.73-.59-.75-.23-.02-.24.87-.25,1.47-.01.65-.03.97,0,1.58.01.24.03.52.16.59.13.07.37-.06.59-.14.37-.14.67-.16.99-.22.15-.03.31-.07.47-.1"/>
  <path class="cls-2" d="M121.34,22.58c-4.12-.04-8.24-.07-12.36.05-4.62.14-9.24.47-13.86.57-4.2.09-8.4,0-12.58.44-2.89.31-5.77.87-8.65.75-1.18-.05-2.37-.21-3.55-.26-2.8-.11-5.58.43-8.34,1.23-1.82.53-3.63,1.17-5.03,2.34-1.16.96-2.06,2.28-2.8,3.64-1.23,2.25-2.05,4.63-2.91,7.01-1.14,3.15-2.34,6.28-3.35,9.48-1.46,4.6-2.55,9.31-3.84,13.93-.56,2-1.17,3.99-.98,6.2.06.64.18,1.29.53,1.72.5.61,1.46.79,2.39.88,2.46.26,4.57-.04,6.8-.18,1.37-.09,2.79-.11,4.19-.13,4.31-.06,8.58-.1,12.84-.13,17.13-.13,34.31-.28,51.51-.42"/>
  <path class="cls-2" d="M120.64,17.37c0,.39-.02.79-.15,1.13-.25.63-.92,1.08-1.56,1.47-.44.27-.86.52-1.31.72-.22.1-.46.19-.69.28"/>
  <path class="cls-2" d="M116.92,21.53h4.42"/>
  <path class="cls-2" d="M120.64,17.37c-.34.23-.68.46-1.03.65-.4.21-.81.37-1.26.55-.52.21-1.1.46-1.31.91-.14.31-.11.71-.1,1.08,0,.34-.01.65-.02.97"/>
  <line class="cls-2" x1="121.34" y1="82.57" x2="121.34" y2="76.6"/>
</svg>