<?xml version="1.0" encoding="UTF-8"?>
<svg id="OUTER" xmlns="http://www.w3.org/2000/svg" version="1.1" viewBox="0 0 238.5 207.35">
  <!-- Generator: Adobe Illustrator 29.5.1, SVG Export Plug-In . SVG Version: 2.1.0 Build 141)  -->
  <defs>
    <style>
      .st0 {
        stroke-width: .23px;
      }

      .st0, .st1 {
        fill: none;
        stroke: #000;
        stroke-linecap: round;
        stroke-linejoin: round;
      }

      .st1 {
        stroke-width: 1.5px;
      }
    </style>
  </defs>
  <path class="st1" d="M118.86,15.48c-.3.12-.6.25-.85.44-.28.21-.5.51-.6.87-.05.2-.07.41.02.58.05.1.14.19.24.27-6.95.13-13.89.25-20.83.51-4,.15-7.99.35-11.98.56-5.09.27-10.18.58-15.27.89-.65.04-1.29.09-1.93,0-.89-.12-1.75-.49-2.63-.66-1.56-.3-3.18.04-4.79.37.08-.67.15-1.34.13-2.1-.02-.61-.11-1.27-.56-1.59-.14-.1-.31-.16-.47-.18-.35-.04-.69.14-1,.32-1.16.69-2.04,1.63-2.75,2.69-.48.71-.89,1.48-1.3,2.24-1.26.46-2.51.93-3.55,1.68-1.51,1.1-2.54,2.82-3.53,4.5-.99,1.66-1.94,3.27-2.86,4.91-1.31,2.32-2.56,4.72-3.76,7.12-1.04,2.09-2.04,4.19-3,6.31-2.13,4.73-4.06,9.57-5.71,14.49-1.02,3.04-1.94,6.11-2.81,9.2-.55,1.94-1.08,3.89-1.62,5.84-.7-.04-1.39-.09-2.09-.1-.87-.01-1.74.01-2.62.05.29-1.91.57-3.83.81-5.75.22-1.78.4-3.57.57-5.37-.27-.3-.53-.61-.86-.81-.58-.35-1.34-.35-2.09-.33-3.15.05-6.02.16-8.89.66-2.75.48-5.5,1.34-8.25,2.19-.52.41-1.03.82-1.38,1.33-.74,1.08-.72,2.58-.81,3.99-.09,1.44-.29,2.78-.19,4.18.09,1.27.42,2.59,1.14,3.61.8,1.13,2.08,1.91,3.38,2.47,1,.43,2.01.73,3.04,1,2.78.74,5.67,1.28,8.56,1.38,1.84.06,3.68-.05,5.52-.17-.92,1.57-1.84,3.13-2.76,4.7-1.08-.25-2.15-.5-2.66.1-.2.23-.32.59-.43.95-.24.76-.45,1.5-.29,2.19.11.45.39.88.66,1.3-.01.45-.02.89-.04,1.34-.71,0-1.42.01-2.12.02-.16.06-.32.13-.45.23-.32.23-.5.65-.58,1.05-.12.58-.05,1.13,0,1.75.03.37.05.76.25,1.01.19.24.55.35.88.43.45.12.87.19,1.3.26.04,1.41.07,2.83-.11,4.21-.21,1.59-.71,3.14-1.15,4.71-.51,1.79-.96,3.6-1.16,5.43-.24,2.23-.1,4.49,0,6.75.28,6.4.25,12.75.29,19.12.04,5.93.14,11.88.19,17.83.08,8.9.04,17.8.05,26.69,0,5.23.02,10.47.05,15.7.3,1.02.6,2.04,1.01,3.08.46,1.14,1.05,2.3,1.97,2.98.83.61,1.93.83,3.03,1.05,6.43.03,12.87.06,19.3.1,1.1-.5,2.19-.99,2.98-1.78,1.27-1.27,1.75-3.3,1.93-5.24.18-1.98.04-3.85-.1-5.72,0-4.96-.03-9.92-.04-14.88,8.12-.05,16.25-.1,24.37-.15,1.57-1.08,3.14-2.16,4.81-2.98,5.33-2.62,11.69-2.58,17.89-2.57,9.07,0,17.8-.05,26.49-.12,8.69.07,17.43.13,26.5.12,6.2,0,12.55-.05,17.89,2.57,1.67.82,3.24,1.9,4.81,2.98,8.13.05,16.25.1,24.37.15,0,4.96-.02,9.92-.04,14.88-.14,1.87-.27,3.74-.1,5.72.18,1.93.66,3.97,1.93,5.24.79.79,1.89,1.28,2.98,1.78,6.43-.03,12.87-.06,19.3-.1,1.1-.22,2.2-.45,3.03-1.05.92-.68,1.52-1.84,1.97-2.98.41-1.04.71-2.06,1.01-3.08.02-5.24.04-10.47.05-15.7,0-8.9-.03-17.79.05-26.69.05-5.94.16-11.89.19-17.83.04-6.37,0-12.72.29-19.12.1-2.26.24-4.52,0-6.75-.19-1.83-.64-3.64-1.16-5.43-.45-1.57-.94-3.12-1.16-4.71-.18-1.38-.14-2.8-.11-4.21.42-.07.85-.15,1.3-.26.34-.09.7-.19.88-.43.2-.25.22-.64.25-1.01.05-.62.12-1.16,0-1.75-.09-.4-.26-.82-.58-1.05-.13-.1-.29-.16-.45-.23-.71,0-1.42-.01-2.13-.02,0-.45-.02-.89-.04-1.34.27-.42.55-.85.66-1.3.16-.69-.05-1.43-.28-2.19-.11-.36-.23-.72-.43-.95-.51-.6-1.59-.35-2.66-.1-.92-1.57-1.84-3.13-2.76-4.7,1.84.12,3.68.23,5.52.17,2.89-.1,5.78-.64,8.56-1.38,1.03-.27,2.05-.57,3.04-1,1.31-.56,2.58-1.33,3.38-2.47.72-1.03,1.05-2.34,1.14-3.61.1-1.4-.1-2.73-.19-4.18-.09-1.41-.07-2.91-.81-3.99-.35-.51-.86-.92-1.38-1.33-2.75-.85-5.5-1.7-8.25-2.19-2.87-.51-5.74-.62-8.89-.66-.75,0-1.51-.02-2.09.33-.32.2-.59.5-.86.81.17,1.79.35,3.58.57,5.37.24,1.92.52,3.83.81,5.75-.87-.03-1.75-.06-2.62-.05-.7.01-1.39.05-2.09.1-.54-1.95-1.07-3.9-1.62-5.84-.87-3.08-1.79-6.15-2.81-9.2-1.65-4.92-3.58-9.76-5.71-14.49-.96-2.12-1.95-4.23-2.99-6.31-1.2-2.41-2.45-4.8-3.76-7.12-.92-1.64-1.87-3.25-2.86-4.91-.99-1.67-2.03-3.4-3.54-4.5-1.03-.76-2.29-1.22-3.55-1.68-.41-.77-.82-1.53-1.3-2.24-.72-1.06-1.59-2-2.75-2.69-.32-.19-.66-.36-1.01-.32-.17.02-.34.08-.47.18-.46.32-.54.98-.56,1.59-.02.76.05,1.43.12,2.1-1.62-.33-3.23-.67-4.79-.37-.88.17-1.74.54-2.63.66-.64.09-1.28.04-1.93,0-5.09-.31-10.18-.62-15.27-.89-3.99-.21-7.99-.41-11.98-.56-6.94-.26-13.89-.39-20.83-.51.09-.08.18-.17.23-.27.09-.17.07-.38.02-.58-.1-.36-.32-.66-.6-.87-.25-.19-.55-.32-.85-.44h.05Z"/>
  <path class="st0" d="M118.86,98.52c.8,0,1.6.01,2.36.2.51.13,1.01.33,1.44.7.29.25.55.58.57.92.04.47-.37.95-.82,1.27-.58.41-1.23.53-1.88.61-.56.06-1.12.1-1.68.13"/>
  <line class="st0" x1="125.19" y1="106.23" x2="124.99" y2="124.82"/>
  <line class="st0" x1="125.2" y1="105.01" x2="125.2" y2="105.01"/>
  <line class="st0" x1="131.3" y1="105.48" x2="129.62" y2="125.79"/>
  <line class="st0" x1="136.25" y1="105.37" x2="134.41" y2="126.1"/>
  <line class="st0" x1="141" y1="105.43" x2="139.61" y2="126.17"/>
  <line class="st0" x1="145.73" y1="105.63" x2="144.24" y2="126.02"/>
  <line class="st0" x1="151.2" y1="105.97" x2="149.48" y2="125.62"/>
  <line class="st0" x1="155.65" y1="106.45" x2="154.01" y2="124.58"/>
  <line class="st0" x1="155.75" y1="105.31" x2="155.75" y2="105.32"/>
  <path class="st0" d="M159.07,109.51c-.24-.5-.49-1.01-.83-1.45-.6-.75-1.49-1.26-2.42-1.56-1.08-.35-2.2-.4-3.31-.46-2-.11-3.98-.26-5.97-.38-2.69-.16-5.38-.27-8.07-.29-2.66-.03-5.31.03-7.98.13-1.46.05-2.93.12-4.36.46-.92.22-1.82.55-2.58,1.1-.67.49-1.24,1.16-1.59,1.91-.51,1.11-.53,2.38-.54,3.63,0,2.37.07,4.62.14,6.98.02.85.05,1.71.35,2.47.32.81.94,1.51,1.67,2.03.82.58,1.78.91,2.74,1.16,1.73.43,3.5.6,5.27.72,4.45.3,8.91.27,13.33.03,1.91-.1,3.82-.25,5.75-.51,1.11-.15,2.23-.33,3.2-.83.98-.51,1.82-1.33,2.48-2.26,1.05-1.49,1.62-3.24,1.99-5.02.43-2.07.6-4.18.67-6.29.02-.52.03-1.05.04-1.57h.02Z"/>
  <path class="st0" d="M158.47,121.94c.46-1.44.93-2.87,1.28-4.33.52-2.14.78-4.32.78-6.59,0-.98-.05-1.99-.45-2.84-.42-.9-1.24-1.64-2.15-2.12-1.48-.8-3.19-.91-4.87-1.03-4.06-.29-8-.6-12-.76-4.08-.16-8.23-.15-12.27.23-1.28.12-2.55.27-3.84.57-1.15.27-2.34.65-3.16,1.43-.82.78-1.29,1.95-1.53,3.11-.33,1.6-.25,3.18-.21,4.76.03,1.67,0,3.33.05,5.04.04,1.26.12,2.55.65,3.65.64,1.34,1.96,2.4,3.37,2.99,1.11.47,2.28.64,3.45.78,2.2.26,4.41.37,6.62.44,3,.1,5.99.11,8.99.08,2.59-.03,5.18-.08,7.76-.54,1.59-.28,3.18-.72,4.54-1.58.78-.49,1.48-1.12,2.04-1.85.35-.45.64-.94.94-1.43h0Z"/>
  <line class="st0" x1="125.39" y1="136.72" x2="118.86" y2="133.85"/>
  <line class="st0" x1="130.49" y1="136.71" x2="120.81" y2="131.31"/>
  <line class="st0" x1="136.23" y1="136.75" x2="126.11" y2="131.31"/>
  <line class="st0" x1="140.67" y1="136.79" x2="130.52" y2="131.31"/>
  <line class="st0" x1="146.11" y1="136.79" x2="135.6" y2="131.31"/>
  <line class="st0" x1="150.72" y1="136.88" x2="141.34" y2="131.3"/>
  <line class="st0" x1="156.06" y1="136.47" x2="146.4" y2="131.3"/>
  <line class="st0" x1="158.98" y1="135.05" x2="151.91" y2="131.3"/>
  <line class="st0" x1="160.51" y1="133.22" x2="157.21" y2="131.3"/>
  <line class="st0" x1="123.18" y1="131.31" x2="118.86" y2="133.85"/>
  <line class="st0" x1="128.66" y1="131.31" x2="118.86" y2="136.83"/>
  <line class="st0" x1="134.3" y1="131.31" x2="124.61" y2="136.72"/>
  <line class="st0" x1="139.33" y1="131.31" x2="129.49" y2="136.71"/>
  <line class="st0" x1="144.86" y1="131.3" x2="135.23" y2="136.74"/>
  <line class="st0" x1="149.32" y1="131.3" x2="140.03" y2="136.78"/>
  <line class="st0" x1="155.65" y1="131.3" x2="145.28" y2="136.8"/>
  <line class="st0" x1="161.27" y1="131.3" x2="150.5" y2="136.87"/>
  <line class="st0" x1="159.36" y1="161.64" x2="152.2" y2="165.04"/>
  <line class="st0" x1="160.18" y1="158.7" x2="146.93" y2="165.05"/>
  <line class="st0" x1="160.93" y1="155.94" x2="141.69" y2="165.08"/>
  <line class="st0" x1="161.58" y1="153.17" x2="136.13" y2="165.12"/>
  <line class="st0" x1="160.61" y1="151.07" x2="130.33" y2="165.14"/>
  <line class="st0" x1="120.16" y1="154.79" x2="118.86" y2="155.1"/>
  <line class="st0" x1="125.17" y1="154.76" x2="118.86" y2="158.18"/>
  <line class="st0" x1="131.3" y1="154.76" x2="118.86" y2="160.74"/>
  <line class="st0" x1="136.4" y1="154.78" x2="118.86" y2="163.55"/>
  <line class="st0" x1="141.93" y1="154.82" x2="120.26" y2="165.16"/>
  <line class="st0" x1="146.43" y1="154.81" x2="125.52" y2="165.15"/>
  <line class="st0" x1="154.02" y1="151.06" x2="148.47" y2="153.81"/>
  <line class="st0" x1="123.57" y1="165.16" x2="118.86" y2="163.55"/>
  <line class="st0" x1="128.72" y1="165.15" x2="118.86" y2="160.74"/>
  <line class="st0" x1="133.79" y1="165.13" x2="118.86" y2="158.18"/>
  <line class="st0" x1="139.39" y1="165.1" x2="118.86" y2="155.1"/>
  <line class="st0" x1="145.01" y1="165.06" x2="123.81" y2="154.77"/>
  <line class="st0" x1="150.48" y1="165.04" x2="128.74" y2="154.76"/>
  <line class="st0" x1="155.65" y1="164.79" x2="134.43" y2="154.76"/>
  <line class="st0" x1="158.17" y1="163.5" x2="139.78" y2="154.8"/>
  <line class="st0" x1="159.35" y1="161.65" x2="145.78" y2="154.82"/>
  <line class="st0" x1="160.01" y1="159.32" x2="148.47" y2="153.87"/>
  <line class="st0" x1="160.55" y1="157.31" x2="148.46" y2="151.45"/>
  <line class="st0" x1="161.27" y1="154.59" x2="154.05" y2="151.06"/>
  <line class="st0" x1="161.68" y1="152.55" x2="158.66" y2="151.07"/>
  <path class="st0" d="M160.66,151.07c.25.09.51.18.7.36.1.1.19.22.25.36.14.33.08.71.02,1.09-.4,2.28-1.07,4.28-1.62,6.45-.31,1.24-.58,2.55-1.32,3.57-.34.46-.76.86-1.25,1.17-.7.45-1.52.69-2.34.82-1.01.16-2.03.15-3.04.15-3.85-.02-7.7.02-11.55.05-7.22.05-14.43.06-21.65.07"/>
  <path class="st0" d="M148.47,151.06c4.06,0,8.13,0,12.2.02"/>
  <path class="st0" d="M160.96,150.49c.47,0,.94,0,1.39.15.44.14.86.41,1.09.79.16.27.23.59.25.91.05.72-.15,1.42-.34,2.12-.47,1.76-.84,3.51-1.35,5.23-.32,1.07-.7,2.13-1.2,3.15-.26.53-.54,1.05-.94,1.46-.7.74-1.72,1.17-2.75,1.39-1.05.23-2.1.24-3.16.26-4.4.08-8.81.23-13.23.3-7.3.12-14.58.04-21.87-.06"/>
  <path class="st0" d="M148.47,150.55c4.16-.02,8.33-.04,12.49-.06"/>
  <line class="st0" x1="176.96" y1="160.18" x2="183.01" y2="163.35"/>
  <line class="st0" x1="179.16" y1="158.58" x2="188.67" y2="163.27"/>
  <line class="st0" x1="185.03" y1="158.53" x2="193.4" y2="163.08"/>
  <line class="st0" x1="191.08" y1="158.47" x2="198.56" y2="162.76"/>
  <line class="st0" x1="195.29" y1="158.47" x2="202.35" y2="161.99"/>
  <line class="st0" x1="200.46" y1="158.52" x2="203.88" y2="160.32"/>
  <line class="st0" x1="179.26" y1="153.21" x2="184.91" y2="156.37"/>
  <line class="st0" x1="182.58" y1="152.28" x2="190.8" y2="156.37"/>
  <line class="st0" x1="187.26" y1="152.22" x2="195.84" y2="156.37"/>
  <line class="st0" x1="192.69" y1="152.18" x2="201.33" y2="156.38"/>
  <line class="st0" x1="205.68" y1="156.08" x2="197.81" y2="152.29"/>
  <line class="st0" x1="206.26" y1="154.3" x2="202.96" y2="152.47"/>
  <line class="st0" x1="183.21" y1="158.55" x2="176.51" y2="161.85"/>
  <line class="st0" x1="189.66" y1="158.48" x2="178.86" y2="163.47"/>
  <line class="st0" x1="195.03" y1="158.47" x2="184.23" y2="163.33"/>
  <line class="st0" x1="200.17" y1="158.53" x2="189.55" y2="163.25"/>
  <line class="st0" x1="204.48" y1="158.45" x2="194.38" y2="163.03"/>
  <line class="st0" x1="206.12" y1="153.23" x2="200.11" y2="156.38"/>
  <line class="st0" x1="202.21" y1="152.45" x2="195.29" y2="156.37"/>
  <line class="st0" x1="196.88" y1="152.25" x2="189.05" y2="156.37"/>
  <line class="st0" x1="178.7" y1="158.58" x2="177.24" y2="159.25"/>
  <line class="st0" x1="192.47" y1="152.18" x2="183.47" y2="156.36"/>
  <line class="st0" x1="186.87" y1="152.23" x2="178.2" y2="156.18"/>
  <path class="st0" d="M205.24,151.73c.53.03,1.05.06,1.63.08.37,0,.77,0,1.03.23.19.15.3.42.36.68.09.45,0,.89-.11,1.33-.1.48-.2.96-.3,1.44-.39,1.72-.99,3.39-1.86,4.96-.5.9-1.09,1.76-1.88,2.37-.87.67-1.97,1.03-3.07,1.28-1.94.42-3.88.48-5.83.57-2.92.13-5.84.35-8.77.51-3.06.17-6.11.27-9.16.37-4.34.15-8.67.32-13.01.48"/>
  <path class="st0" d="M186.1,151.07c6.38.22,12.76.44,19.13.66"/>
  <line class="st0" x1="175.99" y1="163.19" x2="164.26" y2="166.01"/>
  <path class="st0" d="M204.84,158.44c-.29.69-.62,1.37-1.05,2.02-.42.64-.94,1.24-1.57,1.61-.85.5-1.92.57-2.96.64-3.71.26-7.2.48-10.75.56-2.77.06-5.59.04-8.42.17-.92.04-1.83.1-2.72-.27-.29-.12-.57-.29-.73-.51-.3-.44-.1-1.1.08-1.72.25-.85.5-1.63.73-2.37"/>
  <path class="st0" d="M168.71,158.35c-.63-.25-1.26-.49-1.39-.72-.27-.5,1.73-.95,3.14-1.15,1.13-.16,1.88-.15,2.66-.15,4.5.02,10.04.03,15.33.03,5.69,0,11.09,0,16.49,0"/>
  <path class="st0" d="M204.94,156.38c.44.06.88.11,1.28.39.23.16.46.41.46.64,0,.28-.31.55-.63.73-.62.34-1.24.31-1.87.3-1.29-.02-2.6.06-3.91.08-1.66.03-3.31-.03-4.96-.05-2.5-.04-5.01,0-7.52.02-4.55.06-9.1.12-13.65.03-1.81-.04-3.62-.11-5.43-.18"/>
  <path class="st0" d="M180.88,152.3c-.33.07-.66.13-.95.29-.36.2-.63.54-.85.9-.53.87-.73,1.87-.91,2.86"/>
  <path class="st0" d="M205.56,156.48c.08-.29.17-.58.28-.88.22-.6.52-1.2.44-1.84-.05-.43-.27-.88-.61-1.09-.32-.21-.76-.2-1.19-.19-2.7.03-5.11-.14-7.59-.22-3.85-.13-7.86-.05-11.81,0-1.41.02-2.81.04-4.21.05"/>
  <path class="st0" d="M166.01,166.35c7.84-.1,15.68-.2,23.52-.3"/>
  <path class="st0" d="M163.78,164.37c-.05.28-.1.57-.05.83.07.37.35.71.67.91.46.28,1.03.26,1.6.24"/>
  <path class="st0" d="M168.42,151.59c-.26.09-.52.17-.72.33-.31.25-.44.69-.57,1.13-.73,2.39-1.48,4.47-2.13,6.68-.44,1.51-.83,3.07-1.22,4.64"/>
  <path class="st0" d="M186.1,151.07c-4.65-.05-9.3-.1-13.94.21-1.25.08-2.5.2-3.75.31"/>
  <path class="st0" d="M206.14,151.08c1.03-.12,2.16,0,2.75.57.3.3.46.71.52,1.13.15,1.03-.26,2.11-.63,3.2-.74,2.19-1.27,4.4-2.54,6.31-.56.83-1.25,1.6-2.1,2.07-.7.39-1.5.57-2.31.71-2.55.46-5.09.57-7.63.71-5.19.28-10.4.65-15.61.86-4.07.16-8.14.22-12.21.27-2.96.04-5.92.07-8.87.1"/>
  <path class="st0" d="M166.06,150.97c7.81.05,15.61.09,23.41.11,5.55,0,11.11,0,16.67,0"/>
  <path class="st0" d="M204.53,138.8c0-3.09-1.28-4.37-4.37-4.37s-4.37,1.28-4.37,4.37,1.28,4.37,4.37,4.37,4.37-1.28,4.37-4.37Z"/>
  <path class="st0" d="M201.44,132c1.16.24,2.32.48,3.26,1.12.99.68,1.74,1.81,2.11,2.99.31,1,.35,2.02.26,3.06-.1,1.18-.38,2.37-1.02,3.34-.57.87-1.45,1.56-2.4,2.01-.84.39-1.75.6-2.66.72-2.3.31-4.62.14-6.95-.04"/>
  <path class="st0" d="M191.01,131.97c3.48,0,6.96.02,10.43.03"/>
  <path class="st0" d="M187.44,127.84h3.95"/>
  <path class="st0" d="M186.18,126.47c-.04.16-.08.33-.06.49.04.27.26.51.51.66s.53.18.82.22"/>
  <path class="st0" d="M188.03,123.98c-.11.03-.23.06-.32.11-.22.12-.37.34-.52.57-.39.61-.7,1.21-1.01,1.81"/>
  <path class="st0" d="M193.76,125.17c.1-.25.19-.51.12-.71-.08-.22-.37-.37-.65-.46-.4-.12-.76-.1-1.13-.08-1.33.06-2.71.06-4.08.06"/>
  <path class="st0" d="M191.39,127.84c.37-.1.75-.2,1.05-.38.71-.44,1.02-1.36,1.33-2.28"/>
  <path class="st0" d="M168.13,146.28c0-1.85-.77-2.62-2.62-2.62s-2.62.77-2.62,2.62.77,2.62,2.62,2.62,2.62-.77,2.62-2.62Z"/>
  <path class="st0" d="M148.47,154.05c-.3.25-.59.51-.93.63-.33.12-.71.13-1.08.13-3.46.03-6.75,0-10.06-.04-5.78-.04-11.65-.02-17.53.02"/>
  <path class="st0" d="M147.75,140.46c.19.14.36.3.48.5.21.32.31.72.37,1.12.14.88.07,1.75.02,2.61-.18,3.1-.16,6.23-.15,9.36"/>
  <path class="st0" d="M162.37,132.65c-.22,1.1-.44,2.19-.85,3.27-.47,1.25-1.18,2.47-2.22,3.24-1.03.77-2.39,1.1-3.71,1.26-1.52.18-3,.13-4.49.09-6.61-.14-13.29.05-19.95.06-4.11,0-8.2-.05-12.3-.12"/>
  <path class="st0" d="M183.32,148.6c-.7-.33-1.4-.65-1.99-1.11-1.03-.81-1.7-2.03-2.39-3.21-1.35-2.3-2.79-4.41-4.41-6.46-.97-1.22-2.01-2.41-3.28-3.31-.92-.65-1.96-1.15-3.04-1.46-1.87-.53-3.85-.47-5.84-.41"/>
  <path class="st0" d="M207.79,162.31c.52-1.26,1.05-2.53,1.48-3.81.46-1.37.81-2.75,1.17-4.2.25-.99.5-2.01.23-2.98-.16-.55-.48-1.08-.91-1.43-.87-.7-2.16-.63-3.36-.64-1.23,0-2.36-.09-3.51-.15-4.04-.19-8.24,0-12.38-.12-2.41-.06-4.79-.22-7.18-.38"/>
  <line class="st0" x1="161.27" y1="131.3" x2="118.86" y2="131.31"/>
  <path class="st0" d="M165.12,119.9c-.35,1.68-.69,3.35-1.12,5.01-.41,1.58-.89,3.15-1.32,4.71-.17.63-.33,1.26-.51,1.9-.38,1.38-.83,2.81-1.77,3.84-.64.71-1.51,1.24-2.43,1.59-1.18.46-2.43.62-3.68.72-3.45.3-6.9.2-10.34.16-6.43-.06-12.85.11-19.28.14h-5.82"/>
  <line class="st0" x1="218.32" y1="129" x2="162.86" y2="129"/>
  <path class="st0" d="M186.21,111.97c0-3.42-1.42-4.84-4.84-4.84s-4.84,1.42-4.84,4.84,1.42,4.84,4.84,4.84,4.84-1.41,4.84-4.84Z"/>
  <path class="st0" d="M177.44,106.57c-5.79,4.21-1.79,13.35,5.23,11.96,7.03-1.39,7.23-11.37.27-13.05"/>
  <path class="st0" d="M203.15,111.34c0-4.21-1.75-5.96-5.96-5.96s-5.97,1.75-5.97,5.96,1.75,5.97,5.97,5.97,5.96-1.75,5.96-5.97Z"/>
  <path class="st0" d="M200.13,103.25c.9.47,1.78,1,2.57,1.65,1.01.83,1.9,1.87,2.36,3.07.44,1.15.48,2.44.41,3.7-.06,1.1-.19,2.18-.59,3.17-.56,1.38-1.62,2.59-2.9,3.4-1.2.77-2.58,1.17-3.99,1.3-1.46.13-2.95-.02-4.28-.59-1.23-.53-2.33-1.4-3.15-2.48-.78-1.02-1.31-2.2-1.56-3.45-.2-.99-.22-2.02-.05-3.02s.53-1.97,1.04-2.84c.5-.84,1.14-1.58,1.82-2.28.35-.35.7-.69,1.06-1.02"/>
  <path class="st0" d="M204.14,120.1c1.75-.1,3.5-.19,5.15-.72,1.51-.48,2.93-1.32,4.05-2.51.71-.76,1.3-1.67,1.48-2.66.17-.94,0-1.95-.36-2.86-.41-1.08-1.05-2.03-1.74-2.93-.76-.98-1.59-1.9-2.56-2.66-.71-.55-1.51-1.01-2.33-1.37-1.56-.67-3.25-.98-4.93-1.28"/>
  <path class="st0" d="M202.89,103.11c1.11,1.04,2.23,2.07,2.96,3.36.61,1.05.97,2.27,1.1,3.5.2,1.79-.07,3.6-.61,5.29-.55,1.69-1.38,3.26-2.2,4.84"/>
  <path class="st0" d="M192.56,122.06c4.12-.05,8.24-.1,12.47-.2,1.81-.04,3.64-.1,5.28-.72,1.82-.69,3.41-2.08,4.52-3.8.64-.99,1.11-2.08,1.16-3.19.04-1.02-.27-2.06-.68-3.04-.8-1.94-1.93-3.67-3.44-5.1-1.37-1.29-3.05-2.32-4.84-2.72-1.34-.3-2.75-.25-4.14-.18-2.69.12-5.34.27-7.98.54-4.6.47-9.19,1.27-13.73,2.15-1.07.21-2.14.42-3.21.65-2.29.47-4.63.97-6.63,2.19-1.37.84-2.59,2.03-3.38,3.41-.91,1.59-1.26,3.44-1.84,5.19-.3.9-.65,1.77-1,2.65-.83,2.14-1.59,4.33-2.29,6.52-.56,1.77-1.09,3.54-1.72,5.31-.25.71-.52,1.41-.92,2.02-.6.91-1.52,1.63-2.52,2.12-.75.37-1.55.6-2.36.76-2.35.45-4.79.2-7.2.16-.93-.02-1.85,0-2.77,0-4.35.03-8.72-.06-13.08-.08-4.47-.03-8.93,0-13.4.06"/>
  <path class="st0" d="M165.12,119.9c3.51-.05,7.03-.09,10.52-.04,3.12.04,6.23.16,9.4.16,1.27,0,2.56-.02,3.76.28,1.32.33,2.54,1.04,3.76,1.75"/>
  <path class="st0" d="M168.06,178.32c-.83-1.63-1.65-3.26-2.61-4.81-.95-1.55-2.03-3.04-3.44-4.25-1.09-.95-2.37-1.73-3.77-2.08-1.25-.32-2.59-.3-3.88-.28-1.01.02-1.98.03-2.96.05-5.38.08-10.85.27-16.31.35-5.42.08-10.83.07-16.23.03"/>
  <path class="st0" d="M216.73,157.01c-.56,4-1.11,7.99-1.62,12-.19,1.52-.37,3.03-.94,4.48-.63,1.63-1.75,3.17-3.18,4.05-2.22,1.38-5.18,1.12-8,1-3.69-.17-7.13-.12-10.57-.07"/>
  <path class="st0" d="M222.76,81.01c-.9,0-1.81,0-2.72-.01-1.21-.03-2.44-.08-3.57.08-.33.05-.66.11-.94.33-.5.38-.84,1.24-1.07,1.68,0,0,0,.01,0,0"/>
  <path class="st0" d="M222.51,79.21c.17.05.35.11.45.21.23.23.09.7-.04,1.1-.21.65-.4,1.14-.63,1.64-.15.33-.32.66-.5,1"/>
  <path class="st0" d="M215.88,78.93c1.17.08,2.34.15,3.51.2,1.04.04,2.08.06,3.13.08"/>
  <path class="st0" d="M215.82,76.47c.02.82.04,1.64.06,2.47"/>
  <path class="st0" d="M210.29,74.78c1.19.51,2.38,1.03,3.64,1.35,1.17.3,2.4.42,3.62.46,2.04.06,4.08-.12,6.11-.3,4.13-.36,8.26-.7,12.39-1.02"/>
  <path class="st0" d="M215,74.73c.46.22.91.45,1.39.59,1.06.31,2.22.22,3.36.14,3.94-.29,7.72-.52,11.55-.79,1.6-.11,3.21-.24,4.81-.36"/>
  <path class="st0" d="M213.03,83.68c-.21.13-.41.25-.63.33-.32.12-.67.17-1.02.21"/>
  <path class="st0" d="M212.8,82.95c-.58-1.1-1.16-2.21-1.64-3.35-.29-.7-.55-1.42-.75-2.16-.13-.47-.23-.96-.24-1.44,0-.41.06-.81.13-1.21"/>
  <path class="st0" d="M212.8,82.95c.22.64.44,1.28.36,1.98-.03.29-.11.59-.29.78-.16.17-.41.26-.68.32"/>
  <path class="st0" d="M214.44,83.11c-.55-.05-1.1-.1-1.65-.16"/>
  <path class="st0" d="M219.95,93.68c-.18.07-.36.13-.5.24-.09.07-.17.15-.24.24"/>
  <path class="st0" d="M218.37,93.12c.86,1.04,1.71,2.08,2.06,3.3.18.63.22,1.32.25,2"/>
  <path class="st0" d="M219.92,92.34c-.52.26-1.03.52-1.54.77"/>
  <path class="st0" d="M217.2,87.81c.91,1.51,1.81,3.02,2.72,4.54"/>
  <path class="st0" d="M221.05,106.31c-1.32-1.9-2.63-3.8-3.78-5.8-.71-1.25-1.35-2.54-2.02-3.8-1.17-2.22-2.42-4.39-3.68-6.56"/>
  <path class="st0" d="M210.97,83.35c-.46,1.14-.91,2.29-1.34,3.44-1.03,2.78-1.94,5.62-3.08,8.36-.9,2.18-1.95,4.29-2.95,6.43-.24.51-.47,1.02-.71,1.54"/>
  <path class="st0" d="M183.64,147.19c-.57-.22-1.14-.44-1.58-.81-.47-.39-.8-.94-1.14-1.49-1.1-1.78-2.24-3.44-3.33-5.14-1.03-1.6-2.01-3.25-3.31-4.69-.95-1.06-2.06-2-3.33-2.58-1.33-.6-2.84-.78-4.32-.87-1.5-.09-2.97-.08-4.45-.08"/>
  <path class="st0" d="M210.55,157.83c0-.33-.02-.66.05-.97.08-.38.28-.73.42-1.09.21-.54.31-1.12.37-1.69.06-.6.08-1.19.1-1.79,0-.5.02-1-.1-1.5-.16-.73-.59-1.43-1.16-1.88-.93-.74-2.25-.81-3.54-.86-5.06-.19-9.62-.09-14.33-.28-2.87-.12-5.8-.34-8.73-.56"/>
  <path class="st0" d="M216.73,157.01c-.24.31-.48.63-.8.77-.27.12-.61.12-.93.12-1.55,0-3-.04-4.45-.07"/>
  <path class="st0" d="M221.05,106.31c.64,1.46,1.28,2.93,1.4,4.46.06.89-.05,1.81-.16,2.73-.46,3.69-.92,7.31-1.32,10.95-.99,9.02-1.56,18.18-3.18,27.15-.32,1.81-.69,3.6-1.06,5.41"/>
  <path class="st0" d="M205.95,77.09c.4.16.78.33,1.12.57.81.56,1.39,1.45,1.95,2.31.54.84,1.06,1.66,1.52,2.52.46.87.86,1.77,1.26,2.67,1.62,3.62,3.31,7.19,4.52,10.96.48,1.48.89,3,1.48,4.44.84,2.03,2.05,3.9,3.25,5.76"/>
  <path class="st0" d="M188.58,21.61c3.3,7.94,6.59,15.89,9.96,23.81,2.45,5.77,4.94,11.53,6.95,17.47,1.4,4.16,2.57,8.4,3.56,12.68.53,2.3,1.01,4.61,1.49,6.91"/>
  <path class="st0" d="M200.66,79.59c.42.29.85.61,1.31.96.54.41,1.11.88,1.17,1.4.07.57-.46,1.2-1,1.73-1.38,1.35-2.83,2.03-4.1,2.72-3.35,1.81-5.49,3.65-8.95,6.88-3.12,2.9-7.3,6.93-9.66,10.56-.57.88-1.03,1.74-1.46,2.61"/>
  <path class="st0" d="M195.96,79.23c-2.17,1.22-4.33,2.46-6.46,3.74-3.57,2.14-7.05,4.42-10.48,6.78-3.5,2.4-6.94,4.87-10.28,7.49-2.04,1.59-4.03,3.24-5.97,4.95-1.33,1.18-2.64,2.39-3.95,3.59"/>
  <path class="st0" d="M162.19,77.88c-.95.15-1.9.33-2.85.55-.96.23-1.93.51-2.8.95-1.65.82-3,2.19-4.2,3.65-2.56,3.08-4.46,6.53-6.26,10.02-1.5,2.91-2.93,5.85-4.35,8.8"/>
  <path class="st0" d="M173.24,65.55c.31-.12.62-.25.8-.48.2-.25.23-.62.26-.98.11-1.29.12-2.44.06-3.62-.1-1.73-.38-3.5-.67-5.25-.29-1.73-.59-3.43-1.1-5.13-.24-.81-.52-1.61-1.02-2.27-.58-.77-1.46-1.35-2.39-1.67-1.06-.36-2.17-.4-3.28-.42-3.23-.09-6.43-.16-9.6-.06-1.13.04-2.25.1-3.39.26-.96.14-1.93.34-2.69.89-.6.43-1.06,1.07-1.39,1.76-.56,1.18-.71,2.48-.91,3.77-.25,1.6-.59,3.16-.8,4.76-.22,1.76-.28,3.57-.44,5.28-.04.41-.08.81-.09,1.25,0,.55.03,1.17.35,1.52.31.33.87.42,1.41.48,1.65.18,3.08.1,4.56.06,3.48-.1,7.16,0,10.77.04,1.76.02,3.5.02,5.24-.02,1.43-.03,2.87-.09,4.31-.15v-.02Z"/>
  <path class="st0" d="M184.89,75.39c.04-.75.06-1.5,0-2.29-.06-1.06-.26-2.17-.9-2.93-.52-.62-1.35-1.02-2.17-1.26-.88-.27-1.77-.36-2.66-.45-3.47-.36-6.98-.69-10.49-.86-5.38-.26-10.76-.15-16.14,0-3.33.1-6.65.21-9.98.4-1.28.07-2.55.15-3.79.59-.71.25-1.41.61-1.85,1.17-.45.57-.65,1.33-.77,2.08-.11.68-.16,1.35-.18,2.03"/>
  <path class="st0" d="M118.86,31.03c.7.09,1.39.17,2.04.67.28.22.55.51.53.77-.02.29-.43.53-.79.68-.4.17-.76.22-1.13.24-.21.02-.43.02-.65.02"/>
  <path class="st0" d="M121.38,42.52c-.84,0-1.68,0-2.52,0"/>
  <path class="st0" d="M120.84,45.1c0,.35-.04.67-.21.92-.21.29-.6.48-.98.58-.27.07-.53.1-.79.1"/>
  <path class="st0" d="M130.29,37.46c.65.13,1.29.26,1.77.63.39.3.67.76.92,1.22.64,1.14,1.17,2.27,1.18,3.61,0,.55-.07,1.14-.38,1.52-.41.5-1.22.61-1.98.67-1.67.15-3.11.09-4.59.05-2.71-.06-5.52-.06-8.36-.04"/>
  <path class="st0" d="M122.83,37.39c2.49.02,4.97.05,7.46.07"/>
  <path class="st0" d="M118.86,31.03c1.45,0,2.9-.01,3.65.84.48.55.67,1.43.71,2.27.06,1.3-.27,2.46-.46,3.65-.2,1.2-.26,2.42-.76,3.61-.36.87-.94,1.71-1.73,2.06-.42.19-.91.23-1.42.23"/>
  <path class="st0" d="M184.86,33.48c.67.22,1.35.43,1.95.78.95.56,1.72,1.45,2.31,2.41.51.82.89,1.68,1.27,2.56,1.11,2.62,2.08,5.32,3.05,8.01.67,1.85,1.34,3.7,1.98,5.54,1.97,5.73,3.58,11.46,4.97,17.54.26,1.13.51,2.27.16,3.39-.26.82-.84,1.63-1.6,1.93-.45.17-.97.17-1.48.16-5.6-.07-10.9-.33-16.26-.57-9.23-.41-18.63-.74-27.99-.99-11.49-.31-22.92-.49-34.36-.67"/>
  <path class="st0" d="M127.99,31.09c6.1.11,12.2.21,18.29.37,5.61.15,11.2.36,16.81.58,5.65.22,11.3.46,16.93.96,1.61.15,3.22.31,4.84.48"/>
  <path class="st0" d="M118.86,31.03c3.05.02,6.09.04,9.14.06"/>
  <path class="st0" d="M124.86,30.4c-.06-.17-.11-.34-.23-.43-.12-.1-.31-.13-.49-.15-.96-.1-1.8-.04-2.67-.02-.85.02-1.73,0-2.61-.02"/>
  <path class="st0" d="M187.85,32.58c-1.42-.05-2.84-.09-4.25-.24-1.81-.19-3.59-.54-5.4-.73-2.29-.25-4.6-.25-6.9-.3-4-.09-7.99-.32-11.98-.51-5.93-.27-11.87-.44-17.81-.49-5.55-.04-11.1.02-16.65.09"/>
  <path class="st0" d="M187.33,31.48c-.55.02-1.1.05-1.65,0-.29-.02-.57-.06-.86-.1"/>
  <path class="st0" d="M187.85,32.58c.38.17.76.33,1.05.6.29.26.48.63.68,1,.87,1.65,1.66,3.27,2.39,4.93s1.39,3.38,2.06,5.08c1.25,3.15,2.53,6.27,3.67,9.44.68,1.9,1.31,3.81,1.85,5.76.42,1.49.81,2.99,1.23,4.49.79,2.78,1.72,5.51,2.32,8.36.28,1.34.49,2.7.46,4.05,0,.39-.03.77-.07,1.16-.03.32-.06.64-.19.94-.25.6-.88,1.08-1.53,1.22-.44.09-.88.03-1.32-.02-3.32-.41-6.6-.39-9.9-.46-4.48-.1-8.97-.39-13.46-.63-6.73-.35-13.47-.57-20.2-.74-10.75-.27-21.52-.42-32.27-.59-1.92-.03-3.84-.06-5.77-.09"/>
  <path class="st0" d="M187.33,31.48c.18,0,.36,0,.51.1.19.12.32.41.27.62-.04.15-.15.26-.26.38"/>
  <path class="st0" d="M187.33,31.48c.21-.14.41-.28.65-.37.17-.06.36-.1.55-.09.48.01.92.29,1.31.61,1.62,1.3,2.41,3.18,3.2,5.04,1.44,3.37,2.87,6.66,4.18,10,1.69,4.33,3.17,8.75,4.64,13.23,1.35,4.12,2.7,8.29,3.43,12.44.18,1.02.32,2.04.52,3.14.12.71.26,1.45.03,2.06-.14.37-.43.7-.82.97-.39.27-.87.49-1.22.34-.19-.09-.35-.28-.5-.47"/>
  <path class="st0" d="M184.78,30.16c-1.29-.07-2.57-.14-3.86-.23-1.34-.09-2.69-.19-4.03-.29"/>
  <path class="st0" d="M175.69,30.26c.2.12.41.23.62.31.45.17.94.19,1.43.21,2.41.11,4.75.35,7.09.6"/>
  <path class="st0" d="M118.86,29.2c5.59.04,11.18.08,16.77.1,6.51.03,13.03.04,19.54.27,5.01.18,10.02.48,15.04.6,1.83.04,3.65.06,5.47.08"/>
  <path class="st0" d="M172.8,18.94c.62.66,1.24,1.33,1.74,2.08.76,1.14,1.23,2.5,1.59,3.79.32,1.16.56,2.27.78,3.62.07.44.14.91-.04,1.22-.2.34-.69.47-1.19.61"/>
  <path class="st0" d="M185.08,24.37c-.07.16-.16.29-.3.36-.13.06-.3.09-.46.1-.46.04-.89.02-1.32,0-.29-.01-.59-.02-.89-.03"/>
  <path class="st0" d="M187.33,31.48c.08-.11.16-.23.17-.34,0-.13-.09-.27-.19-.4-.71-.98-1.13-1.9-1.57-2.86-.46-.99-.94-2.02-1.42-3.05"/>
  <path class="st0" d="M183.46,20.72c.47,1.14.93,2.29,1.49,3.38.47.92,1,1.81,1.46,2.74.55,1.08,1.01,2.21,1.59,3.28.17.3.35.6.52.9"/>
  <path class="st0" d="M177.83,15.72c.64.66,1.23,1.33,1.63,2.12.35.67.55,1.43.8,2.16.19.56.41,1.11.63,1.66.43,1.08.84,2.18,1.27,3.26.44,1.12.9,2.23,1.56,3.29.48.78,1.07,1.53,1.13,2.4.02.25,0,.51-.03.76"/>
  <path class="st0" d="M177.49,19.33c.92.22,1.84.45,2.77.68"/>
  <line class="st0" x1="120.05" y1="17.64" x2="118.86" y2="17.64"/>
  <path class="st0" d="M118.86,98.52c-.8,0-1.6.01-2.36.2-.51.13-1.01.33-1.44.7-.29.25-.54.58-.57.92-.04.47.37.95.82,1.27.59.41,1.23.53,1.88.61.56.06,1.12.1,1.68.13"/>
  <path class="st0" d="M118.86,98.07c-.59,0-1.18.03-1.77.09-.97.1-1.93.32-2.76.97-.44.35-.83.82-.87,1.29-.05.64.59,1.27,1.23,1.74.9.64,1.82.95,2.79,1.08.45.06.91.08,1.38.08"/>
  <line class="st0" x1="112.53" y1="106.23" x2="112.73" y2="124.82"/>
  <line class="st0" x1="112.52" y1="105.01" x2="112.52" y2="105.01"/>
  <line class="st0" x1="106.41" y1="105.48" x2="108.1" y2="125.79"/>
  <line class="st0" x1="101.47" y1="105.37" x2="103.31" y2="126.1"/>
  <line class="st0" x1="96.73" y1="105.43" x2="98.11" y2="126.17"/>
  <line class="st0" x1="91.98" y1="105.63" x2="93.48" y2="126.02"/>
  <line class="st0" x1="86.52" y1="105.97" x2="88.24" y2="125.62"/>
  <line class="st0" x1="82.07" y1="106.45" x2="83.7" y2="124.58"/>
  <line class="st0" x1="81.97" y1="105.31" x2="81.97" y2="105.32"/>
  <path class="st0" d="M78.65,109.51c.24-.5.49-1.01.83-1.45.6-.75,1.49-1.26,2.42-1.56,1.07-.35,2.19-.4,3.31-.46,2-.11,3.98-.26,5.97-.38,2.69-.16,5.38-.27,8.07-.29,2.66-.03,5.31.03,7.98.13,1.46.05,2.93.12,4.36.46.92.22,1.82.55,2.58,1.1.67.49,1.24,1.16,1.59,1.91.51,1.11.53,2.38.54,3.63,0,2.37-.07,4.62-.14,6.98-.02.85-.05,1.71-.35,2.47-.32.81-.94,1.51-1.67,2.03-.82.58-1.78.91-2.74,1.16-1.73.43-3.5.6-5.27.72-4.45.3-8.91.27-13.33.03-1.91-.1-3.82-.25-5.76-.51-1.11-.15-2.23-.33-3.2-.83-.98-.51-1.82-1.33-2.47-2.26-1.05-1.49-1.63-3.24-2-5.02-.44-2.07-.6-4.18-.67-6.29-.02-.52-.03-1.05-.04-1.57h-.01Z"/>
  <path class="st0" d="M79.25,121.94c-.46-1.44-.93-2.87-1.28-4.33-.52-2.14-.79-4.32-.79-6.59,0-.98.05-1.99.45-2.84.42-.9,1.24-1.64,2.15-2.12,1.48-.8,3.19-.91,4.87-1.03,4.06-.29,7.99-.6,11.99-.76,4.08-.16,8.23-.15,12.27.23,1.28.12,2.55.27,3.84.57,1.16.27,2.34.65,3.16,1.43.82.78,1.29,1.95,1.53,3.11.33,1.6.25,3.18.21,4.76-.03,1.67,0,3.33-.05,5.04-.04,1.26-.12,2.55-.65,3.65-.65,1.34-1.96,2.4-3.37,2.99-1.11.47-2.28.64-3.45.78-2.2.26-4.41.37-6.62.44-3,.1-5.99.11-8.99.08-2.59-.03-5.18-.08-7.76-.54-1.59-.28-3.18-.72-4.54-1.58-.78-.49-1.48-1.12-2.04-1.85-.35-.45-.64-.94-.94-1.43h.01Z"/>
  <line class="st0" x1="112.33" y1="136.72" x2="118.86" y2="133.85"/>
  <line class="st0" x1="107.22" y1="136.71" x2="116.9" y2="131.31"/>
  <line class="st0" x1="101.49" y1="136.75" x2="111.61" y2="131.31"/>
  <line class="st0" x1="97.05" y1="136.79" x2="107.2" y2="131.31"/>
  <line class="st0" x1="91.61" y1="136.79" x2="102.11" y2="131.31"/>
  <line class="st0" x1="87" y1="136.88" x2="96.38" y2="131.3"/>
  <line class="st0" x1="81.66" y1="136.47" x2="91.32" y2="131.3"/>
  <line class="st0" x1="78.73" y1="135.05" x2="85.81" y2="131.3"/>
  <line class="st0" x1="77.21" y1="133.22" x2="80.51" y2="131.3"/>
  <line class="st0" x1="114.54" y1="131.31" x2="118.86" y2="133.85"/>
  <line class="st0" x1="109.06" y1="131.31" x2="118.86" y2="136.83"/>
  <line class="st0" x1="103.42" y1="131.31" x2="113.11" y2="136.72"/>
  <line class="st0" x1="98.39" y1="131.31" x2="108.23" y2="136.71"/>
  <line class="st0" x1="92.86" y1="131.3" x2="102.49" y2="136.74"/>
  <line class="st0" x1="88.4" y1="131.3" x2="97.69" y2="136.78"/>
  <line class="st0" x1="82.06" y1="131.3" x2="92.43" y2="136.8"/>
  <line class="st0" x1="76.45" y1="131.3" x2="87.22" y2="136.87"/>
  <line class="st0" x1="78.36" y1="161.64" x2="85.52" y2="165.04"/>
  <line class="st0" x1="77.54" y1="158.7" x2="90.79" y2="165.05"/>
  <line class="st0" x1="76.79" y1="155.94" x2="96.03" y2="165.08"/>
  <line class="st0" x1="76.14" y1="153.17" x2="101.59" y2="165.12"/>
  <line class="st0" x1="77.11" y1="151.07" x2="107.39" y2="165.14"/>
  <line class="st0" x1="117.56" y1="154.79" x2="118.86" y2="155.1"/>
  <line class="st0" x1="112.55" y1="154.76" x2="118.86" y2="158.18"/>
  <line class="st0" x1="106.41" y1="154.76" x2="118.86" y2="160.74"/>
  <line class="st0" x1="101.32" y1="154.78" x2="118.86" y2="163.55"/>
  <line class="st0" x1="95.79" y1="154.82" x2="117.46" y2="165.16"/>
  <line class="st0" x1="91.28" y1="154.81" x2="112.19" y2="165.15"/>
  <line class="st0" x1="83.7" y1="151.06" x2="89.25" y2="153.81"/>
  <line class="st0" x1="114.15" y1="165.16" x2="118.86" y2="163.55"/>
  <line class="st0" x1="109" y1="165.15" x2="118.86" y2="160.74"/>
  <line class="st0" x1="103.93" y1="165.13" x2="118.86" y2="158.18"/>
  <line class="st0" x1="98.32" y1="165.1" x2="118.86" y2="155.1"/>
  <line class="st0" x1="92.71" y1="165.06" x2="113.91" y2="154.77"/>
  <line class="st0" x1="87.23" y1="165.04" x2="108.98" y2="154.76"/>
  <line class="st0" x1="82.07" y1="164.79" x2="103.29" y2="154.76"/>
  <line class="st0" x1="79.55" y1="163.5" x2="97.94" y2="154.8"/>
  <line class="st0" x1="78.37" y1="161.65" x2="91.94" y2="154.82"/>
  <line class="st0" x1="77.7" y1="159.32" x2="89.25" y2="153.87"/>
  <line class="st0" x1="77.16" y1="157.31" x2="89.26" y2="151.45"/>
  <line class="st0" x1="76.44" y1="154.59" x2="83.67" y2="151.06"/>
  <line class="st0" x1="76.04" y1="152.55" x2="79.06" y2="151.07"/>
  <path class="st0" d="M77.05,151.07c-.25.09-.51.18-.7.36-.11.1-.2.22-.25.36-.14.33-.08.71-.02,1.09.4,2.28,1.07,4.28,1.62,6.45.31,1.24.58,2.55,1.32,3.57.34.46.76.86,1.25,1.17.7.45,1.52.69,2.34.82,1.01.16,2.03.15,3.05.15,3.85-.02,7.69.02,11.54.05,7.22.05,14.43.06,21.65.07"/>
  <path class="st0" d="M89.26,151.06c-4.07,0-8.13,0-12.2.02"/>
  <path class="st0" d="M76.76,150.49c-.47,0-.94,0-1.39.15-.43.14-.86.41-1.08.79-.16.27-.23.59-.25.91-.05.72.15,1.42.34,2.12.47,1.76.84,3.51,1.35,5.23.32,1.07.7,2.13,1.2,3.15.26.53.55,1.05.94,1.46.69.74,1.72,1.17,2.74,1.39,1.05.23,2.1.24,3.16.26,4.4.08,8.81.23,13.23.3,7.3.12,14.58.04,21.86-.06"/>
  <path class="st0" d="M89.25,150.55c-4.16-.02-8.33-.04-12.49-.06"/>
  <line class="st0" x1="60.76" y1="160.18" x2="54.7" y2="163.35"/>
  <line class="st0" x1="58.56" y1="158.58" x2="49.04" y2="163.27"/>
  <line class="st0" x1="52.69" y1="158.53" x2="44.31" y2="163.08"/>
  <line class="st0" x1="46.63" y1="158.47" x2="39.16" y2="162.76"/>
  <line class="st0" x1="42.43" y1="158.47" x2="35.37" y2="161.99"/>
  <line class="st0" x1="37.26" y1="158.52" x2="33.84" y2="160.32"/>
  <line class="st0" x1="58.45" y1="153.21" x2="52.8" y2="156.37"/>
  <line class="st0" x1="55.14" y1="152.28" x2="46.92" y2="156.37"/>
  <line class="st0" x1="50.46" y1="152.22" x2="41.88" y2="156.37"/>
  <line class="st0" x1="45.03" y1="152.18" x2="36.39" y2="156.38"/>
  <line class="st0" x1="32.04" y1="156.08" x2="39.91" y2="152.29"/>
  <line class="st0" x1="31.46" y1="154.3" x2="34.76" y2="152.47"/>
  <line class="st0" x1="54.5" y1="158.55" x2="61.21" y2="161.85"/>
  <line class="st0" x1="48.06" y1="158.48" x2="58.86" y2="163.47"/>
  <line class="st0" x1="42.68" y1="158.47" x2="53.49" y2="163.33"/>
  <line class="st0" x1="37.55" y1="158.53" x2="48.16" y2="163.25"/>
  <line class="st0" x1="33.23" y1="158.45" x2="43.34" y2="163.03"/>
  <line class="st0" x1="31.59" y1="153.23" x2="37.61" y2="156.38"/>
  <line class="st0" x1="35.51" y1="152.45" x2="42.43" y2="156.37"/>
  <line class="st0" x1="40.84" y1="152.25" x2="48.66" y2="156.37"/>
  <line class="st0" x1="59.02" y1="158.58" x2="60.47" y2="159.25"/>
  <line class="st0" x1="45.25" y1="152.18" x2="54.25" y2="156.36"/>
  <line class="st0" x1="50.85" y1="152.23" x2="59.52" y2="156.18"/>
  <path class="st0" d="M32.48,151.73c-.53.03-1.05.06-1.63.08-.37,0-.77,0-1.03.23-.19.15-.3.42-.35.68-.09.45.01.89.1,1.33.1.48.2.96.3,1.44.39,1.72.99,3.39,1.87,4.96.5.9,1.09,1.76,1.88,2.37.87.67,1.97,1.03,3.07,1.28,1.94.42,3.88.48,5.83.57,2.92.13,5.84.35,8.77.51,3.06.17,6.11.27,9.16.37,4.34.15,8.67.32,13.01.48"/>
  <path class="st0" d="M51.62,151.07c-6.38.22-12.76.44-19.13.66"/>
  <line class="st0" x1="61.73" y1="163.19" x2="73.46" y2="166.01"/>
  <path class="st0" d="M32.88,158.44c.29.69.62,1.37,1.04,2.02.42.64.94,1.24,1.57,1.61.85.5,1.92.57,2.96.64,3.71.26,7.2.48,10.75.56,2.78.06,5.59.04,8.41.17.92.04,1.84.1,2.72-.27.29-.12.57-.29.73-.51.3-.44.1-1.1-.08-1.72-.25-.85-.49-1.63-.73-2.37"/>
  <path class="st0" d="M69.01,158.35c.63-.25,1.26-.49,1.39-.72.27-.5-1.73-.95-3.14-1.15-1.13-.16-1.88-.15-2.66-.15-4.5.02-10.04.03-15.33.03-5.69,0-11.09,0-16.49,0"/>
  <path class="st0" d="M32.78,156.38c-.44.06-.88.11-1.28.39-.24.16-.46.41-.46.64,0,.28.31.55.63.73.62.34,1.25.31,1.87.3,1.29-.02,2.6.06,3.91.08,1.66.03,3.3-.03,4.96-.05,2.5-.04,5.01,0,7.52.02,4.55.06,9.1.12,13.65.03,1.81-.04,3.62-.11,5.43-.18"/>
  <path class="st0" d="M56.84,152.3c.33.07.66.13.95.29.35.2.63.54.85.9.53.87.73,1.87.91,2.86"/>
  <path class="st0" d="M32.16,156.48c-.09-.29-.18-.58-.29-.88-.22-.6-.51-1.2-.44-1.84.05-.43.27-.88.61-1.09.33-.21.76-.2,1.19-.19,2.7.03,5.11-.14,7.58-.22,3.85-.13,7.86-.05,11.81,0,1.41.02,2.81.04,4.21.05"/>
  <path class="st0" d="M71.71,166.35c-7.84-.1-15.68-.2-23.52-.3"/>
  <path class="st0" d="M73.93,164.37c.05.28.1.57.05.83-.08.37-.35.71-.67.91-.46.28-1.03.26-1.6.24"/>
  <path class="st0" d="M69.3,151.59c.26.09.52.17.72.33.31.25.44.69.57,1.13.73,2.39,1.48,4.47,2.13,6.68.44,1.51.83,3.07,1.22,4.64"/>
  <path class="st0" d="M51.62,151.07c4.65-.05,9.3-.1,13.93.21,1.25.08,2.5.2,3.75.31"/>
  <path class="st0" d="M31.58,151.08c-1.03-.12-2.16,0-2.75.57-.3.3-.46.71-.52,1.13-.15,1.03.26,2.11.63,3.2.74,2.19,1.27,4.4,2.55,6.31.55.83,1.25,1.6,2.1,2.07.7.39,1.5.57,2.31.71,2.55.46,5.09.57,7.63.71,5.19.28,10.4.65,15.61.86,4.07.16,8.14.22,12.21.27,2.96.04,5.92.07,8.87.1"/>
  <path class="st0" d="M71.65,150.97c-7.8.05-15.6.09-23.41.11-5.56,0-11.11,0-16.67,0"/>
  <path class="st0" d="M41.93,138.8c0-3.09-1.28-4.37-4.37-4.37s-4.37,1.28-4.37,4.37,1.28,4.37,4.37,4.37,4.37-1.28,4.37-4.37Z"/>
  <path class="st0" d="M36.28,132c-1.16.24-2.32.48-3.26,1.12-1,.68-1.74,1.81-2.11,2.99-.31,1-.35,2.02-.26,3.06.1,1.18.38,2.37,1.02,3.34.57.87,1.45,1.56,2.4,2.01.84.39,1.75.6,2.67.72,2.3.31,4.62.14,6.94-.04"/>
  <path class="st0" d="M46.71,131.97c-3.48,0-6.96.02-10.44.03"/>
  <path class="st0" d="M50.27,127.84h-3.95"/>
  <path class="st0" d="M51.54,126.47c.04.16.08.33.06.49-.04.27-.26.51-.51.66-.26.15-.54.18-.82.22"/>
  <path class="st0" d="M49.69,123.98c.11.03.22.06.32.11.22.12.38.34.52.57.38.61.7,1.21,1,1.81"/>
  <path class="st0" d="M43.95,125.17c-.1-.25-.19-.51-.12-.71.08-.22.37-.37.65-.46.4-.12.76-.1,1.13-.08,1.33.06,2.71.06,4.09.06"/>
  <path class="st0" d="M46.33,127.84c-.37-.1-.75-.2-1.05-.38-.71-.44-1.02-1.36-1.33-2.28"/>
  <path class="st0" d="M74.83,146.28c0-1.85-.77-2.62-2.62-2.62s-2.62.77-2.62,2.62.77,2.62,2.62,2.62,2.62-.77,2.62-2.62Z"/>
  <path class="st0" d="M89.25,154.05c.3.25.59.51.93.63.33.12.71.13,1.08.13,3.46.03,6.75,0,10.06-.04,5.78-.04,11.65-.02,17.53.02"/>
  <path class="st0" d="M89.97,140.46c-.19.14-.36.3-.48.5-.21.32-.31.72-.37,1.12-.14.88-.07,1.75-.02,2.61.18,3.1.17,6.23.15,9.36"/>
  <path class="st0" d="M75.35,132.65c.22,1.1.44,2.19.85,3.27.47,1.25,1.18,2.47,2.22,3.24,1.03.77,2.38,1.1,3.71,1.26,1.52.18,3,.13,4.49.09,6.61-.14,13.29.05,19.95.06,4.11,0,8.2-.05,12.3-.12"/>
  <path class="st0" d="M54.4,148.6c.7-.33,1.4-.65,1.99-1.11,1.03-.81,1.7-2.03,2.39-3.21,1.36-2.3,2.79-4.41,4.42-6.46.97-1.22,2.01-2.41,3.28-3.31.92-.65,1.96-1.15,3.04-1.46,1.87-.53,3.86-.47,5.84-.41"/>
  <path class="st0" d="M29.93,162.31c-.52-1.26-1.05-2.53-1.48-3.81-.46-1.37-.81-2.75-1.17-4.2-.25-.99-.5-2.01-.23-2.98.15-.55.47-1.08.91-1.43.86-.7,2.16-.63,3.36-.64,1.23,0,2.36-.09,3.51-.15,4.04-.19,8.24,0,12.38-.12,2.41-.06,4.79-.22,7.18-.38"/>
  <line class="st0" x1="76.45" y1="131.3" x2="118.86" y2="131.31"/>
  <path class="st0" d="M72.59,119.9c.35,1.68.69,3.35,1.12,5.01.41,1.58.89,3.15,1.32,4.71.17.63.34,1.26.51,1.9.39,1.38.83,2.81,1.77,3.84.64.71,1.51,1.24,2.42,1.59,1.18.46,2.43.62,3.68.72,3.45.3,6.9.2,10.34.16,6.43-.06,12.85.11,19.28.14h5.81"/>
  <line class="st0" x1="19.4" y1="129" x2="74.85" y2="129"/>
  <path class="st0" d="M61.19,111.97c0-3.42-1.42-4.84-4.84-4.84s-4.84,1.42-4.84,4.84,1.42,4.84,4.84,4.84,4.84-1.41,4.84-4.84Z"/>
  <path class="st0" d="M54.78,105.47c-6.96,1.68-6.76,11.66.27,13.05,7.02,1.39,11.03-7.75,5.23-11.96"/>
  <path class="st0" d="M46.5,111.34c0-4.21-1.75-5.96-5.96-5.96s-5.96,1.75-5.96,5.96,1.75,5.97,5.96,5.97,5.96-1.75,5.96-5.97Z"/>
  <path class="st0" d="M37.59,103.25c-.9.47-1.78,1-2.57,1.65-1.01.83-1.9,1.87-2.35,3.07-.44,1.15-.48,2.44-.41,3.7.06,1.1.19,2.18.59,3.17.55,1.38,1.62,2.59,2.89,3.4,1.2.77,2.58,1.17,3.99,1.3,1.46.13,2.95-.02,4.28-.59,1.23-.53,2.33-1.4,3.15-2.48.78-1.02,1.31-2.2,1.56-3.45.2-.99.22-2.02.05-3.02-.17-1-.54-1.97-1.05-2.84-.5-.84-1.14-1.58-1.82-2.28-.35-.35-.7-.69-1.06-1.02"/>
  <path class="st0" d="M33.58,120.1c-1.75-.1-3.5-.19-5.15-.72-1.51-.48-2.93-1.32-4.05-2.51-.71-.76-1.3-1.67-1.48-2.66-.18-.94.01-1.95.36-2.86.41-1.08,1.05-2.03,1.74-2.93.76-.98,1.59-1.9,2.56-2.66.71-.55,1.51-1.01,2.34-1.37,1.56-.67,3.24-.98,4.93-1.28"/>
  <path class="st0" d="M34.83,103.11c-1.11,1.04-2.23,2.07-2.96,3.36-.61,1.05-.97,2.27-1.1,3.5-.2,1.79.07,3.6.61,5.29.55,1.69,1.38,3.26,2.2,4.84"/>
  <path class="st0" d="M45.15,122.06c-4.12-.05-8.23-.1-12.47-.2-1.81-.04-3.63-.1-5.28-.72-1.82-.69-3.41-2.08-4.52-3.8-.64-.99-1.11-2.08-1.16-3.19-.04-1.02.27-2.06.68-3.04.8-1.94,1.93-3.67,3.44-5.1,1.37-1.29,3.05-2.32,4.84-2.72,1.34-.3,2.74-.25,4.14-.18,2.69.12,5.34.27,7.98.54,4.6.47,9.19,1.27,13.73,2.15,1.07.21,2.14.42,3.21.65,2.29.47,4.63.97,6.63,2.19,1.37.84,2.59,2.03,3.37,3.41.91,1.59,1.27,3.44,1.84,5.19.3.9.65,1.77.99,2.65.84,2.14,1.59,4.33,2.29,6.52.56,1.77,1.09,3.54,1.72,5.31.25.71.52,1.41.92,2.02.61.91,1.52,1.63,2.52,2.12.75.37,1.55.6,2.36.76,2.35.45,4.79.2,7.2.16.93-.02,1.85,0,2.77,0,4.35.03,8.72-.06,13.08-.08,4.47-.03,8.94,0,13.4.06"/>
  <path class="st0" d="M72.59,119.9c-3.51-.05-7.03-.09-10.52-.04-3.12.04-6.23.16-9.4.16-1.27,0-2.56-.02-3.76.28-1.32.33-2.54,1.04-3.76,1.75"/>
  <path class="st0" d="M69.66,178.32c.83-1.63,1.65-3.26,2.61-4.81.95-1.55,2.03-3.04,3.44-4.25,1.09-.95,2.38-1.73,3.77-2.08,1.26-.32,2.59-.3,3.88-.28,1,.02,1.98.03,2.96.05,5.38.08,10.85.27,16.31.35,5.42.08,10.82.07,16.23.03"/>
  <path class="st0" d="M20.99,157.01c.56,4,1.11,7.99,1.62,12,.19,1.52.37,3.03.94,4.48.63,1.63,1.75,3.17,3.18,4.05,2.22,1.38,5.18,1.12,8,1,3.69-.17,7.12-.12,10.56-.07"/>
  <path class="st0" d="M14.96,81.01c.9,0,1.81,0,2.72-.01,1.21-.03,2.44-.08,3.57.08.33.05.66.11.94.33.5.38.84,1.24,1.07,1.68,0,0,0,.01,0,0"/>
  <path class="st0" d="M15.21,79.21c-.17.05-.35.11-.45.21-.22.23-.09.7.04,1.1.21.65.4,1.14.63,1.64.15.33.32.66.5,1"/>
  <path class="st0" d="M21.84,78.93c-1.17.08-2.34.15-3.51.2-1.04.04-2.09.06-3.13.08"/>
  <path class="st0" d="M21.89,76.47c-.02.82-.04,1.64-.06,2.47"/>
  <path class="st0" d="M27.43,74.78c-1.19.51-2.39,1.03-3.63,1.35-1.18.3-2.4.42-3.62.46-2.04.06-4.08-.12-6.11-.3-4.13-.36-8.26-.7-12.39-1.02"/>
  <path class="st0" d="M22.72,74.73c-.46.22-.91.45-1.39.59-1.06.31-2.22.22-3.36.14-3.94-.29-7.72-.52-11.55-.79-1.6-.11-3.2-.24-4.81-.36"/>
  <path class="st0" d="M24.69,83.68c.21.13.41.25.63.33.32.12.67.17,1.02.21"/>
  <path class="st0" d="M24.92,82.95c.58-1.1,1.16-2.21,1.64-3.35.29-.7.55-1.42.75-2.16.13-.47.24-.96.24-1.44,0-.41-.06-.81-.13-1.21"/>
  <path class="st0" d="M24.92,82.95c-.22.64-.44,1.28-.36,1.98.03.29.11.59.3.78.16.17.41.26.67.32"/>
  <path class="st0" d="M23.27,83.11c.55-.05,1.1-.1,1.65-.16"/>
  <path class="st0" d="M17.77,93.68c.18.07.36.13.5.24.09.07.17.15.24.24"/>
  <path class="st0" d="M19.35,93.12c-.86,1.04-1.72,2.08-2.06,3.3-.18.63-.21,1.32-.25,2"/>
  <path class="st0" d="M17.81,92.34c.51.26,1.03.52,1.54.77"/>
  <path class="st0" d="M20.52,87.81c-.91,1.51-1.81,3.02-2.71,4.54"/>
  <path class="st0" d="M16.66,106.31c1.32-1.9,2.64-3.8,3.78-5.8.71-1.25,1.35-2.54,2.02-3.8,1.17-2.22,2.43-4.39,3.68-6.56"/>
  <path class="st0" d="M26.75,83.35c.46,1.14.91,2.29,1.34,3.44,1.03,2.78,1.94,5.62,3.08,8.36.9,2.18,1.96,4.29,2.95,6.43.24.51.47,1.02.71,1.54"/>
  <path class="st0" d="M54.08,147.19c.57-.22,1.14-.44,1.58-.81.47-.39.8-.94,1.14-1.49,1.1-1.78,2.24-3.44,3.33-5.14,1.02-1.6,2.01-3.25,3.3-4.69.95-1.06,2.06-2,3.33-2.58,1.33-.6,2.84-.78,4.32-.87,1.5-.09,2.97-.08,4.45-.08"/>
  <path class="st0" d="M27.17,157.83c.01-.33.02-.66-.05-.97-.08-.38-.28-.73-.42-1.09-.21-.54-.31-1.12-.37-1.69-.06-.6-.08-1.19-.09-1.79-.01-.5-.02-1,.09-1.5.16-.73.59-1.43,1.16-1.88.93-.74,2.25-.81,3.54-.86,5.06-.19,9.62-.09,14.33-.28,2.87-.12,5.8-.34,8.73-.56"/>
  <path class="st0" d="M20.99,157.01c.24.31.48.63.8.77.27.12.61.12.93.12,1.55,0,3-.04,4.45-.07"/>
  <path class="st0" d="M16.66,106.31c-.64,1.46-1.28,2.93-1.39,4.46-.07.89.05,1.81.16,2.73.46,3.69.93,7.31,1.32,10.95.99,9.02,1.56,18.18,3.18,27.15.32,1.81.69,3.6,1.06,5.41"/>
  <path class="st0" d="M31.77,77.09c-.4.16-.78.33-1.12.57-.81.56-1.39,1.45-1.95,2.31-.54.84-1.06,1.66-1.52,2.52-.46.87-.86,1.77-1.26,2.67-1.62,3.62-3.3,7.19-4.52,10.96-.48,1.48-.89,3-1.48,4.44-.84,2.03-2.05,3.9-3.26,5.76"/>
  <path class="st0" d="M49.14,21.61c-3.29,7.94-6.59,15.89-9.96,23.81-2.45,5.77-4.94,11.53-6.95,17.47-1.4,4.16-2.57,8.4-3.56,12.68-.53,2.3-1.01,4.61-1.49,6.91"/>
  <path class="st0" d="M37.06,79.59c-.42.29-.86.61-1.31.96-.54.41-1.11.88-1.17,1.4-.07.57.46,1.2,1,1.73,1.38,1.35,2.83,2.03,4.1,2.72,3.35,1.81,5.49,3.65,8.95,6.88,3.12,2.9,7.31,6.93,9.66,10.56.57.88,1.03,1.74,1.46,2.61"/>
  <path class="st0" d="M41.76,79.23c2.17,1.22,4.33,2.46,6.47,3.74,3.57,2.14,7.05,4.42,10.48,6.78,3.5,2.4,6.94,4.87,10.28,7.49,2.03,1.59,4.03,3.24,5.96,4.95,1.34,1.18,2.64,2.39,3.95,3.59"/>
  <path class="st0" d="M75.52,77.88c.95.15,1.9.33,2.85.55.97.23,1.93.51,2.8.95,1.65.82,3,2.19,4.2,3.65,2.56,3.08,4.46,6.53,6.26,10.02,1.5,2.91,2.93,5.85,4.36,8.8"/>
  <path class="st0" d="M64.47,65.55c-.31-.12-.62-.25-.79-.48-.2-.25-.23-.62-.26-.98-.1-1.29-.12-2.44-.05-3.62.1-1.73.38-3.5.67-5.25.29-1.73.59-3.43,1.09-5.13.24-.81.52-1.61,1.02-2.27.58-.77,1.46-1.35,2.39-1.67,1.06-.36,2.17-.4,3.28-.42,3.23-.09,6.43-.16,9.6-.06,1.13.04,2.25.1,3.4.26.95.14,1.93.34,2.69.89.6.43,1.06,1.07,1.39,1.76.56,1.18.71,2.48.91,3.77.25,1.6.6,3.16.8,4.76.23,1.76.29,3.57.45,5.28.04.41.08.81.09,1.25.01.55-.03,1.17-.35,1.52-.31.33-.87.42-1.41.48-1.65.18-3.08.1-4.56.06-3.48-.1-7.16,0-10.77.04-1.76.02-3.5.02-5.25-.02-1.43-.03-2.87-.09-4.31-.15l-.03-.02Z"/>
  <path class="st0" d="M52.83,75.39c-.04-.75-.06-1.5,0-2.29.07-1.06.26-2.17.9-2.93.52-.62,1.35-1.02,2.17-1.26.89-.27,1.78-.36,2.66-.45,3.47-.36,6.98-.69,10.49-.86,5.38-.26,10.76-.15,16.14,0,3.33.1,6.66.21,9.98.4,1.28.07,2.55.15,3.8.59.71.25,1.41.61,1.85,1.17.45.57.65,1.33.77,2.08.11.68.16,1.35.18,2.03"/>
  <path class="st0" d="M118.86,31.03c-.7.09-1.39.17-2.04.67-.28.22-.56.51-.53.77.03.29.43.53.79.68.41.17.76.22,1.14.24.21.02.43.02.64.02"/>
  <path class="st0" d="M116.33,42.52c.84,0,1.68,0,2.52,0"/>
  <path class="st0" d="M116.88,45.1c0,.35.04.67.21.92.21.29.6.48.98.58.27.07.53.1.79.1"/>
  <path class="st0" d="M107.43,37.46c-.64.13-1.29.26-1.77.63-.39.3-.66.76-.92,1.22-.64,1.14-1.16,2.27-1.18,3.61,0,.55.07,1.14.38,1.52.41.5,1.22.61,1.98.67,1.67.15,3.11.09,4.59.05,2.71-.06,5.52-.06,8.36-.04"/>
  <path class="st0" d="M114.89,37.39c-2.49.02-4.97.05-7.46.07"/>
  <path class="st0" d="M118.86,31.03c-1.45,0-2.89-.01-3.65.84-.48.55-.67,1.43-.71,2.27-.06,1.3.27,2.46.46,3.65.2,1.2.26,2.42.76,3.61.36.87.94,1.71,1.73,2.06.43.19.91.23,1.42.23"/>
  <path class="st0" d="M52.86,33.48c-.68.22-1.36.43-1.95.78-.95.56-1.72,1.45-2.31,2.41-.51.82-.9,1.68-1.27,2.56-1.11,2.62-2.08,5.32-3.05,8.01-.67,1.85-1.34,3.7-1.98,5.54-1.97,5.73-3.58,11.46-4.97,17.54-.26,1.13-.51,2.27-.16,3.39.26.82.84,1.63,1.6,1.93.45.17.97.17,1.48.16,5.6-.07,10.9-.33,16.26-.57,9.23-.41,18.63-.74,28-.99,11.49-.31,22.92-.49,34.36-.67"/>
  <path class="st0" d="M109.72,31.09c-6.1.11-12.19.21-18.29.37-5.61.15-11.2.36-16.81.58-5.65.22-11.3.46-16.93.96-1.61.15-3.22.31-4.83.48"/>
  <path class="st0" d="M118.86,31.03c-3.05.02-6.09.04-9.14.06"/>
  <path class="st0" d="M112.86,30.4c.06-.17.11-.34.23-.43.12-.1.31-.13.49-.15.96-.1,1.8-.04,2.67-.02.86.02,1.73,0,2.61-.02"/>
  <path class="st0" d="M49.86,32.58c1.42-.05,2.84-.09,4.25-.24,1.8-.19,3.59-.54,5.4-.73,2.29-.25,4.6-.25,6.9-.3,4-.09,7.99-.32,11.98-.51,5.93-.27,11.87-.44,17.81-.49,5.55-.04,11.1.02,16.65.09"/>
  <path class="st0" d="M50.39,31.48c.55.02,1.1.05,1.65,0,.29-.02.57-.06.86-.1"/>
  <path class="st0" d="M49.86,32.58c-.38.17-.76.33-1.05.6-.29.26-.48.63-.68,1-.87,1.65-1.66,3.27-2.39,4.93s-1.39,3.38-2.06,5.08c-1.24,3.15-2.53,6.27-3.67,9.44-.68,1.9-1.3,3.81-1.85,5.76-.42,1.49-.81,2.99-1.23,4.49-.79,2.78-1.72,5.51-2.32,8.36-.28,1.34-.49,2.7-.46,4.05,0,.39.04.77.07,1.16.03.32.06.64.19.94.25.6.88,1.08,1.53,1.22.44.09.88.03,1.32-.02,3.32-.41,6.6-.39,9.9-.46,4.48-.1,8.97-.39,13.46-.63,6.74-.35,13.46-.57,20.2-.74,10.75-.27,21.52-.42,32.27-.59,1.92-.03,3.84-.06,5.77-.09"/>
  <path class="st0" d="M50.39,31.48c-.18,0-.36,0-.51.1-.19.12-.32.41-.27.62.03.15.15.26.26.38"/>
  <path class="st0" d="M50.39,31.48c-.21-.14-.41-.28-.65-.37-.17-.06-.36-.1-.55-.09-.47.01-.92.29-1.31.61-1.62,1.3-2.41,3.18-3.2,5.04-1.44,3.37-2.87,6.66-4.18,10-1.69,4.33-3.17,8.75-4.64,13.23-1.35,4.12-2.7,8.29-3.43,12.44-.18,1.02-.32,2.04-.51,3.14-.12.71-.27,1.45-.04,2.06.15.37.43.7.82.97.39.27.87.49,1.22.34.19-.09.35-.28.5-.47"/>
  <path class="st0" d="M52.94,30.16c1.29-.07,2.57-.14,3.86-.23,1.34-.09,2.69-.19,4.03-.29"/>
  <path class="st0" d="M62.03,30.26c-.2.12-.4.23-.62.31-.45.17-.94.19-1.43.21-2.41.11-4.75.35-7.08.6"/>
  <path class="st0" d="M118.86,29.2c-5.59.04-11.18.08-16.77.1-6.52.03-13.03.04-19.54.27-5.01.18-10.02.48-15.04.6-1.83.04-3.65.06-5.47.08"/>
  <path class="st0" d="M64.92,18.94c-.62.66-1.24,1.33-1.74,2.08-.76,1.14-1.23,2.5-1.59,3.79-.32,1.16-.56,2.27-.78,3.62-.07.44-.14.91.04,1.22.2.34.69.47,1.19.61"/>
  <path class="st0" d="M52.64,24.37c.06.16.16.29.3.36.13.06.3.09.46.1.46.04.88.02,1.32,0,.29-.01.59-.02.89-.03"/>
  <path class="st0" d="M50.39,31.48c-.08-.11-.16-.23-.17-.34,0-.13.09-.27.19-.4.71-.98,1.13-1.9,1.57-2.86.46-.99.94-2.02,1.43-3.05"/>
  <path class="st0" d="M54.26,20.72c-.47,1.14-.93,2.29-1.49,3.38-.47.92-1,1.81-1.47,2.74-.55,1.08-1.01,2.21-1.59,3.28-.17.3-.35.6-.52.9"/>
  <path class="st0" d="M59.9,15.72c-.63.66-1.23,1.33-1.64,2.12-.35.67-.55,1.43-.8,2.16-.2.56-.42,1.11-.63,1.66-.42,1.08-.84,2.18-1.27,3.26-.44,1.12-.9,2.23-1.57,3.29-.48.78-1.07,1.53-1.13,2.4-.02.25,0,.51.03.76"/>
  <path class="st0" d="M60.22,19.33c-.92.22-1.84.45-2.76.68"/>
  <line class="st0" x1="117.66" y1="17.64" x2="118.86" y2="17.64"/>
  <path class="st0" d="M118.86,98.07c.59,0,1.18.03,1.77.09.97.1,1.93.32,2.76.97.44.35.83.82.87,1.29.05.64-.59,1.27-1.23,1.74-.9.64-1.82.95-2.79,1.08-.45.06-.92.08-1.38.08"/>
</svg>